<?xml version="1.0" encoding="utf-8"?>
<!-- Generator: Adobe Illustrator 16.0.0, SVG Export Plug-In . SVG Version: 6.00 Build 0)  -->
<!DOCTYPE svg PUBLIC "-//W3C//DTD SVG 1.1//EN" "http://www.w3.org/Graphics/SVG/1.1/DTD/svg11.dtd">
<svg version="1.1" id="Layer_1" xmlns="http://www.w3.org/2000/svg" xmlns:xlink="http://www.w3.org/1999/xlink" x="0px" y="0px"
	 width="140px" height="140px" viewBox="0 0 140 140" style="enable-background:new 0 0 140 140;" xml:space="preserve">
<style type="text/css">
<![CDATA[
	.st0{fill:#7A62F4;}
	.st1{fill:#7A8A91;}
	.st2{fill:#AA3154;}
	.st3{fill:#474B4F;}
	.st4{fill:#474C51;}
	.st5{fill:#477184;}
	.st6{fill:#AA8D5E;}
	.st7{fill:#AAF789;}
	.st8{fill:#7BE6FF;}
	.st9{fill:#7C66D8;}
	.st10{fill:#7CC0D8;}
	.st11{fill:#495359;}
	.st12{fill:#49DB7A;}
	.st13{fill:#49E500;}
	.st14{fill:#7DA8AA;}
	
		.st15{fill:none;stroke:#7C9199;stroke-width:3;stroke-linecap:round;stroke-linejoin:round;stroke-miterlimit:10;stroke-dasharray:5;}
	.st16{fill:#AD9F7F;}
	.st17{fill:none;stroke:#D3ECEF;stroke-linecap:round;stroke-linejoin:round;stroke-miterlimit:10;}
	.st18{fill:none;stroke:#C42323;stroke-width:3;stroke-linecap:round;stroke-linejoin:round;stroke-miterlimit:10;}
	.st19{fill:#AE52FF;}
	.st20{fill:#10DEF9;}
	.st21{fill:none;stroke:#267DC4;stroke-width:3;stroke-linecap:round;stroke-linejoin:round;stroke-miterlimit:10;}
	.st22{fill:#1162BA;}
	.st23{fill:#E02F2F;}
	.st24{fill:#E05368;}
	.st25{fill:#AFBFCE;}
	.st26{fill:#AFC8DD;}
	.st27{fill:#E0CC77;}
	.st28{fill:#1247B2;}
	.st29{fill:#E0DECE;}
	.st30{fill:#E0FF9C;}
	.st31{fill:none;stroke:#E21A32;stroke-linecap:round;stroke-linejoin:round;stroke-miterlimit:10;}
	.st32{fill:#13D626;}
	.st33{fill:#E2823B;}
	.st34{fill:#1462EF;}
	.st35{fill:#14B0ED;}
	.st36{fill:#1576EA;}
	.st37{fill:#15BDFF;}
	.st38{fill:#1613A5;}
	.st39{fill:#4A5056;}
	.st40{fill:#E55166;}
	.st41{fill:#E55A6B;}
	.st42{fill:#E56171;}
	.st43{fill:none;stroke:#79CC7E;stroke-width:2;stroke-linecap:round;stroke-linejoin:round;stroke-miterlimit:10;}
	.st44{fill:#4B6466;}
	.st45{opacity:0.4;fill:#79CC7E;}
	.st46{fill:#E6F1F4;}
	.st47{fill:#E6F2FC;}
	.st48{fill:#4C6362;}
	.st49{fill:#18AA67;}
	.st50{fill:#4D4D91;}
	.st51{fill:#4D575B;}
	.st52{fill:#E88E0C;}
	.st53{fill:#4DADCE;}
	.st54{fill:#E8E8E8;}
	.st55{opacity:0.3;fill:#9AA5A4;}
	.st56{fill:#80C3FF;}
	.st57{fill:#B066FF;}
	.st58{fill:#818F91;}
	.st59{fill:#B0D1D6;}
	.st60{fill:#B1DBDD;}
	.st61{fill:#B2104E;}
	.st62{fill:none;stroke:#FCFAE8;stroke-width:3;stroke-linecap:round;stroke-linejoin:round;stroke-miterlimit:10;}
	.st63{fill:#B2D1C7;}
	.st64{fill:#83ED3E;}
	.st65{fill:#83ED88;}
	.st66{fill:#8461BC;}
	.st67{fill:#84692C;}
	.st68{fill:#B3C9E2;}
	.st69{fill:none;stroke:#ED8700;stroke-width:3;stroke-linecap:round;stroke-linejoin:round;}
	.st70{fill:none;stroke:#64E2DC;stroke-width:3;stroke-linecap:round;stroke-linejoin:round;stroke-miterlimit:10;}
	.st71{fill:none;stroke:#33363A;stroke-width:3;stroke-linecap:round;stroke-linejoin:round;stroke-miterlimit:10;}
	.st72{fill:none;stroke:#33363A;stroke-width:4;stroke-linecap:round;stroke-linejoin:round;stroke-miterlimit:10;}
	.st73{fill:#85A7A8;}
	.st74{fill:#85C606;}
	.st75{fill:none;stroke:#33363A;stroke-width:5;stroke-linecap:round;stroke-linejoin:round;stroke-miterlimit:10;}
	.st76{fill:#86B2A2;}
	.st77{fill:#EA3D6A;}
	.st78{fill:#875835;}
	.st79{fill:#EA9706;}
	.st80{fill:#1C19AF;}
	.st81{fill:#EAAA0A;}
	.st82{fill:#EABC73;}
	.st83{fill:#EADFB2;}
	.st84{fill:#EAE4BE;}
	.st85{fill:#EAF2F9;}
	.st86{fill:#B7883D;}
	.st87{fill:#1CE5C3;}
	.st88{fill:#1CE8E3;}
	.st89{fill:#B7F467;}
	.st90{fill:none;stroke:#36B0CC;stroke-width:3;stroke-linecap:round;stroke-linejoin:round;stroke-miterlimit:10;}
	.st91{fill:#EBEDD3;}
	.st92{fill:none;stroke:#FFB000;stroke-width:3;stroke-linecap:round;stroke-linejoin:round;stroke-dasharray:8.2755,8.2755;}
	.st93{fill:#1DA834;}
	.st94{fill:#1DC8CC;}
	.st95{fill:#8957CE;}
	.st96{fill:#B8D3D1;}
	.st97{fill:#89A3A3;}
	.st98{fill:#1E91F9;}
	.st99{fill:#B969FF;}
	.st100{fill:#1EA6E2;}
	.st101{fill:#FFFFFF;stroke:#FFFFFF;stroke-width:2;stroke-linecap:round;stroke-linejoin:round;stroke-miterlimit:10;}
	.st102{fill:#ED4706;}
	.st103{fill:#EDA411;}
	.st104{fill:#EDDE88;}
	.st105{fill:#EDF4F4;}
	.st106{fill:#5050E2;}
	.st107{fill:#1FADE5;}
	.st108{enable-background:new    ;}
	.st109{fill:#EF4D4D;}
	.st110{fill:#EF6F7B;}
	.st111{fill:#EF9681;}
	.st112{fill:#EFA37D;}
	.st113{fill:#EFB289;}
	.st114{fill:#EFBD59;}
	.st115{fill:#EFCA0F;}
	.st116{fill:#EFEFDF;}
	.st117{fill:#526163;}
	.st118{fill:#529E54;}
	.st119{fill:#52C408;}
	.st120{fill:#5351B7;}
	.st121{fill:none;stroke:#EBEDD3;stroke-linecap:round;stroke-linejoin:round;stroke-miterlimit:10;}
	.st122{fill:#555D60;}
	.st123{fill:#55DBFF;}
	.st124{fill:none;stroke:#FFEF5A;stroke-width:2;stroke-linecap:round;stroke-linejoin:round;stroke-miterlimit:10;}
	.st125{fill:none;stroke:#FFEF5A;stroke-width:4;stroke-linecap:round;stroke-linejoin:round;stroke-miterlimit:10;}
	.st126{fill:none;stroke:#536B7C;stroke-width:3;stroke-linecap:round;stroke-linejoin:round;stroke-miterlimit:10;}
	.st127{fill:#8A9199;}
	.st128{fill:#8A998A;}
	.st129{fill:#8CE5E2;}
	.st130{fill:#BC3150;}
	.st131{fill:#595F66;}
	.st132{fill:#BC8B4B;}
	.st133{fill:#8DABC9;}
	.st134{fill:#8E7EED;}
	.st135{fill:#8EC1C1;}
	.st136{fill:#20BCF2;}
	.st137{fill:#8F56D8;}
	.st138{fill:#BEDD05;}
	.st139{fill:none;stroke:#EAD7FF;stroke-width:3;stroke-linecap:round;stroke-linejoin:round;stroke-miterlimit:10;}
	.st140{fill:#2178F7;}
	.st141{fill:#219B1E;}
	.st142{fill:#BF76FF;}
	.st143{fill:none;stroke:#88CCFF;stroke-width:3;stroke-linecap:round;stroke-linejoin:round;stroke-miterlimit:10;}
	.st144{fill:#22A1EF;}
	.st145{fill:#237AF9;}
	.st146{fill:#F2790C;}
	.st147{fill:#246DED;}
	.st148{fill:#F3FAFF;}
	.st149{fill:#25C10A;}
	.st150{fill:#F42535;}
	.st151{fill:#F4921E;}
	.st152{fill:#F4AB0B;}
	.st153{fill:#F4F3E9;}
	.st154{fill:#5A5F63;}
	.st155{fill:#26A3F7;}
	.st156{fill:#F5FEFF;}
	.st157{fill:#277AF4;}
	.st158{fill:#2792F4;}
	.st159{fill:#279377;}
	.st160{fill:#27C927;}
	.st161{fill:#5C2DE0;}
	.st162{fill:#F7441C;}
	.st163{fill:#F7910B;}
	.st164{fill:#F79E00;}
	.st165{fill:none;stroke:#FFB000;stroke-width:3;stroke-linecap:round;stroke-linejoin:round;}
	.st166{fill:#5D3EDD;}
	.st167{fill:#29CDFF;}
	.st168{fill:#5E6870;}
	.st169{fill:#F9A858;}
	.st170{fill:#F9C19B;}
	.st171{fill:#F9E446;}
	.st172{fill:#5F666B;}
	.st173{fill:#5FCE96;}
	.st174{fill:#90B2B1;}
	.st175{fill:#91EA57;}
	.st176{fill:#C11E5C;}
	.st177{fill:#C14830;}
	.st178{fill:#C17E25;}
	.st179{fill:#C1B995;}
	.st180{fill:#C1BFA7;}
	.st181{fill:none;stroke:#F9EF95;stroke-width:3;stroke-linecap:round;stroke-linejoin:round;stroke-miterlimit:10;}
	.st182{fill:#92E0FF;}
	.st183{fill:#92FC6B;}
	.st184{fill:#C28AE2;}
	.st185{fill:#939DA3;}
	.st186{fill:#C3D8D6;}
	.st187{fill:#C3DFE0;}
	.st188{fill:#C42323;}
	.st189{fill:#C4415B;}
	.st190{fill:#C480FF;}
	.st191{fill:#95AF68;}
	.st192{fill:#2A8BF4;}
	.st193{fill:#2AAD2A;}
	.st194{fill:#C5E3EA;}
	.st195{fill:#C63C4D;}
	.st196{fill:#C67A6D;}
	.st197{fill:#C6BA9B;}
	.st198{fill:#FC4259;}
	.st199{fill:#FC90A2;}
	.st200{fill:#C8DBDB;}
	.st201{fill:#FCC322;}
	.st202{fill:#FCDECA;}
	.st203{fill:#FCF8E6;}
	.st204{fill:#2E6ECC;}
	.st205{fill:#FCFCB9;}
	.st206{fill:none;stroke:#FFB000;stroke-width:3;stroke-linecap:round;stroke-linejoin:round;stroke-dasharray:8.028,8.028;}
	.st207{fill:#C9E1F2;}
	.st208{fill:#FDFFFF;}
	.st209{fill:#FF315D;}
	.st210{fill:#FF3636;}
	.st211{fill:#FF4800;}
	.st212{fill:#FF502E;}
	.st213{fill:#FF5B00;}
	.st214{fill:#FF647E;}
	.st215{fill:#FF6B06;}
	.st216{fill:#FF7639;}
	.st217{fill:#FF7892;}
	.st218{fill:#FF7900;}
	.st219{fill:#FF8103;}
	.st220{fill:#FF8500;}
	.st221{fill:#FF9100;}
	.st222{fill:#FF9700;}
	.st223{fill:#FF9E12;}
	.st224{fill:#61BBFF;}
	.st225{fill:#FFA300;}
	.st226{fill:#FFAA00;}
	.st227{fill:#FFABBF;}
	.st228{fill:#FFB000;}
	.st229{fill:#FFB206;}
	.st230{fill:#FFBC00;}
	.st231{fill:#FFBF31;}
	.st232{fill:#FFC1AE;}
	.st233{fill:#FFC200;}
	.st234{fill:#FFC757;}
	.st235{fill:#FFC817;}
	.st236{fill:#FFCE00;}
	.st237{fill:#FFD243;}
	.st238{fill:#FFD400;}
	.st239{fill:#FFD833;}
	.st240{fill:#FFD9C0;}
	.st241{fill:#FFDC10;}
	.st242{fill:#FFDE52;}
	.st243{fill:#FFE108;}
	.st244{fill:#FFE10B;}
	.st245{fill:#FFE31A;}
	.st246{fill:#FFE448;}
	.st247{fill:#FFE8C2;}
	.st248{fill:#FFE98F;}
	.st249{fill:#FFEB5A;}
	.st250{fill:#FFEDA1;}
	.st251{fill:#FFF19C;}
	.st252{fill:#FFF6E1;}
	.st253{fill:#FFF87B;}
	.st254{fill:#FFF8C7;}
	.st255{fill:#FFFCEE;}
	.st256{fill:#FFFFFF;}
	.st257{fill:#62CEDD;}
	.st258{fill:#636E72;}
	.st259{fill:none;stroke:#DDAC24;stroke-width:2;stroke-linecap:round;stroke-linejoin:round;stroke-miterlimit:10;}
	.st260{fill:#64BDFF;}
	.st261{fill:#64E2DC;}
	.st262{fill:none;stroke:#33363A;stroke-linecap:round;stroke-linejoin:round;stroke-miterlimit:10;}
	.st263{fill:#66797F;}
	.st264{fill:none;stroke:#EBC0F9;stroke-width:3;stroke-linecap:round;stroke-linejoin:round;stroke-miterlimit:10;}
	.st265{fill:#9AC1C1;}
	.st266{fill:#676E72;}
	.st267{fill:#677F7F;}
	.st268{fill:#678B99;}
	.st269{fill:#9B0751;}
	.st270{fill:#9B6743;}
	.st271{fill:#9B7335;}
	.st272{fill:none;stroke:#E0FF9C;stroke-width:3;stroke-linecap:round;stroke-linejoin:round;stroke-miterlimit:10;}
	.st273{fill:#CAD7E5;}
	.st274{fill:#CAE5E3;}
	.st275{fill:none;stroke:#FFD815;stroke-width:3;stroke-linecap:round;stroke-linejoin:round;stroke-miterlimit:10;}
	.st276{fill:none;stroke:#64C0F9;stroke-width:3;stroke-linecap:round;stroke-linejoin:round;stroke-miterlimit:10;}
	.st277{fill:#68B6DD;}
	.st278{fill:#CC445B;}
	.st279{fill:none;stroke:#66A8F7;stroke-width:3;stroke-linecap:round;stroke-linejoin:round;stroke-miterlimit:10;}
	.st280{fill:#9D67C1;}
	.st281{fill:#CCFFFF;}
	.st282{fill:#9DC0C4;}
	.st283{fill:#9E2323;}
	.st284{fill:#9E45DD;}
	.st285{fill:#CDDEE0;}
	.st286{fill:#309FD6;}
	.st287{fill:none;stroke:#ED8700;stroke-width:3;stroke-linecap:round;stroke-linejoin:round;stroke-dasharray:7.7039,7.7039;}
	.st288{fill:#CE4313;}
	.st289{fill:#CEA255;}
	.st290{fill:#9FC1B5;}
	.st291{fill:#3131DD;}
	.st292{fill:#33363A;}
	.st293{fill:#334746;}
	.st294{fill:#3380CC;}
	.st295{fill:#34C166;}
	.st296{fill:#363B3F;}
	.st297{fill:#6A797C;}
	.st298{fill:#33363A;stroke:#33363A;stroke-width:3;stroke-linecap:round;stroke-linejoin:round;stroke-miterlimit:10;}
	.st299{fill:#6C85FF;}
	.st300{opacity:0.2;fill:#3C8DA0;}
	.st301{fill:none;stroke:#5F6266;stroke-width:3;stroke-linecap:round;stroke-linejoin:round;stroke-miterlimit:10;}
	.st302{fill:#00ADDB;}
	.st303{fill:#6F898C;}
	.st304{fill:#6FAF00;}
	.st305{fill:#D0D8CA;}
	.st306{fill:#D0E0EA;}
	.st307{fill:#D0E2F4;}
	.st308{fill:none;stroke:#FFB000;stroke-width:3;stroke-linecap:round;stroke-linejoin:round;stroke-dasharray:7.8476,7.8476;}
	.st309{fill:none;stroke:#33363A;stroke-width:10;stroke-linecap:round;stroke-linejoin:round;stroke-miterlimit:10;}
	.st310{fill:#04968E;}
	.st311{fill:#D30B49;}
	.st312{fill:#D31818;}
	.st313{fill:#D34624;}
	.st314{fill:#D39F1E;}
	.st315{fill:#D3D1C1;}
	.st316{fill:#D3DADD;}
	.st317{fill:#D3E5EA;}
	.st318{fill:#055E6D;}
	.st319{fill:#059CE8;}
	.st320{fill:#064E7F;}
	.st321{fill:#066782;}
	.st322{fill:#07563C;}
	.st323{fill:#D5E2CC;}
	.st324{fill:#3B4244;}
	.st325{fill:#D60024;}
	.st326{fill:#D6702B;}
	.st327{fill:#D68967;}
	.st328{fill:#D6A545;}
	.st329{fill:#D6CB9D;}
	.st330{fill:#3C4044;}
	.st331{fill:#08BC26;}
	.st332{fill:#097F2A;}
	.st333{fill:none;stroke:#FFAB94;stroke-width:4;stroke-linecap:round;stroke-linejoin:round;stroke-miterlimit:10;}
	.st334{fill:#3D5957;}
	.st335{fill:#3D99F4;}
	.st336{fill:#D8235F;}
	.st337{fill:#D83055;}
	.st338{fill:#D83563;}
	.st339{fill:#D83705;}
	.st340{fill:#D8533D;}
	.st341{fill:#D8D7C0;}
	.st342{fill:#3E9FF7;}
	.st343{fill:#D9F0F4;}
	.st344{fill:#705622;}
	.st345{fill:#70D63A;}
	.st346{fill:#A03F25;}
	.st347{fill:#A07F3C;}
	.st348{opacity:0.6;fill:#2670BF;}
	.st349{fill:#A0BAB9;}
	.st350{fill:#A197FC;}
	.st351{fill:#727B84;}
	.st352{fill:#A1C6C6;}
	.st353{fill:#A23FE8;}
	.st354{fill:#737F73;}
	.st355{fill:#73F4B3;}
	.st356{fill:#A31153;}
	.st357{fill:#748C4F;}
	.st358{fill:#749997;}
	.st359{fill:#0A7BE2;}
	.st360{fill:#0A8989;}
	.st361{fill:#0A912A;}
	.st362{fill:#0A9B3D;}
	.st363{fill:#0A9DBF;}
	.st364{fill:#A53CEF;}
	.st365{fill:#0ABAEA;}
	.st366{fill:#A5BFBF;}
	.st367{fill:#7799AA;}
	.st368{fill:#77D852;}
	.st369{fill:#0C4ABA;}
	.st370{fill:#DAE5E5;}
	.st371{fill:#0CA813;}
	.st372{fill:#788E8D;}
	.st373{fill:#78CFFF;}
	.st374{fill:#A8273D;}
	.st375{fill:#79CC7E;}
	.st376{fill:#0E48DB;}
	.st377{fill:#DCE7EF;}
	.st378{fill:#0E7F24;}
	.st379{fill:#DDAC24;}
	.st380{fill:#DDC872;}
	.st381{fill:#DDE6E8;}
	.st382{fill:#404449;}
	.st383{fill:#0FA88E;}
	.st384{fill:#DEF21D;}
	.st385{fill:#4120CE;}
	.st386{fill:none;stroke:#CCB13E;stroke-width:3;stroke-linecap:round;stroke-linejoin:round;stroke-miterlimit:10;}
	.st387{fill:#41F7D4;}
	.st388{fill:#DFEDEF;}
	.st389{fill:#DFF4E9;}
	.st390{fill:#DFF7F6;}
	.st391{fill:#42E6EA;}
	.st392{fill:#43474C;}
	.st393{fill:#43B1E8;}
	.st394{fill:#44CC7B;}
	.st395{fill:#45484C;}
	.st396{fill:#454A4F;}
	.st397{fill:#45BA0F;}
	.st398{fill:#45CAFF;}
]]>
</style>
<g>
	<g>
		<path class="st371" d="M110.49,98.043C99.992,84.421,85.884,85.091,70.355,85.091c-15.527,0-29.639-0.67-40.135,12.952
			c10.496,5.923,24.607,22.595,40.135,22.595C85.884,120.638,99.992,103.966,110.49,98.043z"/>
		<path class="st361" d="M70.355,85.091c-15.527,0-29.639-0.67-40.135,12.952c10.496,5.923,24.607,22.595,40.135,22.595"/>
		<path class="st332" d="M74.447,120.575c0.586-0.015,1.18-0.028,1.762-0.052c0.504-0.021,1-0.049,1.502-0.074
			c0.449-0.023,0.898-0.044,1.346-0.07c0.568-0.035,1.127-0.079,1.689-0.121c0.371-0.026,0.742-0.052,1.109-0.083
			c0.607-0.05,1.209-0.112,1.809-0.172c0.311-0.031,0.625-0.06,0.934-0.094c0.643-0.07,1.277-0.15,1.91-0.23
			c0.258-0.033,0.516-0.062,0.775-0.098c0.666-0.091,1.326-0.19,1.984-0.295c0.211-0.033,0.426-0.064,0.639-0.098
			c0.688-0.114,1.365-0.236,2.039-0.363c0.176-0.033,0.352-0.064,0.525-0.098c0.699-0.138,1.391-0.283,2.078-0.436
			c0.141-0.032,0.281-0.062,0.42-0.093c0.709-0.162,1.408-14.729,2.1-14.91c0.115-0.028,0.227-0.058,0.338-0.087
			c0.709-0.188,1.412-0.386,2.105-0.592c0.088-0.025,0.174-0.052,0.26-0.077c0.711-0.216,1.41-0.44,2.102-0.677
			c0.064-0.023,0.133-0.046,0.197-0.067c0.705-0.243,1.398-0.5,2.08-0.765c0.051-0.019,0.096-0.037,0.145-0.057
			c0.697-0.273,1.383-0.558,2.055-0.855c0.031-0.013,0.062-0.027,0.094-0.041c0.684-0.303,1.357-0.619,2.018-0.949
			c0.018-0.01,0.035-0.019,0.053-0.028c0.67-0.337,1.326-0.685,1.969-1.046c0.004-0.002,0.006-0.003,0.008-0.005
			c-1.533-1.991-3.148-3.669-4.828-5.097c-9.828,4.172-22.045,5.835-35.307,5.835c-13.258,0-25.479-1.663-35.307-5.835
			c-1.682,1.428-3.293,3.106-4.828,5.097c0.002,0.002,0.002,0.002,0.004,0.002c0.646,0.364,1.305,0.714,1.979,1.052
			c0.016,0.007,0.031,0.016,0.045,0.023c0.662,0.33,1.334,0.646,2.021,0.951c0.031,0.014,0.062,0.028,0.092,0.041
			c0.672,0.298,1.359,0.58,2.053,0.855c0.051,0.02,0.098,0.038,0.148,0.057c0.68,0.266,1.371,0.519,2.078,0.762
			c0.066,0.023,0.133,0.049,0.201,0.07c0.688,0.236,1.387,0.461,2.096,0.675c0.09,0.027,0.178,0.054,0.266,0.08
			c0.689,0.205-1.486,0.403-0.779,0.59c0.115,0.03,3.109,0.06,3.223,0.09c0.691,0.179-4.373,0.349-3.664,0.509
			c0.143,0.033,0.285,0.064,0.426,0.096c0.686,0.152,7.135,14.694,7.834,14.832c0.174,0.033,0.35,0.064,0.525,0.098
			c0.674,0.127,1.352,0.249,2.037,0.363c0.213,0.033,0.428,0.064,0.641,0.098c0.658,0.104,1.318,0.204,1.984,0.295
			c0.258,0.035,0.518,0.064,0.775,0.098c0.635,0.08,1.268,0.16,1.908,0.23c0.311,0.034,0.625,0.062,0.936,0.094
			c0.6,0.06,1.201,0.122,1.807,0.172c0.367,0.031,0.74,0.057,1.109,0.083c0.562,0.042,1.123,0.086,1.689,0.121
			c0.445,0.026,0.896,0.047,1.346,0.07c0.502,0.025,0.998,0.054,1.504,0.074c0.582,0.022,1.172,0.037,1.76,0.052
			c0.379,0.011,0.758,0.025,1.139,0.033c0.979,0.02,1.963,0.029,2.953,0.029c0.992,0,1.977-0.01,2.955-0.029
			C73.691,120.601,74.068,120.586,74.447,120.575z"/>
		<path class="st322" d="M105.662,92.946c-9.828,4.172-22.045,5.835-35.307,5.835c-13.258,0-25.479-1.663-35.307-5.835
			c-1.682,1.428-3.293,3.106-4.828,5.097c0.002,0.002,0.002,0.002,0.004,0.002c0.646,0.364,1.305,0.714,1.979,1.052
			c0.016,0.007,0.031,0.016,0.045,0.023c0.662,0.33,1.334,0.646,2.021,0.951c0.031,0.014,0.062,0.028,0.092,0.041
			c0.672,0.298,1.359,0.58,2.053,0.855c0.051,0.02,0.098,0.038,0.148,0.057c0.68,0.266,1.371,0.519,2.078,0.762
			c0.066,0.023,0.133,0.049,0.201,0.07c0.688,0.236,1.387,0.461,2.096,0.675c0.09,0.027,0.178,0.054,0.266,0.08
			c0.689,0.205-1.486,0.403-0.779,0.59c0.115,0.03,3.109,0.06,3.223,0.09c0.691,0.179-4.373,0.349-3.664,0.509
			c0.143,0.033,0.285,0.064,0.426,0.096c0.271,0.061,1.443,2.371,2.805,5.15c7.709,1.284,16.904,2.033,26.787,2.033
			c9.625,0,18.596-0.711,26.178-1.934c0.299-3.08,0.596-5.779,0.891-5.856c0.115-0.028,0.227-0.058,0.338-0.087
			c0.709-0.188,1.412-0.386,2.105-0.592c0.088-0.025,0.174-0.052,0.26-0.077c0.711-0.216,1.41-0.44,2.102-0.677
			c0.064-0.023,0.133-0.046,0.197-0.067c0.705-0.243,1.398-0.5,2.08-0.765c0.051-0.019,0.096-0.037,0.145-0.057
			c0.697-0.273,1.383-0.558,2.055-0.855c0.031-0.013,0.062-0.027,0.094-0.041c0.684-0.303,1.357-0.619,2.018-0.949
			c0.018-0.01,0.035-0.019,0.053-0.028c0.67-0.337,1.326-0.685,1.969-1.046c0.004-0.002,0.006-0.003,0.008-0.005
			C108.957,96.052,107.341,94.374,105.662,92.946z"/>
		<path class="st71" d="M110.49,98.043C99.992,84.421,85.884,85.091,70.355,85.091c-15.527,0-29.639-0.67-40.135,12.952
			c10.496,5.923,24.607,22.595,40.135,22.595C85.884,120.638,99.992,103.966,110.49,98.043z"/>
	</g>
	<g>
		<g>
			<g>
				<g>
					<circle class="st81" cx="39.885" cy="70.665" r="15.058"/>
					<path class="st201" d="M39.884,55.609c-7.416,0-13.564,5.366-14.811,12.427c1.246,7.058,7.395,12.425,14.811,12.425
						c7.418,0,13.566-5.367,14.812-12.425C53.451,60.976,47.302,55.609,39.884,55.609z"/>
					<path class="st81" d="M39.884,55.609c8.316,0,15.059,6.741,15.059,15.056c0,8.316-6.742,15.058-15.059,15.058"/>
					<path class="st52" d="M54.875,69.313c-0.043-0.432-0.102-0.857-0.178-1.277c-1.246,7.058-7.395,12.425-14.812,12.425v5.262
						c8.316,0,15.059-6.741,15.059-15.058C54.943,70.209,54.914,69.761,54.875,69.313z"/>
					<circle class="st71" cx="39.885" cy="70.665" r="15.058"/>
					<path class="st71" d="M24.828,70.665c0-8.314,6.742-15.056,15.057-15.056"/>
				</g>
				<path class="st181" d="M29.166,70.763c0-5.919,4.801-10.719,10.719-10.719"/>
				<line class="st181" x1="30.5" y1="74.462" x2="30.5" y2="74.462"/>
			</g>
			<g>
				<g>
					<circle class="st81" cx="70" cy="70.665" r="15.057"/>
					<path class="st201" d="M70,55.609c-7.418,0-13.566,5.366-14.812,12.427C56.433,75.094,62.582,80.461,70,80.461
						c7.416,0,13.566-5.367,14.812-12.425C83.566,60.976,77.416,55.609,70,55.609z"/>
					<path class="st81" d="M70,55.609c8.314,0,15.057,6.741,15.057,15.056c0,8.316-6.742,15.058-15.057,15.058"/>
					<path class="st52" d="M84.988,69.313c-0.043-0.432-0.102-0.857-0.176-1.277C83.566,75.094,77.416,80.461,70,80.461v5.262
						c8.314,0,15.057-6.741,15.057-15.058C85.056,70.209,85.027,69.761,84.988,69.313z"/>
					<circle class="st71" cx="70" cy="70.665" r="15.057"/>
					<path class="st71" d="M54.943,70.665c0-8.314,6.74-15.056,15.057-15.056"/>
				</g>
				<path class="st181" d="M59.279,70.763c0-5.919,4.801-10.719,10.721-10.719"/>
				<line class="st181" x1="60.613" y1="74.462" x2="60.613" y2="74.462"/>
			</g>
			<g>
				<g>
					<circle class="st81" cx="100.114" cy="70.665" r="15.058"/>
					<path class="st201" d="M100.113,55.609c-7.416,0-13.566,5.366-14.812,12.427c1.246,7.058,7.396,12.425,14.812,12.425
						s13.566-5.367,14.812-12.425C113.679,60.976,107.529,55.609,100.113,55.609z"/>
					<path class="st81" d="M100.113,55.609c8.316,0,15.059,6.741,15.059,15.056c0,8.316-6.742,15.058-15.059,15.058"/>
					<path class="st52" d="M115.101,69.313c-0.043-0.432-0.102-0.857-0.176-1.277c-1.246,7.058-7.396,12.425-14.812,12.425v5.262
						c8.316,0,15.059-6.741,15.059-15.058C115.171,70.209,115.142,69.761,115.101,69.313z"/>
					<circle class="st71" cx="100.114" cy="70.665" r="15.058"/>
					<path class="st71" d="M85.056,70.665c0-8.314,6.742-15.056,15.057-15.056"/>
				</g>
				<path class="st181" d="M89.392,70.763c0-5.919,4.801-10.719,10.721-10.719"/>
				<line class="st181" x1="90.728" y1="74.462" x2="90.728" y2="74.462"/>
			</g>
		</g>
		<g>
			<g>
				<g>
					<circle class="st81" cx="54.942" cy="79.3" r="15.058"/>
					<path class="st201" d="M54.943,64.243c-7.418,0-13.566,5.366-14.812,12.426c1.246,7.059,7.395,12.426,14.812,12.426
						c7.416,0,13.564-5.367,14.812-12.426C68.507,69.609,62.359,64.243,54.943,64.243z"/>
					<path class="st81" d="M54.943,64.243C63.257,64.243,70,70.985,70,79.3c0,8.316-6.742,15.057-15.057,15.057"/>
					<path class="st52" d="M69.929,77.947c-0.041-0.431-0.1-0.857-0.174-1.278c-1.248,7.059-7.396,12.426-14.812,12.426v5.262
						C63.257,94.356,70,87.616,70,79.3C70,78.844,69.97,78.394,69.929,77.947z"/>
					<circle class="st71" cx="54.942" cy="79.3" r="15.058"/>
					<path class="st71" d="M39.884,79.3c0-8.314,6.742-15.057,15.059-15.057"/>
				</g>
				<path class="st181" d="M44.222,79.397c0-5.92,4.801-10.72,10.721-10.72"/>
				<line class="st181" x1="45.556" y1="83.096" x2="45.556" y2="83.096"/>
			</g>
			<g>
				<g>
					<circle class="st81" cx="85.056" cy="79.3" r="15.057"/>
					<path class="st201" d="M85.056,64.243c-7.418,0-13.566,5.366-14.812,12.426c1.246,7.059,7.395,12.426,14.812,12.426
						c7.416,0,13.566-5.367,14.812-12.426C98.623,69.609,92.472,64.243,85.056,64.243z"/>
					<path class="st81" d="M85.056,64.243c8.316,0,15.057,6.742,15.057,15.057c0,8.316-6.74,15.057-15.057,15.057"/>
					<path class="st52" d="M100.044,77.947c-0.043-0.431-0.102-0.857-0.176-1.278c-1.246,7.059-7.396,12.426-14.812,12.426v5.262
						c8.316,0,15.057-6.74,15.057-15.057C100.113,78.844,100.083,78.394,100.044,77.947z"/>
					<circle class="st71" cx="85.056" cy="79.3" r="15.057"/>
					<path class="st71" d="M70,79.3c0-8.314,6.74-15.057,15.057-15.057"/>
				</g>
				<path class="st181" d="M74.337,79.397c0-5.92,4.799-10.72,10.719-10.72"/>
				<line class="st181" x1="75.671" y1="83.096" x2="75.671" y2="83.096"/>
			</g>
		</g>
		<g>
			<g>
				<g>
					<circle class="st81" cx="70" cy="59.515" r="15.057"/>
					<path class="st201" d="M70,44.459c-7.418,0-13.566,5.366-14.812,12.427C56.433,63.942,62.582,69.31,70,69.31
						c7.416,0,13.566-5.367,14.812-12.424C83.566,49.825,77.416,44.459,70,44.459z"/>
					<path class="st81" d="M70,44.459c8.314,0,15.057,6.741,15.057,15.056c0,8.316-6.742,15.059-15.057,15.059"/>
					<path class="st52" d="M84.988,58.163c-0.043-0.432-0.102-0.857-0.176-1.277C83.566,63.942,77.416,69.31,70,69.31v5.264
						c8.314,0,15.057-6.742,15.057-15.059C85.056,59.059,85.027,58.609,84.988,58.163z"/>
					<circle class="st71" cx="70" cy="59.515" r="15.057"/>
					<path class="st71" d="M54.943,59.515c0-8.314,6.74-15.056,15.057-15.056"/>
				</g>
				<path class="st181" d="M59.279,59.613c0-5.92,4.801-10.72,10.721-10.72"/>
				<line class="st181" x1="60.613" y1="63.312" x2="60.613" y2="63.312"/>
			</g>
		</g>
	</g>
	<g>
		<g>
			<g>
				<g>
					<circle class="st81" cx="39.885" cy="53.459" r="15.058"/>
					<path class="st201" d="M39.884,38.403c-7.416,0-13.564,5.367-14.811,12.426c1.246,7.059,7.395,12.426,14.811,12.426
						c7.418,0,13.566-5.367,14.812-12.426C53.451,43.771,47.302,38.403,39.884,38.403z"/>
					<path class="st81" d="M39.884,38.403c8.316,0,15.059,6.741,15.059,15.056c0,8.316-6.742,15.058-15.059,15.058"/>
					<path class="st52" d="M54.875,52.107c-0.043-0.431-0.102-0.857-0.178-1.278c-1.246,7.059-7.395,12.426-14.812,12.426v5.262
						c8.316,0,15.059-6.741,15.059-15.058C54.943,53.003,54.914,52.554,54.875,52.107z"/>
					<circle class="st71" cx="39.885" cy="53.459" r="15.058"/>
					<path class="st71" d="M24.828,53.459c0-8.314,6.742-15.056,15.057-15.056"/>
				</g>
				<path class="st181" d="M29.166,53.558c0-5.92,4.801-10.719,10.719-10.719"/>
				<line class="st181" x1="30.5" y1="57.257" x2="30.5" y2="57.257"/>
			</g>
			<g>
				<g>
					<circle class="st81" cx="70" cy="53.459" r="15.057"/>
					<path class="st201" d="M70,38.403c-7.418,0-13.566,5.367-14.812,12.426C56.433,57.888,62.582,63.255,70,63.255
						c7.416,0,13.566-5.367,14.812-12.426C83.566,43.771,77.416,38.403,70,38.403z"/>
					<path class="st81" d="M70,38.403c8.314,0,15.057,6.741,15.057,15.056c0,8.316-6.742,15.058-15.057,15.058"/>
					<path class="st52" d="M84.988,52.107c-0.043-0.431-0.102-0.857-0.176-1.278C83.566,57.888,77.416,63.255,70,63.255v5.262
						c8.314,0,15.057-6.741,15.057-15.058C85.056,53.003,85.027,52.554,84.988,52.107z"/>
					<circle class="st71" cx="70" cy="53.459" r="15.057"/>
					<path class="st71" d="M54.943,53.459c0-8.314,6.74-15.056,15.057-15.056"/>
				</g>
				<path class="st181" d="M59.279,53.558c0-5.92,4.801-10.719,10.721-10.719"/>
				<line class="st181" x1="60.613" y1="57.257" x2="60.613" y2="57.257"/>
			</g>
			<g>
				<g>
					<circle class="st81" cx="100.114" cy="53.459" r="15.058"/>
					<path class="st201" d="M100.113,38.403c-7.416,0-13.566,5.367-14.812,12.426c1.246,7.059,7.396,12.426,14.812,12.426
						s13.566-5.367,14.812-12.426C113.679,43.771,107.529,38.403,100.113,38.403z"/>
					<path class="st81" d="M100.113,38.403c8.316,0,15.059,6.741,15.059,15.056c0,8.316-6.742,15.058-15.059,15.058"/>
					<path class="st52" d="M115.101,52.107c-0.043-0.431-0.102-0.857-0.176-1.278c-1.246,7.059-7.396,12.426-14.812,12.426v5.262
						c8.316,0,15.059-6.741,15.059-15.058C115.171,53.003,115.142,52.554,115.101,52.107z"/>
					<circle class="st71" cx="100.114" cy="53.459" r="15.058"/>
					<path class="st71" d="M85.056,53.459c0-8.314,6.742-15.056,15.057-15.056"/>
				</g>
				<path class="st181" d="M89.392,53.558c0-5.92,4.801-10.719,10.721-10.719"/>
				<line class="st181" x1="90.728" y1="57.257" x2="90.728" y2="57.257"/>
			</g>
		</g>
		<g>
			<g>
				<g>
					<circle class="st81" cx="54.942" cy="36.546" r="15.058"/>
					<path class="st201" d="M54.943,21.489c-7.418,0-13.566,5.365-14.812,12.426c1.246,7.059,7.395,12.426,14.812,12.426
						c7.416,0,13.564-5.367,14.812-12.426C68.507,26.854,62.359,21.489,54.943,21.489z"/>
					<path class="st81" d="M54.943,21.489C63.257,21.489,70,28.23,70,36.546s-6.742,15.057-15.057,15.057"/>
					<path class="st52" d="M69.929,35.192c-0.041-0.431-0.1-0.857-0.174-1.277c-1.248,7.059-7.396,12.426-14.812,12.426v5.262
						C63.257,51.603,70,44.861,70,36.546C70,36.089,69.97,35.64,69.929,35.192z"/>
					<circle class="st71" cx="54.942" cy="36.546" r="15.058"/>
					<path class="st71" d="M39.884,36.546c0-8.315,6.742-15.057,15.059-15.057"/>
				</g>
				<path class="st181" d="M44.222,36.643c0-5.919,4.801-10.719,10.721-10.719"/>
				<line class="st181" x1="45.556" y1="40.342" x2="45.556" y2="40.342"/>
			</g>
			<g>
				<g>
					<circle class="st81" cx="85.056" cy="36.546" r="15.057"/>
					<path class="st201" d="M85.056,21.489c-7.418,0-13.566,5.365-14.812,12.426c1.246,7.059,7.395,12.426,14.812,12.426
						c7.416,0,13.566-5.367,14.812-12.426C98.623,26.854,92.472,21.489,85.056,21.489z"/>
					<path class="st81" d="M85.056,21.489c8.316,0,15.057,6.741,15.057,15.057s-6.74,15.057-15.057,15.057"/>
					<path class="st52" d="M100.044,35.192c-0.043-0.431-0.102-0.857-0.176-1.277c-1.246,7.059-7.396,12.426-14.812,12.426v5.262
						c8.316,0,15.057-6.741,15.057-15.057C100.113,36.089,100.083,35.64,100.044,35.192z"/>
					<circle class="st71" cx="85.056" cy="36.546" r="15.057"/>
					<path class="st71" d="M70,36.546c0-8.315,6.74-15.057,15.057-15.057"/>
				</g>
				<path class="st181" d="M74.337,36.643c0-5.919,4.799-10.719,10.719-10.719"/>
				<line class="st181" x1="75.671" y1="40.342" x2="75.671" y2="40.342"/>
			</g>
		</g>
	</g>
	<g>
		<g>
			<g>
				<g>
					<circle class="st81" cx="38.167" cy="81.894" r="15.916"/>
					<path class="st201" d="M38.167,65.979c-7.84,0-14.34,5.673-15.658,13.135c1.318,7.461,7.818,13.134,15.658,13.134
						s14.34-5.673,15.658-13.134C52.507,71.651,46.007,65.979,38.167,65.979z"/>
					<path class="st81" d="M38.167,65.979c8.789,0,15.916,7.126,15.916,15.915c0,8.791-7.127,15.916-15.916,15.916"/>
					<path class="st52" d="M54.009,80.464c-0.043-0.455-0.105-0.906-0.184-1.351c-1.318,7.461-7.818,13.134-15.658,13.134v5.562
						c8.789,0,15.916-7.125,15.916-15.916C54.083,81.411,54.054,80.937,54.009,80.464z"/>
					<circle class="st71" cx="38.167" cy="81.894" r="15.916"/>
					<path class="st71" d="M22.251,81.894c0-8.789,7.125-15.915,15.916-15.915"/>
				</g>
				<path class="st181" d="M26.835,81.997c0-6.258,5.074-11.331,11.332-11.331"/>
				<line class="st181" x1="28.246" y1="85.906" x2="28.246" y2="85.906"/>
			</g>
			<g>
				<g>
					<circle class="st81" cx="70" cy="81.894" r="15.916"/>
					<path class="st201" d="M70,65.979c-7.84,0-14.34,5.673-15.658,13.135C55.66,86.574,62.16,92.247,70,92.247
						s14.34-5.673,15.658-13.134C84.339,71.651,77.839,65.979,70,65.979z"/>
					<path class="st81" d="M70,65.979c8.789,0,15.916,7.126,15.916,15.915c0,8.791-7.127,15.916-15.916,15.916"/>
					<path class="st52" d="M85.843,80.464c-0.045-0.455-0.107-0.906-0.186-1.351C84.339,86.574,77.839,92.247,70,92.247v5.562
						c8.789,0,15.916-7.125,15.916-15.916C85.916,81.411,85.886,80.937,85.843,80.464z"/>
					<circle class="st71" cx="70" cy="81.894" r="15.916"/>
					<path class="st71" d="M54.083,81.894c0-8.789,7.125-15.915,15.916-15.915"/>
				</g>
				<path class="st181" d="M58.667,81.997c0-6.258,5.074-11.331,11.332-11.331"/>
				<line class="st181" x1="60.078" y1="85.906" x2="60.078" y2="85.906"/>
			</g>
			<g>
				<g>
					<circle class="st81" cx="101.832" cy="81.894" r="15.916"/>
					<path class="st201" d="M101.832,65.979c-7.84,0-14.34,5.673-15.658,13.135c1.318,7.461,7.818,13.134,15.658,13.134
						s14.34-5.673,15.658-13.134C116.171,71.651,109.671,65.979,101.832,65.979z"/>
					<path class="st81" d="M101.832,65.979c8.791,0,15.916,7.126,15.916,15.915c0,8.791-7.125,15.916-15.916,15.916"/>
					<path class="st52" d="M117.675,80.464c-0.045-0.455-0.107-0.906-0.186-1.351c-1.318,7.461-7.818,13.134-15.658,13.134v5.562
						c8.791,0,15.916-7.125,15.916-15.916C117.748,81.411,117.718,80.937,117.675,80.464z"/>
					<circle class="st71" cx="101.832" cy="81.894" r="15.916"/>
					<path class="st71" d="M85.916,81.894c0-8.789,7.125-15.915,15.916-15.915"/>
				</g>
				<path class="st181" d="M90.5,81.997c0-6.258,5.074-11.331,11.332-11.331"/>
				<line class="st181" x1="91.91" y1="85.906" x2="91.91" y2="85.906"/>
			</g>
		</g>
		<g>
			<g>
				<g>
					<circle class="st81" cx="54.083" cy="52.812" r="15.916"/>
					<path class="st201" d="M54.083,36.896c-7.84,0-14.34,5.673-15.656,13.135c1.316,7.462,7.816,13.135,15.656,13.135
						s14.34-5.673,15.658-13.135C68.423,42.568,61.923,36.896,54.083,36.896z"/>
					<path class="st81" d="M54.083,36.896C62.873,36.896,70,44.022,70,52.812c0,8.791-7.127,15.916-15.916,15.916"/>
					<path class="st52" d="M69.927,51.382c-0.045-0.455-0.107-0.906-0.186-1.352c-1.318,7.462-7.818,13.135-15.658,13.135v5.562
						C62.873,68.728,70,61.603,70,52.812C70,52.329,69.968,51.854,69.927,51.382z"/>
					<circle class="st71" cx="54.083" cy="52.812" r="15.916"/>
					<path class="st71" d="M38.167,52.812c0-8.789,7.125-15.916,15.916-15.916"/>
				</g>
				<path class="st181" d="M42.751,52.915c0-6.258,5.074-11.331,11.332-11.331"/>
				<line class="st181" x1="44.164" y1="56.824" x2="44.164" y2="56.824"/>
			</g>
			<g>
				<g>
					<circle class="st81" cx="85.916" cy="52.812" r="15.916"/>
					<path class="st201" d="M85.916,36.896c-7.84,0-14.34,5.673-15.656,13.135c1.316,7.462,7.816,13.135,15.656,13.135
						s14.34-5.673,15.658-13.135C100.255,42.568,93.755,36.896,85.916,36.896z"/>
					<path class="st81" d="M85.916,36.896c8.789,0,15.916,7.127,15.916,15.916c0,8.791-7.127,15.916-15.916,15.916"/>
					<path class="st52" d="M101.759,51.382c-0.045-0.455-0.107-0.906-0.186-1.352c-1.318,7.462-7.818,13.135-15.658,13.135v5.562
						c8.789,0,15.916-7.125,15.916-15.916C101.832,52.329,101.802,51.854,101.759,51.382z"/>
					<circle class="st71" cx="85.916" cy="52.812" r="15.916"/>
					<path class="st71" d="M70,52.812c0-8.789,7.125-15.916,15.916-15.916"/>
				</g>
				<path class="st181" d="M74.583,52.915c0-6.258,5.074-11.331,11.332-11.331"/>
				<line class="st181" x1="75.996" y1="56.824" x2="75.996" y2="56.824"/>
			</g>
		</g>
		<g>
			<g>
				<g>
					<circle class="st81" cx="70" cy="24.161" r="15.916"/>
					<path class="st201" d="M70,8.245c-7.84,0-14.34,5.674-15.658,13.136C55.66,28.842,62.16,34.516,70,34.516
						s14.34-5.674,15.658-13.135C84.339,13.919,77.839,8.245,70,8.245z"/>
					<path class="st81" d="M70,8.245c8.789,0,15.916,7.127,15.916,15.916c0,8.791-7.127,15.916-15.916,15.916"/>
					<path class="st52" d="M85.843,22.731c-0.045-0.455-0.107-0.906-0.186-1.351C84.339,28.842,77.839,34.516,70,34.516v5.562
						c8.789,0,15.916-7.125,15.916-15.916C85.916,23.679,85.886,23.203,85.843,22.731z"/>
					<circle class="st71" cx="70" cy="24.161" r="15.916"/>
					<path class="st71" d="M54.083,24.161c0-8.789,7.125-15.916,15.916-15.916"/>
				</g>
				<path class="st181" d="M58.667,24.265c0-6.258,5.074-11.33,11.332-11.33"/>
				<line class="st181" x1="60.078" y1="28.174" x2="60.078" y2="28.174"/>
			</g>
		</g>
	</g>
	<g>
		<g>
			<g>
				<circle class="st81" cx="52.056" cy="82.919" r="15.916"/>
				<path class="st201" d="M52.056,67.003c-7.84,0-14.34,5.674-15.658,13.137c1.318,7.461,7.818,13.134,15.658,13.134
					s14.34-5.673,15.658-13.134C66.396,72.677,59.896,67.003,52.056,67.003z"/>
				<path class="st81" d="M52.056,67.003c8.789,0,15.916,7.127,15.916,15.916c0,8.791-7.127,15.916-15.916,15.916"/>
				<path class="st52" d="M67.9,81.489c-0.045-0.455-0.107-0.906-0.186-1.35c-1.318,7.461-7.818,13.134-15.658,13.134v5.562
					c8.789,0,15.916-7.125,15.916-15.916C67.972,82.437,67.943,81.962,67.9,81.489z"/>
				<circle class="st71" cx="52.056" cy="82.919" r="15.916"/>
				<path class="st71" d="M36.14,82.919c0-8.789,7.125-15.916,15.916-15.916"/>
			</g>
			<path class="st181" d="M40.724,83.022c0-6.257,5.074-11.33,11.332-11.33"/>
			<line class="st181" x1="42.134" y1="86.933" x2="42.134" y2="86.933"/>
		</g>
		<g>
			<g>
				<circle class="st81" cx="87.943" cy="82.919" r="15.916"/>
				<path class="st201" d="M87.943,67.003c-7.84,0-14.34,5.674-15.658,13.137c1.318,7.461,7.818,13.134,15.658,13.134
					s14.34-5.673,15.656-13.134C102.283,72.677,95.783,67.003,87.943,67.003z"/>
				<path class="st81" d="M87.943,67.003c8.789,0,15.916,7.127,15.916,15.916c0,8.791-7.127,15.916-15.916,15.916"/>
				<path class="st52" d="M103.787,81.489c-0.045-0.455-0.107-0.906-0.188-1.35c-1.316,7.461-7.816,13.134-15.656,13.134v5.562
					c8.789,0,15.916-7.125,15.916-15.916C103.859,82.437,103.828,81.962,103.787,81.489z"/>
				<circle class="st71" cx="87.943" cy="82.919" r="15.916"/>
				<path class="st71" d="M72.027,82.919c0-8.789,7.125-15.916,15.916-15.916"/>
			</g>
			<path class="st181" d="M76.611,83.022c0-6.257,5.074-11.33,11.332-11.33"/>
			<line class="st181" x1="78.021" y1="86.933" x2="78.021" y2="86.933"/>
		</g>
	</g>
	<g>
		<g>
			<circle class="st81" cx="70" cy="82.919" r="15.916"/>
			<path class="st201" d="M70,67.003c-7.84,0-14.34,5.674-15.658,13.137C55.66,87.601,62.16,93.273,70,93.273
				s14.34-5.673,15.658-13.134C84.339,72.677,77.839,67.003,70,67.003z"/>
			<path class="st81" d="M70,67.003c8.789,0,15.916,7.127,15.916,15.916c0,8.791-7.127,15.916-15.916,15.916"/>
			<path class="st52" d="M85.843,81.489c-0.045-0.455-0.107-0.906-0.186-1.35C84.339,87.601,77.839,93.273,70,93.273v5.562
				c8.789,0,15.916-7.125,15.916-15.916C85.916,82.437,85.886,81.962,85.843,81.489z"/>
			<circle class="st71" cx="70" cy="82.919" r="15.916"/>
			<path class="st71" d="M54.083,82.919c0-8.789,7.125-15.916,15.916-15.916"/>
		</g>
		<path class="st181" d="M58.667,83.022c0-6.257,5.074-11.33,11.332-11.33"/>
		<line class="st181" x1="60.078" y1="86.933" x2="60.078" y2="86.933"/>
	</g>
	<g>
		<g>
			<g>
				<g>
					<path class="st362" d="M19.777,83.964c0,18.443,23.08,47.791,51.553,47.791L19.777,83.964z"/>
					<path class="st160" d="M63.824,126.894L27.283,88.825C32.015,100.354,46.025,123.828,63.824,126.894z"/>
					<path class="st71" d="M19.777,83.964c0,18.443,23.08,47.791,51.553,47.791L19.777,83.964z"/>
				</g>
				<g>
					<path class="st160" d="M120.224,83.964c0,18.443-23.082,47.791-51.553,47.791L120.224,83.964z"/>
					<path class="st362" d="M76.177,126.894l36.543-38.068C107.988,100.354,93.976,123.828,76.177,126.894z"/>
					<path class="st71" d="M120.224,83.964c0,18.443-23.082,47.791-51.553,47.791L120.224,83.964z"/>
				</g>
			</g>
			<g>
				<path class="st362" d="M57.546,99.866c0,6.842,4.855,27.343,12.453,31.348c7.598-4.005,12.457-24.506,12.457-31.348
					c0-6.839-4.859-12.942-12.457-16.947C62.402,86.924,57.546,93.027,57.546,99.866z"/>
				<path class="st160" d="M70,82.919v48.295c7.598-4.005,12.457-24.506,12.457-31.348C82.457,93.027,77.597,86.924,70,82.919z"/>
				<path class="st71" d="M57.546,99.866c0,6.842,4.855,27.343,12.453,31.348c7.598-4.005,12.457-24.506,12.457-31.348
					c0-6.839-4.859-12.942-12.457-16.947C62.402,86.924,57.546,93.027,57.546,99.866z"/>
			</g>
		</g>
	</g>
	<g>
		<g>
			<circle class="st81" cx="70" cy="51.214" r="15.916"/>
			<path class="st201" d="M70,35.299c-7.84,0-14.34,5.673-15.658,13.135C55.66,55.896,62.16,61.568,70,61.568
				s14.34-5.673,15.658-13.135C84.339,40.972,77.839,35.299,70,35.299z"/>
			<path class="st81" d="M70,35.299c8.789,0,15.916,7.126,15.916,15.915c0,8.791-7.127,15.916-15.916,15.916"/>
			<path class="st52" d="M85.843,49.784c-0.045-0.455-0.107-0.906-0.186-1.351C84.339,55.896,77.839,61.568,70,61.568v5.562
				c8.789,0,15.916-7.125,15.916-15.916C85.916,50.731,85.886,50.257,85.843,49.784z"/>
			<circle class="st71" cx="70" cy="51.214" r="15.916"/>
			<path class="st71" d="M54.083,51.214c0-8.789,7.125-15.915,15.916-15.915"/>
		</g>
		<path class="st181" d="M58.667,51.317c0-6.258,5.074-11.33,11.332-11.33"/>
		<line class="st181" x1="60.078" y1="55.228" x2="60.078" y2="55.228"/>
	</g>
</g>
</svg>
