<?xml version="1.0" encoding="utf-8"?>
<!-- Generator: Adobe Illustrator 16.0.0, SVG Export Plug-In . SVG Version: 6.00 Build 0)  -->
<!DOCTYPE svg PUBLIC "-//W3C//DTD SVG 1.1//EN" "http://www.w3.org/Graphics/SVG/1.1/DTD/svg11.dtd">
<svg version="1.1" id="Layer_1" xmlns="http://www.w3.org/2000/svg" xmlns:xlink="http://www.w3.org/1999/xlink" x="0px" y="0px"
	 width="140px" height="140px" viewBox="0 0 140 140" style="enable-background:new 0 0 140 140;" xml:space="preserve">
<style type="text/css">
<![CDATA[
	.st0{fill:#7A62F4;}
	.st1{fill:#7A8A91;}
	.st2{fill:#AA3154;}
	.st3{fill:#474B4F;}
	.st4{fill:#474C51;}
	.st5{fill:#477184;}
	.st6{fill:#AA8D5E;}
	.st7{fill:#AAF789;}
	.st8{fill:#7BE6FF;}
	.st9{fill:#7C66D8;}
	.st10{fill:#7CC0D8;}
	.st11{fill:#495359;}
	.st12{fill:#49DB7A;}
	.st13{fill:#49E500;}
	.st14{fill:#7DA8AA;}
	
		.st15{fill:none;stroke:#7C9199;stroke-width:3;stroke-linecap:round;stroke-linejoin:round;stroke-miterlimit:10;stroke-dasharray:5;}
	.st16{fill:#AD9F7F;}
	.st17{fill:none;stroke:#D3ECEF;stroke-linecap:round;stroke-linejoin:round;stroke-miterlimit:10;}
	.st18{fill:none;stroke:#C42323;stroke-width:3;stroke-linecap:round;stroke-linejoin:round;stroke-miterlimit:10;}
	.st19{fill:#AE52FF;}
	.st20{fill:#10DEF9;}
	.st21{fill:none;stroke:#267DC4;stroke-width:3;stroke-linecap:round;stroke-linejoin:round;stroke-miterlimit:10;}
	.st22{fill:#1162BA;}
	.st23{fill:#E02F2F;}
	.st24{fill:#E05368;}
	.st25{fill:#AFBFCE;}
	.st26{fill:#AFC8DD;}
	.st27{fill:#E0CC77;}
	.st28{fill:#1247B2;}
	.st29{fill:#E0DECE;}
	.st30{fill:#E0FF9C;}
	.st31{fill:none;stroke:#E21A32;stroke-linecap:round;stroke-linejoin:round;stroke-miterlimit:10;}
	.st32{fill:#13D626;}
	.st33{fill:#E2823B;}
	.st34{fill:#1462EF;}
	.st35{fill:#14B0ED;}
	.st36{fill:#1576EA;}
	.st37{fill:#15BDFF;}
	.st38{fill:#1613A5;}
	.st39{fill:#4A5056;}
	.st40{fill:#E55166;}
	.st41{fill:#E55A6B;}
	.st42{fill:#E56171;}
	.st43{fill:none;stroke:#79CC7E;stroke-width:2;stroke-linecap:round;stroke-linejoin:round;stroke-miterlimit:10;}
	.st44{fill:#4B6466;}
	.st45{opacity:0.4;fill:#79CC7E;}
	.st46{fill:#E6F1F4;}
	.st47{fill:#E6F2FC;}
	.st48{fill:#4C6362;}
	.st49{fill:#18AA67;}
	.st50{fill:#4D4D91;}
	.st51{fill:#4D575B;}
	.st52{fill:#E88E0C;}
	.st53{fill:#4DADCE;}
	.st54{fill:#E8E8E8;}
	.st55{opacity:0.3;fill:#9AA5A4;}
	.st56{fill:#80C3FF;}
	.st57{fill:#B066FF;}
	.st58{fill:#818F91;}
	.st59{fill:#B0D1D6;}
	.st60{fill:#B1DBDD;}
	.st61{fill:#B2104E;}
	.st62{fill:none;stroke:#FCFAE8;stroke-width:3;stroke-linecap:round;stroke-linejoin:round;stroke-miterlimit:10;}
	.st63{fill:#B2D1C7;}
	.st64{fill:#83ED3E;}
	.st65{fill:#83ED88;}
	.st66{fill:#8461BC;}
	.st67{fill:#84692C;}
	.st68{fill:#B3C9E2;}
	.st69{fill:none;stroke:#ED8700;stroke-width:3;stroke-linecap:round;stroke-linejoin:round;}
	.st70{fill:none;stroke:#64E2DC;stroke-width:3;stroke-linecap:round;stroke-linejoin:round;stroke-miterlimit:10;}
	.st71{fill:none;stroke:#33363A;stroke-width:3;stroke-linecap:round;stroke-linejoin:round;stroke-miterlimit:10;}
	.st72{fill:none;stroke:#33363A;stroke-width:4;stroke-linecap:round;stroke-linejoin:round;stroke-miterlimit:10;}
	.st73{fill:#85A7A8;}
	.st74{fill:#85C606;}
	.st75{fill:none;stroke:#33363A;stroke-width:5;stroke-linecap:round;stroke-linejoin:round;stroke-miterlimit:10;}
	.st76{fill:#86B2A2;}
	.st77{fill:#EA3D6A;}
	.st78{fill:#875835;}
	.st79{fill:#EA9706;}
	.st80{fill:#1C19AF;}
	.st81{fill:#EAAA0A;}
	.st82{fill:#EABC73;}
	.st83{fill:#EADFB2;}
	.st84{fill:#EAE4BE;}
	.st85{fill:#EAF2F9;}
	.st86{fill:#B7883D;}
	.st87{fill:#1CE5C3;}
	.st88{fill:#1CE8E3;}
	.st89{fill:#B7F467;}
	.st90{fill:none;stroke:#36B0CC;stroke-width:3;stroke-linecap:round;stroke-linejoin:round;stroke-miterlimit:10;}
	.st91{fill:#EBEDD3;}
	.st92{fill:none;stroke:#FFB000;stroke-width:3;stroke-linecap:round;stroke-linejoin:round;stroke-dasharray:8.2755,8.2755;}
	.st93{fill:#1DA834;}
	.st94{fill:#1DC8CC;}
	.st95{fill:#8957CE;}
	.st96{fill:#B8D3D1;}
	.st97{fill:#89A3A3;}
	.st98{fill:#1E91F9;}
	.st99{fill:#B969FF;}
	.st100{fill:#1EA6E2;}
	.st101{fill:#FFFFFF;stroke:#FFFFFF;stroke-width:2;stroke-linecap:round;stroke-linejoin:round;stroke-miterlimit:10;}
	.st102{fill:#ED4706;}
	.st103{fill:#EDA411;}
	.st104{fill:#EDDE88;}
	.st105{fill:#EDF4F4;}
	.st106{fill:#5050E2;}
	.st107{fill:#1FADE5;}
	.st108{enable-background:new    ;}
	.st109{fill:#EF4D4D;}
	.st110{fill:#EF6F7B;}
	.st111{fill:#EF9681;}
	.st112{fill:#EFA37D;}
	.st113{fill:#EFB289;}
	.st114{fill:#EFBD59;}
	.st115{fill:#EFCA0F;}
	.st116{fill:#EFEFDF;}
	.st117{fill:#526163;}
	.st118{fill:#529E54;}
	.st119{fill:#52C408;}
	.st120{fill:#5351B7;}
	.st121{fill:none;stroke:#EBEDD3;stroke-linecap:round;stroke-linejoin:round;stroke-miterlimit:10;}
	.st122{fill:#555D60;}
	.st123{fill:#55DBFF;}
	.st124{fill:none;stroke:#FFEF5A;stroke-width:2;stroke-linecap:round;stroke-linejoin:round;stroke-miterlimit:10;}
	.st125{fill:none;stroke:#FFEF5A;stroke-width:4;stroke-linecap:round;stroke-linejoin:round;stroke-miterlimit:10;}
	.st126{fill:none;stroke:#536B7C;stroke-width:3;stroke-linecap:round;stroke-linejoin:round;stroke-miterlimit:10;}
	.st127{fill:#8A9199;}
	.st128{fill:#8A998A;}
	.st129{fill:#8CE5E2;}
	.st130{fill:#BC3150;}
	.st131{fill:#595F66;}
	.st132{fill:#BC8B4B;}
	.st133{fill:#8DABC9;}
	.st134{fill:#8E7EED;}
	.st135{fill:#8EC1C1;}
	.st136{fill:#20BCF2;}
	.st137{fill:#8F56D8;}
	.st138{fill:#BEDD05;}
	.st139{fill:none;stroke:#EAD7FF;stroke-width:3;stroke-linecap:round;stroke-linejoin:round;stroke-miterlimit:10;}
	.st140{fill:#2178F7;}
	.st141{fill:#219B1E;}
	.st142{fill:#BF76FF;}
	.st143{fill:none;stroke:#88CCFF;stroke-width:3;stroke-linecap:round;stroke-linejoin:round;stroke-miterlimit:10;}
	.st144{fill:#22A1EF;}
	.st145{fill:#237AF9;}
	.st146{fill:#F2790C;}
	.st147{fill:#246DED;}
	.st148{fill:#F3FAFF;}
	.st149{fill:#25C10A;}
	.st150{fill:#F42535;}
	.st151{fill:#F4921E;}
	.st152{fill:#F4AB0B;}
	.st153{fill:#F4F3E9;}
	.st154{fill:#5A5F63;}
	.st155{fill:#26A3F7;}
	.st156{fill:#F5FEFF;}
	.st157{fill:#277AF4;}
	.st158{fill:#2792F4;}
	.st159{fill:#279377;}
	.st160{fill:#27C927;}
	.st161{fill:#5C2DE0;}
	.st162{fill:#F7441C;}
	.st163{fill:#F7910B;}
	.st164{fill:#F79E00;}
	.st165{fill:none;stroke:#FFB000;stroke-width:3;stroke-linecap:round;stroke-linejoin:round;}
	.st166{fill:#5D3EDD;}
	.st167{fill:#29CDFF;}
	.st168{fill:#5E6870;}
	.st169{fill:#F9A858;}
	.st170{fill:#F9C19B;}
	.st171{fill:#F9E446;}
	.st172{fill:#5F666B;}
	.st173{fill:#5FCE96;}
	.st174{fill:#90B2B1;}
	.st175{fill:#91EA57;}
	.st176{fill:#C11E5C;}
	.st177{fill:#C14830;}
	.st178{fill:#C17E25;}
	.st179{fill:#C1B995;}
	.st180{fill:#C1BFA7;}
	.st181{fill:none;stroke:#F9EF95;stroke-width:3;stroke-linecap:round;stroke-linejoin:round;stroke-miterlimit:10;}
	.st182{fill:#92E0FF;}
	.st183{fill:#92FC6B;}
	.st184{fill:#C28AE2;}
	.st185{fill:#939DA3;}
	.st186{fill:#C3D8D6;}
	.st187{fill:#C3DFE0;}
	.st188{fill:#C42323;}
	.st189{fill:#C4415B;}
	.st190{fill:#C480FF;}
	.st191{fill:#95AF68;}
	.st192{fill:#2A8BF4;}
	.st193{fill:#2AAD2A;}
	.st194{fill:#C5E3EA;}
	.st195{fill:#C63C4D;}
	.st196{fill:#C67A6D;}
	.st197{fill:#C6BA9B;}
	.st198{fill:#FC4259;}
	.st199{fill:#FC90A2;}
	.st200{fill:#C8DBDB;}
	.st201{fill:#FCC322;}
	.st202{fill:#FCDECA;}
	.st203{fill:#FCF8E6;}
	.st204{fill:#2E6ECC;}
	.st205{fill:#FCFCB9;}
	.st206{fill:none;stroke:#FFB000;stroke-width:3;stroke-linecap:round;stroke-linejoin:round;stroke-dasharray:8.028,8.028;}
	.st207{fill:#C9E1F2;}
	.st208{fill:#FDFFFF;}
	.st209{fill:#FF315D;}
	.st210{fill:#FF3636;}
	.st211{fill:#FF4800;}
	.st212{fill:#FF502E;}
	.st213{fill:#FF5B00;}
	.st214{fill:#FF647E;}
	.st215{fill:#FF6B06;}
	.st216{fill:#FF7639;}
	.st217{fill:#FF7892;}
	.st218{fill:#FF7900;}
	.st219{fill:#FF8103;}
	.st220{fill:#FF8500;}
	.st221{fill:#FF9100;}
	.st222{fill:#FF9700;}
	.st223{fill:#FF9E12;}
	.st224{fill:#61BBFF;}
	.st225{fill:#FFA300;}
	.st226{fill:#FFAA00;}
	.st227{fill:#FFABBF;}
	.st228{fill:#FFB000;}
	.st229{fill:#FFB206;}
	.st230{fill:#FFBC00;}
	.st231{fill:#FFBF31;}
	.st232{fill:#FFC1AE;}
	.st233{fill:#FFC200;}
	.st234{fill:#FFC757;}
	.st235{fill:#FFC817;}
	.st236{fill:#FFCE00;}
	.st237{fill:#FFD243;}
	.st238{fill:#FFD400;}
	.st239{fill:#FFD833;}
	.st240{fill:#FFD9C0;}
	.st241{fill:#FFDC10;}
	.st242{fill:#FFDE52;}
	.st243{fill:#FFE108;}
	.st244{fill:#FFE10B;}
	.st245{fill:#FFE31A;}
	.st246{fill:#FFE448;}
	.st247{fill:#FFE8C2;}
	.st248{fill:#FFE98F;}
	.st249{fill:#FFEB5A;}
	.st250{fill:#FFEDA1;}
	.st251{fill:#FFF19C;}
	.st252{fill:#FFF6E1;}
	.st253{fill:#FFF87B;}
	.st254{fill:#FFF8C7;}
	.st255{fill:#FFFCEE;}
	.st256{fill:#FFFFFF;}
	.st257{fill:#62CEDD;}
	.st258{fill:#636E72;}
	.st259{fill:none;stroke:#DDAC24;stroke-width:2;stroke-linecap:round;stroke-linejoin:round;stroke-miterlimit:10;}
	.st260{fill:#64BDFF;}
	.st261{fill:#64E2DC;}
	.st262{fill:none;stroke:#33363A;stroke-linecap:round;stroke-linejoin:round;stroke-miterlimit:10;}
	.st263{fill:#66797F;}
	.st264{fill:none;stroke:#EBC0F9;stroke-width:3;stroke-linecap:round;stroke-linejoin:round;stroke-miterlimit:10;}
	.st265{fill:#9AC1C1;}
	.st266{fill:#676E72;}
	.st267{fill:#677F7F;}
	.st268{fill:#678B99;}
	.st269{fill:#9B0751;}
	.st270{fill:#9B6743;}
	.st271{fill:#9B7335;}
	.st272{fill:none;stroke:#E0FF9C;stroke-width:3;stroke-linecap:round;stroke-linejoin:round;stroke-miterlimit:10;}
	.st273{fill:#CAD7E5;}
	.st274{fill:#CAE5E3;}
	.st275{fill:none;stroke:#FFD815;stroke-width:3;stroke-linecap:round;stroke-linejoin:round;stroke-miterlimit:10;}
	.st276{fill:none;stroke:#64C0F9;stroke-width:3;stroke-linecap:round;stroke-linejoin:round;stroke-miterlimit:10;}
	.st277{fill:#68B6DD;}
	.st278{fill:#CC445B;}
	.st279{fill:none;stroke:#66A8F7;stroke-width:3;stroke-linecap:round;stroke-linejoin:round;stroke-miterlimit:10;}
	.st280{fill:#9D67C1;}
	.st281{fill:#CCFFFF;}
	.st282{fill:#9DC0C4;}
	.st283{fill:#9E2323;}
	.st284{fill:#9E45DD;}
	.st285{fill:#CDDEE0;}
	.st286{fill:#309FD6;}
	.st287{fill:none;stroke:#ED8700;stroke-width:3;stroke-linecap:round;stroke-linejoin:round;stroke-dasharray:7.7039,7.7039;}
	.st288{fill:#CE4313;}
	.st289{fill:#CEA255;}
	.st290{fill:#9FC1B5;}
	.st291{fill:#3131DD;}
	.st292{fill:#33363A;}
	.st293{fill:#334746;}
	.st294{fill:#3380CC;}
	.st295{fill:#34C166;}
	.st296{fill:#363B3F;}
	.st297{fill:#6A797C;}
	.st298{fill:#33363A;stroke:#33363A;stroke-width:3;stroke-linecap:round;stroke-linejoin:round;stroke-miterlimit:10;}
	.st299{fill:#6C85FF;}
	.st300{opacity:0.2;fill:#3C8DA0;}
	.st301{fill:none;stroke:#5F6266;stroke-width:3;stroke-linecap:round;stroke-linejoin:round;stroke-miterlimit:10;}
	.st302{fill:#00ADDB;}
	.st303{fill:#6F898C;}
	.st304{fill:#6FAF00;}
	.st305{fill:#D0D8CA;}
	.st306{fill:#D0E0EA;}
	.st307{fill:#D0E2F4;}
	.st308{fill:none;stroke:#FFB000;stroke-width:3;stroke-linecap:round;stroke-linejoin:round;stroke-dasharray:7.8476,7.8476;}
	.st309{fill:none;stroke:#33363A;stroke-width:10;stroke-linecap:round;stroke-linejoin:round;stroke-miterlimit:10;}
	.st310{fill:#04968E;}
	.st311{fill:#D30B49;}
	.st312{fill:#D31818;}
	.st313{fill:#D34624;}
	.st314{fill:#D39F1E;}
	.st315{fill:#D3D1C1;}
	.st316{fill:#D3DADD;}
	.st317{fill:#D3E5EA;}
	.st318{fill:#055E6D;}
	.st319{fill:#059CE8;}
	.st320{fill:#064E7F;}
	.st321{fill:#066782;}
	.st322{fill:#07563C;}
	.st323{fill:#D5E2CC;}
	.st324{fill:#3B4244;}
	.st325{fill:#D60024;}
	.st326{fill:#D6702B;}
	.st327{fill:#D68967;}
	.st328{fill:#D6A545;}
	.st329{fill:#D6CB9D;}
	.st330{fill:#3C4044;}
	.st331{fill:#08BC26;}
	.st332{fill:#097F2A;}
	.st333{fill:none;stroke:#FFAB94;stroke-width:4;stroke-linecap:round;stroke-linejoin:round;stroke-miterlimit:10;}
	.st334{fill:#3D5957;}
	.st335{fill:#3D99F4;}
	.st336{fill:#D8235F;}
	.st337{fill:#D83055;}
	.st338{fill:#D83563;}
	.st339{fill:#D83705;}
	.st340{fill:#D8533D;}
	.st341{fill:#D8D7C0;}
	.st342{fill:#3E9FF7;}
	.st343{fill:#D9F0F4;}
	.st344{fill:#705622;}
	.st345{fill:#70D63A;}
	.st346{fill:#A03F25;}
	.st347{fill:#A07F3C;}
	.st348{opacity:0.6;fill:#2670BF;}
	.st349{fill:#A0BAB9;}
	.st350{fill:#A197FC;}
	.st351{fill:#727B84;}
	.st352{fill:#A1C6C6;}
	.st353{fill:#A23FE8;}
	.st354{fill:#737F73;}
	.st355{fill:#73F4B3;}
	.st356{fill:#A31153;}
	.st357{fill:#748C4F;}
	.st358{fill:#749997;}
	.st359{fill:#0A7BE2;}
	.st360{fill:#0A8989;}
	.st361{fill:#0A912A;}
	.st362{fill:#0A9B3D;}
	.st363{fill:#0A9DBF;}
	.st364{fill:#A53CEF;}
	.st365{fill:#0ABAEA;}
	.st366{fill:#A5BFBF;}
	.st367{fill:#7799AA;}
	.st368{fill:#77D852;}
	.st369{fill:#0C4ABA;}
	.st370{fill:#DAE5E5;}
	.st371{fill:#0CA813;}
	.st372{fill:#788E8D;}
	.st373{fill:#78CFFF;}
	.st374{fill:#A8273D;}
	.st375{fill:#79CC7E;}
	.st376{fill:#0E48DB;}
	.st377{fill:#DCE7EF;}
	.st378{fill:#0E7F24;}
	.st379{fill:#DDAC24;}
	.st380{fill:#DDC872;}
	.st381{fill:#DDE6E8;}
	.st382{fill:#404449;}
	.st383{fill:#0FA88E;}
	.st384{fill:#DEF21D;}
	.st385{fill:#4120CE;}
	.st386{fill:none;stroke:#CCB13E;stroke-width:3;stroke-linecap:round;stroke-linejoin:round;stroke-miterlimit:10;}
	.st387{fill:#41F7D4;}
	.st388{fill:#DFEDEF;}
	.st389{fill:#DFF4E9;}
	.st390{fill:#DFF7F6;}
	.st391{fill:#42E6EA;}
	.st392{fill:#43474C;}
	.st393{fill:#43B1E8;}
	.st394{fill:#44CC7B;}
	.st395{fill:#45484C;}
	.st396{fill:#454A4F;}
	.st397{fill:#45BA0F;}
	.st398{fill:#45CAFF;}
]]>
</style>
<g>
	<g>
		<g>
			<g>
				<path class="st169" d="M43.73,60.711c-12.639,9.601-21.672,5.905-27.949-2.354C9.507,50.096,8.372,40.4,21.008,30.8
					c20.568-15.625,14.18-12.006,26.134,3.731C53.419,42.793,56.367,51.111,43.73,60.711z"/>
				<path class="st33" d="M43.73,60.711c-12.639,9.601-21.672,5.905-27.949-2.354C9.507,50.096,8.372,40.4,21.008,30.8
					c20.57-15.626,8.169-7.439,20.124,8.3C47.406,47.359,56.367,51.111,43.73,60.711z"/>
				<path class="st326" d="M22.321,53.389c-3.985-5.245-5.932-11.041-10.059-12.116c-2.371,6.012-0.465,11.837,3.519,17.085
					c3.985,5.245,9.088,8.644,15.518,7.971C31.367,62.065,26.306,58.635,22.321,53.389z"/>
				<path class="st71" d="M43.73,60.711c-12.639,9.601-21.672,5.905-27.949-2.354C9.507,50.096,8.372,40.4,21.008,30.8
					c20.568-15.625,14.18-12.006,26.134,3.731C53.419,42.793,56.367,51.111,43.73,60.711z"/>
				
					<ellipse transform="matrix(0.6043 0.7967 -0.7967 0.6043 39.6244 -2.9951)" class="st326" cx="22.828" cy="38.396" rx="0.452" ry="0.48"/>
				
					<ellipse transform="matrix(0.6051 0.7962 -0.7962 0.6051 40.2287 -6.0634)" class="st326" cx="26.226" cy="37.518" rx="1.357" ry="1.439"/>
				
					<ellipse transform="matrix(0.6049 0.7963 -0.7963 0.6049 44.0731 -3.9194)" class="st326" cx="25.986" cy="42.456" rx="0.396" ry="0.419"/>
				
					<ellipse transform="matrix(0.6038 0.7971 -0.7971 0.6038 49.1792 -3.5178)" class="st326" cx="28.128" cy="47.714" rx="0.452" ry="0.001"/>
				
					<ellipse transform="matrix(0.6057 0.7957 -0.7957 0.6057 53.2595 -6.9802)" class="st326" cx="33.672" cy="50.246" rx="0.509" ry="0.54"/>
				
					<ellipse transform="matrix(0.605 0.7962 -0.7962 0.605 56.2296 -12.5431)" class="st326" cx="40.757" cy="50.401" rx="1.527" ry="1.618"/>
				
					<ellipse transform="matrix(0.6041 0.7969 -0.7969 0.6041 60.5007 -5.2583)" class="st326" cx="35.543" cy="58.267" rx="0.451" ry="0.479"/>
				
					<ellipse transform="matrix(0.6052 0.796 -0.796 0.6052 49.6391 -11.2898)" class="st326" cx="36.203" cy="44.404" rx="0.238" ry="0.001"/>
				<path class="st326" d="M30.706,32.41c-0.345,0.261-0.819,0.21-1.065-0.113c-0.244-0.323-0.166-0.796,0.176-1.056
					c0.345-0.261,0.821-0.21,1.063,0.113C31.128,31.678,31.049,32.15,30.706,32.41z"/>
				
					<ellipse transform="matrix(0.6043 0.7967 -0.7967 0.6043 40.2173 1.7238)" class="st326" cx="18.373" cy="41.354" rx="0.396" ry="0.42"/>
				
					<ellipse transform="matrix(0.606 0.7955 -0.7955 0.606 36.2233 -6.0511)" class="st326" cx="24.22" cy="33.542" rx="0.595" ry="0.632"/>
				<path class="st326" d="M25.334,51.1c-0.34,0.26-0.813,0.209-1.058-0.112c-0.244-0.319-0.166-0.789,0.177-1.047
					c0.337-0.259,0.812-0.208,1.056,0.112C25.751,50.373,25.674,50.842,25.334,51.1z"/>
				
					<ellipse transform="matrix(0.6049 0.7963 -0.7963 0.6049 57.7706 -0.9225)" class="st326" cx="29.815" cy="57.756" rx="0.763" ry="0.809"/>
				
					<ellipse transform="matrix(0.6046 0.7965 -0.7965 0.6046 62.5205 -8.7099)" class="st326" cx="40.033" cy="58.618" rx="0.509" ry="0.541"/>
				
					<ellipse transform="matrix(0.6037 0.7972 -0.7972 0.6037 46.7197 -11.6107)" class="st326" cx="35.039" cy="41.188" rx="0.565" ry="0.599"/>
				
					<ellipse transform="matrix(0.6048 0.7964 -0.7964 0.6048 60.071 -14.1954)" class="st326" cx="44.339" cy="53.43" rx="1.017" ry="1.079"/>
				
					<ellipse transform="matrix(0.6047 0.7965 -0.7965 0.6047 40.9298 -10.2582)" class="st169" cx="30.799" cy="36.103" rx="0.283" ry="0.3"/>
				
					<ellipse transform="matrix(0.6041 0.7969 -0.7969 0.6041 45.0776 -8.5388)" class="st169" cx="31.133" cy="41.102" rx="0.395" ry="0.42"/>
				
					<ellipse transform="matrix(0.605 0.7962 -0.7962 0.605 44.1508 0.9182)" class="st169" cx="21.15" cy="44.959" rx="0.932" ry="0.99"/>
				
					<ellipse transform="matrix(0.6055 0.7959 -0.7959 0.6055 50.157 -13.0717)" class="st169" cx="38.263" cy="44.055" rx="0.967" ry="1.025"/>
				
					<ellipse transform="matrix(0.6055 0.7958 -0.7958 0.6055 55.2424 -8.9551)" class="st169" cx="36.654" cy="51.246" rx="0.282" ry="0.001"/>
				
					<ellipse transform="matrix(0.6048 0.7964 -0.7964 0.6048 57.6862 -17.0628)" class="st169" cx="46.034" cy="49.587" rx="1.017" ry="1.078"/>
				
					<ellipse transform="matrix(0.6058 0.7956 -0.7956 0.6058 42.753 -14.4175)" class="st169" cx="35.926" cy="35.935" rx="0.821" ry="0.869"/>
				
					<ellipse transform="matrix(0.6058 0.7956 -0.7956 0.6058 55.4437 -3.8214)" class="st169" cx="31.578" cy="54.039" rx="0.566" ry="0.6"/>
				
					<ellipse transform="matrix(0.6051 0.7962 -0.7962 0.6051 61.7625 -2.8625)" class="st169" cx="33.767" cy="60.824" rx="0.508" ry="0.541"/>
				<ellipse class="st169" cx="37.991" cy="54.419" rx="0" ry="0.376"/>
				
					<ellipse transform="matrix(0.6048 0.7964 -0.7964 0.6048 46.9368 7.127)" class="st33" cx="16.288" cy="50.852" rx="0.82" ry="0.87"/>
				
					<ellipse transform="matrix(0.6051 0.7961 -0.7961 0.6051 54.6704 7.0094)" class="st33" cx="20.269" cy="58.618" rx="1.442" ry="1.529"/>
				
					<ellipse transform="matrix(0.6049 0.7963 -0.7963 0.6049 58.727 4.0757)" class="st33" cx="25.256" cy="61.219" rx="0.763" ry="0"/>
				
					<ellipse transform="matrix(0.6032 0.7976 -0.7976 0.6032 51.708 5.0156)" class="st33" cx="20.813" cy="54.478" rx="0.508" ry="0.54"/>
			</g>
			<g>
				<path class="st169" d="M61.404,87.305c-15.979,17.48-30.797,13.964-42.917,2.885c-12.12-11.08-16.949-25.523-0.97-43.004
					c15.981-17.48,28.503-11.454,40.625-0.376C70.263,57.888,77.386,69.824,61.404,87.305z"/>
				<path class="st33" d="M61.404,87.305c-15.979,17.48-30.797,13.964-42.917,2.885c-12.12-11.08-16.949-25.523-0.97-43.004
					c15.981-17.48,20.904-3.141,33.022,7.938C62.66,66.203,77.386,69.824,61.404,87.305z"/>
				<path class="st326" d="M26.755,81.145C19.058,74.109,14.26,65.768,7.69,65.088c-1.647,9.67,3.1,18.065,10.797,25.102
					s16.485,11.012,25.965,8.504C43.189,92.213,34.454,88.182,26.755,81.145z"/>
				<path class="st71" d="M61.404,87.305c-15.979,17.48-30.797,13.964-42.917,2.885c-12.12-11.08-16.949-25.523-0.97-43.004
					c15.981-17.48,28.503-11.454,40.625-0.376C70.263,57.888,77.386,69.824,61.404,87.305z"/>
				<circle class="st326" cx="22.703" cy="58.286" r="0.716"/>
				<circle class="st326" cx="27.549" cy="56.169" r="2.147"/>
				<circle class="st326" cx="28.774" cy="63.714" r="0.627"/>
				
					<ellipse transform="matrix(0.739 0.6737 -0.6737 0.739 56.7542 -4.1198)" class="st326" cx="33.695" cy="71.196" rx="0.717" ry="0.002"/>
				<circle class="st326" cx="42.871" cy="73.755" r="0.806"/>
				<circle class="st326" cx="53.608" cy="72.353" r="2.415"/>
				<circle class="st326" cx="48.269" cy="85.488" r="0.715"/>
				
					<ellipse transform="matrix(0.7382 0.6746 -0.6746 0.7382 55.1167 -13.3912)" class="st326" cx="44.81" cy="64.311" rx="0.376" ry="0.002"/>
				<circle class="st326" cx="31.807" cy="46.604" r="1.163"/>
				<circle class="st326" cx="16.932" cy="63.802" r="0.627"/>
				<circle class="st326" cx="23.245" cy="50.603" r="0.942"/>
				<circle class="st326" cx="29.713" cy="76.199" r="1.153"/>
				<circle class="st326" cx="39.464" cy="86.035" r="1.208"/>
				<path class="st326" d="M55.748,85.528c-0.299,0.327-0.809,0.351-1.137,0.05c-0.329-0.299-0.352-0.81-0.053-1.138
					c0.303-0.327,0.812-0.351,1.14-0.05C56.027,84.69,56.049,85.199,55.748,85.528z"/>
				<circle class="st326" cx="42.02" cy="59.7" r="0.895"/>
				<circle class="st326" cx="59.984" cy="76.121" r="1.611"/>
				<circle class="st169" cx="33.993" cy="52.966" r="0.448"/>
				<path class="st169" d="M36.564,60.896c-0.234,0.254-0.631,0.271-0.884,0.038c-0.258-0.232-0.274-0.629-0.043-0.885
					c0.235-0.254,0.631-0.271,0.887-0.04C36.78,60.242,36.798,60.64,36.564,60.896z"/>
				<circle class="st169" cx="22.28" cy="68.629" r="1.476"/>
				<circle class="st169" cx="47.806" cy="63.303" r="1.531"/>
				
					<ellipse transform="matrix(0.7386 0.6742 -0.6742 0.7386 62.7517 -12.6536)" class="st169" cx="47.691" cy="74.583" rx="0.448" ry="0.002"/>
				<circle class="st169" cx="61.305" cy="69.899" r="1.611"/>
				<circle class="st169" cx="41.672" cy="51.527" r="1.297"/>
				<circle class="st169" cx="40.93" cy="79.991" r="0.895"/>
				<circle class="st169" cx="46.409" cy="89.777" r="0.806"/>
				<ellipse class="st169" cx="50.727" cy="79.086" rx="0" ry="0.561"/>
				<circle class="st33" cx="16.842" cy="78.69" r="1.297"/>
				<circle class="st33" cx="25.341" cy="89.551" r="2.281"/>
				
					<ellipse transform="matrix(0.7377 0.6751 -0.6751 0.7377 71.1792 1.4681)" class="st33" cx="33.7" cy="92.342" rx="1.209" ry="0"/>
				<circle class="st33" cx="24.832" cy="83.145" r="0.805"/>
			</g>
		</g>
		<g>
			<g>
				<path class="st169" d="M96.271,60.711c12.639,9.601,21.672,5.905,27.948-2.354c6.275-8.262,7.41-17.957-5.226-27.558
					c-20.568-15.625-14.18-12.006-26.135,3.731C86.582,42.793,83.634,51.111,96.271,60.711z"/>
				<path class="st33" d="M96.271,60.711c12.639,9.601,21.672,5.905,27.948-2.354c6.275-8.262,7.41-17.957-5.226-27.558
					c-20.57-15.626-8.168-7.439-20.124,8.3C92.595,47.359,83.634,51.111,96.271,60.711z"/>
				<path class="st326" d="M117.681,53.389c3.984-5.245,5.93-11.041,10.058-12.116c2.37,6.012,0.465,11.837-3.52,17.085
					c-3.985,5.245-9.087,8.644-15.517,7.971C108.634,62.065,113.695,58.635,117.681,53.389z"/>
				<path class="st71" d="M96.271,60.711c12.639,9.601,21.672,5.905,27.948-2.354c6.275-8.262,7.41-17.957-5.226-27.558
					c-20.568-15.625-14.18-12.006-26.135,3.731C86.582,42.793,83.634,51.111,96.271,60.711z"/>
				
					<ellipse transform="matrix(-0.6036 0.7973 -0.7973 -0.6036 218.5135 -31.845)" class="st326" cx="117.173" cy="38.396" rx="0.451" ry="0.481"/>
				
					<ellipse transform="matrix(-0.6048 0.7964 -0.7964 -0.6048 212.4657 -30.3957)" class="st326" cx="113.774" cy="37.518" rx="1.356" ry="1.438"/>
				
					<ellipse transform="matrix(-0.6057 0.7957 -0.7957 -0.6057 216.8548 -22.5483)" class="st326" cx="114.014" cy="42.456" rx="0.396" ry="0.42"/>
				
					<ellipse transform="matrix(-0.6038 0.7971 -0.7971 -0.6038 217.4553 -12.6548)" class="st326" cx="111.873" cy="47.714" rx="0.452" ry="0.001"/>
				
					<ellipse transform="matrix(-0.6057 0.7957 -0.7957 -0.6057 210.7081 -3.9291)" class="st326" cx="106.328" cy="50.246" rx="0.509" ry="0.541"/>
				
					<ellipse transform="matrix(-0.605 0.7962 -0.7962 -0.605 199.4163 1.8745)" class="st326" cx="99.243" cy="50.401" rx="1.527" ry="1.619"/>
				
					<ellipse transform="matrix(-0.6048 0.7963 -0.7963 -0.6048 214.0394 10.3229)" class="st326" cx="104.458" cy="58.267" rx="0.451" ry="0.479"/>
				
					<ellipse transform="matrix(-0.6052 0.796 -0.796 -0.6052 201.9689 -11.3485)" class="st326" cx="103.798" cy="44.404" rx="0.238" ry="0.001"/>
				<path class="st326" d="M109.295,32.41c0.345,0.261,0.819,0.21,1.065-0.113c0.244-0.323,0.166-0.796-0.176-1.056
					c-0.345-0.261-0.821-0.21-1.062,0.113C108.873,31.678,108.952,32.15,109.295,32.41z"/>
				
					<ellipse transform="matrix(-0.6043 0.7967 -0.7967 -0.6043 228.0793 -30.5601)" class="st326" cx="121.628" cy="41.354" rx="0.396" ry="0.42"/>
				
					<ellipse transform="matrix(-0.606 0.7955 -0.7955 -0.606 212.6255 -38.228)" class="st326" cx="115.78" cy="33.542" rx="0.595" ry="0.632"/>
				
					<ellipse transform="matrix(-0.605 0.7962 -0.7962 -0.605 224.9752 -10.5624)" class="st326" cx="115.107" cy="50.52" rx="0.728" ry="0.773"/>
				
					<ellipse transform="matrix(-0.6045 0.7966 -0.7966 -0.6045 222.8028 4.8939)" class="st326" cx="110.187" cy="57.756" rx="0.763" ry="0.808"/>
				
					<ellipse transform="matrix(-0.604 0.797 -0.797 -0.604 207.0646 14.3494)" class="st326" cx="99.967" cy="58.618" rx="0.509" ry="0.541"/>
				
					<ellipse transform="matrix(-0.6037 0.7972 -0.7972 -0.6037 201.1656 -17.6211)" class="st326" cx="104.962" cy="41.188" rx="0.565" ry="0.599"/>
				
					<ellipse transform="matrix(-0.6054 0.7959 -0.7959 -0.6054 196.1042 9.6418)" class="st326" cx="95.662" cy="53.43" rx="1.018" ry="1.079"/>
				
					<ellipse transform="matrix(-0.6047 0.7965 -0.7965 -0.6047 203.9902 -29.0412)" class="st169" cx="109.202" cy="36.103" rx="0.283" ry="0.301"/>
				
					<ellipse transform="matrix(-0.6034 0.7975 -0.7975 -0.6034 207.3307 -20.9171)" class="st169" cx="108.867" cy="41.102" rx="0.395" ry="0.42"/>
				<path class="st169" d="M118.286,45.701c0.438,0.332,1.042,0.268,1.352-0.143c0.312-0.41,0.213-1.012-0.222-1.342
					c-0.436-0.331-1.041-0.268-1.354,0.144C117.751,44.771,117.852,45.371,118.286,45.701z"/>
				
					<ellipse transform="matrix(-0.6052 0.7961 -0.7961 -0.6052 198.3768 -10.2786)" class="st169" cx="101.737" cy="44.055" rx="0.967" ry="1.026"/>
				
					<ellipse transform="matrix(-0.6044 0.7967 -0.7967 -0.6044 206.637 -0.1115)" class="st169" cx="103.346" cy="51.246" rx="0.282" ry="0.001"/>
				
					<ellipse transform="matrix(-0.6048 0.7964 -0.7964 -0.6048 190.286 4.7381)" class="st169" cx="93.967" cy="49.587" rx="1.017" ry="1.078"/>
				
					<ellipse transform="matrix(-0.6054 0.7959 -0.7959 -0.6054 195.6842 -25.1434)" class="st169" cx="104.075" cy="35.935" rx="0.82" ry="0.87"/>
				
					<ellipse transform="matrix(-0.6052 0.796 -0.796 -0.6052 217.0627 0.4355)" class="st169" cx="108.423" cy="54.039" rx="0.566" ry="0.6"/>
				
					<ellipse transform="matrix(-0.6051 0.7962 -0.7962 -0.6051 218.9391 13.0439)" class="st169" cx="106.234" cy="60.824" rx="0.508" ry="0.54"/>
				<ellipse class="st169" cx="102.009" cy="54.419" rx="0" ry="0.376"/>
				
					<ellipse transform="matrix(-0.6044 0.7967 -0.7967 -0.6044 238.9944 -16.9769)" class="st33" cx="123.712" cy="50.852" rx="0.82" ry="0.87"/>
				
					<ellipse transform="matrix(-0.6049 0.7963 -0.7963 -0.6049 238.8358 -1.2638)" class="st33" cx="119.731" cy="58.618" rx="1.442" ry="1.529"/>
				
					<ellipse transform="matrix(-0.6053 0.796 -0.796 -0.6053 232.931 6.9392)" class="st33" cx="114.745" cy="61.219" rx="0.763" ry="0.001"/>
				
					<ellipse transform="matrix(-0.6044 0.7966 -0.7966 -0.6044 234.6307 -7.5431)" class="st33" cx="119.188" cy="54.478" rx="0.508" ry="0.54"/>
			</g>
			<g>
				<path class="st169" d="M78.597,87.305c15.979,17.48,30.797,13.964,42.917,2.885c12.119-11.08,16.949-25.523,0.969-43.004
					c-15.979-17.48-28.503-11.454-40.624-0.376S62.615,69.824,78.597,87.305z"/>
				<path class="st33" d="M78.597,87.305c15.979,17.48,30.797,13.964,42.917,2.885c12.119-11.08,16.949-25.523,0.969-43.004
					c-15.979-17.48-20.903-3.141-33.022,7.938C77.341,66.203,62.615,69.824,78.597,87.305z"/>
				<path class="st326" d="M113.245,81.145c7.698-7.035,12.495-15.377,19.065-16.057c1.646,9.67-3.101,18.065-10.797,25.102
					c-7.697,7.036-16.486,11.012-25.966,8.504C96.812,92.213,105.546,88.182,113.245,81.145z"/>
				<path class="st71" d="M78.597,87.305c15.979,17.48,30.797,13.964,42.917,2.885c12.119-11.08,16.949-25.523,0.969-43.004
					c-15.979-17.48-28.503-11.454-40.624-0.376S62.615,69.824,78.597,87.305z"/>
				<circle class="st326" cx="117.298" cy="58.286" r="0.716"/>
				<circle class="st326" cx="112.452" cy="56.169" r="2.148"/>
				<circle class="st326" cx="111.227" cy="63.714" r="0.626"/>
				
					<ellipse transform="matrix(-0.7387 0.674 -0.674 -0.7387 232.8231 52.1413)" class="st326" cx="106.306" cy="71.196" rx="0.716" ry="0.002"/>
				<circle class="st326" cx="97.13" cy="73.755" r="0.806"/>
				<circle class="st326" cx="86.393" cy="72.353" r="2.415"/>
				<circle class="st326" cx="91.731" cy="85.488" r="0.715"/>
				
					<ellipse transform="matrix(-0.7382 0.6746 -0.6746 -0.7382 208.8413 47.5672)" class="st326" cx="95.19" cy="64.311" rx="0.376" ry="0.002"/>
				<circle class="st326" cx="108.194" cy="46.604" r="1.164"/>
				<circle class="st326" cx="123.069" cy="63.802" r="0.627"/>
				<circle class="st326" cx="116.755" cy="50.603" r="0.943"/>
				<circle class="st326" cx="110.288" cy="76.199" r="1.153"/>
				<circle class="st326" cx="100.537" cy="86.035" r="1.208"/>
				<circle class="st326" cx="84.847" cy="84.984" r="0.806"/>
				<circle class="st326" cx="97.98" cy="59.7" r="0.896"/>
				<circle class="st326" cx="80.017" cy="76.121" r="1.611"/>
				<circle class="st169" cx="106.008" cy="52.966" r="0.448"/>
				<path class="st169" d="M103.436,60.896c0.235,0.254,0.631,0.271,0.884,0.038c0.258-0.232,0.275-0.629,0.043-0.885
					c-0.234-0.254-0.63-0.271-0.886-0.04C103.22,60.242,103.203,60.64,103.436,60.896z"/>
				<circle class="st169" cx="117.72" cy="68.629" r="1.476"/>
				<circle class="st169" cx="92.195" cy="63.303" r="1.531"/>
				
					<ellipse transform="matrix(-0.7381 0.6747 -0.6747 -0.7381 210.7633 67.3452)" class="st169" cx="92.31" cy="74.583" rx="0.447" ry="0.001"/>
				<circle class="st169" cx="78.695" cy="69.899" r="1.611"/>
				<circle class="st169" cx="98.328" cy="51.527" r="1.297"/>
				<circle class="st169" cx="99.071" cy="79.991" r="0.895"/>
				<circle class="st169" cx="93.591" cy="89.777" r="0.806"/>
				<ellipse class="st169" cx="89.274" cy="79.086" rx="0" ry="0.561"/>
				<circle class="st33" cx="123.16" cy="78.69" r="1.297"/>
				<circle class="st33" cx="114.661" cy="89.551" r="2.281"/>
				
					<ellipse transform="matrix(-0.7377 0.6751 -0.6751 -0.7377 247.0619 88.7015)" class="st33" cx="106.301" cy="92.342" rx="1.209" ry="0.001"/>
				<circle class="st33" cx="115.169" cy="83.145" r="0.805"/>
			</g>
		</g>
	</g>
	<g>
		<path class="st169" d="M107.156,80.405c0,29.599-16.635,38.851-37.156,38.851c-20.52,0-37.155-9.252-37.155-38.851
			c0-29.601,16.636-34.603,37.155-34.603C90.521,45.803,107.156,50.805,107.156,80.405z"/>
		<path class="st33" d="M107.156,80.405c0,29.599-16.635,38.851-37.156,38.851c-20.52,0-37.155-9.252-37.155-38.851
			c0-29.601,16.636-20.524,37.155-20.524C90.521,59.881,107.156,50.805,107.156,80.405z"/>
		<path class="st326" d="M70,103.941c-13.033,0-24.491-3.647-31.125,1.266c6.634,10.305,18.092,14.049,31.125,14.049
			c13.034,0,24.492-3.744,31.124-14.049C94.492,100.294,83.034,103.941,70,103.941z"/>
		<path class="st71" d="M107.156,80.405c0,29.599-16.635,38.851-37.156,38.851c-20.52,0-37.155-9.252-37.155-38.851
			c0-29.601,16.636-34.603,37.155-34.603C90.521,45.803,107.156,50.805,107.156,80.405z"/>
		<circle class="st326" cx="46.987" cy="86.272" r="0.895"/>
		<circle class="st326" cx="49.671" cy="80.234" r="2.684"/>
		<circle class="st326" cx="57.164" cy="86.16" r="0.783"/>
		<ellipse class="st326" cx="68.012" cy="88.912" rx="0.895" ry="0.001"/>
		<circle class="st326" cx="78.635" cy="83.536" r="1.006"/>
		<circle class="st326" cx="87.357" cy="73.188" r="3.019"/>
		<circle class="st326" cx="93.508" cy="89.807" r="0.895"/>
		<ellipse class="st326" cx="72.46" cy="73.188" rx="0.471" ry="0"/>
		<circle class="st326" cx="45.534" cy="67.821" r="1.454"/>
		<circle class="st326" cx="46.316" cy="96.227" r="0.783"/>
		<circle class="st326" cx="41.008" cy="78.729" r="1.177"/>
		<circle class="st326" cx="68.559" cy="96.885" r="1.441"/>
		<circle class="st326" cx="85.847" cy="97.735" r="1.509"/>
		<circle class="st326" cx="99.435" cy="83.536" r="1.006"/>
		<circle class="st326" cx="65.999" cy="71.288" r="1.119"/>
		<circle class="st326" cx="96.416" cy="71.287" r="2.013"/>
		<circle class="st169" cx="52.915" cy="71.847" r="0.559"/>
		<circle class="st169" cx="61.19" cy="76.99" r="0.783"/>
		<circle class="st169" cx="55.319" cy="96.17" r="1.846"/>
		<circle class="st169" cx="74.374" cy="69.734" r="1.913"/>
		<ellipse class="st169" cx="83.779" cy="80.234" rx="0.559" ry="0"/>
		<circle class="st169" cx="92.389" cy="64.436" r="2.013"/>
		<circle class="st169" cx="58.786" cy="64.043" r="1.621"/>
		<circle class="st169" cx="82.101" cy="90.926" r="1.119"/>
		<circle class="st169" cx="95.409" cy="95.331" r="1.006"/>
		<ellipse class="st169" cx="90.376" cy="81.828" rx="0" ry="0.7"/>
		<circle class="st33" cx="58.786" cy="110.035" r="1.621"/>
		<circle class="st33" cx="75.783" cy="112.889" r="2.851"/>
		<ellipse class="st33" cx="85.847" cy="108.414" rx="1.509" ry="0"/>
		<circle class="st33" cx="69.913" cy="107.408" r="1.006"/>
	</g>
</g>
</svg>
