<?xml version="1.0" encoding="utf-8"?>
<!-- Generator: Adobe Illustrator 16.0.0, SVG Export Plug-In . SVG Version: 6.00 Build 0)  -->
<!DOCTYPE svg PUBLIC "-//W3C//DTD SVG 1.1//EN" "http://www.w3.org/Graphics/SVG/1.1/DTD/svg11.dtd">
<svg version="1.1" id="Layer_1" xmlns="http://www.w3.org/2000/svg" xmlns:xlink="http://www.w3.org/1999/xlink" x="0px" y="0px"
	 width="140px" height="140px" viewBox="0 0 140 140" style="enable-background:new 0 0 140 140;" xml:space="preserve">
<style type="text/css">
<![CDATA[
	.st0{fill:#7A62F4;}
	.st1{fill:#7A8A91;}
	.st2{fill:#AA3154;}
	.st3{fill:#474B4F;}
	.st4{fill:#474C51;}
	.st5{fill:#477184;}
	.st6{fill:#AA8D5E;}
	.st7{fill:#AAF789;}
	.st8{fill:#7BE6FF;}
	.st9{fill:#7C66D8;}
	.st10{fill:#7CC0D8;}
	.st11{fill:#495359;}
	.st12{fill:#49DB7A;}
	.st13{fill:#49E500;}
	.st14{fill:#7DA8AA;}
	
		.st15{fill:none;stroke:#7C9199;stroke-width:3;stroke-linecap:round;stroke-linejoin:round;stroke-miterlimit:10;stroke-dasharray:5;}
	.st16{fill:#AD9F7F;}
	.st17{fill:none;stroke:#D3ECEF;stroke-linecap:round;stroke-linejoin:round;stroke-miterlimit:10;}
	.st18{fill:none;stroke:#C42323;stroke-width:3;stroke-linecap:round;stroke-linejoin:round;stroke-miterlimit:10;}
	.st19{fill:#AE52FF;}
	.st20{fill:#10DEF9;}
	.st21{fill:none;stroke:#267DC4;stroke-width:3;stroke-linecap:round;stroke-linejoin:round;stroke-miterlimit:10;}
	.st22{fill:#1162BA;}
	.st23{fill:#E02F2F;}
	.st24{fill:#E05368;}
	.st25{fill:#AFBFCE;}
	.st26{fill:#AFC8DD;}
	.st27{fill:#E0CC77;}
	.st28{fill:#1247B2;}
	.st29{fill:#E0DECE;}
	.st30{fill:#E0FF9C;}
	.st31{fill:none;stroke:#E21A32;stroke-linecap:round;stroke-linejoin:round;stroke-miterlimit:10;}
	.st32{fill:#13D626;}
	.st33{fill:#E2823B;}
	.st34{fill:#1462EF;}
	.st35{fill:#14B0ED;}
	.st36{fill:#1576EA;}
	.st37{fill:#15BDFF;}
	.st38{fill:#1613A5;}
	.st39{fill:#4A5056;}
	.st40{fill:#E55166;}
	.st41{fill:#E55A6B;}
	.st42{fill:#E56171;}
	.st43{fill:none;stroke:#79CC7E;stroke-width:2;stroke-linecap:round;stroke-linejoin:round;stroke-miterlimit:10;}
	.st44{fill:#4B6466;}
	.st45{opacity:0.4;fill:#79CC7E;}
	.st46{fill:#E6F1F4;}
	.st47{fill:#E6F2FC;}
	.st48{fill:#4C6362;}
	.st49{fill:#18AA67;}
	.st50{fill:#4D4D91;}
	.st51{fill:#4D575B;}
	.st52{fill:#E88E0C;}
	.st53{fill:#4DADCE;}
	.st54{fill:#E8E8E8;}
	.st55{opacity:0.3;fill:#9AA5A4;}
	.st56{fill:#80C3FF;}
	.st57{fill:#B066FF;}
	.st58{fill:#818F91;}
	.st59{fill:#B0D1D6;}
	.st60{fill:#B1DBDD;}
	.st61{fill:#B2104E;}
	.st62{fill:none;stroke:#FCFAE8;stroke-width:3;stroke-linecap:round;stroke-linejoin:round;stroke-miterlimit:10;}
	.st63{fill:#B2D1C7;}
	.st64{fill:#83ED3E;}
	.st65{fill:#83ED88;}
	.st66{fill:#8461BC;}
	.st67{fill:#84692C;}
	.st68{fill:#B3C9E2;}
	.st69{fill:none;stroke:#ED8700;stroke-width:3;stroke-linecap:round;stroke-linejoin:round;}
	.st70{fill:none;stroke:#64E2DC;stroke-width:3;stroke-linecap:round;stroke-linejoin:round;stroke-miterlimit:10;}
	.st71{fill:none;stroke:#33363A;stroke-width:3;stroke-linecap:round;stroke-linejoin:round;stroke-miterlimit:10;}
	.st72{fill:none;stroke:#33363A;stroke-width:4;stroke-linecap:round;stroke-linejoin:round;stroke-miterlimit:10;}
	.st73{fill:#85A7A8;}
	.st74{fill:#85C606;}
	.st75{fill:none;stroke:#33363A;stroke-width:5;stroke-linecap:round;stroke-linejoin:round;stroke-miterlimit:10;}
	.st76{fill:#86B2A2;}
	.st77{fill:#EA3D6A;}
	.st78{fill:#875835;}
	.st79{fill:#EA9706;}
	.st80{fill:#1C19AF;}
	.st81{fill:#EAAA0A;}
	.st82{fill:#EABC73;}
	.st83{fill:#EADFB2;}
	.st84{fill:#EAE4BE;}
	.st85{fill:#EAF2F9;}
	.st86{fill:#B7883D;}
	.st87{fill:#1CE5C3;}
	.st88{fill:#1CE8E3;}
	.st89{fill:#B7F467;}
	.st90{fill:none;stroke:#36B0CC;stroke-width:3;stroke-linecap:round;stroke-linejoin:round;stroke-miterlimit:10;}
	.st91{fill:#EBEDD3;}
	.st92{fill:none;stroke:#FFB000;stroke-width:3;stroke-linecap:round;stroke-linejoin:round;stroke-dasharray:8.2755,8.2755;}
	.st93{fill:#1DA834;}
	.st94{fill:#1DC8CC;}
	.st95{fill:#8957CE;}
	.st96{fill:#B8D3D1;}
	.st97{fill:#89A3A3;}
	.st98{fill:#1E91F9;}
	.st99{fill:#B969FF;}
	.st100{fill:#1EA6E2;}
	.st101{fill:#FFFFFF;stroke:#FFFFFF;stroke-width:2;stroke-linecap:round;stroke-linejoin:round;stroke-miterlimit:10;}
	.st102{fill:#ED4706;}
	.st103{fill:#EDA411;}
	.st104{fill:#EDDE88;}
	.st105{fill:#EDF4F4;}
	.st106{fill:#5050E2;}
	.st107{fill:#1FADE5;}
	.st108{enable-background:new    ;}
	.st109{fill:#EF4D4D;}
	.st110{fill:#EF6F7B;}
	.st111{fill:#EF9681;}
	.st112{fill:#EFA37D;}
	.st113{fill:#EFB289;}
	.st114{fill:#EFBD59;}
	.st115{fill:#EFCA0F;}
	.st116{fill:#EFEFDF;}
	.st117{fill:#526163;}
	.st118{fill:#529E54;}
	.st119{fill:#52C408;}
	.st120{fill:#5351B7;}
	.st121{fill:none;stroke:#EBEDD3;stroke-linecap:round;stroke-linejoin:round;stroke-miterlimit:10;}
	.st122{fill:#555D60;}
	.st123{fill:#55DBFF;}
	.st124{fill:none;stroke:#FFEF5A;stroke-width:2;stroke-linecap:round;stroke-linejoin:round;stroke-miterlimit:10;}
	.st125{fill:none;stroke:#FFEF5A;stroke-width:4;stroke-linecap:round;stroke-linejoin:round;stroke-miterlimit:10;}
	.st126{fill:none;stroke:#536B7C;stroke-width:3;stroke-linecap:round;stroke-linejoin:round;stroke-miterlimit:10;}
	.st127{fill:#8A9199;}
	.st128{fill:#8A998A;}
	.st129{fill:#8CE5E2;}
	.st130{fill:#BC3150;}
	.st131{fill:#595F66;}
	.st132{fill:#BC8B4B;}
	.st133{fill:#8DABC9;}
	.st134{fill:#8E7EED;}
	.st135{fill:#8EC1C1;}
	.st136{fill:#20BCF2;}
	.st137{fill:#8F56D8;}
	.st138{fill:#BEDD05;}
	.st139{fill:none;stroke:#EAD7FF;stroke-width:3;stroke-linecap:round;stroke-linejoin:round;stroke-miterlimit:10;}
	.st140{fill:#2178F7;}
	.st141{fill:#219B1E;}
	.st142{fill:#BF76FF;}
	.st143{fill:none;stroke:#88CCFF;stroke-width:3;stroke-linecap:round;stroke-linejoin:round;stroke-miterlimit:10;}
	.st144{fill:#22A1EF;}
	.st145{fill:#237AF9;}
	.st146{fill:#F2790C;}
	.st147{fill:#246DED;}
	.st148{fill:#F3FAFF;}
	.st149{fill:#25C10A;}
	.st150{fill:#F42535;}
	.st151{fill:#F4921E;}
	.st152{fill:#F4AB0B;}
	.st153{fill:#F4F3E9;}
	.st154{fill:#5A5F63;}
	.st155{fill:#26A3F7;}
	.st156{fill:#F5FEFF;}
	.st157{fill:#277AF4;}
	.st158{fill:#2792F4;}
	.st159{fill:#279377;}
	.st160{fill:#27C927;}
	.st161{fill:#5C2DE0;}
	.st162{fill:#F7441C;}
	.st163{fill:#F7910B;}
	.st164{fill:#F79E00;}
	.st165{fill:none;stroke:#FFB000;stroke-width:3;stroke-linecap:round;stroke-linejoin:round;}
	.st166{fill:#5D3EDD;}
	.st167{fill:#29CDFF;}
	.st168{fill:#5E6870;}
	.st169{fill:#F9A858;}
	.st170{fill:#F9C19B;}
	.st171{fill:#F9E446;}
	.st172{fill:#5F666B;}
	.st173{fill:#5FCE96;}
	.st174{fill:#90B2B1;}
	.st175{fill:#91EA57;}
	.st176{fill:#C11E5C;}
	.st177{fill:#C14830;}
	.st178{fill:#C17E25;}
	.st179{fill:#C1B995;}
	.st180{fill:#C1BFA7;}
	.st181{fill:none;stroke:#F9EF95;stroke-width:3;stroke-linecap:round;stroke-linejoin:round;stroke-miterlimit:10;}
	.st182{fill:#92E0FF;}
	.st183{fill:#92FC6B;}
	.st184{fill:#C28AE2;}
	.st185{fill:#939DA3;}
	.st186{fill:#C3D8D6;}
	.st187{fill:#C3DFE0;}
	.st188{fill:#C42323;}
	.st189{fill:#C4415B;}
	.st190{fill:#C480FF;}
	.st191{fill:#95AF68;}
	.st192{fill:#2A8BF4;}
	.st193{fill:#2AAD2A;}
	.st194{fill:#C5E3EA;}
	.st195{fill:#C63C4D;}
	.st196{fill:#C67A6D;}
	.st197{fill:#C6BA9B;}
	.st198{fill:#FC4259;}
	.st199{fill:#FC90A2;}
	.st200{fill:#C8DBDB;}
	.st201{fill:#FCC322;}
	.st202{fill:#FCDECA;}
	.st203{fill:#FCF8E6;}
	.st204{fill:#2E6ECC;}
	.st205{fill:#FCFCB9;}
	.st206{fill:none;stroke:#FFB000;stroke-width:3;stroke-linecap:round;stroke-linejoin:round;stroke-dasharray:8.028,8.028;}
	.st207{fill:#C9E1F2;}
	.st208{fill:#FDFFFF;}
	.st209{fill:#FF315D;}
	.st210{fill:#FF3636;}
	.st211{fill:#FF4800;}
	.st212{fill:#FF502E;}
	.st213{fill:#FF5B00;}
	.st214{fill:#FF647E;}
	.st215{fill:#FF6B06;}
	.st216{fill:#FF7639;}
	.st217{fill:#FF7892;}
	.st218{fill:#FF7900;}
	.st219{fill:#FF8103;}
	.st220{fill:#FF8500;}
	.st221{fill:#FF9100;}
	.st222{fill:#FF9700;}
	.st223{fill:#FF9E12;}
	.st224{fill:#61BBFF;}
	.st225{fill:#FFA300;}
	.st226{fill:#FFAA00;}
	.st227{fill:#FFABBF;}
	.st228{fill:#FFB000;}
	.st229{fill:#FFB206;}
	.st230{fill:#FFBC00;}
	.st231{fill:#FFBF31;}
	.st232{fill:#FFC1AE;}
	.st233{fill:#FFC200;}
	.st234{fill:#FFC757;}
	.st235{fill:#FFC817;}
	.st236{fill:#FFCE00;}
	.st237{fill:#FFD243;}
	.st238{fill:#FFD400;}
	.st239{fill:#FFD833;}
	.st240{fill:#FFD9C0;}
	.st241{fill:#FFDC10;}
	.st242{fill:#FFDE52;}
	.st243{fill:#FFE108;}
	.st244{fill:#FFE10B;}
	.st245{fill:#FFE31A;}
	.st246{fill:#FFE448;}
	.st247{fill:#FFE8C2;}
	.st248{fill:#FFE98F;}
	.st249{fill:#FFEB5A;}
	.st250{fill:#FFEDA1;}
	.st251{fill:#FFF19C;}
	.st252{fill:#FFF6E1;}
	.st253{fill:#FFF87B;}
	.st254{fill:#FFF8C7;}
	.st255{fill:#FFFCEE;}
	.st256{fill:#FFFFFF;}
	.st257{fill:#62CEDD;}
	.st258{fill:#636E72;}
	.st259{fill:none;stroke:#DDAC24;stroke-width:2;stroke-linecap:round;stroke-linejoin:round;stroke-miterlimit:10;}
	.st260{fill:#64BDFF;}
	.st261{fill:#64E2DC;}
	.st262{fill:none;stroke:#33363A;stroke-linecap:round;stroke-linejoin:round;stroke-miterlimit:10;}
	.st263{fill:#66797F;}
	.st264{fill:none;stroke:#EBC0F9;stroke-width:3;stroke-linecap:round;stroke-linejoin:round;stroke-miterlimit:10;}
	.st265{fill:#9AC1C1;}
	.st266{fill:#676E72;}
	.st267{fill:#677F7F;}
	.st268{fill:#678B99;}
	.st269{fill:#9B0751;}
	.st270{fill:#9B6743;}
	.st271{fill:#9B7335;}
	.st272{fill:none;stroke:#E0FF9C;stroke-width:3;stroke-linecap:round;stroke-linejoin:round;stroke-miterlimit:10;}
	.st273{fill:#CAD7E5;}
	.st274{fill:#CAE5E3;}
	.st275{fill:none;stroke:#FFD815;stroke-width:3;stroke-linecap:round;stroke-linejoin:round;stroke-miterlimit:10;}
	.st276{fill:none;stroke:#64C0F9;stroke-width:3;stroke-linecap:round;stroke-linejoin:round;stroke-miterlimit:10;}
	.st277{fill:#68B6DD;}
	.st278{fill:#CC445B;}
	.st279{fill:none;stroke:#66A8F7;stroke-width:3;stroke-linecap:round;stroke-linejoin:round;stroke-miterlimit:10;}
	.st280{fill:#9D67C1;}
	.st281{fill:#CCFFFF;}
	.st282{fill:#9DC0C4;}
	.st283{fill:#9E2323;}
	.st284{fill:#9E45DD;}
	.st285{fill:#CDDEE0;}
	.st286{fill:#309FD6;}
	.st287{fill:none;stroke:#ED8700;stroke-width:3;stroke-linecap:round;stroke-linejoin:round;stroke-dasharray:7.7039,7.7039;}
	.st288{fill:#CE4313;}
	.st289{fill:#CEA255;}
	.st290{fill:#9FC1B5;}
	.st291{fill:#3131DD;}
	.st292{fill:#33363A;}
	.st293{fill:#334746;}
	.st294{fill:#3380CC;}
	.st295{fill:#34C166;}
	.st296{fill:#363B3F;}
	.st297{fill:#6A797C;}
	.st298{fill:#33363A;stroke:#33363A;stroke-width:3;stroke-linecap:round;stroke-linejoin:round;stroke-miterlimit:10;}
	.st299{fill:#6C85FF;}
	.st300{opacity:0.2;fill:#3C8DA0;}
	.st301{fill:none;stroke:#5F6266;stroke-width:3;stroke-linecap:round;stroke-linejoin:round;stroke-miterlimit:10;}
	.st302{fill:#00ADDB;}
	.st303{fill:#6F898C;}
	.st304{fill:#6FAF00;}
	.st305{fill:#D0D8CA;}
	.st306{fill:#D0E0EA;}
	.st307{fill:#D0E2F4;}
	.st308{fill:none;stroke:#FFB000;stroke-width:3;stroke-linecap:round;stroke-linejoin:round;stroke-dasharray:7.8476,7.8476;}
	.st309{fill:none;stroke:#33363A;stroke-width:10;stroke-linecap:round;stroke-linejoin:round;stroke-miterlimit:10;}
	.st310{fill:#04968E;}
	.st311{fill:#D30B49;}
	.st312{fill:#D31818;}
	.st313{fill:#D34624;}
	.st314{fill:#D39F1E;}
	.st315{fill:#D3D1C1;}
	.st316{fill:#D3DADD;}
	.st317{fill:#D3E5EA;}
	.st318{fill:#055E6D;}
	.st319{fill:#059CE8;}
	.st320{fill:#064E7F;}
	.st321{fill:#066782;}
	.st322{fill:#07563C;}
	.st323{fill:#D5E2CC;}
	.st324{fill:#3B4244;}
	.st325{fill:#D60024;}
	.st326{fill:#D6702B;}
	.st327{fill:#D68967;}
	.st328{fill:#D6A545;}
	.st329{fill:#D6CB9D;}
	.st330{fill:#3C4044;}
	.st331{fill:#08BC26;}
	.st332{fill:#097F2A;}
	.st333{fill:none;stroke:#FFAB94;stroke-width:4;stroke-linecap:round;stroke-linejoin:round;stroke-miterlimit:10;}
	.st334{fill:#3D5957;}
	.st335{fill:#3D99F4;}
	.st336{fill:#D8235F;}
	.st337{fill:#D83055;}
	.st338{fill:#D83563;}
	.st339{fill:#D83705;}
	.st340{fill:#D8533D;}
	.st341{fill:#D8D7C0;}
	.st342{fill:#3E9FF7;}
	.st343{fill:#D9F0F4;}
	.st344{fill:#705622;}
	.st345{fill:#70D63A;}
	.st346{fill:#A03F25;}
	.st347{fill:#A07F3C;}
	.st348{opacity:0.6;fill:#2670BF;}
	.st349{fill:#A0BAB9;}
	.st350{fill:#A197FC;}
	.st351{fill:#727B84;}
	.st352{fill:#A1C6C6;}
	.st353{fill:#A23FE8;}
	.st354{fill:#737F73;}
	.st355{fill:#73F4B3;}
	.st356{fill:#A31153;}
	.st357{fill:#748C4F;}
	.st358{fill:#749997;}
	.st359{fill:#0A7BE2;}
	.st360{fill:#0A8989;}
	.st361{fill:#0A912A;}
	.st362{fill:#0A9B3D;}
	.st363{fill:#0A9DBF;}
	.st364{fill:#A53CEF;}
	.st365{fill:#0ABAEA;}
	.st366{fill:#A5BFBF;}
	.st367{fill:#7799AA;}
	.st368{fill:#77D852;}
	.st369{fill:#0C4ABA;}
	.st370{fill:#DAE5E5;}
	.st371{fill:#0CA813;}
	.st372{fill:#788E8D;}
	.st373{fill:#78CFFF;}
	.st374{fill:#A8273D;}
	.st375{fill:#79CC7E;}
	.st376{fill:#0E48DB;}
	.st377{fill:#DCE7EF;}
	.st378{fill:#0E7F24;}
	.st379{fill:#DDAC24;}
	.st380{fill:#DDC872;}
	.st381{fill:#DDE6E8;}
	.st382{fill:#404449;}
	.st383{fill:#0FA88E;}
	.st384{fill:#DEF21D;}
	.st385{fill:#4120CE;}
	.st386{fill:none;stroke:#CCB13E;stroke-width:3;stroke-linecap:round;stroke-linejoin:round;stroke-miterlimit:10;}
	.st387{fill:#41F7D4;}
	.st388{fill:#DFEDEF;}
	.st389{fill:#DFF4E9;}
	.st390{fill:#DFF7F6;}
	.st391{fill:#42E6EA;}
	.st392{fill:#43474C;}
	.st393{fill:#43B1E8;}
	.st394{fill:#44CC7B;}
	.st395{fill:#45484C;}
	.st396{fill:#454A4F;}
	.st397{fill:#45BA0F;}
	.st398{fill:#45CAFF;}
]]>
</style>
<g>
	<g>
		<path class="st42" d="M30.152,127.666h79.695c12.051-10.885,19.627-26.629,19.627-44.146c0-32.846-26.629-59.475-59.475-59.475
			c-32.848,0-59.475,26.629-59.475,59.475C10.525,101.037,18.102,116.781,30.152,127.666z"/>
		<path class="st338" d="M10.525,83.52c0,17.518,7.576,33.262,19.627,44.146h79.695c12.051-10.885,19.627-26.629,19.627-44.146"/>
		<path class="st71" d="M30.152,127.666h79.695c12.051-10.885,19.627-26.629,19.627-44.146c0-32.846-26.629-59.475-59.475-59.475
			c-32.848,0-59.475,26.629-59.475,59.475C10.525,101.037,18.102,116.781,30.152,127.666z"/>
	</g>
	<g>
		<g>
			<g>
				<path class="st256" d="M123.467,59.211c0.213-1.201,0.33-2.438,0.33-3.701c0-11.625-9.426-21.047-21.051-21.047
					c-8.383,0-15.619,4.898-19.004,11.992c-0.338-0.025-0.68-0.041-1.025-0.041c-7.369,0-13.393,5.766-13.807,13.035
					c-3.656,1.332-6.27,4.828-6.27,8.943c0,5.264,4.268,9.531,9.529,9.531h48.762c5.264,0,9.531-4.268,9.531-9.531
					C130.463,64.008,127.498,60.324,123.467,59.211z"/>
				<path class="st306" d="M102.746,38.363c-8.383,0-15.619,4.9-19.004,11.994c-0.338-0.025-0.68-0.041-1.025-0.041
					c-7.369,0-13.393,5.764-13.807,13.033c-3.066,1.119-5.391,3.76-6.064,7.006c0.906,4.322,4.736,7.568,9.324,7.568h48.762
					c4.588,0,8.418-3.246,9.326-7.564c-0.727-3.504-3.373-6.303-6.791-7.246c0.213-1.203,0.33-2.438,0.33-3.701
					c0-0.031-0.002-0.062-0.002-0.094c-0.111-0.035-0.219-0.074-0.328-0.107c0.102-0.578,0.182-1.166,0.236-1.762
					C122.711,46.746,113.711,38.363,102.746,38.363z"/>
				<g>
					<path class="st256" d="M101.771,52.016c6.635,0,12.098,5,12.836,11.436c0.059-0.555,0.088-1.117,0.088-1.688
						c0-7.139-5.785-12.926-12.924-12.926c-5.711,0-10.342,4.629-10.342,10.34c0,0.52,0.053,1.025,0.146,1.518
						C92.371,55.777,96.627,52.016,101.771,52.016z"/>
				</g>
				<path class="st71" d="M123.467,59.211c0.213-1.201,0.33-2.438,0.33-3.701c0-11.625-9.426-21.047-21.051-21.047
					c-8.383,0-15.619,4.898-19.004,11.992c-0.338-0.025-0.68-0.041-1.025-0.041c-7.369,0-13.393,5.766-13.807,13.035
					c-3.656,1.332-6.27,4.828-6.27,8.943c0,5.264,4.268,9.531,9.529,9.531h48.762c5.264,0,9.531-4.268,9.531-9.531
					C130.463,64.008,127.498,60.324,123.467,59.211z"/>
				<path class="st71" d="M120.932,58.861c5.264,0,9.531,4.268,9.531,9.531l0,0c0,5.264-4.268,9.531-9.531,9.531H72.17
					c-5.262,0-9.529-4.268-9.529-9.531l0,0c0-5.264,4.268-9.531,9.529-9.531"/>
				<path class="st71" d="M81.697,55.51c0-11.625,9.424-21.047,21.049-21.047s21.051,9.422,21.051,21.047
					c0,0.873-0.053,1.732-0.156,2.576"/>
			</g>
		</g>
		<path class="st71" d="M106.32,60.832c0,3.654-2.963,6.617-6.619,6.617c-4.566,0-8.271-3.703-8.271-8.271
			c0-5.711,4.631-10.34,10.342-10.34c7.139,0,12.924,5.787,12.924,12.926c0,8.922-7.232,16.156-16.158,16.156H82.082"/>
	</g>
	<g>
		<g>
			<path class="st303" d="M70,106.621c-9.863,0-17.859,9.928-17.859,19.791h6.111c0-6.488,5.26-13.02,11.748-13.02
				c6.486,0,11.746,6.531,11.746,13.02h6.113C87.859,116.549,79.861,106.621,70,106.621z"/>
			<path class="st71" d="M70,106.621c-9.863,0-17.859,9.928-17.859,19.791h6.111c0-6.488,5.26-13.02,11.748-13.02
				c6.486,0,11.746,6.531,11.746,13.02h6.113C87.859,116.549,79.861,106.621,70,106.621z"/>
		</g>
		<g>
			<path class="st303" d="M105.594,125.65c-8.617,0-32.867-43.062-32.867-102.576c0-2.869-0.545-8.002-2.711-8.041l-0.01-0.002
				L70,15.033l-0.006-0.002l-0.01,0.002c-2.164,0.039-2.713,5.172-2.713,8.041c0,59.514-24.248,102.576-32.863,102.576
				c-2.188,0-1.982,1.553-1.982,4.434s8.855-0.52,11.037-0.52c7.393,0,21.77-21.311,26.537-62.219
				c4.768,40.908,19.145,62.219,26.535,62.219c2.184,0,11.039,3.4,11.039,0.52S107.779,125.65,105.594,125.65z"/>
			<path class="st73" d="M72.727,23.074c0-2.869-0.545-8.002-2.711-8.041l-0.01-0.002L70,15.033l-0.006-0.002l-0.01,0.002
				c-2.164,0.039-2.713,5.172-2.713,8.041c0,59.514-24.248,102.576-32.863,102.576c-0.262,0-0.48,0.025-0.678,0.066
				c2.539,0.336,8.068-1.633,9.732-1.633c11.301,0,17.861-0.328,26.537-74.805c8.682,74.477,15.229,74.805,26.535,74.805
				c1.666,0,7.193,1.969,9.734,1.633c-0.199-0.041-0.418-0.066-0.676-0.066C96.977,125.65,72.727,82.588,72.727,23.074z"/>
			<path class="st71" d="M105.594,125.65c-8.617,0-32.867-43.062-32.867-102.576c0-2.869-0.545-8.002-2.711-8.041l-0.01-0.002
				L70,15.033l-0.006-0.002l-0.01,0.002c-2.164,0.039-2.713,5.172-2.713,8.041c0,59.514-24.248,102.576-32.863,102.576
				c-2.188,0-1.982,1.553-1.982,4.434s8.855-0.52,11.037-0.52c7.393,0,21.77-21.311,26.537-62.219
				c4.768,40.908,19.145,62.219,26.535,62.219c2.184,0,11.039,3.4,11.039,0.52S107.779,125.65,105.594,125.65z"/>
		</g>
		<g>
			<path class="st304" d="M131.355,130.74c0,1.104-0.895,2-2,2H10.643c-1.105,0-2-0.896-2-2v-2.248c0-1.105,0.895-2,2-2h118.713
				c1.105,0,2,0.895,2,2V130.74z"/>
			<path class="st71" d="M8.643,130.74v-2.248c0-1.105,0.895-2,2-2h118.713c1.105,0,2,0.895,2,2v2.248"/>
		</g>
		<g>
			<g>
				<path class="st303" d="M45.998,95.832c0,5.449,2.312,9.867,5.168,9.867h37.668c2.854,0,5.166-4.418,5.166-9.867H45.998z"/>
				<path class="st73" d="M51.166,100.766h37.668c1.91,0,3.576-1.988,4.471-4.934H46.697
					C47.59,98.777,49.254,100.766,51.166,100.766z"/>
				<path class="st71" d="M45.998,95.832c0,5.449,2.312,9.867,5.168,9.867h37.668c2.854,0,5.166-4.418,5.166-9.867H45.998z"/>
			</g>
			<g>
				<g>
					<line class="st71" x1="61.572" y1="100.766" x2="60.691" y2="100.766"/>
					<line class="st71" x1="54.152" y1="100.766" x2="47.607" y2="100.766"/>
				</g>
				<g>
					<line class="st71" x1="78.426" y1="100.766" x2="79.307" y2="100.766"/>
					<line class="st71" x1="85.846" y1="100.766" x2="92.391" y2="100.766"/>
				</g>
			</g>
		</g>
		<g>
			<g>
				<path class="st303" d="M58.943,60.803c0,5.449,2.312,9.867,5.168,9.867h11.777c2.854,0,5.168-4.418,5.168-9.867H58.943z"/>
				<path class="st73" d="M64.111,65.736h11.777c1.912,0,3.578-1.986,4.471-4.934H59.643C60.535,63.75,62.199,65.736,64.111,65.736z
					"/>
				<path class="st71" d="M58.943,60.803c0,5.449,2.312,9.867,5.168,9.867h11.777c2.854,0,5.168-4.418,5.168-9.867H58.943z"/>
			</g>
		</g>
		<g>
			<g>
				<path class="st303" d="M52.959,77.924c0,5.447,2.312,9.865,5.168,9.865h23.748c2.854,0,5.166-4.418,5.166-9.865H52.959z"/>
				<path class="st73" d="M58.127,82.857h23.748c1.91,0,3.576-1.988,4.471-4.934H53.658C54.551,80.869,56.215,82.857,58.127,82.857z
					"/>
				<path class="st71" d="M52.959,77.924c0,5.447,2.312,9.865,5.168,9.865h23.748c2.854,0,5.166-4.418,5.166-9.865H52.959z"/>
			</g>
		</g>
		<line class="st71" x1="63.246" y1="46.535" x2="76.754" y2="46.535"/>
		<line class="st71" x1="63.246" y1="39.359" x2="76.754" y2="39.359"/>
		<line class="st71" x1="63.246" y1="32.184" x2="76.754" y2="32.184"/>
		<g>
			<g>
				<path class="st73" d="M65.678,24.727c-2.389-2.387-2.387-6.254,0.002-8.645c2.387-2.387,6.256-2.389,8.645,0
					s2.389,6.258,0,8.645C71.934,27.117,68.066,27.117,65.678,24.727z"/>
				<path class="st320" d="M70,26.52c-3.369,0.004-6.117-2.744-6.115-6.115c0.002-3.369,2.746-6.111,6.115-6.115"/>
				<path class="st366" d="M70,26.52c-3.369,0.004-6.117-2.744-6.115-6.115c0.002-3.369,2.746-6.111,6.115-6.115"/>
			</g>
			<g>
				<path class="st71" d="M65.678,24.727c-2.389-2.387-2.387-6.254,0.002-8.645c2.387-2.387,6.256-2.389,8.645,0
					s2.389,6.258,0,8.645C71.934,27.117,68.066,27.117,65.678,24.727z"/>
			</g>
		</g>
		<line class="st71" x1="70" y1="7.26" x2="70" y2="14.289"/>
	</g>
	<g>
		<g>
			<path class="st194" d="M48.137,53.377c-10.656,0-19.295-8.641-19.295-19.297c0-5.244,2.096-9.996,5.49-13.473
				c-9.705,1.012-17.271,9.217-17.271,19.188c0,10.656,8.641,19.297,19.297,19.297c5.412,0,10.301-2.232,13.805-5.822
				C49.496,53.34,48.822,53.377,48.137,53.377z"/>
		</g>
		<path class="st59" d="M44.996,53.117c-9.16-1.5-16.154-9.449-16.154-19.037c0-4.477,1.531-8.592,4.09-11.863
			c-7.596,2.592-13.061,9.787-13.061,18.26c0,8.58,5.602,15.848,13.346,18.357c1.021,0.166,2.07,0.258,3.141,0.258
			c5.039,0,9.623-1.938,13.059-5.1C47.887,53.871,46.406,53.574,44.996,53.117z"/>
		<g>
			<path class="st71" d="M48.137,53.377c-10.656,0-19.295-8.641-19.295-19.297c0-5.244,2.096-9.996,5.49-13.473
				c-9.705,1.012-17.271,9.217-17.271,19.188c0,10.656,8.641,19.297,19.297,19.297c5.412,0,10.301-2.232,13.805-5.822
				C49.496,53.34,48.822,53.377,48.137,53.377z"/>
		</g>
		<circle class="st282" cx="23.853" cy="36.875" r="1.327"/>
		<circle class="st282" cx="27.712" cy="31.809" r="0.362"/>
		<circle class="st282" cx="26.506" cy="50.746" r="0.965"/>
		<circle class="st282" cx="28.074" cy="44.768" r="0.482"/>
		<circle class="st282" cx="38.075" cy="54.035" r="0.663"/>
		<circle class="st282" cx="24.979" cy="46.283" r="0.562"/>
		<circle class="st282" cx="31.17" cy="51.992" r="1.689"/>
		<circle class="st282" cx="23.399" cy="42.988" r="0.874"/>
		<circle class="st59" cx="38.738" cy="27.074" r="0.332"/>
		<circle class="st59" cx="45.323" cy="33.779" r="0.563"/>
		<circle class="st59" cx="40.699" cy="32.01" r="0.201"/>
		<circle class="st59" cx="33.643" cy="33.217" r="0.783"/>
		<circle class="st59" cx="34.644" cy="41.297" r="1.267"/>
		<circle class="st59" cx="49.902" cy="39.785" r="0.498"/>
		<circle class="st59" cx="45.323" cy="42.344" r="0.563"/>
		<rect x="42.83" y="43.389" class="st59" width="0" height="0"/>
		<circle class="st59" cx="44.397" cy="50.746" r="0.442"/>
		<circle class="st59" cx="37.754" cy="54.035" r="1.332"/>
		<circle class="st59" cx="27.108" cy="41.779" r="0.603"/>
		<circle class="st59" cx="40.016" cy="36.875" r="0.562"/>
		<circle class="st59" cx="47.268" cy="27.572" r="0.498"/>
		<circle class="st59" cx="39.543" cy="54.154" r="0.473"/>
	</g>
</g>
</svg>
