<?xml version="1.0" encoding="utf-8"?>
<!-- Generator: Adobe Illustrator 16.0.0, SVG Export Plug-In . SVG Version: 6.00 Build 0)  -->
<!DOCTYPE svg PUBLIC "-//W3C//DTD SVG 1.1//EN" "http://www.w3.org/Graphics/SVG/1.1/DTD/svg11.dtd">
<svg version="1.1" id="Layer_1" xmlns="http://www.w3.org/2000/svg" xmlns:xlink="http://www.w3.org/1999/xlink" x="0px" y="0px"
	 width="140px" height="140px" viewBox="0 0 140 140" style="enable-background:new 0 0 140 140;" xml:space="preserve">
<style type="text/css">
<![CDATA[
	.st0{fill:#7A62F4;}
	.st1{fill:#7A8A91;}
	.st2{fill:#AA3154;}
	.st3{fill:#474B4F;}
	.st4{fill:#474C51;}
	.st5{fill:#477184;}
	.st6{fill:#AA8D5E;}
	.st7{fill:#AAF789;}
	.st8{fill:#7BE6FF;}
	.st9{fill:#7C66D8;}
	.st10{fill:#7CC0D8;}
	.st11{fill:#495359;}
	.st12{fill:#49DB7A;}
	.st13{fill:#49E500;}
	.st14{fill:#7DA8AA;}
	
		.st15{fill:none;stroke:#7C9199;stroke-width:3;stroke-linecap:round;stroke-linejoin:round;stroke-miterlimit:10;stroke-dasharray:5;}
	.st16{fill:#AD9F7F;}
	.st17{fill:none;stroke:#D3ECEF;stroke-linecap:round;stroke-linejoin:round;stroke-miterlimit:10;}
	.st18{fill:none;stroke:#C42323;stroke-width:3;stroke-linecap:round;stroke-linejoin:round;stroke-miterlimit:10;}
	.st19{fill:#AE52FF;}
	.st20{fill:#10DEF9;}
	.st21{fill:none;stroke:#267DC4;stroke-width:3;stroke-linecap:round;stroke-linejoin:round;stroke-miterlimit:10;}
	.st22{fill:#1162BA;}
	.st23{fill:#E02F2F;}
	.st24{fill:#E05368;}
	.st25{fill:#AFBFCE;}
	.st26{fill:#AFC8DD;}
	.st27{fill:#E0CC77;}
	.st28{fill:#1247B2;}
	.st29{fill:#E0DECE;}
	.st30{fill:#E0FF9C;}
	.st31{fill:none;stroke:#E21A32;stroke-linecap:round;stroke-linejoin:round;stroke-miterlimit:10;}
	.st32{fill:#13D626;}
	.st33{fill:#E2823B;}
	.st34{fill:#1462EF;}
	.st35{fill:#14B0ED;}
	.st36{fill:#1576EA;}
	.st37{fill:#15BDFF;}
	.st38{fill:#1613A5;}
	.st39{fill:#4A5056;}
	.st40{fill:#E55166;}
	.st41{fill:#E55A6B;}
	.st42{fill:#E56171;}
	.st43{fill:none;stroke:#79CC7E;stroke-width:2;stroke-linecap:round;stroke-linejoin:round;stroke-miterlimit:10;}
	.st44{fill:#4B6466;}
	.st45{opacity:0.4;fill:#79CC7E;}
	.st46{fill:#E6F1F4;}
	.st47{fill:#E6F2FC;}
	.st48{fill:#4C6362;}
	.st49{fill:#18AA67;}
	.st50{fill:#4D4D91;}
	.st51{fill:#4D575B;}
	.st52{fill:#E88E0C;}
	.st53{fill:#4DADCE;}
	.st54{fill:#E8E8E8;}
	.st55{opacity:0.3;fill:#9AA5A4;}
	.st56{fill:#80C3FF;}
	.st57{fill:#B066FF;}
	.st58{fill:#818F91;}
	.st59{fill:#B0D1D6;}
	.st60{fill:#B1DBDD;}
	.st61{fill:#B2104E;}
	.st62{fill:none;stroke:#FCFAE8;stroke-width:3;stroke-linecap:round;stroke-linejoin:round;stroke-miterlimit:10;}
	.st63{fill:#B2D1C7;}
	.st64{fill:#83ED3E;}
	.st65{fill:#83ED88;}
	.st66{fill:#8461BC;}
	.st67{fill:#84692C;}
	.st68{fill:#B3C9E2;}
	.st69{fill:none;stroke:#ED8700;stroke-width:3;stroke-linecap:round;stroke-linejoin:round;}
	.st70{fill:none;stroke:#64E2DC;stroke-width:3;stroke-linecap:round;stroke-linejoin:round;stroke-miterlimit:10;}
	.st71{fill:none;stroke:#33363A;stroke-width:3;stroke-linecap:round;stroke-linejoin:round;stroke-miterlimit:10;}
	.st72{fill:none;stroke:#33363A;stroke-width:4;stroke-linecap:round;stroke-linejoin:round;stroke-miterlimit:10;}
	.st73{fill:#85A7A8;}
	.st74{fill:#85C606;}
	.st75{fill:none;stroke:#33363A;stroke-width:5;stroke-linecap:round;stroke-linejoin:round;stroke-miterlimit:10;}
	.st76{fill:#86B2A2;}
	.st77{fill:#EA3D6A;}
	.st78{fill:#875835;}
	.st79{fill:#EA9706;}
	.st80{fill:#1C19AF;}
	.st81{fill:#EAAA0A;}
	.st82{fill:#EABC73;}
	.st83{fill:#EADFB2;}
	.st84{fill:#EAE4BE;}
	.st85{fill:#EAF2F9;}
	.st86{fill:#B7883D;}
	.st87{fill:#1CE5C3;}
	.st88{fill:#1CE8E3;}
	.st89{fill:#B7F467;}
	.st90{fill:none;stroke:#36B0CC;stroke-width:3;stroke-linecap:round;stroke-linejoin:round;stroke-miterlimit:10;}
	.st91{fill:#EBEDD3;}
	.st92{fill:none;stroke:#FFB000;stroke-width:3;stroke-linecap:round;stroke-linejoin:round;stroke-dasharray:8.2755,8.2755;}
	.st93{fill:#1DA834;}
	.st94{fill:#1DC8CC;}
	.st95{fill:#8957CE;}
	.st96{fill:#B8D3D1;}
	.st97{fill:#89A3A3;}
	.st98{fill:#1E91F9;}
	.st99{fill:#B969FF;}
	.st100{fill:#1EA6E2;}
	.st101{fill:#FFFFFF;stroke:#FFFFFF;stroke-width:2;stroke-linecap:round;stroke-linejoin:round;stroke-miterlimit:10;}
	.st102{fill:#ED4706;}
	.st103{fill:#EDA411;}
	.st104{fill:#EDDE88;}
	.st105{fill:#EDF4F4;}
	.st106{fill:#5050E2;}
	.st107{fill:#1FADE5;}
	.st108{enable-background:new    ;}
	.st109{fill:#EF4D4D;}
	.st110{fill:#EF6F7B;}
	.st111{fill:#EF9681;}
	.st112{fill:#EFA37D;}
	.st113{fill:#EFB289;}
	.st114{fill:#EFBD59;}
	.st115{fill:#EFCA0F;}
	.st116{fill:#EFEFDF;}
	.st117{fill:#526163;}
	.st118{fill:#529E54;}
	.st119{fill:#52C408;}
	.st120{fill:#5351B7;}
	.st121{fill:none;stroke:#EBEDD3;stroke-linecap:round;stroke-linejoin:round;stroke-miterlimit:10;}
	.st122{fill:#555D60;}
	.st123{fill:#55DBFF;}
	.st124{fill:none;stroke:#FFEF5A;stroke-width:2;stroke-linecap:round;stroke-linejoin:round;stroke-miterlimit:10;}
	.st125{fill:none;stroke:#FFEF5A;stroke-width:4;stroke-linecap:round;stroke-linejoin:round;stroke-miterlimit:10;}
	.st126{fill:none;stroke:#536B7C;stroke-width:3;stroke-linecap:round;stroke-linejoin:round;stroke-miterlimit:10;}
	.st127{fill:#8A9199;}
	.st128{fill:#8A998A;}
	.st129{fill:#8CE5E2;}
	.st130{fill:#BC3150;}
	.st131{fill:#595F66;}
	.st132{fill:#BC8B4B;}
	.st133{fill:#8DABC9;}
	.st134{fill:#8E7EED;}
	.st135{fill:#8EC1C1;}
	.st136{fill:#20BCF2;}
	.st137{fill:#8F56D8;}
	.st138{fill:#BEDD05;}
	.st139{fill:none;stroke:#EAD7FF;stroke-width:3;stroke-linecap:round;stroke-linejoin:round;stroke-miterlimit:10;}
	.st140{fill:#2178F7;}
	.st141{fill:#219B1E;}
	.st142{fill:#BF76FF;}
	.st143{fill:none;stroke:#88CCFF;stroke-width:3;stroke-linecap:round;stroke-linejoin:round;stroke-miterlimit:10;}
	.st144{fill:#22A1EF;}
	.st145{fill:#237AF9;}
	.st146{fill:#F2790C;}
	.st147{fill:#246DED;}
	.st148{fill:#F3FAFF;}
	.st149{fill:#25C10A;}
	.st150{fill:#F42535;}
	.st151{fill:#F4921E;}
	.st152{fill:#F4AB0B;}
	.st153{fill:#F4F3E9;}
	.st154{fill:#5A5F63;}
	.st155{fill:#26A3F7;}
	.st156{fill:#F5FEFF;}
	.st157{fill:#277AF4;}
	.st158{fill:#2792F4;}
	.st159{fill:#279377;}
	.st160{fill:#27C927;}
	.st161{fill:#5C2DE0;}
	.st162{fill:#F7441C;}
	.st163{fill:#F7910B;}
	.st164{fill:#F79E00;}
	.st165{fill:none;stroke:#FFB000;stroke-width:3;stroke-linecap:round;stroke-linejoin:round;}
	.st166{fill:#5D3EDD;}
	.st167{fill:#29CDFF;}
	.st168{fill:#5E6870;}
	.st169{fill:#F9A858;}
	.st170{fill:#F9C19B;}
	.st171{fill:#F9E446;}
	.st172{fill:#5F666B;}
	.st173{fill:#5FCE96;}
	.st174{fill:#90B2B1;}
	.st175{fill:#91EA57;}
	.st176{fill:#C11E5C;}
	.st177{fill:#C14830;}
	.st178{fill:#C17E25;}
	.st179{fill:#C1B995;}
	.st180{fill:#C1BFA7;}
	.st181{fill:none;stroke:#F9EF95;stroke-width:3;stroke-linecap:round;stroke-linejoin:round;stroke-miterlimit:10;}
	.st182{fill:#92E0FF;}
	.st183{fill:#92FC6B;}
	.st184{fill:#C28AE2;}
	.st185{fill:#939DA3;}
	.st186{fill:#C3D8D6;}
	.st187{fill:#C3DFE0;}
	.st188{fill:#C42323;}
	.st189{fill:#C4415B;}
	.st190{fill:#C480FF;}
	.st191{fill:#95AF68;}
	.st192{fill:#2A8BF4;}
	.st193{fill:#2AAD2A;}
	.st194{fill:#C5E3EA;}
	.st195{fill:#C63C4D;}
	.st196{fill:#C67A6D;}
	.st197{fill:#C6BA9B;}
	.st198{fill:#FC4259;}
	.st199{fill:#FC90A2;}
	.st200{fill:#C8DBDB;}
	.st201{fill:#FCC322;}
	.st202{fill:#FCDECA;}
	.st203{fill:#FCF8E6;}
	.st204{fill:#2E6ECC;}
	.st205{fill:#FCFCB9;}
	.st206{fill:none;stroke:#FFB000;stroke-width:3;stroke-linecap:round;stroke-linejoin:round;stroke-dasharray:8.028,8.028;}
	.st207{fill:#C9E1F2;}
	.st208{fill:#FDFFFF;}
	.st209{fill:#FF315D;}
	.st210{fill:#FF3636;}
	.st211{fill:#FF4800;}
	.st212{fill:#FF502E;}
	.st213{fill:#FF5B00;}
	.st214{fill:#FF647E;}
	.st215{fill:#FF6B06;}
	.st216{fill:#FF7639;}
	.st217{fill:#FF7892;}
	.st218{fill:#FF7900;}
	.st219{fill:#FF8103;}
	.st220{fill:#FF8500;}
	.st221{fill:#FF9100;}
	.st222{fill:#FF9700;}
	.st223{fill:#FF9E12;}
	.st224{fill:#61BBFF;}
	.st225{fill:#FFA300;}
	.st226{fill:#FFAA00;}
	.st227{fill:#FFABBF;}
	.st228{fill:#FFB000;}
	.st229{fill:#FFB206;}
	.st230{fill:#FFBC00;}
	.st231{fill:#FFBF31;}
	.st232{fill:#FFC1AE;}
	.st233{fill:#FFC200;}
	.st234{fill:#FFC757;}
	.st235{fill:#FFC817;}
	.st236{fill:#FFCE00;}
	.st237{fill:#FFD243;}
	.st238{fill:#FFD400;}
	.st239{fill:#FFD833;}
	.st240{fill:#FFD9C0;}
	.st241{fill:#FFDC10;}
	.st242{fill:#FFDE52;}
	.st243{fill:#FFE108;}
	.st244{fill:#FFE10B;}
	.st245{fill:#FFE31A;}
	.st246{fill:#FFE448;}
	.st247{fill:#FFE8C2;}
	.st248{fill:#FFE98F;}
	.st249{fill:#FFEB5A;}
	.st250{fill:#FFEDA1;}
	.st251{fill:#FFF19C;}
	.st252{fill:#FFF6E1;}
	.st253{fill:#FFF87B;}
	.st254{fill:#FFF8C7;}
	.st255{fill:#FFFCEE;}
	.st256{fill:#FFFFFF;}
	.st257{fill:#62CEDD;}
	.st258{fill:#636E72;}
	.st259{fill:none;stroke:#DDAC24;stroke-width:2;stroke-linecap:round;stroke-linejoin:round;stroke-miterlimit:10;}
	.st260{fill:#64BDFF;}
	.st261{fill:#64E2DC;}
	.st262{fill:none;}
	.st263{fill:none;stroke:#33363A;stroke-linecap:round;stroke-linejoin:round;stroke-miterlimit:10;}
	.st264{fill:#66797F;}
	.st265{fill:none;stroke:#EBC0F9;stroke-width:3;stroke-linecap:round;stroke-linejoin:round;stroke-miterlimit:10;}
	.st266{fill:#9AC1C1;}
	.st267{fill:#676E72;}
	.st268{fill:#677F7F;}
	.st269{fill:#678B99;}
	.st270{fill:#9B0751;}
	.st271{fill:#9B6743;}
	.st272{fill:#9B7335;}
	.st273{fill:none;stroke:#E0FF9C;stroke-width:3;stroke-linecap:round;stroke-linejoin:round;stroke-miterlimit:10;}
	.st274{fill:#CAD7E5;}
	.st275{fill:#CAE5E3;}
	.st276{fill:none;stroke:#FFD815;stroke-width:3;stroke-linecap:round;stroke-linejoin:round;stroke-miterlimit:10;}
	.st277{fill:none;stroke:#64C0F9;stroke-width:3;stroke-linecap:round;stroke-linejoin:round;stroke-miterlimit:10;}
	.st278{fill:#68B6DD;}
	.st279{fill:#CC445B;}
	.st280{fill:none;stroke:#66A8F7;stroke-width:3;stroke-linecap:round;stroke-linejoin:round;stroke-miterlimit:10;}
	.st281{fill:#9D67C1;}
	.st282{fill:#CCFFFF;}
	.st283{fill:#9DC0C4;}
	.st284{fill:#9E2323;}
	.st285{fill:#9E45DD;}
	.st286{fill:#CDDEE0;}
	.st287{fill:#309FD6;}
	.st288{fill:none;stroke:#ED8700;stroke-width:3;stroke-linecap:round;stroke-linejoin:round;stroke-dasharray:7.7039,7.7039;}
	.st289{fill:#CE4313;}
	.st290{fill:#CEA255;}
	.st291{fill:#9FC1B5;}
	.st292{fill:#3131DD;}
	.st293{fill:#33363A;}
	.st294{fill:#334746;}
	.st295{fill:#3380CC;}
	.st296{fill:#34C166;}
	.st297{fill:#363B3F;}
	.st298{fill:#6A797C;}
	.st299{fill:#33363A;stroke:#33363A;stroke-width:3;stroke-linecap:round;stroke-linejoin:round;stroke-miterlimit:10;}
	.st300{fill:#6C85FF;}
	.st301{opacity:0.2;fill:#3C8DA0;}
	.st302{fill:none;stroke:#5F6266;stroke-width:3;stroke-linecap:round;stroke-linejoin:round;stroke-miterlimit:10;}
	.st303{fill:#00ADDB;}
	.st304{fill:#6F898C;}
	.st305{fill:#6FAF00;}
	.st306{fill:#D0D8CA;}
	.st307{fill:#D0E0EA;}
	.st308{fill:#D0E2F4;}
	.st309{fill:none;stroke:#FFB000;stroke-width:3;stroke-linecap:round;stroke-linejoin:round;stroke-dasharray:7.8476,7.8476;}
	.st310{fill:none;stroke:#33363A;stroke-width:10;stroke-linecap:round;stroke-linejoin:round;stroke-miterlimit:10;}
	.st311{fill:#04968E;}
	.st312{fill:#D30B49;}
	.st313{fill:#D31818;}
	.st314{fill:#D34624;}
	.st315{fill:#D39F1E;}
	.st316{fill:#D3D1C1;}
	.st317{fill:#D3DADD;}
	.st318{fill:#D3E5EA;}
	.st319{fill:#055E6D;}
	.st320{fill:#059CE8;}
	.st321{fill:#064E7F;}
	.st322{fill:#066782;}
	.st323{font-size:34;}
	.st324{fill:#07563C;}
	.st325{fill:#D5E2CC;}
	.st326{fill:#3B4244;}
	.st327{fill:#D60024;}
	.st328{fill:#D6702B;}
	.st329{fill:#D68967;}
	.st330{fill:#D6A545;}
	.st331{fill:#D6CB9D;}
	.st332{fill:#3C4044;}
	.st333{fill:#08BC26;}
	.st334{fill:#097F2A;}
	.st335{fill:none;stroke:#FFAB94;stroke-width:4;stroke-linecap:round;stroke-linejoin:round;stroke-miterlimit:10;}
	.st336{fill:#3D5957;}
	.st337{fill:#3D99F4;}
	.st338{fill:#D8235F;}
	.st339{fill:#D83055;}
	.st340{fill:#D83563;}
	.st341{fill:#D83705;}
	.st342{fill:#D8533D;}
	.st343{fill:#D8D7C0;}
	.st344{fill:#3E9FF7;}
	.st345{fill:#D9F0F4;}
	.st346{fill:#705622;}
	.st347{fill:#70D63A;}
	.st348{fill:#A03F25;}
	.st349{fill:#A07F3C;}
	.st350{opacity:0.6;fill:#2670BF;}
	.st351{fill:#A0BAB9;}
	.st352{fill:#A197FC;}
	.st353{fill:#727B84;}
	.st354{fill:#A1C6C6;}
	.st355{fill:#A23FE8;}
	.st356{fill:#737F73;}
	.st357{fill:#73F4B3;}
	.st358{fill:#A31153;}
	.st359{fill:#748C4F;}
	.st360{fill:#749997;}
	.st361{fill:#0A7BE2;}
	.st362{fill:#0A8989;}
	.st363{fill:#0A912A;}
	.st364{fill:#0A9B3D;}
	.st365{fill:#0A9DBF;}
	.st366{fill:#A53CEF;}
	.st367{fill:#0ABAEA;}
	.st368{fill:#A5BFBF;}
	.st369{fill:#7799AA;}
	.st370{fill:#77D852;}
	.st371{fill:#0C4ABA;}
	.st372{fill:#DAE5E5;}
	.st373{fill:#0CA813;}
	.st374{fill:#788E8D;}
	.st375{fill:#78CFFF;}
	.st376{fill:#A8273D;}
	.st377{fill:#79CC7E;}
	.st378{fill:#0E48DB;}
	.st379{fill:#DCE7EF;}
	.st380{fill:#0E7F24;}
	.st381{fill:#DDAC24;}
	.st382{fill:#DDC872;}
	.st383{fill:#DDE6E8;}
	.st384{fill:#404449;}
	.st385{fill:#0FA88E;}
	.st386{fill:#DEF21D;}
	.st387{fill:#4120CE;}
	.st388{fill:none;stroke:#CCB13E;stroke-width:3;stroke-linecap:round;stroke-linejoin:round;stroke-miterlimit:10;}
	.st389{fill:#41F7D4;}
	.st390{fill:#DFEDEF;}
	.st391{fill:#DFF4E9;}
	.st392{fill:#DFF7F6;}
	.st393{fill:#42E6EA;}
	.st394{fill:#43474C;}
	.st395{fill:#43B1E8;}
	.st396{font-family:'MyriadPro-Bold';}
	.st397{fill:#44CC7B;}
	.st398{fill:#45484C;}
	.st399{fill:#454A4F;}
	.st400{fill:#45BA0F;}
	.st401{fill:#45CAFF;}
]]>
</style>
<g>
	<g>
		<path class="st99" d="M57.667,54.492c0-16.016,12.984-29,29-29c16.017,0,29,12.984,29,29"/>
		<path class="st355" d="M64.5,54.492c0-12.242,9.924-22.166,22.166-22.166s22.167,9.924,22.167,22.166"/>
		<g>
			<path class="st71" d="M109.789,36.992c-5.295-6.985-13.681-11.5-23.122-11.5s-17.826,4.515-23.121,11.5"/>
			<path class="st71" d="M115.667,54.492c0-2.738-0.387-5.385-1.097-7.896"/>
			<path class="st71" d="M58.764,46.597c-0.709,2.511-1.098,5.157-1.098,7.896"/>
		</g>
	</g>
	<g>
		<g>
			<g>
				<path class="st99" d="M24.333,54.492c0-16.016,12.983-29,29-29s29,12.984,29,29"/>
				<path class="st355" d="M31.167,54.492c0-12.242,9.925-22.166,22.167-22.166c12.241,0,22.167,9.924,22.167,22.166"/>
				<g>
					<path class="st71" d="M76.456,36.992c-5.295-6.985-13.681-11.5-23.122-11.5s-17.827,4.515-23.122,11.5"/>
					<path class="st71" d="M82.333,54.492c0-2.738-0.388-5.385-1.097-7.896"/>
					<path class="st71" d="M25.43,46.597c-0.709,2.511-1.097,5.157-1.097,7.896"/>
				</g>
			</g>
			<g>
				<path class="st352" d="M24.333,68.992c0-16.016,12.983-29,29-29s29,12.984,29,29"/>
				<path class="st0" d="M31.167,68.992c0-12.242,9.925-22.166,22.167-22.166c12.241,0,22.167,9.924,22.167,22.166"/>
				<g>
					<path class="st71" d="M76.456,51.492c-5.295-6.985-13.681-11.5-23.122-11.5s-17.827,4.515-23.122,11.5"/>
					<path class="st71" d="M82.333,68.992c0-2.738-0.388-5.385-1.097-7.896"/>
					<path class="st71" d="M25.43,61.097c-0.709,2.511-1.097,5.157-1.097,7.896"/>
				</g>
			</g>
			<g>
				<path class="st352" d="M57.667,68.992c0-16.016,12.984-29,29-29c16.017,0,29,12.984,29,29"/>
				<path class="st0" d="M64.5,68.992c0-12.242,9.924-22.166,22.166-22.166s22.167,9.924,22.167,22.166"/>
				<g>
					<path class="st71" d="M109.789,51.492c-5.295-6.985-13.681-11.5-23.122-11.5s-17.826,4.515-23.121,11.5"/>
					<path class="st71" d="M115.667,68.992c0-2.738-0.387-5.385-1.097-7.896"/>
					<path class="st71" d="M58.764,61.097c-0.709,2.511-1.098,5.157-1.098,7.896"/>
				</g>
			</g>
			<g>
				<path class="st393" d="M57.667,83.492c0-16.016,12.984-29,29-29c16.017,0,29,12.984,29,29"/>
				<path class="st395" d="M64.5,83.492c0-12.242,9.924-22.166,22.166-22.166s22.167,9.924,22.167,22.166"/>
				<g>
					<path class="st71" d="M109.789,65.992c-5.295-6.985-13.681-11.5-23.122-11.5s-17.826,4.515-23.121,11.5"/>
					<path class="st71" d="M115.667,83.492c0-2.738-0.387-5.385-1.097-7.896"/>
					<path class="st71" d="M58.764,75.597c-0.709,2.511-1.098,5.157-1.098,7.896"/>
				</g>
			</g>
			<g>
				<path class="st393" d="M24.333,83.492c0-16.016,12.983-29,29-29s29,12.984,29,29"/>
				<path class="st395" d="M31.167,83.492c0-12.242,9.925-22.166,22.167-22.166c12.241,0,22.167,9.924,22.167,22.166"/>
				<g>
					<path class="st71" d="M76.456,65.992c-5.295-6.985-13.681-11.5-23.122-11.5s-17.827,4.515-23.122,11.5"/>
					<path class="st71" d="M82.333,83.492c0-2.738-0.388-5.385-1.097-7.896"/>
					<path class="st71" d="M25.43,75.597c-0.709,2.511-1.097,5.157-1.097,7.896"/>
				</g>
			</g>
			<g>
				<path class="st240" d="M36.588,133.258V85.479c0-9.248,7.498-16.744,16.745-16.744l0,0c9.247,0,16.745,7.496,16.745,16.744
					v47.779"/>
				<path class="st170" d="M53.333,73.707c-9.247,0-16.745,7.496-16.745,16.744v42.807h33.49V90.451
					C70.079,81.203,62.581,73.707,53.333,73.707z"/>
				<path class="st113" d="M43.085,133.258v-24.395c0-5.658,4.587-10.248,10.248-10.248l0,0c5.661,0,10.247,4.59,10.247,10.248
					v24.395"/>
				<g>
					<path class="st247" d="M43.311,85.619c0-5.535,4.486-10.022,10.022-10.022l0,0c5.534,0,10.022,4.487,10.022,10.022"/>
					<path class="st252" d="M63.356,85.619c0-2.354-4.488-4.263-10.022-4.263l0,0c-5.536,0-10.022,1.908-10.022,4.263"/>
				</g>
				<path class="st71" d="M36.588,133.258V85.479c0-9.248,7.498-16.744,16.745-16.744l0,0c9.247,0,16.745,7.496,16.745,16.744
					v47.779"/>
			</g>
		</g>
	</g>
	<g>
		<g>
			<g>
				<path class="st240" d="M69.922,133.258V85.479c0-9.248,7.497-16.744,16.744-16.744l0,0c9.248,0,16.745,7.496,16.745,16.744
					v47.779"/>
				<path class="st170" d="M86.667,73.707c-9.247,0-16.744,7.496-16.744,16.744v42.807h33.489V90.451
					C103.412,81.203,95.915,73.707,86.667,73.707z"/>
				<path class="st113" d="M76.418,133.258v-24.395c0-5.658,4.588-10.248,10.248-10.248l0,0c5.661,0,10.248,4.59,10.248,10.248
					v24.395"/>
				<g>
					<path class="st247" d="M76.645,85.619c0-5.535,4.486-10.022,10.021-10.022l0,0c5.535,0,10.023,4.487,10.023,10.022"/>
					<path class="st252" d="M96.69,85.619c0-2.354-4.488-4.263-10.023-4.263l0,0c-5.535,0-10.021,1.908-10.021,4.263"/>
				</g>
				<path class="st71" d="M69.922,133.258V85.479c0-9.248,7.497-16.744,16.744-16.744l0,0c9.248,0,16.745,7.496,16.745,16.744
					v47.779"/>
			</g>
		</g>
	</g>
	<g>
		<g>
			<rect x="52.196" y="6.742" class="st262" width="33.537" height="33.25"/>
			<text transform="matrix(1 0 0 1 59.5293 30.8818)" class="st299 st396 st323">3</text>
			<g>
				<line class="st299" x1="82.161" y1="9.564" x2="87.804" y2="15.207"/>
				<line class="st299" x1="87.804" y1="9.564" x2="82.161" y2="15.207"/>
			</g>
		</g>
	</g>
</g>
</svg>
