<?xml version="1.0" encoding="utf-8"?>
<!-- Generator: Adobe Illustrator 16.0.0, SVG Export Plug-In . SVG Version: 6.00 Build 0)  -->
<!DOCTYPE svg PUBLIC "-//W3C//DTD SVG 1.1//EN" "http://www.w3.org/Graphics/SVG/1.1/DTD/svg11.dtd">
<svg version="1.1" id="Layer_1" xmlns="http://www.w3.org/2000/svg" xmlns:xlink="http://www.w3.org/1999/xlink" x="0px" y="0px"
	 width="140px" height="140px" viewBox="0 0 140 140" style="enable-background:new 0 0 140 140;" xml:space="preserve">
<style type="text/css">
<![CDATA[
	.st0{fill:#7A62F4;}
	.st1{fill:#7A8A91;}
	.st2{fill:#AA3154;}
	.st3{fill:#474B4F;}
	.st4{fill:#474C51;}
	.st5{fill:#477184;}
	.st6{fill:#AA8D5E;}
	.st7{fill:#AAF789;}
	.st8{fill:#7BE6FF;}
	.st9{fill:#7C66D8;}
	.st10{fill:#7CC0D8;}
	.st11{fill:#495359;}
	.st12{fill:#49DB7A;}
	.st13{fill:#49E500;}
	.st14{fill:#7DA8AA;}
	
		.st15{fill:none;stroke:#7C9199;stroke-width:3;stroke-linecap:round;stroke-linejoin:round;stroke-miterlimit:10;stroke-dasharray:5;}
	.st16{fill:#AD9F7F;}
	.st17{fill:none;stroke:#D3ECEF;stroke-linecap:round;stroke-linejoin:round;stroke-miterlimit:10;}
	.st18{fill:none;stroke:#C42323;stroke-width:3;stroke-linecap:round;stroke-linejoin:round;stroke-miterlimit:10;}
	.st19{fill:#AE52FF;}
	.st20{fill:#10DEF9;}
	.st21{fill:none;stroke:#267DC4;stroke-width:3;stroke-linecap:round;stroke-linejoin:round;stroke-miterlimit:10;}
	.st22{fill:#1162BA;}
	.st23{fill:#E02F2F;}
	.st24{fill:#E05368;}
	.st25{fill:#AFBFCE;}
	.st26{fill:#AFC8DD;}
	.st27{fill:#E0CC77;}
	.st28{fill:#1247B2;}
	.st29{fill:#E0DECE;}
	.st30{fill:#E0FF9C;}
	.st31{fill:none;stroke:#E21A32;stroke-linecap:round;stroke-linejoin:round;stroke-miterlimit:10;}
	.st32{fill:#13D626;}
	.st33{fill:#E2823B;}
	.st34{fill:#1462EF;}
	.st35{fill:#14B0ED;}
	.st36{fill:#1576EA;}
	.st37{fill:#15BDFF;}
	.st38{fill:#1613A5;}
	.st39{fill:#4A5056;}
	.st40{fill:#E55166;}
	.st41{fill:#E55A6B;}
	.st42{fill:#E56171;}
	.st43{fill:none;stroke:#79CC7E;stroke-width:2;stroke-linecap:round;stroke-linejoin:round;stroke-miterlimit:10;}
	.st44{fill:#4B6466;}
	.st45{opacity:0.4;fill:#79CC7E;}
	.st46{fill:#E6F1F4;}
	.st47{fill:#E6F2FC;}
	.st48{fill:#4C6362;}
	.st49{fill:#18AA67;}
	.st50{fill:#4D4D91;}
	.st51{fill:#4D575B;}
	.st52{fill:#E88E0C;}
	.st53{fill:#4DADCE;}
	.st54{fill:#E8E8E8;}
	.st55{opacity:0.3;fill:#9AA5A4;}
	.st56{fill:#80C3FF;}
	.st57{fill:#B066FF;}
	.st58{fill:#818F91;}
	.st59{fill:#B0D1D6;}
	.st60{fill:#B1DBDD;}
	.st61{fill:#B2104E;}
	.st62{fill:none;stroke:#FCFAE8;stroke-width:3;stroke-linecap:round;stroke-linejoin:round;stroke-miterlimit:10;}
	.st63{fill:#B2D1C7;}
	.st64{fill:#83ED3E;}
	.st65{fill:#83ED88;}
	.st66{fill:#8461BC;}
	.st67{fill:#84692C;}
	.st68{fill:#B3C9E2;}
	.st69{fill:none;stroke:#ED8700;stroke-width:3;stroke-linecap:round;stroke-linejoin:round;}
	.st70{fill:none;stroke:#64E2DC;stroke-width:3;stroke-linecap:round;stroke-linejoin:round;stroke-miterlimit:10;}
	.st71{fill:none;stroke:#33363A;stroke-width:3;stroke-linecap:round;stroke-linejoin:round;stroke-miterlimit:10;}
	.st72{fill:none;stroke:#33363A;stroke-width:4;stroke-linecap:round;stroke-linejoin:round;stroke-miterlimit:10;}
	.st73{fill:#85A7A8;}
	.st74{fill:#85C606;}
	.st75{fill:none;stroke:#33363A;stroke-width:5;stroke-linecap:round;stroke-linejoin:round;stroke-miterlimit:10;}
	.st76{fill:#86B2A2;}
	.st77{fill:#EA3D6A;}
	.st78{fill:#875835;}
	.st79{fill:#EA9706;}
	.st80{fill:#1C19AF;}
	.st81{fill:#EAAA0A;}
	.st82{fill:#EABC73;}
	.st83{fill:#EADFB2;}
	.st84{fill:#EAE4BE;}
	.st85{fill:#EAF2F9;}
	.st86{fill:#B7883D;}
	.st87{fill:#1CE5C3;}
	.st88{fill:#1CE8E3;}
	.st89{fill:#B7F467;}
	.st90{fill:none;stroke:#36B0CC;stroke-width:3;stroke-linecap:round;stroke-linejoin:round;stroke-miterlimit:10;}
	.st91{fill:#EBEDD3;}
	.st92{fill:none;stroke:#FFB000;stroke-width:3;stroke-linecap:round;stroke-linejoin:round;stroke-dasharray:8.2755,8.2755;}
	.st93{fill:#1DA834;}
	.st94{fill:#1DC8CC;}
	.st95{fill:#8957CE;}
	.st96{fill:#B8D3D1;}
	.st97{fill:#89A3A3;}
	.st98{fill:#1E91F9;}
	.st99{fill:#B969FF;}
	.st100{fill:#1EA6E2;}
	.st101{fill:#FFFFFF;stroke:#FFFFFF;stroke-width:2;stroke-linecap:round;stroke-linejoin:round;stroke-miterlimit:10;}
	.st102{fill:#ED4706;}
	.st103{fill:#EDA411;}
	.st104{fill:#EDDE88;}
	.st105{fill:#EDF4F4;}
	.st106{fill:#5050E2;}
	.st107{fill:#1FADE5;}
	.st108{enable-background:new    ;}
	.st109{fill:#EF4D4D;}
	.st110{fill:#EF6F7B;}
	.st111{fill:#EF9681;}
	.st112{fill:#EFA37D;}
	.st113{fill:#EFB289;}
	.st114{fill:#EFBD59;}
	.st115{fill:#EFCA0F;}
	.st116{fill:#EFEFDF;}
	.st117{fill:#526163;}
	.st118{fill:#529E54;}
	.st119{fill:#52C408;}
	.st120{fill:#5351B7;}
	.st121{fill:none;stroke:#EBEDD3;stroke-linecap:round;stroke-linejoin:round;stroke-miterlimit:10;}
	.st122{fill:#555D60;}
	.st123{fill:#55DBFF;}
	.st124{fill:none;stroke:#FFEF5A;stroke-width:2;stroke-linecap:round;stroke-linejoin:round;stroke-miterlimit:10;}
	.st125{fill:none;stroke:#FFEF5A;stroke-width:4;stroke-linecap:round;stroke-linejoin:round;stroke-miterlimit:10;}
	.st126{fill:none;stroke:#536B7C;stroke-width:3;stroke-linecap:round;stroke-linejoin:round;stroke-miterlimit:10;}
	.st127{fill:#8A9199;}
	.st128{fill:#8A998A;}
	.st129{fill:#8CE5E2;}
	.st130{fill:#BC3150;}
	.st131{fill:#595F66;}
	.st132{fill:#BC8B4B;}
	.st133{fill:#8DABC9;}
	.st134{fill:#8E7EED;}
	.st135{fill:#8EC1C1;}
	.st136{fill:#20BCF2;}
	.st137{fill:#8F56D8;}
	.st138{fill:#BEDD05;}
	.st139{fill:none;stroke:#EAD7FF;stroke-width:3;stroke-linecap:round;stroke-linejoin:round;stroke-miterlimit:10;}
	.st140{fill:#2178F7;}
	.st141{fill:#219B1E;}
	.st142{fill:#BF76FF;}
	.st143{fill:none;stroke:#88CCFF;stroke-width:3;stroke-linecap:round;stroke-linejoin:round;stroke-miterlimit:10;}
	.st144{fill:#22A1EF;}
	.st145{fill:#237AF9;}
	.st146{fill:#F2790C;}
	.st147{fill:#246DED;}
	.st148{fill:#F3FAFF;}
	.st149{fill:#25C10A;}
	.st150{fill:#F42535;}
	.st151{fill:#F4921E;}
	.st152{fill:#F4AB0B;}
	.st153{fill:#F4F3E9;}
	.st154{fill:#5A5F63;}
	.st155{fill:#26A3F7;}
	.st156{fill:#F5FEFF;}
	.st157{fill:#277AF4;}
	.st158{fill:#2792F4;}
	.st159{fill:#279377;}
	.st160{fill:#27C927;}
	.st161{fill:#5C2DE0;}
	.st162{fill:#F7441C;}
	.st163{fill:#F7910B;}
	.st164{fill:#F79E00;}
	.st165{fill:none;stroke:#FFB000;stroke-width:3;stroke-linecap:round;stroke-linejoin:round;}
	.st166{fill:#5D3EDD;}
	.st167{fill:#29CDFF;}
	.st168{fill:#5E6870;}
	.st169{fill:#F9A858;}
	.st170{fill:#F9C19B;}
	.st171{fill:#F9E446;}
	.st172{fill:#5F666B;}
	.st173{fill:#5FCE96;}
	.st174{fill:#90B2B1;}
	.st175{fill:#91EA57;}
	.st176{fill:#C11E5C;}
	.st177{fill:#C14830;}
	.st178{fill:#C17E25;}
	.st179{fill:#C1B995;}
	.st180{fill:#C1BFA7;}
	.st181{fill:none;stroke:#F9EF95;stroke-width:3;stroke-linecap:round;stroke-linejoin:round;stroke-miterlimit:10;}
	.st182{fill:#92E0FF;}
	.st183{fill:#92FC6B;}
	.st184{fill:#C28AE2;}
	.st185{fill:#939DA3;}
	.st186{fill:#C3D8D6;}
	.st187{fill:#C3DFE0;}
	.st188{fill:#C42323;}
	.st189{fill:#C4415B;}
	.st190{fill:#C480FF;}
	.st191{fill:#95AF68;}
	.st192{fill:#2A8BF4;}
	.st193{fill:#2AAD2A;}
	.st194{fill:#C5E3EA;}
	.st195{fill:#C63C4D;}
	.st196{fill:#C67A6D;}
	.st197{fill:#C6BA9B;}
	.st198{fill:#FC4259;}
	.st199{fill:#FC90A2;}
	.st200{fill:#C8DBDB;}
	.st201{fill:#FCC322;}
	.st202{fill:#FCDECA;}
	.st203{fill:#FCF8E6;}
	.st204{fill:#2E6ECC;}
	.st205{fill:#FCFCB9;}
	.st206{fill:none;stroke:#FFB000;stroke-width:3;stroke-linecap:round;stroke-linejoin:round;stroke-dasharray:8.028,8.028;}
	.st207{fill:#C9E1F2;}
	.st208{fill:#FDFFFF;}
	.st209{fill:#FF315D;}
	.st210{fill:#FF3636;}
	.st211{fill:#FF4800;}
	.st212{fill:#FF502E;}
	.st213{fill:#FF5B00;}
	.st214{fill:#FF647E;}
	.st215{fill:#FF6B06;}
	.st216{fill:#FF7639;}
	.st217{fill:#FF7892;}
	.st218{fill:#FF7900;}
	.st219{fill:#FF8103;}
	.st220{fill:#FF8500;}
	.st221{fill:#FF9100;}
	.st222{fill:#FF9700;}
	.st223{fill:#FF9E12;}
	.st224{fill:#61BBFF;}
	.st225{fill:#FFA300;}
	.st226{fill:#FFAA00;}
	.st227{fill:#FFABBF;}
	.st228{fill:#FFB000;}
	.st229{fill:#FFB206;}
	.st230{fill:#FFBC00;}
	.st231{fill:#FFBF31;}
	.st232{fill:#FFC1AE;}
	.st233{fill:#FFC200;}
	.st234{fill:#FFC757;}
	.st235{fill:#FFC817;}
	.st236{fill:#FFCE00;}
	.st237{fill:#FFD243;}
	.st238{fill:#FFD400;}
	.st239{fill:#FFD833;}
	.st240{fill:#FFD9C0;}
	.st241{fill:#FFDC10;}
	.st242{fill:#FFDE52;}
	.st243{fill:#FFE108;}
	.st244{fill:#FFE10B;}
	.st245{fill:#FFE31A;}
	.st246{fill:#FFE448;}
	.st247{fill:#FFE8C2;}
	.st248{fill:#FFE98F;}
	.st249{fill:#FFEB5A;}
	.st250{fill:#FFEDA1;}
	.st251{fill:#FFF19C;}
	.st252{fill:#FFF6E1;}
	.st253{fill:#FFF87B;}
	.st254{fill:#FFF8C7;}
	.st255{fill:#FFFCEE;}
	.st256{fill:#FFFFFF;}
	.st257{fill:#62CEDD;}
	.st258{fill:#636E72;}
	.st259{fill:none;stroke:#DDAC24;stroke-width:2;stroke-linecap:round;stroke-linejoin:round;stroke-miterlimit:10;}
	.st260{fill:#64BDFF;}
	.st261{fill:#64E2DC;}
	.st262{fill:none;stroke:#33363A;stroke-linecap:round;stroke-linejoin:round;stroke-miterlimit:10;}
	.st263{fill:#66797F;}
	.st264{fill:none;stroke:#EBC0F9;stroke-width:3;stroke-linecap:round;stroke-linejoin:round;stroke-miterlimit:10;}
	.st265{fill:#9AC1C1;}
	.st266{fill:#676E72;}
	.st267{fill:#677F7F;}
	.st268{fill:#678B99;}
	.st269{fill:#9B0751;}
	.st270{fill:#9B6743;}
	.st271{fill:#9B7335;}
	.st272{fill:none;stroke:#E0FF9C;stroke-width:3;stroke-linecap:round;stroke-linejoin:round;stroke-miterlimit:10;}
	.st273{fill:#CAD7E5;}
	.st274{fill:#CAE5E3;}
	.st275{fill:none;stroke:#FFD815;stroke-width:3;stroke-linecap:round;stroke-linejoin:round;stroke-miterlimit:10;}
	.st276{fill:none;stroke:#64C0F9;stroke-width:3;stroke-linecap:round;stroke-linejoin:round;stroke-miterlimit:10;}
	.st277{fill:#68B6DD;}
	.st278{fill:#CC445B;}
	.st279{fill:none;stroke:#66A8F7;stroke-width:3;stroke-linecap:round;stroke-linejoin:round;stroke-miterlimit:10;}
	.st280{fill:#9D67C1;}
	.st281{fill:#CCFFFF;}
	.st282{fill:#9DC0C4;}
	.st283{fill:#9E2323;}
	.st284{fill:#9E45DD;}
	.st285{fill:#CDDEE0;}
	.st286{fill:#309FD6;}
	.st287{fill:none;stroke:#ED8700;stroke-width:3;stroke-linecap:round;stroke-linejoin:round;stroke-dasharray:7.7039,7.7039;}
	.st288{fill:#CE4313;}
	.st289{fill:#CEA255;}
	.st290{fill:#9FC1B5;}
	.st291{fill:#3131DD;}
	.st292{fill:#33363A;}
	.st293{fill:#334746;}
	.st294{fill:#3380CC;}
	.st295{fill:#34C166;}
	.st296{fill:#363B3F;}
	.st297{fill:#6A797C;}
	.st298{fill:#33363A;stroke:#33363A;stroke-width:3;stroke-linecap:round;stroke-linejoin:round;stroke-miterlimit:10;}
	.st299{fill:#6C85FF;}
	.st300{opacity:0.2;fill:#3C8DA0;}
	.st301{fill:none;stroke:#5F6266;stroke-width:3;stroke-linecap:round;stroke-linejoin:round;stroke-miterlimit:10;}
	.st302{fill:#00ADDB;}
	.st303{fill:#6F898C;}
	.st304{fill:#6FAF00;}
	.st305{fill:#D0D8CA;}
	.st306{fill:#D0E0EA;}
	.st307{fill:#D0E2F4;}
	.st308{fill:none;stroke:#FFB000;stroke-width:3;stroke-linecap:round;stroke-linejoin:round;stroke-dasharray:7.8476,7.8476;}
	.st309{fill:none;stroke:#33363A;stroke-width:10;stroke-linecap:round;stroke-linejoin:round;stroke-miterlimit:10;}
	.st310{fill:#04968E;}
	.st311{fill:#D30B49;}
	.st312{fill:#D31818;}
	.st313{fill:#D34624;}
	.st314{fill:#D39F1E;}
	.st315{fill:#D3D1C1;}
	.st316{fill:#D3DADD;}
	.st317{fill:#D3E5EA;}
	.st318{fill:#055E6D;}
	.st319{fill:#059CE8;}
	.st320{fill:#064E7F;}
	.st321{fill:#066782;}
	.st322{fill:#07563C;}
	.st323{fill:#D5E2CC;}
	.st324{fill:#3B4244;}
	.st325{fill:#D60024;}
	.st326{fill:#D6702B;}
	.st327{fill:#D68967;}
	.st328{fill:#D6A545;}
	.st329{fill:#D6CB9D;}
	.st330{fill:#3C4044;}
	.st331{fill:#08BC26;}
	.st332{fill:#097F2A;}
	.st333{fill:none;stroke:#FFAB94;stroke-width:4;stroke-linecap:round;stroke-linejoin:round;stroke-miterlimit:10;}
	.st334{fill:#3D5957;}
	.st335{fill:#3D99F4;}
	.st336{fill:#D8235F;}
	.st337{fill:#D83055;}
	.st338{fill:#D83563;}
	.st339{fill:#D83705;}
	.st340{fill:#D8533D;}
	.st341{fill:#D8D7C0;}
	.st342{fill:#3E9FF7;}
	.st343{fill:#D9F0F4;}
	.st344{fill:#705622;}
	.st345{fill:#70D63A;}
	.st346{fill:#A03F25;}
	.st347{fill:#A07F3C;}
	.st348{opacity:0.6;fill:#2670BF;}
	.st349{fill:#A0BAB9;}
	.st350{fill:#A197FC;}
	.st351{fill:#727B84;}
	.st352{fill:#A1C6C6;}
	.st353{fill:#A23FE8;}
	.st354{fill:#737F73;}
	.st355{fill:#73F4B3;}
	.st356{fill:#A31153;}
	.st357{fill:#748C4F;}
	.st358{fill:#749997;}
	.st359{fill:#0A7BE2;}
	.st360{fill:#0A8989;}
	.st361{fill:#0A912A;}
	.st362{fill:#0A9B3D;}
	.st363{fill:#0A9DBF;}
	.st364{fill:#A53CEF;}
	.st365{fill:#0ABAEA;}
	.st366{fill:#A5BFBF;}
	.st367{fill:#7799AA;}
	.st368{fill:#77D852;}
	.st369{fill:#0C4ABA;}
	.st370{fill:#DAE5E5;}
	.st371{fill:#0CA813;}
	.st372{fill:#788E8D;}
	.st373{fill:#78CFFF;}
	.st374{fill:#A8273D;}
	.st375{fill:#79CC7E;}
	.st376{fill:#0E48DB;}
	.st377{fill:#DCE7EF;}
	.st378{fill:#0E7F24;}
	.st379{fill:#DDAC24;}
	.st380{fill:#DDC872;}
	.st381{fill:#DDE6E8;}
	.st382{fill:#404449;}
	.st383{fill:#0FA88E;}
	.st384{fill:#DEF21D;}
	.st385{fill:#4120CE;}
	.st386{fill:none;stroke:#CCB13E;stroke-width:3;stroke-linecap:round;stroke-linejoin:round;stroke-miterlimit:10;}
	.st387{fill:#41F7D4;}
	.st388{fill:#DFEDEF;}
	.st389{fill:#DFF4E9;}
	.st390{fill:#DFF7F6;}
	.st391{fill:#42E6EA;}
	.st392{fill:#43474C;}
	.st393{fill:#43B1E8;}
	.st394{fill:#44CC7B;}
	.st395{fill:#45484C;}
	.st396{fill:#454A4F;}
	.st397{fill:#45BA0F;}
	.st398{fill:#45CAFF;}
]]>
</style>
<g>
	<g>
		<g>
			<rect x="24.03" y="40.434" class="st375" width="108.143" height="56.74"/>
			<rect x="30.338" y="46.424" class="st118" width="95.525" height="44.76"/>
			<circle class="st43" cx="78.101" cy="68.805" r="22.088"/>
			<g>
				<g>
					<path class="st375" d="M76.627,95.369V81.965c-2.513-0.045-5.112-0.824-6.628-1.907l1.04-2.903
						c1.56,1.041,3.812,1.862,6.238,1.862c3.076,0,5.155-1.776,5.155-4.245c0-2.382-1.689-3.855-4.895-5.154
						c-4.42-1.732-7.148-3.727-7.148-7.494c0-3.598,2.557-6.324,6.541-6.977V41.741h2.687v13.233
						c2.599,0.086,4.375,0.779,5.632,1.517l-1.083,2.858c-0.91-0.52-2.687-1.473-5.46-1.473c-3.334,0-4.592,1.994-4.592,3.725
						c0,2.252,1.604,3.379,5.373,4.939c4.462,1.819,6.715,4.072,6.715,7.928c0,3.424-2.383,6.627-6.846,7.365v13.535H76.627z"/>
					<path class="st375" d="M79.357,97.174h-2.729c-0.997,0-1.806-0.806-1.806-1.805v-11.73c-2.246-0.295-4.392-1.057-5.871-2.111
						c-0.658-0.469-0.924-1.318-0.65-2.078l1.039-2.902c0.187-0.524,0.605-0.932,1.134-1.106c0.527-0.175,1.106-0.096,1.568,0.212
						c1.464,0.977,3.421,1.559,5.236,1.559c2.034,0,3.35-0.957,3.35-2.439c0-0.944-0.292-2.072-3.769-3.48
						c-4.082-1.601-8.275-3.949-8.275-9.168c0-4.035,2.52-7.209,6.542-8.413V41.741c0-0.997,0.809-1.806,1.806-1.806h2.687
						c0.997,0,1.806,0.809,1.806,1.806v11.575c1.752,0.246,3.314,0.781,4.739,1.616c0.761,0.445,1.088,1.375,0.776,2.198
						l-1.084,2.858c-0.188,0.494-0.581,0.882-1.078,1.061c-0.498,0.177-1.049,0.126-1.506-0.132c-0.702-0.4-2.161-1.234-4.564-1.234
						c-1.743,0-2.785,0.717-2.785,1.918c0,0.912,0.297,1.632,4.257,3.27c3.642,1.486,7.83,3.924,7.83,9.598
						c0,4.158-2.692,7.541-6.845,8.797v12.104C81.164,96.368,80.355,97.174,79.357,97.174z M79.523,68.52
						c2.418,1.17,4.717,2.967,4.717,6.252c0,0.686-0.112,1.334-0.322,1.934c0.312-0.678,0.479-1.431,0.479-2.236
						C84.396,72.211,83.545,70.32,79.523,68.52z M72.381,60.73c-0.122,0.438-0.185,0.902-0.185,1.393
						c0,2.031,0.907,3.684,5.297,5.527c-2.941-1.324-5.185-2.877-5.185-6.049C72.309,61.312,72.333,61.021,72.381,60.73z"/>
				</g>
			</g>
			<polyline class="st45" points="132.172,40.434 132.172,97.174 24.03,97.174 			"/>
			<rect x="24.03" y="40.434" class="st71" width="108.143" height="56.74"/>
			<g>
				<circle class="st375" cx="38.939" cy="53.84" r="3.313"/>
				<circle class="st375" cx="117.263" cy="83.77" r="3.313"/>
			</g>
		</g>
		<g>
			<rect x="15.929" y="28.533" class="st375" width="108.143" height="56.74"/>
			<rect x="22.238" y="34.523" class="st118" width="95.525" height="44.76"/>
			<circle class="st43" cx="70" cy="56.904" r="22.088"/>
			<g>
				<g>
					<path class="st375" d="M68.527,83.469V70.064c-2.513-0.045-5.113-0.824-6.628-1.907l1.04-2.904
						c1.56,1.042,3.812,1.863,6.238,1.863c3.075,0,5.155-1.776,5.155-4.246c0-2.382-1.689-3.854-4.896-5.153
						c-4.419-1.732-7.147-3.727-7.147-7.495c0-3.597,2.556-6.323,6.54-6.976V29.841h2.688v13.233
						c2.599,0.086,4.375,0.778,5.632,1.516l-1.083,2.859c-0.91-0.52-2.687-1.473-5.46-1.473c-3.334,0-4.592,1.994-4.592,3.725
						c0,2.252,1.604,3.379,5.373,4.939c4.462,1.818,6.714,4.072,6.714,7.928c0,3.424-2.383,6.627-6.845,7.365v13.535H68.527z"/>
					<path class="st375" d="M71.256,85.273h-2.729c-0.997,0-1.807-0.806-1.807-1.805v-11.73c-2.246-0.295-4.392-1.057-5.871-2.111
						c-0.658-0.469-0.923-1.318-0.649-2.08l1.039-2.901c0.187-0.523,0.605-0.931,1.133-1.106c0.527-0.174,1.107-0.095,1.569,0.211
						c1.463,0.979,3.421,1.561,5.236,1.561c2.034,0,3.35-0.958,3.35-2.44c0-0.943-0.292-2.071-3.77-3.481
						c-4.082-1.599-8.274-3.947-8.274-9.167c0-4.034,2.519-7.208,6.542-8.412V29.841c0-0.997,0.809-1.806,1.805-1.806h2.688
						c0.997,0,1.806,0.809,1.806,1.806v11.575c1.752,0.246,3.314,0.781,4.739,1.616c0.761,0.445,1.087,1.375,0.775,2.198
						l-1.083,2.858c-0.188,0.493-0.581,0.882-1.078,1.061c-0.498,0.177-1.049,0.126-1.507-0.132c-0.701-0.4-2.16-1.234-4.563-1.234
						c-1.744,0-2.785,0.717-2.785,1.918c0,0.912,0.296,1.632,4.257,3.27c3.641,1.486,7.83,3.923,7.83,9.598
						c0,4.158-2.693,7.541-6.846,8.797v12.104C73.062,84.468,72.253,85.273,71.256,85.273z M71.422,56.619
						c2.417,1.17,4.717,2.967,4.717,6.251c0,0.687-0.113,1.335-0.323,1.935c0.312-0.678,0.479-1.431,0.479-2.236
						C76.295,60.311,75.444,58.42,71.422,56.619z M64.281,48.83c-0.122,0.438-0.186,0.902-0.186,1.392
						c0,2.032,0.908,3.685,5.297,5.528c-2.94-1.324-5.184-2.879-5.184-6.049C64.208,49.412,64.232,49.121,64.281,48.83z"/>
				</g>
			</g>
			<polyline class="st45" points="124.072,28.533 124.072,85.273 15.929,85.273 			"/>
			<rect x="15.929" y="28.533" class="st71" width="108.143" height="56.74"/>
			<g>
				<circle class="st375" cx="30.838" cy="41.938" r="3.313"/>
				<circle class="st375" cx="109.162" cy="71.869" r="3.313"/>
			</g>
		</g>
		<g>
			<rect x="7.828" y="16.633" class="st375" width="108.143" height="56.74"/>
			<rect x="14.136" y="22.623" class="st118" width="95.525" height="44.76"/>
			<circle class="st43" cx="61.899" cy="45.004" r="22.088"/>
			<g>
				<g>
					<path class="st375" d="M60.425,71.568V58.164c-2.512-0.045-5.112-0.824-6.628-1.908l1.04-2.903
						c1.561,1.042,3.812,1.863,6.238,1.863c3.076,0,5.156-1.776,5.156-4.246c0-2.382-1.689-3.854-4.896-5.154
						c-4.419-1.731-7.148-3.726-7.148-7.494c0-3.597,2.556-6.324,6.542-6.977V17.94h2.686v13.233
						c2.599,0.086,4.375,0.778,5.632,1.516l-1.083,2.859c-0.91-0.52-2.687-1.473-5.459-1.473c-3.335,0-4.592,1.992-4.592,3.725
						c0,2.252,1.604,3.379,5.373,4.939C67.748,44.559,70,46.812,70,50.668c0,3.424-2.382,6.627-6.844,7.365v13.535H60.425z"/>
					<path class="st375" d="M63.156,73.373h-2.73c-0.997,0-1.806-0.806-1.806-1.805v-11.73c-2.246-0.295-4.392-1.057-5.871-2.111
						c-0.658-0.469-0.923-1.318-0.65-2.08l1.04-2.901c0.186-0.523,0.604-0.931,1.133-1.106c0.527-0.174,1.106-0.095,1.568,0.211
						c1.464,0.979,3.422,1.561,5.236,1.561c2.035,0,3.35-0.958,3.35-2.44c0-0.944-0.291-2.071-3.769-3.481
						c-4.082-1.599-8.274-3.947-8.274-9.167c0-4.034,2.519-7.208,6.541-8.412V17.94c0-0.997,0.809-1.806,1.807-1.806h2.686
						c0.998,0,1.807,0.809,1.807,1.806v11.575c1.752,0.244,3.313,0.781,4.738,1.616c0.762,0.444,1.088,1.374,0.775,2.198
						l-1.083,2.858c-0.187,0.493-0.581,0.882-1.078,1.06s-1.049,0.127-1.506-0.131c-0.702-0.401-2.161-1.235-4.563-1.235
						c-1.744,0-2.785,0.718-2.785,1.919c0,0.912,0.296,1.631,4.256,3.27c3.642,1.486,7.83,3.923,7.83,9.598
						c0,4.157-2.692,7.541-6.845,8.797v12.104C64.961,72.567,64.153,73.373,63.156,73.373z M63.322,44.719
						c2.417,1.169,4.717,2.967,4.717,6.251c0,0.687-0.113,1.335-0.323,1.934c0.312-0.677,0.479-1.431,0.479-2.235
						C68.194,48.41,67.343,46.52,63.322,44.719z M56.179,36.93c-0.122,0.438-0.186,0.902-0.186,1.392
						c0,2.031,0.908,3.685,5.298,5.527c-2.94-1.323-5.185-2.878-5.185-6.048C56.107,37.512,56.131,37.221,56.179,36.93z"/>
				</g>
			</g>
			<circle class="st375" cx="101.061" cy="59.967" r="3.313"/>
			<polyline class="st45" points="115.97,16.633 115.97,73.373 7.828,73.373 			"/>
			<rect x="7.828" y="16.633" class="st71" width="108.143" height="56.74"/>
			<g>
				<circle class="st375" cx="22.737" cy="30.038" r="3.313"/>
			</g>
		</g>
	</g>
	<g>
		<g>
			<g>
				<g>
					<rect x="80.736" y="110.273" class="st312" width="51.437" height="13.592"/>
					<rect x="80.736" y="110.273" class="st210" width="51.437" height="6.796"/>
					<rect x="80.736" y="110.273" class="st71" width="51.437" height="13.592"/>
					<g>
						<line class="st71" x1="85.879" y1="115.223" x2="85.879" y2="118.916"/>
						<line class="st71" x1="91.023" y1="115.223" x2="91.023" y2="118.916"/>
						<line class="st71" x1="96.167" y1="115.223" x2="96.167" y2="118.916"/>
						<line class="st71" x1="101.31" y1="115.223" x2="101.31" y2="118.916"/>
						<line class="st71" x1="106.455" y1="115.223" x2="106.455" y2="118.916"/>
						<line class="st71" x1="111.597" y1="115.223" x2="111.597" y2="118.916"/>
						<line class="st71" x1="116.742" y1="115.223" x2="116.742" y2="118.916"/>
						<line class="st71" x1="121.885" y1="115.223" x2="121.885" y2="118.916"/>
						<line class="st71" x1="127.029" y1="115.223" x2="127.029" y2="118.916"/>
					</g>
				</g>
				<g>
					<rect x="66.492" y="96.609" class="st382" width="51.437" height="13.592"/>
					<rect x="66.492" y="96.609" class="st131" width="51.437" height="6.795"/>
					<rect x="66.492" y="96.609" class="st71" width="51.437" height="13.592"/>
					<g>
						<line class="st71" x1="71.636" y1="101.559" x2="71.636" y2="105.251"/>
						<line class="st71" x1="76.779" y1="101.559" x2="76.779" y2="105.251"/>
						<line class="st71" x1="81.923" y1="101.559" x2="81.923" y2="105.251"/>
						<line class="st71" x1="87.066" y1="101.559" x2="87.066" y2="105.251"/>
						<line class="st71" x1="92.21" y1="101.559" x2="92.21" y2="105.251"/>
						<line class="st71" x1="97.354" y1="101.559" x2="97.354" y2="105.251"/>
						<line class="st71" x1="102.498" y1="101.559" x2="102.498" y2="105.251"/>
						<line class="st71" x1="107.641" y1="101.559" x2="107.641" y2="105.251"/>
						<line class="st71" x1="112.785" y1="101.559" x2="112.785" y2="105.251"/>
					</g>
				</g>
			</g>
			<g>
				<g>
					<rect x="80.736" y="83.018" class="st312" width="51.437" height="13.592"/>
					<rect x="80.736" y="83.018" class="st210" width="51.437" height="6.796"/>
					<rect x="80.736" y="83.018" class="st71" width="51.437" height="13.592"/>
					<g>
						<line class="st71" x1="85.879" y1="87.967" x2="85.879" y2="91.66"/>
						<line class="st71" x1="91.023" y1="87.967" x2="91.023" y2="91.66"/>
						<line class="st71" x1="96.167" y1="87.967" x2="96.167" y2="91.66"/>
						<line class="st71" x1="101.31" y1="87.967" x2="101.31" y2="91.66"/>
						<line class="st71" x1="106.455" y1="87.967" x2="106.455" y2="91.66"/>
						<line class="st71" x1="111.597" y1="87.967" x2="111.597" y2="91.66"/>
						<line class="st71" x1="116.742" y1="87.967" x2="116.742" y2="91.66"/>
						<line class="st71" x1="121.885" y1="87.967" x2="121.885" y2="91.66"/>
						<line class="st71" x1="127.029" y1="87.967" x2="127.029" y2="91.66"/>
					</g>
				</g>
				<g>
					<rect x="66.492" y="69.354" class="st382" width="51.437" height="13.591"/>
					<rect x="66.492" y="69.354" class="st131" width="51.437" height="6.795"/>
					<rect x="66.492" y="69.354" class="st71" width="51.437" height="13.591"/>
					<g>
						<line class="st71" x1="71.636" y1="74.303" x2="71.636" y2="77.995"/>
						<line class="st71" x1="76.779" y1="74.303" x2="76.779" y2="77.995"/>
						<line class="st71" x1="81.923" y1="74.303" x2="81.923" y2="77.995"/>
						<line class="st71" x1="87.066" y1="74.303" x2="87.066" y2="77.995"/>
						<line class="st71" x1="92.21" y1="74.303" x2="92.21" y2="77.995"/>
						<line class="st71" x1="97.354" y1="74.303" x2="97.354" y2="77.995"/>
						<line class="st71" x1="102.498" y1="74.303" x2="102.498" y2="77.995"/>
						<line class="st71" x1="107.641" y1="74.303" x2="107.641" y2="77.995"/>
						<line class="st71" x1="112.785" y1="74.303" x2="112.785" y2="77.995"/>
					</g>
				</g>
			</g>
			<g>
				<g>
					<rect x="80.736" y="55.762" class="st312" width="51.437" height="13.592"/>
					<rect x="80.736" y="55.762" class="st210" width="51.437" height="6.795"/>
					<rect x="80.736" y="55.762" class="st71" width="51.437" height="13.592"/>
					<g>
						<line class="st71" x1="85.879" y1="60.711" x2="85.879" y2="64.404"/>
						<line class="st71" x1="91.023" y1="60.711" x2="91.023" y2="64.404"/>
						<line class="st71" x1="96.167" y1="60.711" x2="96.167" y2="64.404"/>
						<line class="st71" x1="101.31" y1="60.711" x2="101.31" y2="64.404"/>
						<line class="st71" x1="106.455" y1="60.711" x2="106.455" y2="64.404"/>
						<line class="st71" x1="111.597" y1="60.711" x2="111.597" y2="64.404"/>
						<line class="st71" x1="116.742" y1="60.711" x2="116.742" y2="64.404"/>
						<line class="st71" x1="121.885" y1="60.711" x2="121.885" y2="64.404"/>
						<line class="st71" x1="127.029" y1="60.711" x2="127.029" y2="64.404"/>
					</g>
				</g>
				<g>
					<rect x="66.492" y="42.097" class="st382" width="51.437" height="13.592"/>
					<rect x="66.492" y="42.097" class="st131" width="51.437" height="6.796"/>
					<rect x="66.492" y="42.097" class="st71" width="51.437" height="13.592"/>
					<g>
						<line class="st71" x1="71.636" y1="47.047" x2="71.636" y2="50.739"/>
						<line class="st71" x1="76.779" y1="47.047" x2="76.779" y2="50.739"/>
						<line class="st71" x1="81.923" y1="47.047" x2="81.923" y2="50.739"/>
						<line class="st71" x1="87.066" y1="47.047" x2="87.066" y2="50.739"/>
						<line class="st71" x1="92.21" y1="47.047" x2="92.21" y2="50.739"/>
						<line class="st71" x1="97.354" y1="47.047" x2="97.354" y2="50.739"/>
						<line class="st71" x1="102.498" y1="47.047" x2="102.498" y2="50.739"/>
						<line class="st71" x1="107.641" y1="47.047" x2="107.641" y2="50.739"/>
						<line class="st71" x1="112.785" y1="47.047" x2="112.785" y2="50.739"/>
					</g>
				</g>
			</g>
		</g>
		<g>
			<line class="st71" x1="82.638" y1="123.865" x2="63.814" y2="123.865"/>
			<line class="st71" x1="56.871" y1="123.865" x2="53.111" y2="123.865"/>
			<line class="st71" x1="44.937" y1="123.865" x2="45.114" y2="123.865"/>
		</g>
	</g>
	<g>
		<circle class="st246" cx="45.864" cy="88.177" r="29.882"/>
		<path class="st237" d="M66.993,67.047l-42.259,42.26c11.67,11.669,30.59,11.67,42.26,0C78.663,97.638,78.663,78.717,66.993,67.047
			z"/>
		<circle class="st379" cx="45.864" cy="88.177" r="22.137"/>
		<path class="st314" d="M61.517,72.523l-31.308,31.308c8.646,8.646,22.663,8.645,31.308,0
			C70.163,95.186,70.164,81.168,61.517,72.523z"/>
		<circle class="st71" cx="45.864" cy="88.177" r="29.882"/>
		<g>
			<line class="st259" x1="64.457" y1="69.584" x2="63.174" y2="70.867"/>
			<line class="st259" x1="28.554" y1="105.487" x2="27.271" y2="106.77"/>
		</g>
		<g>
			<line class="st259" x1="72.157" y1="88.177" x2="70.343" y2="88.178"/>
			<line class="st259" x1="21.384" y1="88.178" x2="19.57" y2="88.178"/>
		</g>
		<g>
			<line class="st259" x1="64.457" y1="106.77" x2="63.173" y2="105.487"/>
			<line class="st259" x1="28.553" y1="70.867" x2="27.271" y2="69.584"/>
		</g>
		<g>
			<line class="st259" x1="45.864" y1="114.471" x2="45.864" y2="112.657"/>
			<line class="st259" x1="45.864" y1="63.697" x2="45.863" y2="61.883"/>
		</g>
		<g>
			<path class="st246" d="M43.904,86.3c0.072,0.292,0.221,0.548,0.419,0.747c0.377,0.376,0.935,0.553,1.489,0.42
				c0.85-0.206,1.373-1.06,1.166-1.909c-0.272-1.129-0.089-2.298,0.517-3.29c0.605-0.991,1.562-1.688,2.69-1.959
				c1.129-0.273,2.297-0.092,3.289,0.515s1.687,1.563,1.959,2.691c0.206,0.845,1.056,1.37,1.908,1.165
				c0.85-0.205,1.371-1.059,1.167-1.908c-0.298-1.238-0.896-2.354-1.728-3.272l2.457-2.457c0.618-0.618,0.617-1.619,0-2.237
				c-0.616-0.616-1.619-0.617-2.236,0l-2.835,2.835c-1.483-0.642-3.125-0.793-4.725-0.406c-1.95,0.47-3.601,1.673-4.646,3.386
				C43.749,82.332,43.433,84.35,43.904,86.3z"/>
			<path class="st246" d="M47.808,90.074c-0.207-0.846-1.057-1.37-1.908-1.166c-0.85,0.205-1.371,1.061-1.166,1.908
				c0.563,2.332-0.875,4.688-3.205,5.251c-2.332,0.563-4.685-0.878-5.248-3.207c-0.207-0.846-1.059-1.371-1.909-1.166
				c-0.847,0.204-1.372,1.06-1.165,1.908c0.304,1.26,0.923,2.359,1.738,3.259l-2.453,2.453c-0.617,0.617-0.617,1.621,0,2.238
				s1.619,0.616,2.237-0.002l2.814-2.814c1.441,0.621,3.087,0.801,4.728,0.406C46.297,98.168,48.782,94.101,47.808,90.074z"/>
		</g>
	</g>
</g>
</svg>
