<?xml version="1.0" encoding="utf-8"?>
<!-- Generator: Adobe Illustrator 16.0.0, SVG Export Plug-In . SVG Version: 6.00 Build 0)  -->
<!DOCTYPE svg PUBLIC "-//W3C//DTD SVG 1.1//EN" "http://www.w3.org/Graphics/SVG/1.1/DTD/svg11.dtd">
<svg version="1.1" id="Layer_1" xmlns="http://www.w3.org/2000/svg" xmlns:xlink="http://www.w3.org/1999/xlink" x="0px" y="0px"
	 width="140px" height="140px" viewBox="0 0 140 140" style="enable-background:new 0 0 140 140;" xml:space="preserve">
<style type="text/css">
<![CDATA[
	.st0{fill:#7A62F4;}
	.st1{fill:#7A8A91;}
	.st2{fill:#AA3154;}
	.st3{fill:#474B4F;}
	.st4{fill:#474C51;}
	.st5{fill:#477184;}
	.st6{fill:#AA8D5E;}
	.st7{fill:#AAF789;}
	.st8{fill:#7BE6FF;}
	.st9{fill:#7C66D8;}
	.st10{fill:#7CC0D8;}
	.st11{fill:#495359;}
	.st12{fill:#49DB7A;}
	.st13{fill:#49E500;}
	.st14{fill:#7DA8AA;}
	
		.st15{fill:none;stroke:#7C9199;stroke-width:3;stroke-linecap:round;stroke-linejoin:round;stroke-miterlimit:10;stroke-dasharray:5;}
	.st16{fill:#AD9F7F;}
	.st17{fill:none;stroke:#D3ECEF;stroke-linecap:round;stroke-linejoin:round;stroke-miterlimit:10;}
	.st18{fill:none;stroke:#C42323;stroke-width:3;stroke-linecap:round;stroke-linejoin:round;stroke-miterlimit:10;}
	.st19{fill:#AE52FF;}
	.st20{fill:#10DEF9;}
	.st21{fill:none;stroke:#267DC4;stroke-width:3;stroke-linecap:round;stroke-linejoin:round;stroke-miterlimit:10;}
	.st22{fill:#1162BA;}
	.st23{fill:#E02F2F;}
	.st24{fill:#E05368;}
	.st25{fill:#AFBFCE;}
	.st26{fill:#AFC8DD;}
	.st27{fill:#E0CC77;}
	.st28{fill:#1247B2;}
	.st29{fill:#E0DECE;}
	.st30{fill:#E0FF9C;}
	.st31{fill:none;stroke:#E21A32;stroke-linecap:round;stroke-linejoin:round;stroke-miterlimit:10;}
	.st32{fill:#13D626;}
	.st33{fill:#E2823B;}
	.st34{fill:#1462EF;}
	.st35{fill:#14B0ED;}
	.st36{fill:#1576EA;}
	.st37{fill:#15BDFF;}
	.st38{fill:#1613A5;}
	.st39{fill:#4A5056;}
	.st40{fill:#E55166;}
	.st41{fill:#E55A6B;}
	.st42{fill:#E56171;}
	.st43{fill:none;stroke:#79CC7E;stroke-width:2;stroke-linecap:round;stroke-linejoin:round;stroke-miterlimit:10;}
	.st44{fill:#4B6466;}
	.st45{opacity:0.4;fill:#79CC7E;}
	.st46{fill:#E6F1F4;}
	.st47{fill:#E6F2FC;}
	.st48{fill:#4C6362;}
	.st49{fill:#18AA67;}
	.st50{fill:#4D4D91;}
	.st51{fill:#4D575B;}
	.st52{fill:#E88E0C;}
	.st53{fill:#4DADCE;}
	.st54{fill:#E8E8E8;}
	.st55{opacity:0.3;fill:#9AA5A4;}
	.st56{fill:#80C3FF;}
	.st57{fill:#B066FF;}
	.st58{fill:#818F91;}
	.st59{fill:#B0D1D6;}
	.st60{fill:#B1DBDD;}
	.st61{fill:#B2104E;}
	.st62{fill:none;stroke:#FCFAE8;stroke-width:3;stroke-linecap:round;stroke-linejoin:round;stroke-miterlimit:10;}
	.st63{fill:#B2D1C7;}
	.st64{fill:#83ED3E;}
	.st65{fill:#83ED88;}
	.st66{fill:#8461BC;}
	.st67{fill:#84692C;}
	.st68{fill:#B3C9E2;}
	.st69{fill:none;stroke:#ED8700;stroke-width:3;stroke-linecap:round;stroke-linejoin:round;}
	.st70{fill:none;stroke:#64E2DC;stroke-width:3;stroke-linecap:round;stroke-linejoin:round;stroke-miterlimit:10;}
	.st71{fill:none;stroke:#33363A;stroke-width:3;stroke-linecap:round;stroke-linejoin:round;stroke-miterlimit:10;}
	.st72{fill:none;stroke:#33363A;stroke-width:4;stroke-linecap:round;stroke-linejoin:round;stroke-miterlimit:10;}
	.st73{fill:#85A7A8;}
	.st74{fill:#85C606;}
	.st75{fill:none;stroke:#33363A;stroke-width:5;stroke-linecap:round;stroke-linejoin:round;stroke-miterlimit:10;}
	.st76{fill:#86B2A2;}
	.st77{fill:#EA3D6A;}
	.st78{fill:#875835;}
	.st79{fill:#EA9706;}
	.st80{fill:#1C19AF;}
	.st81{fill:#EAAA0A;}
	.st82{fill:#EABC73;}
	.st83{fill:#EADFB2;}
	.st84{fill:#EAE4BE;}
	.st85{fill:#EAF2F9;}
	.st86{fill:#B7883D;}
	.st87{fill:#1CE5C3;}
	.st88{fill:#1CE8E3;}
	.st89{fill:#B7F467;}
	.st90{fill:none;stroke:#36B0CC;stroke-width:3;stroke-linecap:round;stroke-linejoin:round;stroke-miterlimit:10;}
	.st91{fill:#EBEDD3;}
	.st92{fill:none;stroke:#FFB000;stroke-width:3;stroke-linecap:round;stroke-linejoin:round;stroke-dasharray:8.2755,8.2755;}
	.st93{fill:#1DA834;}
	.st94{fill:#1DC8CC;}
	.st95{fill:#8957CE;}
	.st96{fill:#B8D3D1;}
	.st97{fill:#89A3A3;}
	.st98{fill:#1E91F9;}
	.st99{fill:#B969FF;}
	.st100{fill:#1EA6E2;}
	.st101{fill:#FFFFFF;stroke:#FFFFFF;stroke-width:2;stroke-linecap:round;stroke-linejoin:round;stroke-miterlimit:10;}
	.st102{fill:#ED4706;}
	.st103{fill:#EDA411;}
	.st104{fill:#EDDE88;}
	.st105{fill:#EDF4F4;}
	.st106{fill:#5050E2;}
	.st107{fill:#1FADE5;}
	.st108{enable-background:new    ;}
	.st109{fill:#EF4D4D;}
	.st110{fill:#EF6F7B;}
	.st111{fill:#EF9681;}
	.st112{fill:#EFA37D;}
	.st113{fill:#EFB289;}
	.st114{fill:#EFBD59;}
	.st115{fill:#EFCA0F;}
	.st116{fill:#EFEFDF;}
	.st117{fill:#526163;}
	.st118{fill:#529E54;}
	.st119{fill:#52C408;}
	.st120{fill:#5351B7;}
	.st121{fill:none;stroke:#EBEDD3;stroke-linecap:round;stroke-linejoin:round;stroke-miterlimit:10;}
	.st122{fill:#555D60;}
	.st123{fill:#55DBFF;}
	.st124{fill:none;stroke:#FFEF5A;stroke-width:2;stroke-linecap:round;stroke-linejoin:round;stroke-miterlimit:10;}
	.st125{fill:none;stroke:#FFEF5A;stroke-width:4;stroke-linecap:round;stroke-linejoin:round;stroke-miterlimit:10;}
	.st126{fill:none;stroke:#536B7C;stroke-width:3;stroke-linecap:round;stroke-linejoin:round;stroke-miterlimit:10;}
	.st127{fill:#8A9199;}
	.st128{fill:#8A998A;}
	.st129{fill:#8CE5E2;}
	.st130{fill:#BC3150;}
	.st131{fill:#595F66;}
	.st132{fill:#BC8B4B;}
	.st133{fill:#8DABC9;}
	.st134{fill:#8E7EED;}
	.st135{fill:#8EC1C1;}
	.st136{fill:#20BCF2;}
	.st137{fill:#8F56D8;}
	.st138{fill:#BEDD05;}
	.st139{fill:none;stroke:#EAD7FF;stroke-width:3;stroke-linecap:round;stroke-linejoin:round;stroke-miterlimit:10;}
	.st140{fill:#2178F7;}
	.st141{fill:#219B1E;}
	.st142{fill:#BF76FF;}
	.st143{fill:none;stroke:#88CCFF;stroke-width:3;stroke-linecap:round;stroke-linejoin:round;stroke-miterlimit:10;}
	.st144{fill:#22A1EF;}
	.st145{fill:#237AF9;}
	.st146{fill:#F2790C;}
	.st147{fill:#246DED;}
	.st148{fill:#F3FAFF;}
	.st149{fill:#25C10A;}
	.st150{fill:#F42535;}
	.st151{fill:#F4921E;}
	.st152{fill:#F4AB0B;}
	.st153{fill:#F4F3E9;}
	.st154{fill:#5A5F63;}
	.st155{fill:#26A3F7;}
	.st156{fill:#F5FEFF;}
	.st157{fill:#277AF4;}
	.st158{fill:#2792F4;}
	.st159{fill:#279377;}
	.st160{fill:#27C927;}
	.st161{fill:#5C2DE0;}
	.st162{fill:#F7441C;}
	.st163{fill:#F7910B;}
	.st164{fill:#F79E00;}
	.st165{fill:none;stroke:#FFB000;stroke-width:3;stroke-linecap:round;stroke-linejoin:round;}
	.st166{fill:#5D3EDD;}
	.st167{fill:#29CDFF;}
	.st168{fill:#5E6870;}
	.st169{fill:#F9A858;}
	.st170{fill:#F9C19B;}
	.st171{fill:#F9E446;}
	.st172{fill:#5F666B;}
	.st173{fill:#5FCE96;}
	.st174{fill:#90B2B1;}
	.st175{fill:#91EA57;}
	.st176{fill:#C11E5C;}
	.st177{fill:#C14830;}
	.st178{fill:#C17E25;}
	.st179{fill:#C1B995;}
	.st180{fill:#C1BFA7;}
	.st181{fill:none;stroke:#F9EF95;stroke-width:3;stroke-linecap:round;stroke-linejoin:round;stroke-miterlimit:10;}
	.st182{fill:#92E0FF;}
	.st183{fill:#92FC6B;}
	.st184{fill:#C28AE2;}
	.st185{fill:#939DA3;}
	.st186{fill:#C3D8D6;}
	.st187{fill:#C3DFE0;}
	.st188{fill:#C42323;}
	.st189{fill:#C4415B;}
	.st190{fill:#C480FF;}
	.st191{fill:#95AF68;}
	.st192{fill:#2A8BF4;}
	.st193{fill:#2AAD2A;}
	.st194{fill:#C5E3EA;}
	.st195{fill:#C63C4D;}
	.st196{fill:#C67A6D;}
	.st197{fill:#C6BA9B;}
	.st198{fill:#FC4259;}
	.st199{fill:#FC90A2;}
	.st200{fill:#C8DBDB;}
	.st201{fill:#FCC322;}
	.st202{fill:#FCDECA;}
	.st203{fill:#FCF8E6;}
	.st204{fill:#2E6ECC;}
	.st205{fill:#FCFCB9;}
	.st206{fill:none;stroke:#FFB000;stroke-width:3;stroke-linecap:round;stroke-linejoin:round;stroke-dasharray:8.028,8.028;}
	.st207{fill:#C9E1F2;}
	.st208{fill:#FDFFFF;}
	.st209{fill:#FF315D;}
	.st210{fill:#FF3636;}
	.st211{fill:#FF4800;}
	.st212{fill:#FF502E;}
	.st213{fill:#FF5B00;}
	.st214{fill:#FF647E;}
	.st215{fill:#FF6B06;}
	.st216{fill:#FF7639;}
	.st217{fill:#FF7892;}
	.st218{fill:#FF7900;}
	.st219{fill:#FF8103;}
	.st220{fill:#FF8500;}
	.st221{fill:#FF9100;}
	.st222{fill:#FF9700;}
	.st223{fill:#FF9E12;}
	.st224{fill:#61BBFF;}
	.st225{fill:#FFA300;}
	.st226{fill:#FFAA00;}
	.st227{fill:#FFABBF;}
	.st228{fill:#FFB000;}
	.st229{fill:#FFB206;}
	.st230{fill:#FFBC00;}
	.st231{fill:#FFBF31;}
	.st232{fill:#FFC1AE;}
	.st233{fill:#FFC200;}
	.st234{fill:#FFC757;}
	.st235{fill:#FFC817;}
	.st236{fill:#FFCE00;}
	.st237{fill:#FFD243;}
	.st238{fill:#FFD400;}
	.st239{fill:#FFD833;}
	.st240{fill:#FFD9C0;}
	.st241{fill:#FFDC10;}
	.st242{fill:#FFDE52;}
	.st243{fill:#FFE108;}
	.st244{fill:#FFE10B;}
	.st245{fill:#FFE31A;}
	.st246{fill:#FFE448;}
	.st247{fill:#FFE8C2;}
	.st248{fill:#FFE98F;}
	.st249{fill:#FFEB5A;}
	.st250{fill:#FFEDA1;}
	.st251{fill:#FFF19C;}
	.st252{fill:#FFF6E1;}
	.st253{fill:#FFF87B;}
	.st254{fill:#FFF8C7;}
	.st255{fill:#FFFCEE;}
	.st256{fill:#FFFFFF;}
	.st257{fill:#62CEDD;}
	.st258{fill:#636E72;}
	.st259{fill:none;stroke:#DDAC24;stroke-width:2;stroke-linecap:round;stroke-linejoin:round;stroke-miterlimit:10;}
	.st260{fill:#64BDFF;}
	.st261{fill:#64E2DC;}
	.st262{fill:none;stroke:#33363A;stroke-linecap:round;stroke-linejoin:round;stroke-miterlimit:10;}
	.st263{fill:#66797F;}
	.st264{fill:none;stroke:#EBC0F9;stroke-width:3;stroke-linecap:round;stroke-linejoin:round;stroke-miterlimit:10;}
	.st265{fill:#9AC1C1;}
	.st266{fill:#676E72;}
	.st267{fill:#677F7F;}
	.st268{fill:#678B99;}
	.st269{fill:#9B0751;}
	.st270{fill:#9B6743;}
	.st271{fill:#9B7335;}
	.st272{fill:none;stroke:#E0FF9C;stroke-width:3;stroke-linecap:round;stroke-linejoin:round;stroke-miterlimit:10;}
	.st273{fill:#CAD7E5;}
	.st274{fill:#CAE5E3;}
	.st275{fill:none;stroke:#FFD815;stroke-width:3;stroke-linecap:round;stroke-linejoin:round;stroke-miterlimit:10;}
	.st276{fill:none;stroke:#64C0F9;stroke-width:3;stroke-linecap:round;stroke-linejoin:round;stroke-miterlimit:10;}
	.st277{fill:#68B6DD;}
	.st278{fill:#CC445B;}
	.st279{fill:none;stroke:#66A8F7;stroke-width:3;stroke-linecap:round;stroke-linejoin:round;stroke-miterlimit:10;}
	.st280{fill:#9D67C1;}
	.st281{fill:#CCFFFF;}
	.st282{fill:#9DC0C4;}
	.st283{fill:#9E2323;}
	.st284{fill:#9E45DD;}
	.st285{fill:#CDDEE0;}
	.st286{fill:#309FD6;}
	.st287{fill:none;stroke:#ED8700;stroke-width:3;stroke-linecap:round;stroke-linejoin:round;stroke-dasharray:7.7039,7.7039;}
	.st288{fill:#CE4313;}
	.st289{fill:#CEA255;}
	.st290{fill:#9FC1B5;}
	.st291{fill:#3131DD;}
	.st292{fill:#33363A;}
	.st293{fill:#334746;}
	.st294{fill:#3380CC;}
	.st295{fill:#34C166;}
	.st296{fill:#363B3F;}
	.st297{fill:#6A797C;}
	.st298{fill:#33363A;stroke:#33363A;stroke-width:3;stroke-linecap:round;stroke-linejoin:round;stroke-miterlimit:10;}
	.st299{fill:#6C85FF;}
	.st300{opacity:0.2;fill:#3C8DA0;}
	.st301{fill:none;stroke:#5F6266;stroke-width:3;stroke-linecap:round;stroke-linejoin:round;stroke-miterlimit:10;}
	.st302{fill:#00ADDB;}
	.st303{fill:#6F898C;}
	.st304{fill:#6FAF00;}
	.st305{fill:#D0D8CA;}
	.st306{fill:#D0E0EA;}
	.st307{fill:#D0E2F4;}
	.st308{fill:none;stroke:#FFB000;stroke-width:3;stroke-linecap:round;stroke-linejoin:round;stroke-dasharray:7.8476,7.8476;}
	.st309{fill:none;stroke:#33363A;stroke-width:10;stroke-linecap:round;stroke-linejoin:round;stroke-miterlimit:10;}
	.st310{fill:#04968E;}
	.st311{fill:#D30B49;}
	.st312{fill:#D31818;}
	.st313{fill:#D34624;}
	.st314{fill:#D39F1E;}
	.st315{fill:#D3D1C1;}
	.st316{fill:#D3DADD;}
	.st317{fill:#D3E5EA;}
	.st318{fill:#055E6D;}
	.st319{fill:#059CE8;}
	.st320{fill:#064E7F;}
	.st321{fill:#066782;}
	.st322{fill:#07563C;}
	.st323{fill:#D5E2CC;}
	.st324{fill:#3B4244;}
	.st325{fill:#D60024;}
	.st326{fill:#D6702B;}
	.st327{fill:#D68967;}
	.st328{fill:#D6A545;}
	.st329{fill:#D6CB9D;}
	.st330{fill:#3C4044;}
	.st331{fill:#08BC26;}
	.st332{fill:#097F2A;}
	.st333{fill:none;stroke:#FFAB94;stroke-width:4;stroke-linecap:round;stroke-linejoin:round;stroke-miterlimit:10;}
	.st334{fill:#3D5957;}
	.st335{fill:#3D99F4;}
	.st336{fill:#D8235F;}
	.st337{fill:#D83055;}
	.st338{fill:#D83563;}
	.st339{fill:#D83705;}
	.st340{fill:#D8533D;}
	.st341{fill:#D8D7C0;}
	.st342{fill:#3E9FF7;}
	.st343{fill:#D9F0F4;}
	.st344{fill:#705622;}
	.st345{fill:#70D63A;}
	.st346{fill:#A03F25;}
	.st347{fill:#A07F3C;}
	.st348{opacity:0.6;fill:#2670BF;}
	.st349{fill:#A0BAB9;}
	.st350{fill:#A197FC;}
	.st351{fill:#727B84;}
	.st352{fill:#A1C6C6;}
	.st353{fill:#A23FE8;}
	.st354{fill:#737F73;}
	.st355{fill:#73F4B3;}
	.st356{fill:#A31153;}
	.st357{fill:#748C4F;}
	.st358{fill:#749997;}
	.st359{fill:#0A7BE2;}
	.st360{fill:#0A8989;}
	.st361{fill:#0A912A;}
	.st362{fill:#0A9B3D;}
	.st363{fill:#0A9DBF;}
	.st364{fill:#A53CEF;}
	.st365{fill:#0ABAEA;}
	.st366{fill:#A5BFBF;}
	.st367{fill:#7799AA;}
	.st368{fill:#77D852;}
	.st369{fill:#0C4ABA;}
	.st370{fill:#DAE5E5;}
	.st371{fill:#0CA813;}
	.st372{fill:#788E8D;}
	.st373{fill:#78CFFF;}
	.st374{fill:#A8273D;}
	.st375{fill:#79CC7E;}
	.st376{fill:#0E48DB;}
	.st377{fill:#DCE7EF;}
	.st378{fill:#0E7F24;}
	.st379{fill:#DDAC24;}
	.st380{fill:#DDC872;}
	.st381{fill:#DDE6E8;}
	.st382{fill:#404449;}
	.st383{fill:#0FA88E;}
	.st384{fill:#DEF21D;}
	.st385{fill:#4120CE;}
	.st386{fill:none;stroke:#CCB13E;stroke-width:3;stroke-linecap:round;stroke-linejoin:round;stroke-miterlimit:10;}
	.st387{fill:#41F7D4;}
	.st388{fill:#DFEDEF;}
	.st389{fill:#DFF4E9;}
	.st390{fill:#DFF7F6;}
	.st391{fill:#42E6EA;}
	.st392{fill:#43474C;}
	.st393{fill:#43B1E8;}
	.st394{fill:#44CC7B;}
	.st395{fill:#45484C;}
	.st396{fill:#454A4F;}
	.st397{fill:#45BA0F;}
	.st398{fill:#45CAFF;}
]]>
</style>
<g>
	<path class="st388" d="M40.84,11.931c0.43,2.39,1.582,4.53,3.234,6.171c-0.266,0.752-0.419,1.558-0.419,2.401
		c0,1.298,0.35,2.513,0.95,3.565c-0.424,0.718-0.684,1.546-0.684,2.441c0,1.689,0.87,3.171,2.184,4.033
		c-0.044,0.261-0.081,0.523-0.081,0.796c0,1.93,1.14,3.581,2.774,4.354c-0.016,0.159-0.048,0.312-0.048,0.476
		c0,2.667,2.163,4.829,4.83,4.829s4.83-2.162,4.83-4.829c0-0.636-0.131-1.24-0.354-1.796c0.118,0.008,0.231,0.035,0.354,0.035
		c1.807,0,3.363-1.004,4.191-2.475c1.485,1.525,3.559,2.475,5.855,2.475c4.404,0,7.986-3.484,8.163-7.846
		c0.166,0.008,0.329,0.025,0.496,0.025c5.62,0,10.308-3.996,11.379-9.302c2.625-0.993,4.791-2.913,6.111-5.355H40.84z"/>
	<path class="st71" d="M40.84,11.931c0.43,2.39,1.582,4.53,3.234,6.171c-0.266,0.752-0.419,1.558-0.419,2.401
		c0,1.298,0.35,2.513,0.95,3.565c-0.424,0.718-0.684,1.546-0.684,2.441c0,1.689,0.87,3.171,2.184,4.033
		c-0.044,0.261-0.081,0.523-0.081,0.796c0,1.93,1.14,3.581,2.774,4.354c-0.016,0.159-0.048,0.312-0.048,0.476
		c0,2.667,2.163,4.829,4.83,4.829s4.83-2.162,4.83-4.829c0-0.636-0.131-1.24-0.354-1.796c0.118,0.008,0.231,0.035,0.354,0.035
		c1.807,0,3.363-1.004,4.191-2.475c1.485,1.525,3.559,2.475,5.855,2.475c4.404,0,7.986-3.484,8.163-7.846
		c0.166,0.008,0.329,0.025,0.496,0.025c5.62,0,10.308-3.996,11.379-9.302c2.625-0.993,4.791-2.913,6.111-5.355"/>
	<path class="st71" d="M61.659,31.521c-5.705-1.589-9.041-7.502-7.453-13.208c1.272-4.563,6.002-7.235,10.565-5.962
		c3.651,1.016,5.787,4.801,4.771,8.451c-0.815,2.92-3.843,4.629-6.763,3.815c-2.338-0.65-3.703-3.072-3.052-5.408"/>
	<g>
		<g>
			<path class="st292" d="M58.674,62.211c0,0.688-0.557,1.244-1.245,1.244h-7.688c-0.688,0-1.244-0.557-1.244-1.244V42.242
				c0-0.687,0.557-1.244,1.244-1.244h7.688c0.688,0,1.245,0.558,1.245,1.244V62.211z"/>
			<path class="st71" d="M58.674,62.211c0,0.688-0.557,1.244-1.245,1.244h-7.688c-0.688,0-1.244-0.557-1.244-1.244V42.242
				c0-0.687,0.557-1.244,1.244-1.244h7.688c0.688,0,1.245,0.558,1.245,1.244V62.211z"/>
		</g>
		<line class="st71" x1="45.949" y1="40.737" x2="61.225" y2="40.737"/>
		<g>
			<line class="st31" x1="49.408" y1="47.527" x2="57.765" y2="47.527"/>
			<line class="st31" x1="49.408" y1="49.616" x2="57.765" y2="49.616"/>
			<line class="st31" x1="49.408" y1="51.705" x2="57.765" y2="51.705"/>
		</g>
	</g>
	<g>
		<g>
			<path class="st292" d="M73.349,60.197c0,0.418-0.339,0.758-0.758,0.758h-4.683c-0.419,0-0.759-0.34-0.759-0.758V48.033
				c0-0.418,0.34-0.758,0.759-0.758h4.683c0.419,0,0.758,0.34,0.758,0.758V60.197z"/>
			<path class="st71" d="M73.349,60.197c0,0.418-0.339,0.758-0.758,0.758h-4.683c-0.419,0-0.759-0.34-0.759-0.758V48.033
				c0-0.418,0.34-0.758,0.759-0.758h4.683c0.419,0,0.758,0.34,0.758,0.758V60.197z"/>
		</g>
		<line class="st71" x1="65.597" y1="47.116" x2="74.904" y2="47.116"/>
		<g>
			<line class="st31" x1="67.705" y1="51.253" x2="72.795" y2="51.253"/>
			<line class="st31" x1="67.705" y1="53.797" x2="72.795" y2="53.797"/>
		</g>
	</g>
	<g>
		<g>
			<path class="st292" d="M85.743,60.197c0,0.418-0.34,0.758-0.759,0.758h-4.683c-0.419,0-0.758-0.34-0.758-0.758V48.033
				c0-0.418,0.339-0.758,0.758-0.758h4.683c0.419,0,0.759,0.34,0.759,0.758V60.197z"/>
			<path class="st71" d="M85.743,60.197c0,0.418-0.34,0.758-0.759,0.758h-4.683c-0.419,0-0.758-0.34-0.758-0.758V48.033
				c0-0.418,0.339-0.758,0.758-0.758h4.683c0.419,0,0.759,0.34,0.759,0.758V60.197z"/>
		</g>
		<line class="st71" x1="77.991" y1="47.116" x2="87.296" y2="47.116"/>
		<g>
			<line class="st31" x1="80.097" y1="51.253" x2="85.188" y2="51.253"/>
			<line class="st31" x1="80.097" y1="53.797" x2="85.188" y2="53.797"/>
		</g>
	</g>
	<g>
		<g>
			<path class="st292" d="M98.135,60.197c0,0.418-0.339,0.758-0.758,0.758h-4.684c-0.419,0-0.758-0.34-0.758-0.758V48.033
				c0-0.418,0.339-0.758,0.758-0.758h4.684c0.419,0,0.758,0.34,0.758,0.758V60.197z"/>
			<path class="st71" d="M98.135,60.197c0,0.418-0.339,0.758-0.758,0.758h-4.684c-0.419,0-0.758-0.34-0.758-0.758V48.033
				c0-0.418,0.339-0.758,0.758-0.758h4.684c0.419,0,0.758,0.34,0.758,0.758V60.197z"/>
		</g>
		<line class="st71" x1="90.383" y1="47.116" x2="99.689" y2="47.116"/>
		<g>
			<line class="st31" x1="92.491" y1="51.253" x2="97.581" y2="51.253"/>
			<line class="st31" x1="92.491" y1="53.797" x2="97.581" y2="53.797"/>
		</g>
	</g>
	<path class="st58" d="M103.108,84.934c0,0.807-0.653,1.46-1.459,1.46H44.133c-0.806,0-1.459-0.653-1.459-1.46V62.366
		c0-0.806,0.653-1.46,1.459-1.46h57.516c0.806,0,1.459,0.654,1.459,1.46V84.934z"/>
	<path class="st297" d="M103.108,92.67c0,0.807-0.653,1.46-1.459,1.46H44.133c-0.806,0-1.459-0.653-1.459-1.46V70.102
		c0-0.806,0.653-1.459,1.459-1.459h57.516c0.806,0,1.459,0.653,1.459,1.459V92.67z"/>
	<path class="st117" d="M103.108,98.477c0,0.807-0.653,1.46-1.459,1.46H44.133c-0.806,0-1.459-0.653-1.459-1.46V75.908
		c0-0.806,0.653-1.459,1.459-1.459h57.516c0.806,0,1.459,0.653,1.459,1.459V98.477z"/>
	<path class="st71" d="M103.108,84.934c0,0.807-0.653,1.46-1.459,1.46H44.133c-0.806,0-1.459-0.653-1.459-1.46V62.366
		c0-0.806,0.653-1.46,1.459-1.46h57.516c0.806,0,1.459,0.654,1.459,1.46V84.934z"/>
	<polygon class="st292" points="118.763,109.465 22.114,109.465 10.765,74.449 129.234,83.957 	"/>
	<polygon class="st61" points="125.95,92.457 16.44,92.457 20.351,101.523 120.997,101.523 	"/>
	<polygon class="st71" points="118.763,109.465 22.114,109.465 10.765,74.449 129.234,83.957 	"/>
	<g>
		<line class="st71" x1="9.761" y1="111.114" x2="130.239" y2="111.114"/>
		<line class="st71" x1="21.983" y1="119.092" x2="68.255" y2="119.092"/>
		<line class="st71" x1="74.637" y1="119.092" x2="80.062" y2="119.092"/>
		<line class="st71" x1="86.445" y1="119.092" x2="91.87" y2="119.092"/>
		<line class="st71" x1="97.13" y1="119.092" x2="97.3" y2="119.092"/>
		<line class="st71" x1="106.229" y1="119.092" x2="106.399" y2="119.092"/>
		<line class="st71" x1="113.25" y1="119.092" x2="118.675" y2="119.092"/>
		<line class="st71" x1="48.002" y1="128.069" x2="53.427" y2="128.069"/>
		<line class="st71" x1="86.616" y1="128.069" x2="92.041" y2="128.069"/>
		<line class="st71" x1="59.81" y1="128.069" x2="65.235" y2="128.069"/>
		<line class="st71" x1="70.496" y1="128.069" x2="70.666" y2="128.069"/>
		<line class="st71" x1="79.595" y1="128.069" x2="79.764" y2="128.069"/>
	</g>
	<g>
		<circle class="st182" cx="29.599" cy="96.74" r="2.498"/>
		<path class="st277" d="M27.101,96.74c0-1.38,1.118-2.498,2.498-2.498c1.379,0,2.497,1.118,2.497,2.498"/>
		<circle class="st262" cx="29.599" cy="96.74" r="2.498"/>
	</g>
	<g>
		<circle class="st182" cx="43.349" cy="96.74" r="2.498"/>
		<path class="st277" d="M40.851,96.74c0-1.38,1.118-2.498,2.498-2.498c1.379,0,2.497,1.118,2.497,2.498"/>
		<circle class="st262" cx="43.349" cy="96.74" r="2.498"/>
	</g>
	<g>
		<circle class="st182" cx="57.099" cy="96.74" r="2.498"/>
		<path class="st277" d="M54.601,96.74c0-1.38,1.118-2.498,2.498-2.498c1.379,0,2.497,1.118,2.497,2.498"/>
		<circle class="st262" cx="57.099" cy="96.74" r="2.498"/>
	</g>
	<g>
		<circle class="st182" cx="70.849" cy="96.74" r="2.498"/>
		<path class="st277" d="M68.351,96.74c0-1.38,1.118-2.498,2.498-2.498c1.379,0,2.497,1.118,2.497,2.498"/>
		<circle class="st262" cx="70.849" cy="96.74" r="2.498"/>
	</g>
	<g>
		<circle class="st182" cx="84.599" cy="96.74" r="2.498"/>
		<path class="st277" d="M82.101,96.74c0-1.38,1.118-2.498,2.498-2.498c1.379,0,2.497,1.118,2.497,2.498"/>
		<circle class="st262" cx="84.599" cy="96.74" r="2.498"/>
	</g>
	<g>
		<circle class="st182" cx="98.349" cy="96.74" r="2.498"/>
		<path class="st277" d="M95.851,96.74c0-1.38,1.118-2.498,2.498-2.498c1.379,0,2.497,1.118,2.497,2.498"/>
		<circle class="st262" cx="98.349" cy="96.74" r="2.498"/>
	</g>
	<g>
		<circle class="st182" cx="112.099" cy="96.74" r="2.498"/>
		<path class="st277" d="M109.601,96.74c0-1.38,1.118-2.498,2.498-2.498c1.379,0,2.497,1.118,2.497,2.498"/>
		<circle class="st262" cx="112.099" cy="96.74" r="2.498"/>
	</g>
	<line class="st71" x1="57.765" y1="68.643" x2="43.349" y2="68.643"/>
	<line class="st71" x1="67.265" y1="68.643" x2="65.683" y2="68.643"/>
	<line class="st71" x1="75.428" y1="68.643" x2="73.846" y2="68.643"/>
	<line class="st71" x1="83.591" y1="68.643" x2="82.009" y2="68.643"/>
	<line class="st71" x1="91.754" y1="68.643" x2="90.172" y2="68.643"/>
</g>
</svg>
