<?xml version="1.0" encoding="utf-8"?>
<!-- Generator: Adobe Illustrator 16.0.0, SVG Export Plug-In . SVG Version: 6.00 Build 0)  -->
<!DOCTYPE svg PUBLIC "-//W3C//DTD SVG 1.1//EN" "http://www.w3.org/Graphics/SVG/1.1/DTD/svg11.dtd">
<svg version="1.1" id="Layer_1" xmlns="http://www.w3.org/2000/svg" xmlns:xlink="http://www.w3.org/1999/xlink" x="0px" y="0px"
	 width="140px" height="140px" viewBox="0 0 140 140" style="enable-background:new 0 0 140 140;" xml:space="preserve">
<style type="text/css">
<![CDATA[
	.st0{fill:#7A62F4;}
	.st1{fill:#7A8A91;}
	.st2{fill:#AA3154;}
	.st3{fill:#474B4F;}
	.st4{fill:#474C51;}
	.st5{fill:#477184;}
	.st6{fill:#AA8D5E;}
	.st7{fill:#AAF789;}
	.st8{fill:#7BE6FF;}
	.st9{fill:#7C66D8;}
	.st10{fill:#7CC0D8;}
	.st11{fill:#495359;}
	.st12{fill:#49DB7A;}
	.st13{fill:#49E500;}
	.st14{fill:#7DA8AA;}
	
		.st15{fill:none;stroke:#7C9199;stroke-width:3;stroke-linecap:round;stroke-linejoin:round;stroke-miterlimit:10;stroke-dasharray:5;}
	.st16{fill:#AD9F7F;}
	.st17{fill:none;stroke:#D3ECEF;stroke-linecap:round;stroke-linejoin:round;stroke-miterlimit:10;}
	.st18{fill:none;stroke:#C42323;stroke-width:3;stroke-linecap:round;stroke-linejoin:round;stroke-miterlimit:10;}
	.st19{fill:#AE52FF;}
	.st20{fill:#10DEF9;}
	.st21{fill:none;stroke:#267DC4;stroke-width:3;stroke-linecap:round;stroke-linejoin:round;stroke-miterlimit:10;}
	.st22{fill:#1162BA;}
	.st23{fill:#E02F2F;}
	.st24{fill:#E05368;}
	.st25{fill:#AFBFCE;}
	.st26{fill:#AFC8DD;}
	.st27{fill:#E0CC77;}
	.st28{fill:#1247B2;}
	.st29{fill:#E0DECE;}
	.st30{fill:#E0FF9C;}
	.st31{fill:none;stroke:#E21A32;stroke-linecap:round;stroke-linejoin:round;stroke-miterlimit:10;}
	.st32{fill:#13D626;}
	.st33{fill:#E2823B;}
	.st34{fill:#1462EF;}
	.st35{fill:#14B0ED;}
	.st36{fill:#1576EA;}
	.st37{fill:#15BDFF;}
	.st38{fill:#1613A5;}
	.st39{fill:#4A5056;}
	.st40{fill:#E55166;}
	.st41{fill:#E55A6B;}
	.st42{fill:#E56171;}
	.st43{fill:none;stroke:#79CC7E;stroke-width:2;stroke-linecap:round;stroke-linejoin:round;stroke-miterlimit:10;}
	.st44{fill:#4B6466;}
	.st45{opacity:0.4;fill:#79CC7E;}
	.st46{fill:#E6F1F4;}
	.st47{fill:#E6F2FC;}
	.st48{fill:#4C6362;}
	.st49{fill:#18AA67;}
	.st50{fill:#4D4D91;}
	.st51{fill:#4D575B;}
	.st52{fill:#E88E0C;}
	.st53{fill:#4DADCE;}
	.st54{fill:#E8E8E8;}
	.st55{opacity:0.3;fill:#9AA5A4;}
	.st56{fill:#80C3FF;}
	.st57{fill:#B066FF;}
	.st58{fill:#818F91;}
	.st59{fill:#B0D1D6;}
	.st60{fill:#B1DBDD;}
	.st61{fill:#B2104E;}
	.st62{fill:none;stroke:#FCFAE8;stroke-width:3;stroke-linecap:round;stroke-linejoin:round;stroke-miterlimit:10;}
	.st63{fill:#B2D1C7;}
	.st64{fill:#83ED3E;}
	.st65{fill:#83ED88;}
	.st66{fill:#8461BC;}
	.st67{fill:#84692C;}
	.st68{fill:#B3C9E2;}
	.st69{fill:none;stroke:#ED8700;stroke-width:3;stroke-linecap:round;stroke-linejoin:round;}
	.st70{fill:none;stroke:#64E2DC;stroke-width:3;stroke-linecap:round;stroke-linejoin:round;stroke-miterlimit:10;}
	.st71{fill:none;stroke:#33363A;stroke-width:3;stroke-linecap:round;stroke-linejoin:round;stroke-miterlimit:10;}
	.st72{fill:none;stroke:#33363A;stroke-width:4;stroke-linecap:round;stroke-linejoin:round;stroke-miterlimit:10;}
	.st73{fill:#85A7A8;}
	.st74{fill:#85C606;}
	.st75{fill:none;stroke:#33363A;stroke-width:5;stroke-linecap:round;stroke-linejoin:round;stroke-miterlimit:10;}
	.st76{fill:#86B2A2;}
	.st77{fill:#EA3D6A;}
	.st78{fill:#875835;}
	.st79{fill:#EA9706;}
	.st80{fill:#1C19AF;}
	.st81{fill:#EAAA0A;}
	.st82{fill:#EABC73;}
	.st83{fill:#EADFB2;}
	.st84{fill:#EAE4BE;}
	.st85{fill:#EAF2F9;}
	.st86{fill:#B7883D;}
	.st87{fill:#1CE5C3;}
	.st88{fill:#1CE8E3;}
	.st89{fill:#B7F467;}
	.st90{fill:none;stroke:#36B0CC;stroke-width:3;stroke-linecap:round;stroke-linejoin:round;stroke-miterlimit:10;}
	.st91{fill:#EBEDD3;}
	.st92{fill:none;stroke:#FFB000;stroke-width:3;stroke-linecap:round;stroke-linejoin:round;stroke-dasharray:8.2755,8.2755;}
	.st93{fill:#1DA834;}
	.st94{fill:#1DC8CC;}
	.st95{fill:#8957CE;}
	.st96{fill:#B8D3D1;}
	.st97{fill:#89A3A3;}
	.st98{fill:#1E91F9;}
	.st99{fill:#B969FF;}
	.st100{fill:#1EA6E2;}
	.st101{fill:#FFFFFF;stroke:#FFFFFF;stroke-width:2;stroke-linecap:round;stroke-linejoin:round;stroke-miterlimit:10;}
	.st102{fill:#ED4706;}
	.st103{fill:#EDA411;}
	.st104{fill:#EDDE88;}
	.st105{fill:#EDF4F4;}
	.st106{fill:#5050E2;}
	.st107{fill:#1FADE5;}
	.st108{enable-background:new    ;}
	.st109{fill:#EF4D4D;}
	.st110{fill:#EF6F7B;}
	.st111{fill:#EF9681;}
	.st112{fill:#EFA37D;}
	.st113{fill:#EFB289;}
	.st114{fill:#EFBD59;}
	.st115{fill:#EFCA0F;}
	.st116{fill:#EFEFDF;}
	.st117{fill:#526163;}
	.st118{fill:#529E54;}
	.st119{fill:#52C408;}
	.st120{fill:#5351B7;}
	.st121{fill:none;stroke:#EBEDD3;stroke-linecap:round;stroke-linejoin:round;stroke-miterlimit:10;}
	.st122{fill:#555D60;}
	.st123{fill:#55DBFF;}
	.st124{fill:none;stroke:#FFEF5A;stroke-width:2;stroke-linecap:round;stroke-linejoin:round;stroke-miterlimit:10;}
	.st125{fill:none;stroke:#FFEF5A;stroke-width:4;stroke-linecap:round;stroke-linejoin:round;stroke-miterlimit:10;}
	.st126{fill:none;stroke:#536B7C;stroke-width:3;stroke-linecap:round;stroke-linejoin:round;stroke-miterlimit:10;}
	.st127{fill:#8A9199;}
	.st128{fill:#8A998A;}
	.st129{fill:#8CE5E2;}
	.st130{fill:#BC3150;}
	.st131{fill:#595F66;}
	.st132{fill:#BC8B4B;}
	.st133{fill:#8DABC9;}
	.st134{fill:#8E7EED;}
	.st135{fill:#8EC1C1;}
	.st136{fill:#20BCF2;}
	.st137{fill:#8F56D8;}
	.st138{fill:#BEDD05;}
	.st139{fill:none;stroke:#EAD7FF;stroke-width:3;stroke-linecap:round;stroke-linejoin:round;stroke-miterlimit:10;}
	.st140{fill:#2178F7;}
	.st141{fill:#219B1E;}
	.st142{fill:#BF76FF;}
	.st143{fill:none;stroke:#88CCFF;stroke-width:3;stroke-linecap:round;stroke-linejoin:round;stroke-miterlimit:10;}
	.st144{fill:#22A1EF;}
	.st145{fill:#237AF9;}
	.st146{fill:#F2790C;}
	.st147{fill:#246DED;}
	.st148{fill:#F3FAFF;}
	.st149{fill:#25C10A;}
	.st150{fill:#F42535;}
	.st151{fill:#F4921E;}
	.st152{fill:#F4AB0B;}
	.st153{fill:#F4F3E9;}
	.st154{fill:#5A5F63;}
	.st155{fill:#26A3F7;}
	.st156{fill:#F5FEFF;}
	.st157{fill:#277AF4;}
	.st158{fill:#2792F4;}
	.st159{fill:#279377;}
	.st160{fill:#27C927;}
	.st161{fill:#5C2DE0;}
	.st162{fill:#F7441C;}
	.st163{fill:#F7910B;}
	.st164{fill:#F79E00;}
	.st165{fill:none;stroke:#FFB000;stroke-width:3;stroke-linecap:round;stroke-linejoin:round;}
	.st166{fill:#5D3EDD;}
	.st167{fill:#29CDFF;}
	.st168{fill:#5E6870;}
	.st169{fill:#F9A858;}
	.st170{fill:#F9C19B;}
	.st171{fill:#F9E446;}
	.st172{fill:#5F666B;}
	.st173{fill:#5FCE96;}
	.st174{fill:#90B2B1;}
	.st175{fill:#91EA57;}
	.st176{fill:#C11E5C;}
	.st177{fill:#C14830;}
	.st178{fill:#C17E25;}
	.st179{fill:#C1B995;}
	.st180{fill:#C1BFA7;}
	.st181{fill:none;stroke:#F9EF95;stroke-width:3;stroke-linecap:round;stroke-linejoin:round;stroke-miterlimit:10;}
	.st182{fill:#92E0FF;}
	.st183{fill:#92FC6B;}
	.st184{fill:#C28AE2;}
	.st185{fill:#939DA3;}
	.st186{fill:#C3D8D6;}
	.st187{fill:#C3DFE0;}
	.st188{fill:#C42323;}
	.st189{fill:#C4415B;}
	.st190{fill:#C480FF;}
	.st191{fill:#95AF68;}
	.st192{fill:#2A8BF4;}
	.st193{fill:#2AAD2A;}
	.st194{fill:#C5E3EA;}
	.st195{fill:#C63C4D;}
	.st196{fill:#C67A6D;}
	.st197{fill:#C6BA9B;}
	.st198{fill:#FC4259;}
	.st199{fill:#FC90A2;}
	.st200{fill:#C8DBDB;}
	.st201{fill:#FCC322;}
	.st202{fill:#FCDECA;}
	.st203{fill:#FCF8E6;}
	.st204{fill:#2E6ECC;}
	.st205{fill:#FCFCB9;}
	.st206{fill:none;stroke:#FFB000;stroke-width:3;stroke-linecap:round;stroke-linejoin:round;stroke-dasharray:8.028,8.028;}
	.st207{fill:#C9E1F2;}
	.st208{fill:#FDFFFF;}
	.st209{fill:#FF315D;}
	.st210{fill:#FF3636;}
	.st211{fill:#FF4800;}
	.st212{fill:#FF502E;}
	.st213{fill:#FF5B00;}
	.st214{fill:#FF647E;}
	.st215{fill:#FF6B06;}
	.st216{fill:#FF7639;}
	.st217{fill:#FF7892;}
	.st218{fill:#FF7900;}
	.st219{fill:#FF8103;}
	.st220{fill:#FF8500;}
	.st221{fill:#FF9100;}
	.st222{fill:#FF9700;}
	.st223{fill:#FF9E12;}
	.st224{fill:#61BBFF;}
	.st225{fill:#FFA300;}
	.st226{fill:#FFAA00;}
	.st227{fill:#FFABBF;}
	.st228{fill:#FFB000;}
	.st229{fill:#FFB206;}
	.st230{fill:#FFBC00;}
	.st231{fill:#FFBF31;}
	.st232{fill:#FFC1AE;}
	.st233{fill:#FFC200;}
	.st234{fill:#FFC757;}
	.st235{fill:#FFC817;}
	.st236{fill:#FFCE00;}
	.st237{fill:#FFD243;}
	.st238{fill:#FFD400;}
	.st239{fill:#FFD833;}
	.st240{fill:#FFD9C0;}
	.st241{fill:#FFDC10;}
	.st242{fill:#FFDE52;}
	.st243{fill:#FFE108;}
	.st244{fill:#FFE10B;}
	.st245{fill:#FFE31A;}
	.st246{fill:#FFE448;}
	.st247{fill:#FFE8C2;}
	.st248{fill:#FFE98F;}
	.st249{fill:#FFEB5A;}
	.st250{fill:#FFEDA1;}
	.st251{fill:#FFF19C;}
	.st252{fill:#FFF6E1;}
	.st253{fill:#FFF87B;}
	.st254{fill:#FFF8C7;}
	.st255{fill:#FFFCEE;}
	.st256{fill:#FFFFFF;}
	.st257{fill:#62CEDD;}
	.st258{fill:#636E72;}
	.st259{fill:none;stroke:#DDAC24;stroke-width:2;stroke-linecap:round;stroke-linejoin:round;stroke-miterlimit:10;}
	.st260{fill:#64BDFF;}
	.st261{fill:#64E2DC;}
	.st262{fill:none;stroke:#33363A;stroke-linecap:round;stroke-linejoin:round;stroke-miterlimit:10;}
	.st263{fill:#66797F;}
	.st264{fill:none;stroke:#EBC0F9;stroke-width:3;stroke-linecap:round;stroke-linejoin:round;stroke-miterlimit:10;}
	.st265{fill:#9AC1C1;}
	.st266{fill:#676E72;}
	.st267{fill:#677F7F;}
	.st268{fill:#678B99;}
	.st269{fill:#9B0751;}
	.st270{fill:#9B6743;}
	.st271{fill:#9B7335;}
	.st272{fill:none;stroke:#E0FF9C;stroke-width:3;stroke-linecap:round;stroke-linejoin:round;stroke-miterlimit:10;}
	.st273{fill:#CAD7E5;}
	.st274{fill:#CAE5E3;}
	.st275{fill:none;stroke:#FFD815;stroke-width:3;stroke-linecap:round;stroke-linejoin:round;stroke-miterlimit:10;}
	.st276{fill:none;stroke:#64C0F9;stroke-width:3;stroke-linecap:round;stroke-linejoin:round;stroke-miterlimit:10;}
	.st277{fill:#68B6DD;}
	.st278{fill:#CC445B;}
	.st279{fill:none;stroke:#66A8F7;stroke-width:3;stroke-linecap:round;stroke-linejoin:round;stroke-miterlimit:10;}
	.st280{fill:#9D67C1;}
	.st281{fill:#CCFFFF;}
	.st282{fill:#9DC0C4;}
	.st283{fill:#9E2323;}
	.st284{fill:#9E45DD;}
	.st285{fill:#CDDEE0;}
	.st286{fill:#309FD6;}
	.st287{fill:none;stroke:#ED8700;stroke-width:3;stroke-linecap:round;stroke-linejoin:round;stroke-dasharray:7.7039,7.7039;}
	.st288{fill:#CE4313;}
	.st289{fill:#CEA255;}
	.st290{fill:#9FC1B5;}
	.st291{fill:#3131DD;}
	.st292{fill:#33363A;}
	.st293{fill:#334746;}
	.st294{fill:#3380CC;}
	.st295{fill:#34C166;}
	.st296{fill:#363B3F;}
	.st297{fill:#6A797C;}
	.st298{fill:#33363A;stroke:#33363A;stroke-width:3;stroke-linecap:round;stroke-linejoin:round;stroke-miterlimit:10;}
	.st299{fill:#6C85FF;}
	.st300{opacity:0.2;fill:#3C8DA0;}
	.st301{fill:none;stroke:#5F6266;stroke-width:3;stroke-linecap:round;stroke-linejoin:round;stroke-miterlimit:10;}
	.st302{fill:#00ADDB;}
	.st303{fill:#6F898C;}
	.st304{fill:#6FAF00;}
	.st305{fill:#D0D8CA;}
	.st306{fill:#D0E0EA;}
	.st307{fill:#D0E2F4;}
	.st308{fill:none;stroke:#FFB000;stroke-width:3;stroke-linecap:round;stroke-linejoin:round;stroke-dasharray:7.8476,7.8476;}
	.st309{fill:none;stroke:#33363A;stroke-width:10;stroke-linecap:round;stroke-linejoin:round;stroke-miterlimit:10;}
	.st310{fill:#04968E;}
	.st311{fill:#D30B49;}
	.st312{fill:#D31818;}
	.st313{fill:#D34624;}
	.st314{fill:#D39F1E;}
	.st315{fill:#D3D1C1;}
	.st316{fill:#D3DADD;}
	.st317{fill:#D3E5EA;}
	.st318{fill:#055E6D;}
	.st319{fill:#059CE8;}
	.st320{fill:#064E7F;}
	.st321{fill:#066782;}
	.st322{fill:#07563C;}
	.st323{fill:#D5E2CC;}
	.st324{fill:#3B4244;}
	.st325{fill:#D60024;}
	.st326{fill:#D6702B;}
	.st327{fill:#D68967;}
	.st328{fill:#D6A545;}
	.st329{fill:#D6CB9D;}
	.st330{fill:#3C4044;}
	.st331{fill:#08BC26;}
	.st332{fill:#097F2A;}
	.st333{fill:none;stroke:#FFAB94;stroke-width:4;stroke-linecap:round;stroke-linejoin:round;stroke-miterlimit:10;}
	.st334{fill:#3D5957;}
	.st335{fill:#3D99F4;}
	.st336{fill:#D8235F;}
	.st337{fill:#D83055;}
	.st338{fill:#D83563;}
	.st339{fill:#D83705;}
	.st340{fill:#D8533D;}
	.st341{fill:#D8D7C0;}
	.st342{fill:#3E9FF7;}
	.st343{fill:#D9F0F4;}
	.st344{fill:#705622;}
	.st345{fill:#70D63A;}
	.st346{fill:#A03F25;}
	.st347{fill:#A07F3C;}
	.st348{opacity:0.6;fill:#2670BF;}
	.st349{fill:#A0BAB9;}
	.st350{fill:#A197FC;}
	.st351{fill:#727B84;}
	.st352{fill:#A1C6C6;}
	.st353{fill:#A23FE8;}
	.st354{fill:#737F73;}
	.st355{fill:#73F4B3;}
	.st356{fill:#A31153;}
	.st357{fill:#748C4F;}
	.st358{fill:#749997;}
	.st359{fill:#0A7BE2;}
	.st360{fill:#0A8989;}
	.st361{fill:#0A912A;}
	.st362{fill:#0A9B3D;}
	.st363{fill:#0A9DBF;}
	.st364{fill:#A53CEF;}
	.st365{fill:#0ABAEA;}
	.st366{fill:#A5BFBF;}
	.st367{fill:#7799AA;}
	.st368{fill:#77D852;}
	.st369{fill:#0C4ABA;}
	.st370{fill:#DAE5E5;}
	.st371{fill:#0CA813;}
	.st372{fill:#788E8D;}
	.st373{fill:#78CFFF;}
	.st374{fill:#A8273D;}
	.st375{fill:#79CC7E;}
	.st376{fill:#0E48DB;}
	.st377{fill:#DCE7EF;}
	.st378{fill:#0E7F24;}
	.st379{fill:#DDAC24;}
	.st380{fill:#DDC872;}
	.st381{fill:#DDE6E8;}
	.st382{fill:#404449;}
	.st383{fill:#0FA88E;}
	.st384{fill:#DEF21D;}
	.st385{fill:#4120CE;}
	.st386{fill:none;stroke:#CCB13E;stroke-width:3;stroke-linecap:round;stroke-linejoin:round;stroke-miterlimit:10;}
	.st387{fill:#41F7D4;}
	.st388{fill:#DFEDEF;}
	.st389{fill:#DFF4E9;}
	.st390{fill:#DFF7F6;}
	.st391{fill:#42E6EA;}
	.st392{fill:#43474C;}
	.st393{fill:#43B1E8;}
	.st394{fill:#44CC7B;}
	.st395{fill:#45484C;}
	.st396{fill:#454A4F;}
	.st397{fill:#45BA0F;}
	.st398{fill:#45CAFF;}
]]>
</style>
<g>
	<path id="Snapchat" class="st249" d="M130.135,102.061c-16.734-2.75-24.272-19.898-24.582-20.624
		c-0.023-0.05-0.048-0.098-0.072-0.145c-0.854-1.73-1.049-3.161-0.588-4.252c0.914-2.146,4.421-3.255,6.735-3.99
		c0.676-0.21,1.308-0.412,1.837-0.616c2.281-0.901,3.915-1.877,4.992-2.986c1.289-1.319,1.536-2.585,1.52-3.413
		c-0.04-2.003-1.574-3.785-4.02-4.657c-0.822-0.343-1.77-0.52-2.723-0.52c-0.653,0-1.619,0.089-2.533,0.516
		c-1.96,0.913-3.717,1.411-5.221,1.484c-0.794-0.042-1.358-0.217-1.725-0.38c0.043-0.783,0.095-1.584,0.151-2.421l0.019-0.357
		c0.537-8.472,1.205-19.016-1.598-25.278c-1.916-4.285-4.487-7.971-7.652-10.962c-2.656-2.507-5.737-4.535-9.164-6.038
		c-5.964-2.608-11.526-2.998-14.309-2.998h-0.004c-0.111,0-0.211,0-0.307,0.003c-0.771,0.006-2.039,0.019-2.15,0.019
		c-2.778,0-8.346,0.392-14.316,3.022c-3.411,1.5-6.484,3.532-9.128,6.037c-3.149,2.982-5.719,6.659-7.626,10.929
		c-2.799,6.258-2.135,16.794-1.602,25.262v0.011c0.06,0.904,0.118,1.853,0.174,2.775c-0.413,0.187-1.073,0.385-2.055,0.385
		c-1.58,0-3.455-0.502-5.578-1.494c-0.624-0.291-1.341-0.435-2.123-0.435c-1.262,0-2.592,0.37-3.749,1.046
		c-1.456,0.852-2.394,2.053-2.648,3.387c-0.167,0.881-0.159,2.628,1.781,4.393c1.069,0.97,2.64,1.867,4.664,2.668
		c0.532,0.204,1.16,0.407,1.833,0.616c2.313,0.735,5.824,1.845,6.738,3.994c0.465,1.087,0.267,2.518-0.588,4.25
		c-0.024,0.05-0.049,0.096-0.068,0.144c-0.215,0.497-2.207,5.004-6.302,9.757c-2.321,2.698-4.882,4.959-7.605,6.708
		c-3.319,2.144-6.913,3.543-10.682,4.161c-1.479,0.241-2.533,1.557-2.45,3.05c0.021,0.427,0.127,0.856,0.299,1.272l0.004,0.01
		c0.601,1.392,1.988,2.576,4.238,3.623c2.759,1.274,6.873,2.348,12.244,3.191c0.271,0.511,0.554,1.805,0.748,2.689
		c0.203,0.94,0.418,1.906,0.721,2.934c0.325,1.113,1.177,2.443,3.354,2.443c0.827,0,1.781-0.183,2.879-0.398
		c1.609-0.316,3.816-0.748,6.567-0.748c1.521,0,3.109,0.135,4.699,0.399c3.069,0.507,5.709,2.371,8.771,4.529
		c4.48,3.159,9.546,6.729,17.294,6.729c0.211,0,0.423-0.004,0.632-0.022c0.255,0.012,0.573,0.022,0.907,0.022
		c7.748,0,12.817-3.574,17.29-6.729l0.008-0.006c3.058-2.154,5.702-4.015,8.767-4.522c1.59-0.264,3.173-0.399,4.7-0.399
		c2.627,0,4.707,0.334,6.567,0.696c1.212,0.238,2.154,0.353,2.878,0.353h0.072h0.071c1.594,0,2.767-0.873,3.216-2.401
		c0.294-1.006,0.509-1.952,0.716-2.906c0.183-0.827,0.474-2.155,0.744-2.678c5.375-0.841,9.489-1.91,12.248-3.188
		c2.247-1.04,3.63-2.224,4.229-3.611c0.185-0.416,0.286-0.848,0.312-1.287C132.671,103.616,131.617,102.304,130.135,102.061z"/>
	<path id="Snapchat_2_" class="st249" d="M130.135,102.061c-16.734-2.75-24.272-19.898-24.582-20.624
		c-0.023-0.05-0.048-0.098-0.072-0.145c-0.854-1.73-1.049-3.161-0.588-4.252c0.914-2.146,4.421-3.255,6.735-3.99
		c0.676-0.21,1.308-0.412,1.837-0.616c2.281-0.901,3.915-1.877,4.992-2.986c1.289-1.319,1.536-2.585,1.52-3.413
		c-0.04-2.003-1.574-3.785-4.02-4.657c-0.822-0.343-1.77-0.52-2.723-0.52c-0.653,0-1.619,0.089-2.533,0.516
		c-1.96,0.913-3.717,1.411-5.221,1.484c-0.794-0.042-1.358-0.217-1.725-0.38c0.043-0.783,0.095-1.584,0.151-2.421l0.019-0.357
		c0.537-8.472,1.205-19.016-1.598-25.278c-1.916-4.285-4.487-7.971-7.652-10.962c-2.656-2.507-5.737-4.535-9.164-6.038
		c-5.964-2.608-11.526-2.998-14.309-2.998h-0.004c-0.111,0-0.211,0-0.307,0.003c-0.771,0.006-2.039,0.019-2.15,0.019
		c-2.778,0-8.346,0.392-14.316,3.022c-3.411,1.5-6.484,3.532-9.128,6.037c-3.149,2.982-5.719,6.659-7.626,10.929
		c-2.799,6.258-2.135,16.794-1.602,25.262v0.011c0.06,0.904,0.118,1.853,0.174,2.775c-0.413,0.187-1.073,0.385-2.055,0.385
		c-1.58,0-3.455-0.502-5.578-1.494c-0.624-0.291-1.341-0.435-2.123-0.435c-1.262,0-2.592,0.37-3.749,1.046
		c-1.456,0.852-2.394,2.053-2.648,3.387c-0.167,0.881-0.159,2.628,1.781,4.393c1.069,0.97,2.64,1.867,4.664,2.668
		c0.532,0.204,1.16,0.407,1.833,0.616c2.313,0.735,5.824,1.845,6.738,3.994c0.465,1.087,0.267,2.518-0.588,4.25
		c-0.024,0.05-0.049,0.096-0.068,0.144c-0.215,0.497-2.207,5.004-6.302,9.757c-2.321,2.698-4.882,4.959-7.605,6.708
		c-3.319,2.144-6.913,3.543-10.682,4.161c-1.479,0.241-2.533,1.557-2.45,3.05c0.021,0.427,0.127,0.856,0.299,1.272l0.004,0.01
		c0.601,1.392,1.988,2.576,4.238,3.623c2.759,1.274,6.873,2.348,12.244,3.191c0.271,0.511,0.554,1.805,0.748,2.689
		c0.203,0.94,0.418,1.906,0.721,2.934c0.325,1.113,1.177,2.443,3.354,2.443c0.827,0,1.781-0.183,2.879-0.398
		c1.609-0.316,3.816-0.748,6.567-0.748c1.521,0,3.109,0.135,4.699,0.399c3.069,0.507,5.709,2.371,8.771,4.529
		c4.48,3.159,9.546,6.729,17.294,6.729c0.211,0,0.423-0.004,0.632-0.022c0.255,0.012,0.573,0.022,0.907,0.022
		c7.748,0,12.817-3.574,17.29-6.729l0.008-0.006c3.058-2.154,5.702-4.015,8.767-4.522c1.59-0.264,3.173-0.399,4.7-0.399
		c2.627,0,4.707,0.334,6.567,0.696c1.212,0.238,2.154,0.353,2.878,0.353h0.072h0.071c1.594,0,2.767-0.873,3.216-2.401
		c0.294-1.006,0.509-1.952,0.716-2.906c0.183-0.827,0.474-2.155,0.744-2.678c5.375-0.841,9.489-1.91,12.248-3.188
		c2.247-1.04,3.63-2.224,4.229-3.611c0.185-0.416,0.286-0.848,0.312-1.287C132.671,103.616,131.617,102.304,130.135,102.061z"/>
	<path class="st251" d="M70,14.436c-0.606,0.005-1.185,0.011-1.258,0.011c-2.778,0-8.346,0.392-14.316,3.022
		c-3.411,1.5-6.484,3.532-9.128,6.037c-3.149,2.982-5.719,6.659-7.626,10.929c-2.799,6.258-2.135,16.794-1.602,25.262v0.011
		c0.06,0.904,0.118,1.853,0.174,2.775c-0.413,0.187-1.073,0.385-2.055,0.385c-1.58,0-3.455-0.502-5.578-1.494
		c-0.624-0.291-1.341-0.435-2.123-0.435c-1.262,0-2.592,0.37-3.749,1.046c-1.456,0.852-2.394,2.053-2.648,3.387
		c-0.167,0.881-0.159,2.628,1.781,4.393c1.069,0.97,2.64,1.867,4.664,2.668c0.532,0.204,1.16,0.407,1.833,0.616
		c2.313,0.735,5.824,1.845,6.738,3.994c0.465,1.087,0.267,2.518-0.588,4.25c-0.024,0.05-0.049,0.096-0.068,0.144
		c-0.215,0.497-2.207,5.004-6.302,9.757c-2.321,2.698-4.882,4.959-7.605,6.708c-3.319,2.144-6.913,3.543-10.682,4.161
		c-1.479,0.241-2.533,1.557-2.45,3.05c0.021,0.427,0.127,0.856,0.299,1.272l0.004,0.01c0.601,1.392,1.988,2.576,4.238,3.623
		c2.759,1.274,6.873,2.348,12.244,3.191c0.271,0.511,0.554,1.805,0.748,2.689c0.203,0.94,0.418,1.906,0.721,2.934
		c0.325,1.113,1.177,2.443,3.354,2.443c0.827,0,1.781-0.183,2.879-0.398c1.609-0.316,3.816-0.748,6.567-0.748
		c1.521,0,3.109,0.135,4.699,0.399c3.069,0.507,5.709,2.371,8.771,4.529c4.48,3.159,9.546,6.729,17.294,6.729
		c0.211,0,0.423-0.004,0.632-0.022c0.041,0.002,0.093,0.003,0.138,0.005V14.436z"/>
	<g>
		<path class="st256" d="M103.926,65.129l-0.019,0.357c-0.057,0.837-0.108,1.638-0.151,2.421c0.366,0.164,0.931,0.339,1.725,0.38
			c1.504-0.073,3.261-0.57,5.221-1.484c0.914-0.426,1.88-0.516,2.533-0.516c0.953,0,1.9,0.178,2.723,0.52
			c1.29,0.46,2.316,1.178,3.014,2.042c0.837-1.096,1.02-2.113,1.006-2.813c-0.04-2.003-1.574-3.785-4.02-4.657
			c-0.822-0.343-1.77-0.52-2.723-0.52c-0.653,0-1.619,0.089-2.533,0.516c-1.96,0.913-3.717,1.411-5.221,1.484
			c-0.589-0.031-1.049-0.135-1.398-0.254C104.031,63.461,103.979,64.307,103.926,65.129z"/>
		<path class="st256" d="M7.715,106.396c0.231,0.536,0.582,1.041,1.053,1.52c0.324-0.207,0.691-0.358,1.095-0.424
			c3.769-0.618,7.362-2.018,10.682-4.16c2.724-1.75,5.284-4.01,7.605-6.709c4.095-4.753,6.087-9.259,6.302-9.756
			c0.02-0.048,0.044-0.093,0.068-0.144c0.854-1.73,1.053-3.162,0.588-4.249c-0.154-0.363-0.388-0.694-0.672-1
			c-0.266,0.611-2.255,5.042-6.286,9.722c-2.321,2.698-4.882,4.959-7.605,6.708c-3.319,2.144-6.913,3.543-10.682,4.161
			c-1.479,0.241-2.533,1.557-2.45,3.05c0.021,0.427,0.127,0.856,0.299,1.272L7.715,106.396z"/>
		<path class="st256" d="M105.566,81.467c-0.285,0.307-0.519,0.638-0.674,1.001c-0.461,1.091-0.267,2.522,0.588,4.252
			c0.024,0.048,0.049,0.095,0.072,0.145c0.31,0.726,7.848,17.873,24.582,20.624c0.402,0.066,0.769,0.216,1.093,0.421
			c0.468-0.477,0.818-0.98,1.049-1.515c0.185-0.416,0.286-0.848,0.312-1.287c0.083-1.493-0.971-2.805-2.453-3.047
			C113.536,99.333,105.989,82.45,105.566,81.467z"/>
		<path class="st256" d="M22.739,67.415c1.157-0.677,2.487-1.046,3.749-1.046c0.782,0,1.499,0.144,2.123,0.434
			c2.123,0.991,3.998,1.494,5.578,1.494c0.981,0,1.642-0.198,2.055-0.385c-0.056-0.923-0.114-1.872-0.174-2.775v-0.012
			c-0.053-0.819-0.104-1.662-0.154-2.514c-0.409,0.139-0.971,0.257-1.727,0.257c-1.58,0-3.455-0.502-5.578-1.494
			c-0.624-0.291-1.341-0.435-2.123-0.435c-1.262,0-2.592,0.37-3.749,1.046c-1.456,0.852-2.394,2.053-2.648,3.387
			c-0.138,0.726-0.138,2.043,0.946,3.471C21.477,68.306,22.048,67.82,22.739,67.415z"/>
		<path class="st256" d="M37.672,39.862c1.907-4.27,4.477-7.946,7.626-10.929c2.644-2.504,5.717-4.536,9.128-6.037
			c5.971-2.629,11.538-3.022,14.316-3.022c0.111,0,1.379-0.014,2.15-0.02c0.096-0.002,0.195-0.002,0.307-0.002h0.004
			c2.782,0,8.345,0.39,14.309,2.998c3.427,1.502,6.508,3.53,9.164,6.037c3.165,2.991,5.736,6.677,7.652,10.962
			c1.352,3.021,1.892,7.039,2.033,11.339c0.174-6.237-0.122-12.497-2.033-16.767c-1.916-4.285-4.487-7.971-7.652-10.962
			c-2.656-2.507-5.737-4.535-9.164-6.038c-5.964-2.608-11.526-2.998-14.309-2.998h-0.004c-0.111,0-0.211,0-0.307,0.003
			c-0.771,0.006-2.039,0.019-2.15,0.019c-2.778,0-8.346,0.392-14.316,3.022c-3.411,1.5-6.484,3.532-9.128,6.037
			c-3.149,2.982-5.719,6.659-7.626,10.929c-1.911,4.273-2.207,10.541-2.033,16.782C35.779,46.912,36.319,42.887,37.672,39.862z"/>
	</g>
	<path id="Snapchat_1_" class="st71" d="M130.135,102.061c-16.734-2.75-24.272-19.898-24.582-20.624
		c-0.023-0.05-0.048-0.098-0.072-0.145c-0.854-1.73-1.049-3.161-0.588-4.252c0.914-2.146,4.421-3.255,6.735-3.99
		c0.676-0.21,1.308-0.412,1.837-0.616c2.281-0.901,3.915-1.877,4.992-2.986c1.289-1.319,1.536-2.585,1.52-3.413
		c-0.04-2.003-1.574-3.785-4.02-4.657c-0.822-0.343-1.77-0.52-2.723-0.52c-0.653,0-1.619,0.089-2.533,0.516
		c-1.96,0.913-3.717,1.411-5.221,1.484c-0.794-0.042-1.358-0.217-1.725-0.38c0.043-0.783,0.095-1.584,0.151-2.421l0.019-0.357
		c0.537-8.472,1.205-19.016-1.598-25.278c-1.916-4.285-4.487-7.971-7.652-10.962c-2.656-2.507-5.737-4.535-9.164-6.038
		c-5.964-2.608-11.526-2.998-14.309-2.998h-0.004c-0.111,0-0.211,0-0.307,0.003c-0.771,0.006-2.039,0.019-2.15,0.019
		c-2.778,0-8.346,0.392-14.316,3.022c-3.411,1.5-6.484,3.532-9.128,6.037c-3.149,2.982-5.719,6.659-7.626,10.929
		c-2.799,6.258-2.135,16.794-1.602,25.262v0.011c0.06,0.904,0.118,1.853,0.174,2.775c-0.413,0.187-1.073,0.385-2.055,0.385
		c-1.58,0-3.455-0.502-5.578-1.494c-0.624-0.291-1.341-0.435-2.123-0.435c-1.262,0-2.592,0.37-3.749,1.046
		c-1.456,0.852-2.394,2.053-2.648,3.387c-0.167,0.881-0.159,2.628,1.781,4.393c1.069,0.97,2.64,1.867,4.664,2.668
		c0.532,0.204,1.16,0.407,1.833,0.616c2.313,0.735,5.824,1.845,6.738,3.994c0.465,1.087,0.267,2.518-0.588,4.25
		c-0.024,0.05-0.049,0.096-0.068,0.144c-0.215,0.497-2.207,5.004-6.302,9.757c-2.321,2.698-4.882,4.959-7.605,6.708
		c-3.319,2.144-6.913,3.543-10.682,4.161c-1.479,0.241-2.533,1.557-2.45,3.05c0.021,0.427,0.127,0.856,0.299,1.272l0.004,0.01
		c0.601,1.392,1.988,2.576,4.238,3.623c2.759,1.274,6.873,2.348,12.244,3.191c0.271,0.511,0.554,1.805,0.748,2.689
		c0.203,0.94,0.418,1.906,0.721,2.934c0.325,1.113,1.177,2.443,3.354,2.443c0.827,0,1.781-0.183,2.879-0.398
		c1.609-0.316,3.816-0.748,6.567-0.748c1.521,0,3.109,0.135,4.699,0.399c3.069,0.507,5.709,2.371,8.771,4.529
		c4.48,3.159,9.546,6.729,17.294,6.729c0.211,0,0.423-0.004,0.632-0.022c0.255,0.012,0.573,0.022,0.907,0.022
		c7.748,0,12.817-3.574,17.29-6.729l0.008-0.006c3.058-2.154,5.702-4.015,8.767-4.522c1.59-0.264,3.173-0.399,4.7-0.399
		c2.627,0,4.707,0.334,6.567,0.696c1.212,0.238,2.154,0.353,2.878,0.353h0.072h0.071c1.594,0,2.767-0.873,3.216-2.401
		c0.294-1.006,0.509-1.952,0.716-2.906c0.183-0.827,0.474-2.155,0.744-2.678c5.375-0.841,9.489-1.91,12.248-3.188
		c2.247-1.04,3.63-2.224,4.229-3.611c0.185-0.416,0.286-0.848,0.312-1.287C132.671,103.616,131.617,102.304,130.135,102.061z"/>
	<g>
		<path class="st71" d="M29.921,108.439c0,0-6.006,3.539-5.258,6.229"/>
		<path class="st71" d="M40.571,88.824c0,0,2.567-9.723-8.833-14.546"/>
		<line class="st71" x1="37.323" y1="96.103" x2="38.31" y2="94.869"/>
	</g>
	<g>
		<path class="st71" d="M109.854,108.439c0,0,6.006,3.539,5.258,6.229"/>
		<path class="st71" d="M99.204,88.824c0,0-2.567-9.723,8.833-14.546"/>
		<line class="st71" x1="102.452" y1="96.103" x2="101.466" y2="94.869"/>
	</g>
	<g>
		<g>
			<g>
				<line class="st71" x1="112.617" y1="22.027" x2="113.917" y2="20.728"/>
				<line class="st71" x1="116.738" y1="17.907" x2="116.678" y2="17.965"/>
			</g>
			<g>
				<g>
					<line class="st71" x1="100.487" y1="14.042" x2="100.487" y2="12.206"/>
					<line class="st71" x1="100.486" y1="8.212" x2="100.487" y2="8.298"/>
				</g>
				<g>
					<line class="st71" x1="120.602" y1="34.158" x2="122.441" y2="34.158"/>
					<line class="st71" x1="126.432" y1="34.158" x2="126.348" y2="34.158"/>
				</g>
			</g>
		</g>
		<g>
			<g>
				<line class="st71" x1="27.383" y1="22.209" x2="26.083" y2="20.911"/>
				<line class="st71" x1="23.262" y1="18.087" x2="23.32" y2="18.148"/>
			</g>
			<g>
				<g>
					<line class="st71" x1="19.396" y1="34.339" x2="17.562" y2="34.339"/>
					<line class="st71" x1="13.568" y1="34.34" x2="13.653" y2="34.34"/>
				</g>
				<g>
					<line class="st71" x1="39.514" y1="14.226" x2="39.514" y2="12.387"/>
					<line class="st71" x1="39.514" y1="8.394" x2="39.514" y2="8.48"/>
				</g>
			</g>
		</g>
	</g>
</g>
</svg>
