<?xml version="1.0" encoding="utf-8"?>
<!-- Generator: Adobe Illustrator 16.0.0, SVG Export Plug-In . SVG Version: 6.00 Build 0)  -->
<!DOCTYPE svg PUBLIC "-//W3C//DTD SVG 1.1//EN" "http://www.w3.org/Graphics/SVG/1.1/DTD/svg11.dtd">
<svg version="1.1" id="Layer_1" xmlns="http://www.w3.org/2000/svg" xmlns:xlink="http://www.w3.org/1999/xlink" x="0px" y="0px"
	 width="140px" height="140px" viewBox="0 0 140 140" style="enable-background:new 0 0 140 140;" xml:space="preserve">
<style type="text/css">
<![CDATA[
	.st0{fill:#7A62F4;}
	.st1{fill:#7A8A91;}
	.st2{fill:#AA3154;}
	.st3{fill:#474B4F;}
	.st4{fill:#474C51;}
	.st5{fill:#477184;}
	.st6{fill:#AA8D5E;}
	.st7{fill:#AAF789;}
	.st8{fill:#7BE6FF;}
	.st9{fill:#7C66D8;}
	.st10{fill:#7CC0D8;}
	.st11{fill:#495359;}
	.st12{fill:#49DB7A;}
	.st13{fill:#49E500;}
	.st14{fill:#7DA8AA;}
	
		.st15{fill:none;stroke:#7C9199;stroke-width:3;stroke-linecap:round;stroke-linejoin:round;stroke-miterlimit:10;stroke-dasharray:5;}
	.st16{fill:#AD9F7F;}
	.st17{fill:none;stroke:#D3ECEF;stroke-linecap:round;stroke-linejoin:round;stroke-miterlimit:10;}
	.st18{fill:none;stroke:#C42323;stroke-width:3;stroke-linecap:round;stroke-linejoin:round;stroke-miterlimit:10;}
	.st19{fill:#AE52FF;}
	.st20{fill:#10DEF9;}
	.st21{fill:none;stroke:#267DC4;stroke-width:3;stroke-linecap:round;stroke-linejoin:round;stroke-miterlimit:10;}
	.st22{fill:#1162BA;}
	.st23{fill:#E02F2F;}
	.st24{fill:#E05368;}
	.st25{fill:#AFBFCE;}
	.st26{fill:#AFC8DD;}
	.st27{fill:#E0CC77;}
	.st28{fill:#1247B2;}
	.st29{fill:#E0DECE;}
	.st30{fill:#E0FF9C;}
	.st31{fill:none;stroke:#E21A32;stroke-linecap:round;stroke-linejoin:round;stroke-miterlimit:10;}
	.st32{fill:#13D626;}
	.st33{fill:#E2823B;}
	.st34{fill:#1462EF;}
	.st35{fill:#14B0ED;}
	.st36{fill:#1576EA;}
	.st37{fill:#15BDFF;}
	.st38{fill:#1613A5;}
	.st39{fill:#4A5056;}
	.st40{fill:#E55166;}
	.st41{fill:#E55A6B;}
	.st42{fill:#E56171;}
	.st43{fill:none;stroke:#79CC7E;stroke-width:2;stroke-linecap:round;stroke-linejoin:round;stroke-miterlimit:10;}
	.st44{fill:#4B6466;}
	.st45{opacity:0.4;fill:#79CC7E;}
	.st46{fill:#E6F1F4;}
	.st47{fill:#E6F2FC;}
	.st48{fill:#4C6362;}
	.st49{fill:#18AA67;}
	.st50{fill:#4D4D91;}
	.st51{fill:#4D575B;}
	.st52{fill:#E88E0C;}
	.st53{fill:#4DADCE;}
	.st54{fill:#E8E8E8;}
	.st55{opacity:0.3;fill:#9AA5A4;}
	.st56{fill:#80C3FF;}
	.st57{fill:#B066FF;}
	.st58{fill:#818F91;}
	.st59{fill:#B0D1D6;}
	.st60{fill:#B1DBDD;}
	.st61{fill:#B2104E;}
	.st62{fill:none;stroke:#FCFAE8;stroke-width:3;stroke-linecap:round;stroke-linejoin:round;stroke-miterlimit:10;}
	.st63{fill:#B2D1C7;}
	.st64{fill:#83ED3E;}
	.st65{fill:#83ED88;}
	.st66{fill:#8461BC;}
	.st67{fill:#84692C;}
	.st68{fill:#B3C9E2;}
	.st69{fill:none;stroke:#ED8700;stroke-width:3;stroke-linecap:round;stroke-linejoin:round;}
	.st70{fill:none;stroke:#64E2DC;stroke-width:3;stroke-linecap:round;stroke-linejoin:round;stroke-miterlimit:10;}
	.st71{fill:none;stroke:#33363A;stroke-width:3;stroke-linecap:round;stroke-linejoin:round;stroke-miterlimit:10;}
	.st72{fill:none;stroke:#33363A;stroke-width:4;stroke-linecap:round;stroke-linejoin:round;stroke-miterlimit:10;}
	.st73{fill:#85A7A8;}
	.st74{fill:#85C606;}
	.st75{fill:none;stroke:#33363A;stroke-width:5;stroke-linecap:round;stroke-linejoin:round;stroke-miterlimit:10;}
	.st76{fill:#86B2A2;}
	.st77{fill:#EA3D6A;}
	.st78{fill:#875835;}
	.st79{fill:#EA9706;}
	.st80{fill:#1C19AF;}
	.st81{fill:#EAAA0A;}
	.st82{fill:#EABC73;}
	.st83{fill:#EADFB2;}
	.st84{fill:#EAE4BE;}
	.st85{fill:#EAF2F9;}
	.st86{fill:#B7883D;}
	.st87{fill:#1CE5C3;}
	.st88{fill:#1CE8E3;}
	.st89{fill:#B7F467;}
	.st90{fill:none;stroke:#36B0CC;stroke-width:3;stroke-linecap:round;stroke-linejoin:round;stroke-miterlimit:10;}
	.st91{fill:#EBEDD3;}
	.st92{fill:none;stroke:#FFB000;stroke-width:3;stroke-linecap:round;stroke-linejoin:round;stroke-dasharray:8.2755,8.2755;}
	.st93{fill:#1DA834;}
	.st94{fill:#1DC8CC;}
	.st95{fill:#8957CE;}
	.st96{fill:#B8D3D1;}
	.st97{fill:#89A3A3;}
	.st98{fill:#1E91F9;}
	.st99{fill:#B969FF;}
	.st100{fill:#1EA6E2;}
	.st101{fill:#FFFFFF;stroke:#FFFFFF;stroke-width:2;stroke-linecap:round;stroke-linejoin:round;stroke-miterlimit:10;}
	.st102{fill:#ED4706;}
	.st103{fill:#EDA411;}
	.st104{fill:#EDDE88;}
	.st105{fill:#EDF4F4;}
	.st106{fill:#5050E2;}
	.st107{fill:#1FADE5;}
	.st108{enable-background:new    ;}
	.st109{fill:#EF4D4D;}
	.st110{fill:#EF6F7B;}
	.st111{fill:#EF9681;}
	.st112{fill:#EFA37D;}
	.st113{fill:#EFB289;}
	.st114{fill:#EFBD59;}
	.st115{fill:#EFCA0F;}
	.st116{fill:#EFEFDF;}
	.st117{fill:#526163;}
	.st118{fill:#529E54;}
	.st119{fill:#52C408;}
	.st120{fill:#5351B7;}
	.st121{fill:none;stroke:#EBEDD3;stroke-linecap:round;stroke-linejoin:round;stroke-miterlimit:10;}
	.st122{fill:#555D60;}
	.st123{fill:#55DBFF;}
	.st124{fill:none;stroke:#FFEF5A;stroke-width:2;stroke-linecap:round;stroke-linejoin:round;stroke-miterlimit:10;}
	.st125{fill:none;stroke:#FFEF5A;stroke-width:4;stroke-linecap:round;stroke-linejoin:round;stroke-miterlimit:10;}
	.st126{fill:none;stroke:#536B7C;stroke-width:3;stroke-linecap:round;stroke-linejoin:round;stroke-miterlimit:10;}
	.st127{fill:#8A9199;}
	.st128{fill:#8A998A;}
	.st129{fill:#8CE5E2;}
	.st130{fill:#BC3150;}
	.st131{fill:#595F66;}
	.st132{fill:#BC8B4B;}
	.st133{fill:#8DABC9;}
	.st134{fill:#8E7EED;}
	.st135{fill:#8EC1C1;}
	.st136{fill:#20BCF2;}
	.st137{fill:#8F56D8;}
	.st138{fill:#BEDD05;}
	.st139{fill:none;stroke:#EAD7FF;stroke-width:3;stroke-linecap:round;stroke-linejoin:round;stroke-miterlimit:10;}
	.st140{fill:#2178F7;}
	.st141{fill:#219B1E;}
	.st142{fill:#BF76FF;}
	.st143{fill:none;stroke:#88CCFF;stroke-width:3;stroke-linecap:round;stroke-linejoin:round;stroke-miterlimit:10;}
	.st144{fill:#22A1EF;}
	.st145{fill:#237AF9;}
	.st146{fill:#F2790C;}
	.st147{fill:#246DED;}
	.st148{fill:#F3FAFF;}
	.st149{fill:#25C10A;}
	.st150{fill:#F42535;}
	.st151{fill:#F4921E;}
	.st152{fill:#F4AB0B;}
	.st153{fill:#F4F3E9;}
	.st154{fill:#5A5F63;}
	.st155{fill:#26A3F7;}
	.st156{fill:#F5FEFF;}
	.st157{fill:#277AF4;}
	.st158{fill:#2792F4;}
	.st159{fill:#279377;}
	.st160{fill:#27C927;}
	.st161{fill:#5C2DE0;}
	.st162{fill:#F7441C;}
	.st163{fill:#F7910B;}
	.st164{fill:#F79E00;}
	.st165{fill:none;stroke:#FFB000;stroke-width:3;stroke-linecap:round;stroke-linejoin:round;}
	.st166{fill:#5D3EDD;}
	.st167{fill:#29CDFF;}
	.st168{fill:#5E6870;}
	.st169{fill:#F9A858;}
	.st170{fill:#F9C19B;}
	.st171{fill:#F9E446;}
	.st172{fill:#5F666B;}
	.st173{fill:#5FCE96;}
	.st174{fill:#90B2B1;}
	.st175{fill:#91EA57;}
	.st176{fill:#C11E5C;}
	.st177{fill:#C14830;}
	.st178{fill:#C17E25;}
	.st179{fill:#C1B995;}
	.st180{fill:#C1BFA7;}
	.st181{fill:none;stroke:#F9EF95;stroke-width:3;stroke-linecap:round;stroke-linejoin:round;stroke-miterlimit:10;}
	.st182{fill:#92E0FF;}
	.st183{fill:#92FC6B;}
	.st184{fill:#C28AE2;}
	.st185{fill:#939DA3;}
	.st186{fill:#C3D8D6;}
	.st187{fill:#C3DFE0;}
	.st188{fill:#C42323;}
	.st189{fill:#C4415B;}
	.st190{fill:#C480FF;}
	.st191{fill:#95AF68;}
	.st192{fill:#2A8BF4;}
	.st193{fill:#2AAD2A;}
	.st194{fill:#C5E3EA;}
	.st195{fill:#C63C4D;}
	.st196{fill:#C67A6D;}
	.st197{fill:#C6BA9B;}
	.st198{fill:#FC4259;}
	.st199{fill:#FC90A2;}
	.st200{fill:#C8DBDB;}
	.st201{fill:#FCC322;}
	.st202{fill:#FCDECA;}
	.st203{fill:#FCF8E6;}
	.st204{fill:#2E6ECC;}
	.st205{fill:#FCFCB9;}
	.st206{fill:none;stroke:#FFB000;stroke-width:3;stroke-linecap:round;stroke-linejoin:round;stroke-dasharray:8.028,8.028;}
	.st207{fill:#C9E1F2;}
	.st208{fill:#FDFFFF;}
	.st209{fill:#FF315D;}
	.st210{fill:#FF3636;}
	.st211{fill:#FF4800;}
	.st212{fill:#FF502E;}
	.st213{fill:#FF5B00;}
	.st214{fill:#FF647E;}
	.st215{fill:#FF6B06;}
	.st216{fill:#FF7639;}
	.st217{fill:#FF7892;}
	.st218{fill:#FF7900;}
	.st219{fill:#FF8103;}
	.st220{fill:#FF8500;}
	.st221{fill:#FF9100;}
	.st222{fill:#FF9700;}
	.st223{fill:#FF9E12;}
	.st224{fill:#61BBFF;}
	.st225{fill:#FFA300;}
	.st226{fill:#FFAA00;}
	.st227{fill:#FFABBF;}
	.st228{fill:#FFB000;}
	.st229{fill:#FFB206;}
	.st230{fill:#FFBC00;}
	.st231{fill:#FFBF31;}
	.st232{fill:#FFC1AE;}
	.st233{fill:#FFC200;}
	.st234{fill:#FFC757;}
	.st235{fill:#FFC817;}
	.st236{fill:#FFCE00;}
	.st237{fill:#FFD243;}
	.st238{fill:#FFD400;}
	.st239{fill:#FFD833;}
	.st240{fill:#FFD9C0;}
	.st241{fill:#FFDC10;}
	.st242{fill:#FFDE52;}
	.st243{fill:#FFE108;}
	.st244{fill:#FFE10B;}
	.st245{fill:#FFE31A;}
	.st246{fill:#FFE448;}
	.st247{fill:#FFE8C2;}
	.st248{fill:#FFE98F;}
	.st249{fill:#FFEB5A;}
	.st250{fill:#FFEDA1;}
	.st251{fill:#FFF19C;}
	.st252{fill:#FFF6E1;}
	.st253{fill:#FFF87B;}
	.st254{fill:#FFF8C7;}
	.st255{fill:#FFFCEE;}
	.st256{fill:#FFFFFF;}
	.st257{fill:#62CEDD;}
	.st258{fill:#636E72;}
	.st259{fill:none;stroke:#DDAC24;stroke-width:2;stroke-linecap:round;stroke-linejoin:round;stroke-miterlimit:10;}
	.st260{fill:#64BDFF;}
	.st261{fill:#64E2DC;}
	.st262{fill:none;stroke:#33363A;stroke-linecap:round;stroke-linejoin:round;stroke-miterlimit:10;}
	.st263{fill:#66797F;}
	.st264{fill:none;stroke:#EBC0F9;stroke-width:3;stroke-linecap:round;stroke-linejoin:round;stroke-miterlimit:10;}
	.st265{fill:#9AC1C1;}
	.st266{fill:#676E72;}
	.st267{fill:#677F7F;}
	.st268{fill:#678B99;}
	.st269{fill:#9B0751;}
	.st270{fill:#9B6743;}
	.st271{fill:#9B7335;}
	.st272{fill:none;stroke:#E0FF9C;stroke-width:3;stroke-linecap:round;stroke-linejoin:round;stroke-miterlimit:10;}
	.st273{fill:#CAD7E5;}
	.st274{fill:#CAE5E3;}
	.st275{fill:none;stroke:#FFD815;stroke-width:3;stroke-linecap:round;stroke-linejoin:round;stroke-miterlimit:10;}
	.st276{fill:none;stroke:#64C0F9;stroke-width:3;stroke-linecap:round;stroke-linejoin:round;stroke-miterlimit:10;}
	.st277{fill:#68B6DD;}
	.st278{fill:#CC445B;}
	.st279{fill:none;stroke:#66A8F7;stroke-width:3;stroke-linecap:round;stroke-linejoin:round;stroke-miterlimit:10;}
	.st280{fill:#9D67C1;}
	.st281{fill:#CCFFFF;}
	.st282{fill:#9DC0C4;}
	.st283{fill:#9E2323;}
	.st284{fill:#9E45DD;}
	.st285{fill:#CDDEE0;}
	.st286{fill:#309FD6;}
	.st287{fill:none;stroke:#ED8700;stroke-width:3;stroke-linecap:round;stroke-linejoin:round;stroke-dasharray:7.7039,7.7039;}
	.st288{fill:#CE4313;}
	.st289{fill:#CEA255;}
	.st290{fill:#9FC1B5;}
	.st291{fill:#3131DD;}
	.st292{fill:#33363A;}
	.st293{fill:#334746;}
	.st294{fill:#3380CC;}
	.st295{fill:#34C166;}
	.st296{fill:#363B3F;}
	.st297{fill:#6A797C;}
	.st298{fill:#33363A;stroke:#33363A;stroke-width:3;stroke-linecap:round;stroke-linejoin:round;stroke-miterlimit:10;}
	.st299{fill:#6C85FF;}
	.st300{opacity:0.2;fill:#3C8DA0;}
	.st301{fill:none;stroke:#5F6266;stroke-width:3;stroke-linecap:round;stroke-linejoin:round;stroke-miterlimit:10;}
	.st302{fill:#00ADDB;}
	.st303{fill:#6F898C;}
	.st304{fill:#6FAF00;}
	.st305{fill:#D0D8CA;}
	.st306{fill:#D0E0EA;}
	.st307{fill:#D0E2F4;}
	.st308{fill:none;stroke:#FFB000;stroke-width:3;stroke-linecap:round;stroke-linejoin:round;stroke-dasharray:7.8476,7.8476;}
	.st309{fill:none;stroke:#33363A;stroke-width:10;stroke-linecap:round;stroke-linejoin:round;stroke-miterlimit:10;}
	.st310{fill:#04968E;}
	.st311{fill:#D30B49;}
	.st312{fill:#D31818;}
	.st313{fill:#D34624;}
	.st314{fill:#D39F1E;}
	.st315{fill:#D3D1C1;}
	.st316{fill:#D3DADD;}
	.st317{fill:#D3E5EA;}
	.st318{fill:#055E6D;}
	.st319{fill:#059CE8;}
	.st320{fill:#064E7F;}
	.st321{fill:#066782;}
	.st322{fill:#07563C;}
	.st323{fill:#D5E2CC;}
	.st324{fill:#3B4244;}
	.st325{fill:#D60024;}
	.st326{fill:#D6702B;}
	.st327{fill:#D68967;}
	.st328{fill:#D6A545;}
	.st329{fill:#D6CB9D;}
	.st330{fill:#3C4044;}
	.st331{fill:#08BC26;}
	.st332{fill:#097F2A;}
	.st333{fill:none;stroke:#FFAB94;stroke-width:4;stroke-linecap:round;stroke-linejoin:round;stroke-miterlimit:10;}
	.st334{fill:#3D5957;}
	.st335{fill:#3D99F4;}
	.st336{fill:#D8235F;}
	.st337{fill:#D83055;}
	.st338{fill:#D83563;}
	.st339{fill:#D83705;}
	.st340{fill:#D8533D;}
	.st341{fill:#D8D7C0;}
	.st342{fill:#3E9FF7;}
	.st343{fill:#D9F0F4;}
	.st344{fill:#705622;}
	.st345{fill:#70D63A;}
	.st346{fill:#A03F25;}
	.st347{fill:#A07F3C;}
	.st348{opacity:0.6;fill:#2670BF;}
	.st349{fill:#A0BAB9;}
	.st350{fill:#A197FC;}
	.st351{fill:#727B84;}
	.st352{fill:#A1C6C6;}
	.st353{fill:#A23FE8;}
	.st354{fill:#737F73;}
	.st355{fill:#73F4B3;}
	.st356{fill:#A31153;}
	.st357{fill:#748C4F;}
	.st358{fill:#749997;}
	.st359{fill:#0A7BE2;}
	.st360{fill:#0A8989;}
	.st361{fill:#0A912A;}
	.st362{fill:#0A9B3D;}
	.st363{fill:#0A9DBF;}
	.st364{fill:#A53CEF;}
	.st365{fill:#0ABAEA;}
	.st366{fill:#A5BFBF;}
	.st367{fill:#7799AA;}
	.st368{fill:#77D852;}
	.st369{fill:#0C4ABA;}
	.st370{fill:#DAE5E5;}
	.st371{fill:#0CA813;}
	.st372{fill:#788E8D;}
	.st373{fill:#78CFFF;}
	.st374{fill:#A8273D;}
	.st375{fill:#79CC7E;}
	.st376{fill:#0E48DB;}
	.st377{fill:#DCE7EF;}
	.st378{fill:#0E7F24;}
	.st379{fill:#DDAC24;}
	.st380{fill:#DDC872;}
	.st381{fill:#DDE6E8;}
	.st382{fill:#404449;}
	.st383{fill:#0FA88E;}
	.st384{fill:#DEF21D;}
	.st385{fill:#4120CE;}
	.st386{fill:none;stroke:#CCB13E;stroke-width:3;stroke-linecap:round;stroke-linejoin:round;stroke-miterlimit:10;}
	.st387{fill:#41F7D4;}
	.st388{fill:#DFEDEF;}
	.st389{fill:#DFF4E9;}
	.st390{fill:#DFF7F6;}
	.st391{fill:#42E6EA;}
	.st392{fill:#43474C;}
	.st393{fill:#43B1E8;}
	.st394{fill:#44CC7B;}
	.st395{fill:#45484C;}
	.st396{fill:#454A4F;}
	.st397{fill:#45BA0F;}
	.st398{fill:#45CAFF;}
]]>
</style>
<g>
	<g>
		<path class="st371" d="M65.693,8.66l2.214,11.444c0,0.689-0.285,1.249,2.094,1.249c2.378,0,2.092-0.56,2.092-1.249L74.307,8.66
			H65.693z"/>
		<path class="st160" d="M65.693,8.66l2.214,11.444c0,0.689-0.285,1.249,2.094,1.249V8.66H65.693z"/>
		<path class="st71" d="M65.693,8.66l2.214,11.444c0,0.689-0.285,1.249,2.094,1.249c2.378,0,2.092-0.56,2.092-1.249L74.307,8.66
			H65.693z"/>
		<ellipse class="st160" cx="70" cy="8.66" rx="4.307" ry="1.25"/>
		<ellipse class="st71" cx="70" cy="8.66" rx="4.307" ry="1.25"/>
	</g>
	<g>
		<g>
			<g>
				<g>
					<g>
						<circle class="st120" cx="46.237" cy="46.223" r="11.881"/>
						<path class="st95" d="M46.237,34.342c-5.853,0-10.705,4.235-11.688,9.805c0.983,5.569,5.836,9.805,11.688,9.805
							s10.705-4.235,11.688-9.805C56.942,38.577,52.09,34.342,46.237,34.342z"/>
						<path class="st120" d="M46.237,34.342c6.562,0,11.881,5.319,11.881,11.881s-5.319,11.881-11.881,11.881"/>
						<path class="st291" d="M58.065,45.155c-0.034-0.341-0.082-0.676-0.14-1.009c-0.983,5.569-5.836,9.805-11.688,9.805v4.152
							c6.562,0,11.881-5.319,11.881-11.881C58.118,45.862,58.097,45.508,58.065,45.155z"/>
						<circle class="st71" cx="46.237" cy="46.223" r="11.881"/>
						<path class="st71" d="M34.356,46.223c0-6.562,5.319-11.881,11.881-11.881"/>
					</g>
					<path class="st264" d="M37.778,46.3c0-4.672,3.787-8.459,8.459-8.459"/>
					<line class="st264" x1="38.831" y1="49.218" x2="38.831" y2="49.218"/>
				</g>
				<g>
					<g>
						<circle class="st120" cx="70" cy="46.223" r="11.881"/>
						<path class="st95" d="M70,34.342c-5.853,0-10.706,4.235-11.688,9.805c0.982,5.569,5.836,9.805,11.688,9.805
							s10.706-4.235,11.688-9.805C80.706,38.577,75.853,34.342,70,34.342z"/>
						<path class="st120" d="M70,34.342c6.562,0,11.881,5.319,11.881,11.881S76.562,58.104,70,58.104"/>
						<path class="st291" d="M81.827,45.155c-0.033-0.341-0.08-0.676-0.139-1.009c-0.982,5.569-5.836,9.805-11.688,9.805v4.152
							c6.562,0,11.881-5.319,11.881-11.881C81.881,45.862,81.858,45.508,81.827,45.155z"/>
						<circle class="st71" cx="70" cy="46.223" r="11.881"/>
						<path class="st71" d="M58.118,46.223c0-6.562,5.319-11.881,11.882-11.881"/>
					</g>
					<path class="st264" d="M61.541,46.3c0-4.672,3.788-8.459,8.459-8.459"/>
					<line class="st264" x1="62.595" y1="49.218" x2="62.595" y2="49.218"/>
				</g>
				<g>
					<g>
						<circle class="st120" cx="93.762" cy="46.223" r="11.881"/>
						<path class="st95" d="M93.763,34.342c-5.853,0-10.705,4.235-11.688,9.805c0.983,5.569,5.836,9.805,11.688,9.805
							c5.852,0,10.704-4.235,11.688-9.805C104.467,38.577,99.614,34.342,93.763,34.342z"/>
						<path class="st120" d="M93.763,34.342c6.561,0,11.881,5.319,11.881,11.881s-5.32,11.881-11.881,11.881"/>
						<path class="st291" d="M105.59,45.155c-0.032-0.341-0.079-0.676-0.139-1.009c-0.984,5.569-5.837,9.805-11.688,9.805v4.152
							c6.561,0,11.881-5.319,11.881-11.881C105.644,45.862,105.622,45.508,105.59,45.155z"/>
						<circle class="st71" cx="93.762" cy="46.223" r="11.881"/>
						<path class="st71" d="M81.881,46.223c0-6.562,5.32-11.881,11.882-11.881"/>
					</g>
					<path class="st264" d="M85.304,46.3c0-4.672,3.787-8.459,8.459-8.459"/>
					<line class="st264" x1="86.357" y1="49.218" x2="86.357" y2="49.218"/>
				</g>
			</g>
			<g>
				<g>
					<circle class="st120" cx="70" cy="89.857" r="11.881"/>
					<path class="st95" d="M70,77.975c-5.853,0-10.706,4.236-11.688,9.807c0.982,5.57,5.836,9.805,11.688,9.805
						s10.706-4.234,11.688-9.805C80.706,82.211,75.853,77.975,70,77.975z"/>
					<path class="st120" d="M70,77.975c6.562,0,11.881,5.32,11.881,11.883c0,6.561-5.319,11.881-11.881,11.881"/>
					<path class="st291" d="M81.827,88.789c-0.033-0.34-0.08-0.676-0.139-1.008c-0.982,5.57-5.836,9.805-11.688,9.805v4.152
						c6.562,0,11.881-5.32,11.881-11.881C81.881,89.496,81.858,89.141,81.827,88.789z"/>
					<circle class="st71" cx="70" cy="89.857" r="11.881"/>
					<path class="st71" d="M58.118,89.857c0-6.562,5.319-11.883,11.882-11.883"/>
				</g>
				<path class="st264" d="M61.541,89.934c0-4.672,3.788-8.459,8.459-8.459"/>
				<line class="st264" x1="62.595" y1="92.852" x2="62.595" y2="92.852"/>
			</g>
			<g>
				<g>
					<circle class="st120" cx="70" cy="74.164" r="11.881"/>
					<path class="st95" d="M70,62.282c-5.853,0-10.706,4.235-11.688,9.804c0.982,5.57,5.836,9.807,11.688,9.807
						s10.706-4.236,11.688-9.807C80.706,66.518,75.853,62.282,70,62.282z"/>
					<path class="st120" d="M70,62.282c6.562,0,11.881,5.32,11.881,11.882c0,6.561-5.319,11.881-11.881,11.881"/>
					<path class="st291" d="M81.827,73.096c-0.033-0.34-0.08-0.676-0.139-1.01c-0.982,5.57-5.836,9.807-11.688,9.807v4.152
						c6.562,0,11.881-5.32,11.881-11.881C81.881,73.803,81.858,73.447,81.827,73.096z"/>
					<circle class="st71" cx="70" cy="74.164" r="11.881"/>
					<path class="st71" d="M58.118,74.164c0-6.562,5.319-11.882,11.882-11.882"/>
				</g>
				<path class="st264" d="M61.541,74.24c0-4.671,3.788-8.458,8.459-8.458"/>
				<line class="st264" x1="62.595" y1="77.158" x2="62.595" y2="77.158"/>
			</g>
			<g>
				<g>
					<g>
						<circle class="st120" cx="58.119" cy="68.368" r="11.881"/>
						<path class="st95" d="M58.118,56.487c-5.853,0-10.704,4.235-11.688,9.806c0.983,5.568,5.835,9.805,11.688,9.805
							c5.854,0,10.705-4.236,11.688-9.805C68.823,60.723,63.972,56.487,58.118,56.487z"/>
						<path class="st120" d="M58.118,56.487C64.681,56.487,70,61.807,70,68.368S64.681,80.25,58.118,80.25"/>
						<path class="st291" d="M69.946,67.302c-0.033-0.341-0.08-0.676-0.14-1.009c-0.983,5.568-5.835,9.805-11.688,9.805v4.152
							C64.681,80.25,70,74.93,70,68.368C70,68.009,69.978,67.653,69.946,67.302z"/>
						<circle class="st71" cx="58.119" cy="68.368" r="11.881"/>
						<path class="st71" d="M46.237,68.368c0-6.562,5.318-11.881,11.881-11.881"/>
					</g>
					<path class="st264" d="M49.659,68.446c0-4.672,3.787-8.459,8.459-8.459"/>
					<line class="st264" x1="50.713" y1="71.363" x2="50.713" y2="71.363"/>
				</g>
				<g>
					<g>
						<circle class="st120" cx="81.881" cy="68.368" r="11.881"/>
						<path class="st95" d="M81.881,56.487c-5.853,0-10.705,4.235-11.688,9.806c0.983,5.568,5.836,9.805,11.688,9.805
							s10.706-4.236,11.688-9.805C92.587,60.723,87.733,56.487,81.881,56.487z"/>
						<path class="st120" d="M81.881,56.487c6.562,0,11.882,5.319,11.882,11.881S88.443,80.25,81.881,80.25"/>
						<path class="st291" d="M93.708,67.302c-0.032-0.341-0.079-0.676-0.139-1.009c-0.982,5.568-5.836,9.805-11.688,9.805v4.152
							c6.562,0,11.882-5.32,11.882-11.882C93.763,68.009,93.74,67.653,93.708,67.302z"/>
						<circle class="st71" cx="81.881" cy="68.368" r="11.881"/>
						<path class="st71" d="M70,68.368c0-6.562,5.319-11.881,11.881-11.881"/>
					</g>
					<path class="st264" d="M73.422,68.446c0-4.672,3.788-8.459,8.459-8.459"/>
					<line class="st264" x1="74.476" y1="71.363" x2="74.476" y2="71.363"/>
				</g>
			</g>
		</g>
		<g>
			<g>
				<g>
					<g>
						<circle class="st120" cx="46.237" cy="77.074" r="11.881"/>
						<path class="st95" d="M46.237,65.194c-5.853,0-10.705,4.234-11.688,9.804c0.983,5.57,5.836,9.805,11.688,9.805
							s10.705-4.234,11.688-9.805C56.942,69.429,52.09,65.194,46.237,65.194z"/>
						<path class="st120" d="M46.237,65.194c6.562,0,11.881,5.318,11.881,11.88c0,6.562-5.319,11.881-11.881,11.881"/>
						<path class="st291" d="M58.065,76.008c-0.034-0.342-0.082-0.678-0.14-1.01c-0.983,5.57-5.836,9.805-11.688,9.805v4.152
							c6.562,0,11.881-5.318,11.881-11.881C58.118,76.715,58.097,76.359,58.065,76.008z"/>
						<circle class="st71" cx="46.237" cy="77.074" r="11.881"/>
						<path class="st71" d="M34.356,77.074c0-6.562,5.319-11.88,11.881-11.88"/>
					</g>
					<path class="st264" d="M37.778,77.152c0-4.672,3.787-8.459,8.459-8.459"/>
					<line class="st264" x1="38.831" y1="80.07" x2="38.831" y2="80.07"/>
				</g>
				<g>
					<g>
						<circle class="st120" cx="70" cy="77.074" r="11.881"/>
						<path class="st95" d="M70,65.194c-5.853,0-10.706,4.234-11.688,9.804c0.982,5.57,5.836,9.805,11.688,9.805
							s10.706-4.234,11.688-9.805C80.706,69.429,75.853,65.194,70,65.194z"/>
						<path class="st120" d="M70,65.194c6.562,0,11.881,5.318,11.881,11.88c0,6.562-5.319,11.881-11.881,11.881"/>
						<path class="st291" d="M81.827,76.008c-0.033-0.342-0.08-0.678-0.139-1.01c-0.982,5.57-5.836,9.805-11.688,9.805v4.152
							c6.562,0,11.881-5.318,11.881-11.881C81.881,76.715,81.858,76.359,81.827,76.008z"/>
						<circle class="st71" cx="70" cy="77.074" r="11.881"/>
						<path class="st71" d="M58.118,77.074c0-6.562,5.319-11.88,11.882-11.88"/>
					</g>
					<path class="st264" d="M61.541,77.152c0-4.672,3.788-8.459,8.459-8.459"/>
					<line class="st264" x1="62.595" y1="80.07" x2="62.595" y2="80.07"/>
				</g>
				<g>
					<g>
						<circle class="st120" cx="93.762" cy="77.074" r="11.881"/>
						<path class="st95" d="M93.763,65.194c-5.853,0-10.705,4.234-11.688,9.804c0.983,5.57,5.836,9.805,11.688,9.805
							c5.852,0,10.704-4.234,11.688-9.805C104.467,69.429,99.614,65.194,93.763,65.194z"/>
						<path class="st120" d="M93.763,65.194c6.561,0,11.881,5.318,11.881,11.88c0,6.562-5.32,11.881-11.881,11.881"/>
						<path class="st291" d="M105.59,76.008c-0.032-0.342-0.079-0.678-0.139-1.01c-0.984,5.57-5.837,9.805-11.688,9.805v4.152
							c6.561,0,11.881-5.318,11.881-11.881C105.644,76.715,105.622,76.359,105.59,76.008z"/>
						<circle class="st71" cx="93.762" cy="77.074" r="11.881"/>
						<path class="st71" d="M81.881,77.074c0-6.562,5.32-11.88,11.882-11.88"/>
					</g>
					<path class="st264" d="M85.304,77.152c0-4.672,3.787-8.459,8.459-8.459"/>
					<line class="st264" x1="86.357" y1="80.07" x2="86.357" y2="80.07"/>
				</g>
			</g>
			<g>
				<g>
					<circle class="st120" cx="70" cy="120.709" r="11.881"/>
					<path class="st95" d="M70,108.828c-5.853,0-10.706,4.234-11.688,9.805c0.982,5.57,5.836,9.805,11.688,9.805
						s10.706-4.234,11.688-9.805C80.706,113.062,75.853,108.828,70,108.828z"/>
					<path class="st120" d="M70,108.828c6.562,0,11.881,5.318,11.881,11.881S76.562,132.59,70,132.59"/>
					<path class="st291" d="M81.827,119.641c-0.033-0.34-0.08-0.676-0.139-1.008c-0.982,5.57-5.836,9.805-11.688,9.805v4.152
						c6.562,0,11.881-5.318,11.881-11.881C81.881,120.35,81.858,119.994,81.827,119.641z"/>
					<circle class="st71" cx="70" cy="120.709" r="11.881"/>
					<path class="st71" d="M58.118,120.709c0-6.562,5.319-11.881,11.882-11.881"/>
				</g>
				<path class="st264" d="M61.541,120.787c0-4.672,3.788-8.459,8.459-8.459"/>
				<line class="st264" x1="62.595" y1="123.705" x2="62.595" y2="123.705"/>
			</g>
			<g>
				<g>
					<circle class="st120" cx="70" cy="105.016" r="11.881"/>
					<path class="st95" d="M70,93.135c-5.853,0-10.706,4.234-11.688,9.805c0.982,5.57,5.836,9.805,11.688,9.805
						s10.706-4.234,11.688-9.805C80.706,97.369,75.853,93.135,70,93.135z"/>
					<path class="st120" d="M70,93.135c6.562,0,11.881,5.318,11.881,11.881S76.562,116.896,70,116.896"/>
					<path class="st291" d="M81.827,103.949c-0.033-0.342-0.08-0.678-0.139-1.01c-0.982,5.57-5.836,9.805-11.688,9.805v4.152
						c6.562,0,11.881-5.318,11.881-11.881C81.881,104.656,81.858,104.299,81.827,103.949z"/>
					<circle class="st71" cx="70" cy="105.016" r="11.881"/>
					<path class="st71" d="M58.118,105.016c0-6.562,5.319-11.881,11.882-11.881"/>
				</g>
				<path class="st264" d="M61.541,105.094c0-4.674,3.788-8.461,8.459-8.461"/>
				<line class="st264" x1="62.595" y1="108.012" x2="62.595" y2="108.012"/>
			</g>
			<g>
				<g>
					<g>
						<circle class="st120" cx="58.119" cy="99.221" r="11.881"/>
						<path class="st95" d="M58.118,87.34c-5.853,0-10.704,4.234-11.688,9.805c0.983,5.57,5.835,9.805,11.688,9.805
							c5.854,0,10.705-4.234,11.688-9.805C68.823,91.574,63.972,87.34,58.118,87.34z"/>
						<path class="st120" d="M58.118,87.34C64.681,87.34,70,92.658,70,99.221c0,6.561-5.319,11.881-11.882,11.881"/>
						<path class="st291" d="M69.946,98.152c-0.033-0.34-0.08-0.676-0.14-1.008c-0.983,5.57-5.835,9.805-11.688,9.805v4.152
							c6.562,0,11.882-5.32,11.882-11.881C70,98.859,69.978,98.506,69.946,98.152z"/>
						<circle class="st71" cx="58.119" cy="99.221" r="11.881"/>
						<path class="st71" d="M46.237,99.221c0-6.562,5.318-11.881,11.881-11.881"/>
					</g>
					<path class="st264" d="M49.659,99.299c0-4.674,3.787-8.461,8.459-8.461"/>
					<line class="st264" x1="50.713" y1="102.217" x2="50.713" y2="102.217"/>
				</g>
				<g>
					<g>
						<circle class="st120" cx="81.881" cy="99.221" r="11.881"/>
						<path class="st95" d="M81.881,87.34c-5.853,0-10.705,4.234-11.688,9.805c0.983,5.57,5.836,9.805,11.688,9.805
							s10.706-4.234,11.688-9.805C92.587,91.574,87.733,87.34,81.881,87.34z"/>
						<path class="st120" d="M81.881,87.34c6.562,0,11.882,5.318,11.882,11.881c0,6.561-5.319,11.881-11.882,11.881"/>
						<path class="st291" d="M93.708,98.152c-0.032-0.34-0.079-0.676-0.139-1.008c-0.982,5.57-5.836,9.805-11.688,9.805v4.152
							c6.562,0,11.882-5.32,11.882-11.881C93.763,98.859,93.74,98.506,93.708,98.152z"/>
						<circle class="st71" cx="81.881" cy="99.221" r="11.881"/>
						<path class="st71" d="M70,99.221c0-6.562,5.319-11.881,11.881-11.881"/>
					</g>
					<path class="st264" d="M73.422,99.299c0-4.674,3.788-8.461,8.459-8.461"/>
					<line class="st264" x1="74.476" y1="102.217" x2="74.476" y2="102.217"/>
				</g>
			</g>
		</g>
		<g>
			<g>
				<g>
					<g>
						<circle class="st120" cx="42.363" cy="57.891" r="13.819"/>
						<path class="st95" d="M42.362,44.072c-6.807,0-12.45,4.925-13.594,11.404c1.144,6.478,6.787,11.403,13.594,11.403
							s12.451-4.926,13.595-11.403C54.813,48.997,49.169,44.072,42.362,44.072z"/>
						<path class="st120" d="M42.362,44.072c7.632,0,13.819,6.187,13.819,13.818s-6.188,13.818-13.819,13.818"/>
						<path class="st291" d="M56.118,56.649c-0.038-0.396-0.093-0.787-0.161-1.173c-1.144,6.478-6.788,11.403-13.595,11.403v4.829
							c7.632,0,13.819-6.187,13.819-13.818C56.182,57.472,56.155,57.06,56.118,56.649z"/>
						<circle class="st71" cx="42.363" cy="57.891" r="13.819"/>
						<path class="st71" d="M28.544,57.891c0-7.632,6.187-13.818,13.818-13.818"/>
					</g>
					<path class="st264" d="M32.524,57.98c0-5.433,4.404-9.838,9.838-9.838"/>
					<line class="st264" x1="33.749" y1="61.374" x2="33.749" y2="61.374"/>
				</g>
				<g>
					<g>
						<circle class="st120" cx="70" cy="57.891" r="13.818"/>
						<path class="st95" d="M70,44.072c-6.807,0-12.45,4.925-13.595,11.404C57.55,61.954,63.193,66.88,70,66.88
							s12.45-4.926,13.595-11.403C82.45,48.997,76.807,44.072,70,44.072z"/>
						<path class="st120" d="M70,44.072c7.632,0,13.818,6.187,13.818,13.818S77.632,71.709,70,71.709"/>
						<path class="st291" d="M83.756,56.649c-0.038-0.396-0.093-0.787-0.161-1.173C82.45,61.954,76.807,66.88,70,66.88v4.829
							c7.632,0,13.818-6.187,13.818-13.818C83.818,57.472,83.793,57.06,83.756,56.649z"/>
						<circle class="st71" cx="70" cy="57.891" r="13.818"/>
						<path class="st71" d="M56.182,57.891c0-7.632,6.187-13.818,13.818-13.818"/>
					</g>
					<path class="st264" d="M60.161,57.98c0-5.433,4.405-9.838,9.839-9.838"/>
					<line class="st264" x1="61.388" y1="61.374" x2="61.388" y2="61.374"/>
				</g>
				<g>
					<g>
						<circle class="st120" cx="97.637" cy="57.891" r="13.819"/>
						<path class="st95" d="M97.638,44.072c-6.807,0-12.451,4.925-13.595,11.404c1.144,6.478,6.788,11.403,13.595,11.403
							s12.45-4.926,13.594-11.403C110.088,48.997,104.444,44.072,97.638,44.072z"/>
						<path class="st120" d="M97.638,44.072c7.632,0,13.818,6.187,13.818,13.818s-6.187,13.818-13.818,13.818"/>
						<path class="st291" d="M111.394,56.649c-0.039-0.396-0.094-0.787-0.162-1.173c-1.144,6.478-6.787,11.403-13.594,11.403v4.829
							c7.632,0,13.818-6.187,13.818-13.818C111.456,57.472,111.43,57.06,111.394,56.649z"/>
						<circle class="st71" cx="97.637" cy="57.891" r="13.819"/>
						<path class="st71" d="M83.818,57.891c0-7.632,6.188-13.818,13.819-13.818"/>
					</g>
					<path class="st264" d="M87.799,57.98c0-5.433,4.405-9.838,9.839-9.838"/>
					<line class="st264" x1="89.024" y1="61.374" x2="89.024" y2="61.374"/>
				</g>
			</g>
			<g>
				<g>
					<circle class="st120" cx="70" cy="108.641" r="13.818"/>
					<path class="st95" d="M70,94.82c-6.807,0-12.45,4.926-13.595,11.404c1.145,6.479,6.788,11.404,13.595,11.404
						s12.45-4.926,13.595-11.404C82.45,99.746,76.807,94.82,70,94.82z"/>
					<path class="st120" d="M70,94.82c7.632,0,13.818,6.188,13.818,13.82c0,7.631-6.187,13.818-13.818,13.818"/>
					<path class="st291" d="M83.756,107.398c-0.038-0.396-0.093-0.787-0.161-1.174c-1.145,6.479-6.788,11.404-13.595,11.404v4.83
						c7.632,0,13.818-6.188,13.818-13.818C83.818,108.221,83.793,107.809,83.756,107.398z"/>
					<circle class="st71" cx="70" cy="108.641" r="13.818"/>
					<path class="st71" d="M56.182,108.641c0-7.633,6.187-13.82,13.818-13.82"/>
				</g>
				<path class="st264" d="M60.161,108.73c0-5.434,4.405-9.838,9.839-9.838"/>
				<line class="st264" x1="61.388" y1="112.125" x2="61.388" y2="112.125"/>
			</g>
			<g>
				<g>
					<g>
						<circle class="st120" cx="56.181" cy="83.646" r="13.819"/>
						<path class="st95" d="M56.182,69.829c-6.808,0-12.45,4.925-13.595,11.403c1.145,6.479,6.787,11.404,13.595,11.404
							c6.806,0,12.45-4.926,13.594-11.404C68.632,74.754,62.987,69.829,56.182,69.829z"/>
						<path class="st120" d="M56.182,69.829C63.812,69.829,70,76.016,70,83.646c0,7.633-6.188,13.82-13.818,13.82"/>
						<path class="st291" d="M69.938,82.406c-0.038-0.396-0.093-0.787-0.162-1.174c-1.144,6.479-6.788,11.404-13.594,11.404v4.83
							c7.631,0,13.818-6.188,13.818-13.82C70,83.229,69.974,82.816,69.938,82.406z"/>
						<circle class="st71" cx="56.181" cy="83.646" r="13.819"/>
						<path class="st71" d="M42.362,83.646c0-7.631,6.187-13.817,13.819-13.817"/>
					</g>
					<path class="st264" d="M46.343,83.736c0-5.432,4.405-9.838,9.839-9.838"/>
					<line class="st264" x1="47.568" y1="87.131" x2="47.568" y2="87.131"/>
				</g>
				<g>
					<g>
						<circle class="st120" cx="83.819" cy="83.646" r="13.819"/>
						<path class="st95" d="M83.818,69.829c-6.806,0-12.45,4.925-13.594,11.403c1.144,6.479,6.788,11.404,13.594,11.404
							c6.808,0,12.45-4.926,13.595-11.404C96.269,74.754,90.626,69.829,83.818,69.829z"/>
						<path class="st120" d="M83.818,69.829c7.632,0,13.819,6.187,13.819,13.817c0,7.633-6.188,13.82-13.819,13.82"/>
						<path class="st291" d="M97.575,82.406c-0.039-0.396-0.094-0.787-0.162-1.174c-1.145,6.479-6.787,11.404-13.595,11.404v4.83
							c7.632,0,13.819-6.188,13.819-13.82C97.638,83.229,97.611,82.816,97.575,82.406z"/>
						<circle class="st71" cx="83.819" cy="83.646" r="13.819"/>
						<path class="st71" d="M70,83.646c0-7.631,6.187-13.817,13.818-13.817"/>
					</g>
					<path class="st264" d="M73.98,83.736c0-5.432,4.404-9.838,9.838-9.838"/>
					<line class="st264" x1="75.206" y1="87.131" x2="75.206" y2="87.131"/>
				</g>
			</g>
		</g>
		<g>
			<path class="st371" d="M42.535,33.206c7.184,9.322,16.838,8.863,27.465,8.863c10.626,0,20.282,0.459,27.465-8.863
				C90.282,29.153,80.626,27.597,70,27.597C59.373,27.597,49.719,29.153,42.535,33.206z"/>
			<path class="st361" d="M70,42.069c10.626,0,20.282,0.459,27.465-8.863C90.282,29.153,80.626,27.597,70,27.597"/>
			<path class="st160" d="M67.2,27.639c-0.402,0.011-0.807,0.021-1.205,0.036c-0.345,0.014-0.686,0.033-1.028,0.051
				c-0.308,0.016-0.615,0.029-0.921,0.048c-0.389,0.024-0.771,0.054-1.155,0.083c-0.255,0.018-0.509,0.035-0.76,0.057
				c-0.416,0.035-0.827,0.076-1.238,0.118c-0.212,0.021-0.428,0.04-0.639,0.063c-0.439,0.049-0.874,0.104-1.307,0.158
				c-0.177,0.022-0.354,0.043-0.53,0.067c-0.456,0.062-0.909,0.13-1.358,0.2c-0.146,0.023-0.292,0.045-0.437,0.068
				c-0.471,0.078-0.935,0.161-1.396,0.248c-0.119,0.022-0.24,0.044-0.359,0.066c-0.478,0.095-0.951,0.194-1.422,0.299
				c-0.096,0.021-0.192,0.042-0.288,0.062c-0.484,0.111-0.963,0.229-1.437,0.352c-0.078,0.02-0.154,0.039-0.23,0.06
				c-0.485,0.128-0.967,0.264-1.441,0.405c-0.06,0.018-0.119,0.035-0.178,0.053c-0.486,0.147-0.965,0.301-1.438,0.463
				c-0.045,0.016-0.091,0.031-0.136,0.046c-0.481,0.167-0.957,0.343-1.424,0.524c-0.033,0.012-0.065,0.024-0.099,0.037
				c-0.477,0.188-0.945,0.383-1.405,0.586c-0.022,0.009-0.043,0.02-0.064,0.028c-0.468,0.208-0.929,0.424-1.381,0.649
				c-0.013,0.007-0.023,0.013-0.036,0.02c-0.459,0.23-0.908,0.468-1.348,0.716c-0.002,0.001-0.003,0.002-0.005,0.003
				c1.05,1.363,2.154,2.511,3.305,3.488c6.725-2.855,15.085-3.993,24.16-3.993c9.073,0,17.437,1.138,24.161,3.993
				c1.15-0.978,2.254-2.126,3.304-3.488c-0.001-0.001-0.001-0.001-0.002-0.001c-0.442-0.249-0.894-0.488-1.354-0.72
				c-0.01-0.005-0.021-0.011-0.03-0.016c-0.452-0.227-0.913-0.443-1.383-0.651c-0.022-0.009-0.043-0.02-0.063-0.028
				c-0.461-0.203-0.93-0.397-1.405-0.586c-0.034-0.013-0.066-0.025-0.101-0.038c-0.466-0.183-0.939-0.354-1.422-0.521
				c-0.045-0.017-0.092-0.033-0.139-0.048c-0.471-0.162-0.949-0.315-1.434-0.462c-0.062-0.019-0.121-0.036-0.182-0.055
				c-0.473-0.141-0.953-0.276-1.438-0.403c-0.079-0.021-0.157-0.041-0.235-0.062c-0.473-0.122-0.948-0.239-1.433-0.349
				c-0.098-0.022-0.195-0.044-0.292-0.065c-0.469-0.104-0.941-0.203-1.42-0.298c-0.119-0.022-0.239-0.044-0.359-0.066
				c-0.461-0.087-0.925-0.17-1.395-0.248c-0.146-0.023-0.293-0.045-0.438-0.068c-0.45-0.07-0.901-0.139-1.357-0.2
				c-0.177-0.024-0.354-0.045-0.531-0.067c-0.434-0.055-0.866-0.109-1.306-0.158c-0.212-0.023-0.427-0.043-0.64-0.063
				c-0.41-0.042-0.821-0.083-1.236-0.118c-0.252-0.021-0.507-0.039-0.76-0.057c-0.385-0.029-0.769-0.059-1.156-0.083
				c-0.305-0.019-0.613-0.032-0.92-0.048c-0.344-0.018-0.684-0.037-1.029-0.051c-0.398-0.016-0.803-0.025-1.204-0.036
				c-0.26-0.007-0.519-0.017-0.779-0.022c-0.67-0.014-1.344-0.02-2.021-0.02c-0.679,0-1.352,0.006-2.022,0.02
				C67.718,27.622,67.46,27.632,67.2,27.639z"/>
			<path class="st71" d="M42.535,33.206c7.184,9.322,16.838,8.863,27.465,8.863c10.626,0,20.282,0.459,27.465-8.863
				C90.282,29.153,80.626,27.597,70,27.597C59.373,27.597,49.719,29.153,42.535,33.206z"/>
		</g>
		<g>
			<g>
				<g>
					<path class="st362" d="M104.612,42.841c0-12.621-15.795-22.852-35.279-22.852L104.612,42.841z"/>
					<path class="st160" d="M74.47,23.315l25.006,16.199C96.237,31.624,86.649,25.413,74.47,23.315z"/>
					<path class="st71" d="M104.612,42.841c0-12.621-15.795-22.852-35.279-22.852L104.612,42.841z"/>
				</g>
				<g>
					<path class="st160" d="M35.874,42.841c0-12.621,15.795-22.852,35.278-22.852L35.874,42.841z"/>
					<path class="st362" d="M66.016,23.315L41.01,39.515C44.248,31.624,53.836,25.413,66.016,23.315z"/>
					<path class="st71" d="M35.874,42.841c0-12.621,15.795-22.852,35.278-22.852L35.874,42.841z"/>
				</g>
			</g>
			<g>
				<path class="st362" d="M78.766,31.958c0-4.682-3.323-8.858-8.522-11.6c-5.199,2.741-8.523,6.918-8.523,11.6
					c0,4.681,3.324,8.857,8.523,11.598C75.442,40.815,78.766,36.639,78.766,31.958z"/>
				<path class="st160" d="M70.243,43.556V20.358c-5.199,2.741-8.523,6.918-8.523,11.6C61.72,36.639,65.044,40.815,70.243,43.556z"
					/>
				<path class="st71" d="M78.766,31.958c0-4.682-3.323-8.858-8.522-11.6c-5.199,2.741-8.523,6.918-8.523,11.6
					c0,4.681,3.324,8.857,8.523,11.598C75.442,40.815,78.766,36.639,78.766,31.958z"/>
			</g>
		</g>
	</g>
</g>
</svg>
