<?xml version="1.0" encoding="utf-8"?>
<!-- Generator: Adobe Illustrator 16.0.0, SVG Export Plug-In . SVG Version: 6.00 Build 0)  -->
<!DOCTYPE svg PUBLIC "-//W3C//DTD SVG 1.1//EN" "http://www.w3.org/Graphics/SVG/1.1/DTD/svg11.dtd">
<svg version="1.1" id="Layer_1" xmlns="http://www.w3.org/2000/svg" xmlns:xlink="http://www.w3.org/1999/xlink" x="0px" y="0px"
	 width="140px" height="140px" viewBox="0 0 140 140" style="enable-background:new 0 0 140 140;" xml:space="preserve">
<style type="text/css">
<![CDATA[
	.st0{fill:#7A62F4;}
	.st1{fill:#7A8A91;}
	.st2{fill:#AA3154;}
	.st3{fill:#474B4F;}
	.st4{fill:#474C51;}
	.st5{fill:#477184;}
	.st6{fill:#AA8D5E;}
	.st7{fill:#AAF789;}
	.st8{fill:#7BE6FF;}
	.st9{fill:#7C66D8;}
	.st10{fill:#7CC0D8;}
	.st11{fill:#495359;}
	.st12{fill:#49DB7A;}
	.st13{fill:#49E500;}
	.st14{fill:#7DA8AA;}
	
		.st15{fill:none;stroke:#7C9199;stroke-width:3;stroke-linecap:round;stroke-linejoin:round;stroke-miterlimit:10;stroke-dasharray:5;}
	.st16{fill:#AD9F7F;}
	.st17{fill:none;stroke:#D3ECEF;stroke-linecap:round;stroke-linejoin:round;stroke-miterlimit:10;}
	.st18{fill:none;stroke:#C42323;stroke-width:3;stroke-linecap:round;stroke-linejoin:round;stroke-miterlimit:10;}
	.st19{fill:#AE52FF;}
	.st20{fill:#10DEF9;}
	.st21{fill:none;stroke:#267DC4;stroke-width:3;stroke-linecap:round;stroke-linejoin:round;stroke-miterlimit:10;}
	.st22{fill:#1162BA;}
	.st23{fill:#E02F2F;}
	.st24{fill:#E05368;}
	.st25{fill:#AFBFCE;}
	.st26{fill:#AFC8DD;}
	.st27{fill:#E0CC77;}
	.st28{fill:#1247B2;}
	.st29{fill:#E0DECE;}
	.st30{fill:#E0FF9C;}
	.st31{fill:none;stroke:#E21A32;stroke-linecap:round;stroke-linejoin:round;stroke-miterlimit:10;}
	.st32{fill:#13D626;}
	.st33{fill:#E2823B;}
	.st34{fill:#1462EF;}
	.st35{fill:#14B0ED;}
	.st36{fill:#1576EA;}
	.st37{fill:#15BDFF;}
	.st38{fill:#1613A5;}
	.st39{fill:#4A5056;}
	.st40{fill:#E55166;}
	.st41{fill:#E55A6B;}
	.st42{fill:#E56171;}
	.st43{fill:none;stroke:#79CC7E;stroke-width:2;stroke-linecap:round;stroke-linejoin:round;stroke-miterlimit:10;}
	.st44{fill:#4B6466;}
	.st45{opacity:0.4;fill:#79CC7E;}
	.st46{fill:#E6F1F4;}
	.st47{fill:#E6F2FC;}
	.st48{fill:#4C6362;}
	.st49{fill:#18AA67;}
	.st50{fill:#4D4D91;}
	.st51{fill:#4D575B;}
	.st52{fill:#E88E0C;}
	.st53{fill:#4DADCE;}
	.st54{fill:#E8E8E8;}
	.st55{opacity:0.3;fill:#9AA5A4;}
	.st56{fill:#80C3FF;}
	.st57{fill:#B066FF;}
	.st58{fill:#818F91;}
	.st59{fill:#B0D1D6;}
	.st60{fill:#B1DBDD;}
	.st61{fill:#B2104E;}
	.st62{fill:none;stroke:#FCFAE8;stroke-width:3;stroke-linecap:round;stroke-linejoin:round;stroke-miterlimit:10;}
	.st63{fill:#B2D1C7;}
	.st64{fill:#83ED3E;}
	.st65{fill:#83ED88;}
	.st66{fill:#8461BC;}
	.st67{fill:#84692C;}
	.st68{fill:#B3C9E2;}
	.st69{fill:none;stroke:#ED8700;stroke-width:3;stroke-linecap:round;stroke-linejoin:round;}
	.st70{fill:none;stroke:#64E2DC;stroke-width:3;stroke-linecap:round;stroke-linejoin:round;stroke-miterlimit:10;}
	.st71{fill:none;stroke:#33363A;stroke-width:3;stroke-linecap:round;stroke-linejoin:round;stroke-miterlimit:10;}
	.st72{fill:none;stroke:#33363A;stroke-width:4;stroke-linecap:round;stroke-linejoin:round;stroke-miterlimit:10;}
	.st73{fill:#85A7A8;}
	.st74{fill:#85C606;}
	.st75{fill:none;stroke:#33363A;stroke-width:5;stroke-linecap:round;stroke-linejoin:round;stroke-miterlimit:10;}
	.st76{fill:#86B2A2;}
	.st77{fill:#EA3D6A;}
	.st78{fill:#875835;}
	.st79{fill:#EA9706;}
	.st80{fill:#1C19AF;}
	.st81{fill:#EAAA0A;}
	.st82{fill:#EABC73;}
	.st83{fill:#EADFB2;}
	.st84{fill:#EAE4BE;}
	.st85{fill:#EAF2F9;}
	.st86{fill:#B7883D;}
	.st87{fill:#1CE5C3;}
	.st88{fill:#1CE8E3;}
	.st89{fill:#B7F467;}
	.st90{fill:none;stroke:#36B0CC;stroke-width:3;stroke-linecap:round;stroke-linejoin:round;stroke-miterlimit:10;}
	.st91{fill:#EBEDD3;}
	.st92{fill:none;stroke:#FFB000;stroke-width:3;stroke-linecap:round;stroke-linejoin:round;stroke-dasharray:8.2755,8.2755;}
	.st93{fill:#1DA834;}
	.st94{fill:#1DC8CC;}
	.st95{fill:#8957CE;}
	.st96{fill:#B8D3D1;}
	.st97{fill:#89A3A3;}
	.st98{fill:#1E91F9;}
	.st99{fill:#B969FF;}
	.st100{fill:#1EA6E2;}
	.st101{fill:#FFFFFF;stroke:#FFFFFF;stroke-width:2;stroke-linecap:round;stroke-linejoin:round;stroke-miterlimit:10;}
	.st102{fill:#ED4706;}
	.st103{fill:#EDA411;}
	.st104{fill:#EDDE88;}
	.st105{fill:#EDF4F4;}
	.st106{fill:#5050E2;}
	.st107{fill:#1FADE5;}
	.st108{enable-background:new    ;}
	.st109{fill:#EF4D4D;}
	.st110{fill:#EF6F7B;}
	.st111{fill:#EF9681;}
	.st112{fill:#EFA37D;}
	.st113{fill:#EFB289;}
	.st114{fill:#EFBD59;}
	.st115{fill:#EFCA0F;}
	.st116{fill:#EFEFDF;}
	.st117{fill:#526163;}
	.st118{fill:#529E54;}
	.st119{fill:#52C408;}
	.st120{fill:#5351B7;}
	.st121{fill:none;stroke:#EBEDD3;stroke-linecap:round;stroke-linejoin:round;stroke-miterlimit:10;}
	.st122{fill:#555D60;}
	.st123{fill:#55DBFF;}
	.st124{fill:none;stroke:#FFEF5A;stroke-width:2;stroke-linecap:round;stroke-linejoin:round;stroke-miterlimit:10;}
	.st125{fill:none;stroke:#FFEF5A;stroke-width:4;stroke-linecap:round;stroke-linejoin:round;stroke-miterlimit:10;}
	.st126{fill:none;stroke:#536B7C;stroke-width:3;stroke-linecap:round;stroke-linejoin:round;stroke-miterlimit:10;}
	.st127{fill:#8A9199;}
	.st128{fill:#8A998A;}
	.st129{fill:#8CE5E2;}
	.st130{fill:#BC3150;}
	.st131{fill:#595F66;}
	.st132{fill:#BC8B4B;}
	.st133{fill:#8DABC9;}
	.st134{fill:#8E7EED;}
	.st135{fill:#8EC1C1;}
	.st136{fill:#20BCF2;}
	.st137{fill:#8F56D8;}
	.st138{fill:#BEDD05;}
	.st139{fill:none;stroke:#EAD7FF;stroke-width:3;stroke-linecap:round;stroke-linejoin:round;stroke-miterlimit:10;}
	.st140{fill:#2178F7;}
	.st141{fill:#219B1E;}
	.st142{fill:#BF76FF;}
	.st143{fill:none;stroke:#88CCFF;stroke-width:3;stroke-linecap:round;stroke-linejoin:round;stroke-miterlimit:10;}
	.st144{fill:#22A1EF;}
	.st145{fill:#237AF9;}
	.st146{fill:#F2790C;}
	.st147{fill:#246DED;}
	.st148{fill:#F3FAFF;}
	.st149{fill:#25C10A;}
	.st150{fill:#F42535;}
	.st151{fill:#F4921E;}
	.st152{fill:#F4AB0B;}
	.st153{fill:#F4F3E9;}
	.st154{fill:#5A5F63;}
	.st155{fill:#26A3F7;}
	.st156{fill:#F5FEFF;}
	.st157{fill:#277AF4;}
	.st158{fill:#2792F4;}
	.st159{fill:#279377;}
	.st160{fill:#27C927;}
	.st161{fill:#5C2DE0;}
	.st162{fill:#F7441C;}
	.st163{fill:#F7910B;}
	.st164{fill:#F79E00;}
	.st165{fill:none;stroke:#FFB000;stroke-width:3;stroke-linecap:round;stroke-linejoin:round;}
	.st166{fill:#5D3EDD;}
	.st167{fill:#29CDFF;}
	.st168{fill:#5E6870;}
	.st169{fill:#F9A858;}
	.st170{fill:#F9C19B;}
	.st171{fill:#F9E446;}
	.st172{fill:#5F666B;}
	.st173{fill:#5FCE96;}
	.st174{fill:#90B2B1;}
	.st175{fill:#91EA57;}
	.st176{fill:#C11E5C;}
	.st177{fill:#C14830;}
	.st178{fill:#C17E25;}
	.st179{fill:#C1B995;}
	.st180{fill:#C1BFA7;}
	.st181{fill:none;stroke:#F9EF95;stroke-width:3;stroke-linecap:round;stroke-linejoin:round;stroke-miterlimit:10;}
	.st182{fill:#92E0FF;}
	.st183{fill:#92FC6B;}
	.st184{fill:#C28AE2;}
	.st185{fill:#939DA3;}
	.st186{fill:#C3D8D6;}
	.st187{fill:#C3DFE0;}
	.st188{fill:#C42323;}
	.st189{fill:#C4415B;}
	.st190{fill:#C480FF;}
	.st191{fill:#95AF68;}
	.st192{fill:#2A8BF4;}
	.st193{fill:#2AAD2A;}
	.st194{fill:#C5E3EA;}
	.st195{fill:#C63C4D;}
	.st196{fill:#C67A6D;}
	.st197{fill:#C6BA9B;}
	.st198{fill:#FC4259;}
	.st199{fill:#FC90A2;}
	.st200{fill:#C8DBDB;}
	.st201{fill:#FCC322;}
	.st202{fill:#FCDECA;}
	.st203{fill:#FCF8E6;}
	.st204{fill:#2E6ECC;}
	.st205{fill:#FCFCB9;}
	.st206{fill:none;stroke:#FFB000;stroke-width:3;stroke-linecap:round;stroke-linejoin:round;stroke-dasharray:8.028,8.028;}
	.st207{fill:#C9E1F2;}
	.st208{fill:#FDFFFF;}
	.st209{fill:#FF315D;}
	.st210{fill:#FF3636;}
	.st211{fill:#FF4800;}
	.st212{fill:#FF502E;}
	.st213{fill:#FF5B00;}
	.st214{fill:#FF647E;}
	.st215{fill:#FF6B06;}
	.st216{fill:#FF7639;}
	.st217{fill:#FF7892;}
	.st218{fill:#FF7900;}
	.st219{fill:#FF8103;}
	.st220{fill:#FF8500;}
	.st221{fill:#FF9100;}
	.st222{fill:#FF9700;}
	.st223{fill:#FF9E12;}
	.st224{fill:#61BBFF;}
	.st225{fill:#FFA300;}
	.st226{fill:#FFAA00;}
	.st227{fill:#FFABBF;}
	.st228{fill:#FFB000;}
	.st229{fill:#FFB206;}
	.st230{fill:#FFBC00;}
	.st231{fill:#FFBF31;}
	.st232{fill:#FFC1AE;}
	.st233{fill:#FFC200;}
	.st234{fill:#FFC757;}
	.st235{fill:#FFC817;}
	.st236{fill:#FFCE00;}
	.st237{fill:#FFD243;}
	.st238{fill:#FFD400;}
	.st239{fill:#FFD833;}
	.st240{fill:#FFD9C0;}
	.st241{fill:#FFDC10;}
	.st242{fill:#FFDE52;}
	.st243{fill:#FFE108;}
	.st244{fill:#FFE10B;}
	.st245{fill:#FFE31A;}
	.st246{fill:#FFE448;}
	.st247{fill:#FFE8C2;}
	.st248{fill:#FFE98F;}
	.st249{fill:#FFEB5A;}
	.st250{fill:#FFEDA1;}
	.st251{fill:#FFF19C;}
	.st252{fill:#FFF6E1;}
	.st253{fill:#FFF87B;}
	.st254{fill:#FFF8C7;}
	.st255{fill:#FFFCEE;}
	.st256{fill:#FFFFFF;}
	.st257{fill:#62CEDD;}
	.st258{fill:#636E72;}
	.st259{fill:none;stroke:#DDAC24;stroke-width:2;stroke-linecap:round;stroke-linejoin:round;stroke-miterlimit:10;}
	.st260{fill:#64BDFF;}
	.st261{fill:#64E2DC;}
	.st262{fill:none;stroke:#33363A;stroke-linecap:round;stroke-linejoin:round;stroke-miterlimit:10;}
	.st263{fill:#66797F;}
	.st264{fill:none;stroke:#EBC0F9;stroke-width:3;stroke-linecap:round;stroke-linejoin:round;stroke-miterlimit:10;}
	.st265{fill:#9AC1C1;}
	.st266{fill:#676E72;}
	.st267{fill:#677F7F;}
	.st268{fill:#678B99;}
	.st269{fill:#9B0751;}
	.st270{fill:#9B6743;}
	.st271{fill:#9B7335;}
	.st272{fill:none;stroke:#E0FF9C;stroke-width:3;stroke-linecap:round;stroke-linejoin:round;stroke-miterlimit:10;}
	.st273{fill:#CAD7E5;}
	.st274{fill:#CAE5E3;}
	.st275{fill:none;stroke:#FFD815;stroke-width:3;stroke-linecap:round;stroke-linejoin:round;stroke-miterlimit:10;}
	.st276{fill:none;stroke:#64C0F9;stroke-width:3;stroke-linecap:round;stroke-linejoin:round;stroke-miterlimit:10;}
	.st277{fill:#68B6DD;}
	.st278{fill:#CC445B;}
	.st279{fill:none;stroke:#66A8F7;stroke-width:3;stroke-linecap:round;stroke-linejoin:round;stroke-miterlimit:10;}
	.st280{fill:#9D67C1;}
	.st281{fill:#CCFFFF;}
	.st282{fill:#9DC0C4;}
	.st283{fill:#9E2323;}
	.st284{fill:#9E45DD;}
	.st285{fill:#CDDEE0;}
	.st286{fill:#309FD6;}
	.st287{fill:none;stroke:#ED8700;stroke-width:3;stroke-linecap:round;stroke-linejoin:round;stroke-dasharray:7.7039,7.7039;}
	.st288{fill:#CE4313;}
	.st289{fill:#CEA255;}
	.st290{fill:#9FC1B5;}
	.st291{fill:#3131DD;}
	.st292{fill:#33363A;}
	.st293{fill:#334746;}
	.st294{fill:#3380CC;}
	.st295{fill:#34C166;}
	.st296{fill:#363B3F;}
	.st297{fill:#6A797C;}
	.st298{fill:#33363A;stroke:#33363A;stroke-width:3;stroke-linecap:round;stroke-linejoin:round;stroke-miterlimit:10;}
	.st299{fill:#6C85FF;}
	.st300{opacity:0.2;fill:#3C8DA0;}
	.st301{fill:none;stroke:#5F6266;stroke-width:3;stroke-linecap:round;stroke-linejoin:round;stroke-miterlimit:10;}
	.st302{fill:#00ADDB;}
	.st303{fill:#6F898C;}
	.st304{fill:#6FAF00;}
	.st305{fill:#D0D8CA;}
	.st306{fill:#D0E0EA;}
	.st307{fill:#D0E2F4;}
	.st308{fill:none;stroke:#FFB000;stroke-width:3;stroke-linecap:round;stroke-linejoin:round;stroke-dasharray:7.8476,7.8476;}
	.st309{fill:none;stroke:#33363A;stroke-width:10;stroke-linecap:round;stroke-linejoin:round;stroke-miterlimit:10;}
	.st310{fill:#04968E;}
	.st311{fill:#D30B49;}
	.st312{fill:#D31818;}
	.st313{fill:#D34624;}
	.st314{fill:#D39F1E;}
	.st315{fill:#D3D1C1;}
	.st316{fill:#D3DADD;}
	.st317{fill:#D3E5EA;}
	.st318{fill:#055E6D;}
	.st319{fill:#059CE8;}
	.st320{fill:#064E7F;}
	.st321{fill:#066782;}
	.st322{fill:#07563C;}
	.st323{fill:#D5E2CC;}
	.st324{fill:#3B4244;}
	.st325{fill:#D60024;}
	.st326{fill:#D6702B;}
	.st327{fill:#D68967;}
	.st328{fill:#D6A545;}
	.st329{fill:#D6CB9D;}
	.st330{fill:#3C4044;}
	.st331{fill:#08BC26;}
	.st332{fill:#097F2A;}
	.st333{fill:none;stroke:#FFAB94;stroke-width:4;stroke-linecap:round;stroke-linejoin:round;stroke-miterlimit:10;}
	.st334{fill:#3D5957;}
	.st335{fill:#3D99F4;}
	.st336{fill:#D8235F;}
	.st337{fill:#D83055;}
	.st338{fill:#D83563;}
	.st339{fill:#D83705;}
	.st340{fill:#D8533D;}
	.st341{fill:#D8D7C0;}
	.st342{fill:#3E9FF7;}
	.st343{fill:#D9F0F4;}
	.st344{fill:#705622;}
	.st345{fill:#70D63A;}
	.st346{fill:#A03F25;}
	.st347{fill:#A07F3C;}
	.st348{opacity:0.6;fill:#2670BF;}
	.st349{fill:#A0BAB9;}
	.st350{fill:#A197FC;}
	.st351{fill:#727B84;}
	.st352{fill:#A1C6C6;}
	.st353{fill:#A23FE8;}
	.st354{fill:#737F73;}
	.st355{fill:#73F4B3;}
	.st356{fill:#A31153;}
	.st357{fill:#748C4F;}
	.st358{fill:#749997;}
	.st359{fill:#0A7BE2;}
	.st360{fill:#0A8989;}
	.st361{fill:#0A912A;}
	.st362{fill:#0A9B3D;}
	.st363{fill:#0A9DBF;}
	.st364{fill:#A53CEF;}
	.st365{fill:#0ABAEA;}
	.st366{fill:#A5BFBF;}
	.st367{fill:#7799AA;}
	.st368{fill:#77D852;}
	.st369{fill:#0C4ABA;}
	.st370{fill:#DAE5E5;}
	.st371{fill:#0CA813;}
	.st372{fill:#788E8D;}
	.st373{fill:#78CFFF;}
	.st374{fill:#A8273D;}
	.st375{fill:#79CC7E;}
	.st376{fill:#0E48DB;}
	.st377{fill:#DCE7EF;}
	.st378{fill:#0E7F24;}
	.st379{fill:#DDAC24;}
	.st380{fill:#DDC872;}
	.st381{fill:#DDE6E8;}
	.st382{fill:#404449;}
	.st383{fill:#0FA88E;}
	.st384{fill:#DEF21D;}
	.st385{fill:#4120CE;}
	.st386{fill:none;stroke:#CCB13E;stroke-width:3;stroke-linecap:round;stroke-linejoin:round;stroke-miterlimit:10;}
	.st387{fill:#41F7D4;}
	.st388{fill:#DFEDEF;}
	.st389{fill:#DFF4E9;}
	.st390{fill:#DFF7F6;}
	.st391{fill:#42E6EA;}
	.st392{fill:#43474C;}
	.st393{fill:#43B1E8;}
	.st394{fill:#44CC7B;}
	.st395{fill:#45484C;}
	.st396{fill:#454A4F;}
	.st397{fill:#45BA0F;}
	.st398{fill:#45CAFF;}
]]>
</style>
<g>
	<g>
		<g>
			<path class="st364" d="M99.504,51.398l-0.018-0.017c1.53-3.726,2.385-7.8,2.385-12.077c0-17.602-14.27-31.869-31.871-31.869
				S38.129,21.703,38.129,39.305c0,4.277,0.855,8.352,2.386,12.077l-0.017,0.017l0.081,0.164c0.508,1.221,1.108,2.393,1.759,3.531
				L70,110.625l27.662-55.531c0.651-1.139,1.25-2.311,1.759-3.531L99.504,51.398z"/>
			<path class="st57" d="M70,7.436c-17.602,0-31.871,14.268-31.871,31.869"/>
			<path class="st161" d="M101.871,39.305c0-17.602-14.27-31.869-31.871-31.869v103.189l27.662-55.531
				c0.651-1.139,1.25-2.311,1.759-3.531l0.083-0.164l-0.018-0.017C101.017,47.656,101.871,43.582,101.871,39.305z"/>
			<path class="st80" d="M101.871,39.305L70,110.625l27.662-55.531c0.651-1.139,1.25-2.311,1.759-3.531l0.083-0.164l-0.018-0.017
				C101.017,47.656,101.871,43.582,101.871,39.305z"/>
			<path class="st71" d="M99.504,51.398l-0.018-0.017c1.53-3.726,2.385-7.8,2.385-12.077c0-17.602-14.27-31.869-31.871-31.869
				S38.129,21.703,38.129,39.305c0,4.277,0.855,8.352,2.386,12.077l-0.017,0.017l0.081,0.164c0.508,1.221,1.108,2.393,1.759,3.531
				L70,110.625l27.662-55.531c0.651-1.139,1.25-2.311,1.759-3.531L99.504,51.398z"/>
		</g>
		<circle class="st389" cx="70" cy="38.549" r="15.607"/>
		<path class="st256" d="M70,22.943v31.213c8.62,0,15.607-6.986,15.607-15.607C85.607,29.931,78.62,22.943,70,22.943z"/>
		<circle class="st71" cx="70" cy="38.549" r="15.607"/>
		<path class="st71" d="M64.578,43.973c-2.994-2.994-2.994-7.851,0-10.846c2.996-2.996,7.852-2.994,10.845,0
			c2.995,2.995,2.996,7.85,0.001,10.846"/>
	</g>
	<ellipse class="st365" cx="70" cy="125.912" rx="24.858" ry="6.652"/>
	<ellipse class="st20" cx="70" cy="125.912" rx="7.899" ry="2.113"/>
	<ellipse class="st71" cx="70" cy="125.912" rx="24.858" ry="6.652"/>
	<line class="st71" x1="70" y1="114.659" x2="70" y2="109.886"/>
	<g>
		<g>
			<path class="st19" d="M73.452,76.285h-6.903c-0.363,0-0.658-0.295-0.658-0.658c0-0.362,0.295-0.656,0.658-0.656h6.903
				c0.363,0,0.657,0.294,0.657,0.656C74.109,75.99,73.815,76.285,73.452,76.285z"/>
		</g>
		<g>
			<path class="st19" d="M73.452,80.252h-6.903c-0.363,0-0.658-0.294-0.658-0.657s0.295-0.657,0.658-0.657h6.903
				c0.363,0,0.657,0.294,0.657,0.657S73.815,80.252,73.452,80.252z"/>
		</g>
		<g>
			<path class="st19" d="M73.452,84.219h-6.903c-0.363,0-0.658-0.295-0.658-0.657c0-0.363,0.295-0.657,0.658-0.657h6.903
				c0.363,0,0.657,0.294,0.657,0.657C74.109,83.924,73.815,84.219,73.452,84.219z"/>
		</g>
	</g>
	<g>
		<g>
			<g>
				<g>
					<path class="st19" d="M70,18.844c-0.436,0-0.789-0.352-0.789-0.788v-3.154c0-0.435,0.354-0.788,0.789-0.788
						s0.788,0.354,0.788,0.788v3.154C70.788,18.492,70.436,18.844,70,18.844z"/>
				</g>
				<g>
					<path class="st19" d="M70,62.986c-0.436,0-0.789-0.353-0.789-0.787v-3.154c0-0.437,0.354-0.789,0.789-0.789
						s0.788,0.353,0.788,0.789v3.154C70.788,62.634,70.436,62.986,70,62.986z"/>
				</g>
			</g>
			<g>
				<g>
					<path class="st19" d="M84.492,24.848c-0.202,0-0.403-0.078-0.558-0.232c-0.309-0.309-0.309-0.807,0-1.115l2.229-2.229
						c0.308-0.308,0.807-0.308,1.114,0c0.309,0.308,0.309,0.808,0,1.115l-2.229,2.229C84.895,24.77,84.693,24.848,84.492,24.848z"/>
				</g>
				<g>
					<path class="st19" d="M53.277,56.061c-0.201,0-0.403-0.078-0.557-0.23c-0.309-0.309-0.309-0.809,0-1.115l2.23-2.23
						c0.308-0.308,0.807-0.308,1.114,0c0.308,0.309,0.308,0.809,0,1.115l-2.229,2.23C53.682,55.982,53.479,56.061,53.277,56.061z"/>
				</g>
			</g>
			<g>
				<g>
					<path class="st19" d="M93.647,39.339h-3.153c-0.436,0-0.788-0.354-0.788-0.788c0-0.437,0.353-0.789,0.788-0.789h3.153
						c0.437,0,0.789,0.353,0.789,0.789C94.437,38.985,94.084,39.339,93.647,39.339z"/>
				</g>
				<g>
					<path class="st19" d="M49.506,39.339h-3.154c-0.436,0-0.788-0.354-0.788-0.788c0-0.437,0.353-0.789,0.788-0.789h3.154
						c0.435,0,0.787,0.353,0.787,0.789C50.293,38.985,49.94,39.339,49.506,39.339z"/>
				</g>
			</g>
			<g>
				<g>
					<path class="st19" d="M86.722,56.061c-0.202,0-0.403-0.078-0.558-0.23l-2.229-2.23c-0.309-0.307-0.309-0.807,0-1.115
						c0.308-0.308,0.807-0.308,1.114,0l2.229,2.23c0.309,0.307,0.309,0.807,0,1.115C87.126,55.982,86.924,56.061,86.722,56.061z"/>
				</g>
				<g>
					<path class="st19" d="M55.508,24.848c-0.201,0-0.403-0.078-0.557-0.232l-2.23-2.229c-0.309-0.308-0.309-0.808,0-1.115
						c0.307-0.308,0.807-0.308,1.115,0l2.229,2.229c0.308,0.309,0.308,0.807,0,1.115C55.912,24.77,55.71,24.848,55.508,24.848z"/>
				</g>
			</g>
		</g>
		<g>
			<g>
				<g>
					<g>
						<path class="st38" d="M59.753,21.063c-0.092,0-0.18-0.046-0.229-0.131l-1.577-2.731c-0.072-0.125-0.029-0.286,0.097-0.358
							c0.125-0.072,0.286-0.03,0.358,0.097l1.577,2.73c0.072,0.126,0.03,0.287-0.096,0.359
							C59.842,21.053,59.797,21.063,59.753,21.063z"/>
					</g>
					<g>
						<path class="st38" d="M81.824,59.293c-0.091,0-0.179-0.047-0.228-0.131l-1.578-2.732c-0.071-0.125-0.029-0.287,0.097-0.358
							c0.126-0.072,0.286-0.03,0.359,0.097l1.576,2.73c0.072,0.127,0.029,0.287-0.096,0.359
							C81.914,59.282,81.868,59.293,81.824,59.293z"/>
					</g>
				</g>
				<g>
					<g>
						<path class="st38" d="M75.305,19.016c-0.022,0-0.046-0.002-0.068-0.008c-0.14-0.037-0.223-0.182-0.186-0.322l0.815-3.046
							c0.038-0.141,0.181-0.224,0.323-0.187c0.139,0.038,0.222,0.183,0.185,0.323l-0.816,3.046
							C75.526,18.939,75.421,19.016,75.305,19.016z"/>
					</g>
					<g>
						<path class="st38" d="M63.88,61.656c-0.023,0-0.046-0.004-0.068-0.01c-0.14-0.038-0.224-0.182-0.186-0.322l0.815-3.045
							c0.038-0.142,0.181-0.225,0.322-0.188c0.14,0.038,0.223,0.183,0.186,0.323l-0.816,3.046
							C64.102,61.578,63.995,61.656,63.88,61.656z"/>
					</g>
				</g>
				<g>
					<g>
						<path class="st38" d="M87.749,28.565c-0.091,0-0.18-0.048-0.229-0.132c-0.072-0.125-0.029-0.286,0.096-0.358l2.732-1.577
							c0.126-0.072,0.286-0.029,0.359,0.098c0.072,0.125,0.028,0.285-0.097,0.357l-2.731,1.578
							C87.839,28.554,87.794,28.565,87.749,28.565z"/>
					</g>
					<g>
						<path class="st38" d="M49.52,50.637c-0.091,0-0.179-0.047-0.228-0.132c-0.072-0.125-0.029-0.286,0.097-0.358l2.731-1.577
							c0.126-0.072,0.286-0.028,0.358,0.097c0.073,0.125,0.029,0.287-0.096,0.358l-2.732,1.577
							C49.609,50.625,49.564,50.637,49.52,50.637z"/>
					</g>
				</g>
				<g>
					<g>
						<path class="st38" d="M92.843,44.934c-0.023,0-0.046-0.004-0.069-0.01l-3.045-0.814c-0.141-0.039-0.224-0.182-0.186-0.322
							c0.037-0.141,0.181-0.225,0.321-0.186l3.045,0.815c0.142,0.038,0.224,0.181,0.187,0.321
							C93.064,44.855,92.959,44.934,92.843,44.934z"/>
					</g>
					<g>
						<path class="st38" d="M50.203,33.508c-0.021,0-0.045-0.003-0.067-0.008l-3.047-0.816c-0.14-0.038-0.223-0.182-0.186-0.321
							c0.038-0.142,0.181-0.226,0.322-0.187l3.046,0.816c0.141,0.037,0.223,0.182,0.187,0.321
							C50.426,33.432,50.319,33.508,50.203,33.508z"/>
					</g>
				</g>
			</g>
			<g>
				<g>
					<g>
						<path class="st38" d="M52.25,28.566c-0.044,0-0.089-0.012-0.131-0.035l-2.73-1.577c-0.126-0.072-0.169-0.233-0.097-0.358
							c0.072-0.127,0.233-0.17,0.358-0.098l2.732,1.577c0.125,0.072,0.169,0.233,0.096,0.358
							C52.43,28.52,52.341,28.566,52.25,28.566z"/>
					</g>
					<g>
						<path class="st38" d="M90.479,50.637c-0.045,0-0.091-0.012-0.131-0.035l-2.732-1.577c-0.126-0.071-0.169-0.231-0.097-0.358
							c0.073-0.125,0.233-0.169,0.359-0.096l2.732,1.576c0.125,0.074,0.168,0.233,0.096,0.358
							C90.658,50.59,90.569,50.637,90.479,50.637z"/>
					</g>
				</g>
				<g>
					<g>
						<path class="st38" d="M64.695,19.016c-0.116,0-0.222-0.076-0.254-0.193l-0.815-3.046c-0.038-0.141,0.046-0.285,0.186-0.323
							c0.14-0.037,0.283,0.046,0.321,0.187l0.816,3.046c0.037,0.141-0.046,0.285-0.186,0.322
							C64.741,19.014,64.718,19.016,64.695,19.016z"/>
					</g>
					<g>
						<path class="st38" d="M76.12,61.656c-0.116,0-0.222-0.078-0.254-0.195l-0.815-3.046c-0.037-0.141,0.046-0.285,0.186-0.323
							c0.14-0.037,0.284,0.046,0.321,0.188l0.816,3.045c0.037,0.141-0.046,0.284-0.185,0.322
							C76.166,61.652,76.143,61.656,76.12,61.656z"/>
					</g>
				</g>
				<g>
					<g>
						<path class="st38" d="M80.246,21.063c-0.044,0-0.09-0.011-0.131-0.034c-0.126-0.072-0.168-0.233-0.097-0.359l1.578-2.73
							c0.072-0.127,0.233-0.169,0.358-0.097s0.168,0.233,0.096,0.358l-1.576,2.731C80.426,21.018,80.337,21.063,80.246,21.063z"/>
					</g>
					<g>
						<path class="st38" d="M58.175,59.293c-0.044,0-0.09-0.011-0.131-0.035c-0.126-0.072-0.169-0.232-0.097-0.359l1.577-2.73
							c0.073-0.127,0.233-0.169,0.359-0.097c0.126,0.071,0.168,0.233,0.096,0.358l-1.577,2.732
							C58.354,59.246,58.266,59.293,58.175,59.293z"/>
					</g>
				</g>
				<g>
					<g>
						<path class="st38" d="M89.796,33.508c-0.116,0-0.222-0.076-0.253-0.194c-0.038-0.14,0.045-0.284,0.186-0.321l3.045-0.816
							c0.141-0.039,0.285,0.045,0.322,0.187c0.037,0.14-0.045,0.283-0.187,0.321L89.864,33.5
							C89.842,33.505,89.818,33.508,89.796,33.508z"/>
					</g>
					<g>
						<path class="st38" d="M47.157,44.934c-0.115,0-0.223-0.078-0.254-0.195c-0.037-0.141,0.046-0.283,0.186-0.321l3.047-0.815
							c0.14-0.039,0.284,0.045,0.322,0.186c0.036,0.141-0.046,0.283-0.187,0.322l-3.046,0.814
							C47.203,44.93,47.18,44.934,47.157,44.934z"/>
					</g>
				</g>
			</g>
		</g>
	</g>
</g>
</svg>
