<?xml version="1.0" encoding="utf-8"?>
<!-- Generator: Adobe Illustrator 16.0.0, SVG Export Plug-In . SVG Version: 6.00 Build 0)  -->
<!DOCTYPE svg PUBLIC "-//W3C//DTD SVG 1.1//EN" "http://www.w3.org/Graphics/SVG/1.1/DTD/svg11.dtd">
<svg version="1.1" id="Layer_1" xmlns="http://www.w3.org/2000/svg" xmlns:xlink="http://www.w3.org/1999/xlink" x="0px" y="0px"
	 width="140px" height="140px" viewBox="0 0 140 140" style="enable-background:new 0 0 140 140;" xml:space="preserve">
<style type="text/css">
<![CDATA[
	.st0{fill:#7A62F4;}
	.st1{fill:#7A8A91;}
	.st2{fill:#AA3154;}
	.st3{fill:#474B4F;}
	.st4{fill:#474C51;}
	.st5{fill:#477184;}
	.st6{fill:#AA8D5E;}
	.st7{fill:#AAF789;}
	.st8{fill:#7BE6FF;}
	.st9{fill:#7C66D8;}
	.st10{fill:#7CC0D8;}
	.st11{fill:#495359;}
	.st12{fill:#49DB7A;}
	.st13{fill:#49E500;}
	.st14{fill:#7DA8AA;}
	
		.st15{fill:none;stroke:#7C9199;stroke-width:3;stroke-linecap:round;stroke-linejoin:round;stroke-miterlimit:10;stroke-dasharray:5;}
	.st16{fill:#AD9F7F;}
	.st17{fill:none;stroke:#D3ECEF;stroke-linecap:round;stroke-linejoin:round;stroke-miterlimit:10;}
	.st18{fill:none;stroke:#C42323;stroke-width:3;stroke-linecap:round;stroke-linejoin:round;stroke-miterlimit:10;}
	.st19{fill:#AE52FF;}
	.st20{fill:#10DEF9;}
	.st21{fill:none;stroke:#267DC4;stroke-width:3;stroke-linecap:round;stroke-linejoin:round;stroke-miterlimit:10;}
	.st22{fill:#1162BA;}
	.st23{fill:#E02F2F;}
	.st24{fill:#E05368;}
	.st25{fill:#AFBFCE;}
	.st26{fill:#AFC8DD;}
	.st27{fill:#E0CC77;}
	.st28{fill:#1247B2;}
	.st29{fill:#E0DECE;}
	.st30{fill:#E0FF9C;}
	.st31{fill:none;stroke:#E21A32;stroke-linecap:round;stroke-linejoin:round;stroke-miterlimit:10;}
	.st32{fill:#13D626;}
	.st33{fill:#E2823B;}
	.st34{fill:#1462EF;}
	.st35{fill:#14B0ED;}
	.st36{fill:#1576EA;}
	.st37{fill:#15BDFF;}
	.st38{fill:#1613A5;}
	.st39{fill:#4A5056;}
	.st40{fill:#E55166;}
	.st41{fill:#E55A6B;}
	.st42{fill:#E56171;}
	.st43{fill:none;stroke:#79CC7E;stroke-width:2;stroke-linecap:round;stroke-linejoin:round;stroke-miterlimit:10;}
	.st44{fill:#4B6466;}
	.st45{opacity:0.4;fill:#79CC7E;}
	.st46{fill:#E6F1F4;}
	.st47{fill:#E6F2FC;}
	.st48{fill:#4C6362;}
	.st49{fill:#18AA67;}
	.st50{fill:#4D4D91;}
	.st51{fill:#4D575B;}
	.st52{fill:#E88E0C;}
	.st53{fill:#4DADCE;}
	.st54{fill:#E8E8E8;}
	.st55{opacity:0.3;fill:#9AA5A4;}
	.st56{fill:#80C3FF;}
	.st57{fill:#B066FF;}
	.st58{fill:#818F91;}
	.st59{fill:#B0D1D6;}
	.st60{fill:#B1DBDD;}
	.st61{fill:#B2104E;}
	.st62{fill:none;stroke:#FCFAE8;stroke-width:3;stroke-linecap:round;stroke-linejoin:round;stroke-miterlimit:10;}
	.st63{fill:#B2D1C7;}
	.st64{fill:#83ED3E;}
	.st65{fill:#83ED88;}
	.st66{fill:#8461BC;}
	.st67{fill:#84692C;}
	.st68{fill:#B3C9E2;}
	.st69{fill:none;stroke:#ED8700;stroke-width:3;stroke-linecap:round;stroke-linejoin:round;}
	.st70{fill:none;stroke:#64E2DC;stroke-width:3;stroke-linecap:round;stroke-linejoin:round;stroke-miterlimit:10;}
	.st71{fill:none;stroke:#33363A;stroke-width:3;stroke-linecap:round;stroke-linejoin:round;stroke-miterlimit:10;}
	.st72{fill:none;stroke:#33363A;stroke-width:4;stroke-linecap:round;stroke-linejoin:round;stroke-miterlimit:10;}
	.st73{fill:#85A7A8;}
	.st74{fill:#85C606;}
	.st75{fill:none;stroke:#33363A;stroke-width:5;stroke-linecap:round;stroke-linejoin:round;stroke-miterlimit:10;}
	.st76{fill:#86B2A2;}
	.st77{fill:#EA3D6A;}
	.st78{fill:#875835;}
	.st79{fill:#EA9706;}
	.st80{fill:#1C19AF;}
	.st81{fill:#EAAA0A;}
	.st82{fill:#EABC73;}
	.st83{fill:#EADFB2;}
	.st84{fill:#EAE4BE;}
	.st85{fill:#EAF2F9;}
	.st86{fill:#B7883D;}
	.st87{fill:#1CE5C3;}
	.st88{fill:#1CE8E3;}
	.st89{fill:#B7F467;}
	.st90{fill:none;stroke:#36B0CC;stroke-width:3;stroke-linecap:round;stroke-linejoin:round;stroke-miterlimit:10;}
	.st91{fill:#EBEDD3;}
	.st92{fill:none;stroke:#FFB000;stroke-width:3;stroke-linecap:round;stroke-linejoin:round;stroke-dasharray:8.2755,8.2755;}
	.st93{fill:#1DA834;}
	.st94{fill:#1DC8CC;}
	.st95{fill:#8957CE;}
	.st96{fill:#B8D3D1;}
	.st97{fill:#89A3A3;}
	.st98{fill:#1E91F9;}
	.st99{fill:#B969FF;}
	.st100{fill:#1EA6E2;}
	.st101{fill:#FFFFFF;stroke:#FFFFFF;stroke-width:2;stroke-linecap:round;stroke-linejoin:round;stroke-miterlimit:10;}
	.st102{fill:#ED4706;}
	.st103{fill:#EDA411;}
	.st104{fill:#EDDE88;}
	.st105{fill:#EDF4F4;}
	.st106{fill:#5050E2;}
	.st107{fill:#1FADE5;}
	.st108{enable-background:new    ;}
	.st109{fill:#EF4D4D;}
	.st110{fill:#EF6F7B;}
	.st111{fill:#EF9681;}
	.st112{fill:#EFA37D;}
	.st113{fill:#EFB289;}
	.st114{fill:#EFBD59;}
	.st115{fill:#EFCA0F;}
	.st116{fill:#EFEFDF;}
	.st117{fill:#526163;}
	.st118{fill:#529E54;}
	.st119{fill:#52C408;}
	.st120{fill:#5351B7;}
	.st121{fill:none;stroke:#EBEDD3;stroke-linecap:round;stroke-linejoin:round;stroke-miterlimit:10;}
	.st122{fill:#555D60;}
	.st123{fill:#55DBFF;}
	.st124{fill:none;stroke:#FFEF5A;stroke-width:2;stroke-linecap:round;stroke-linejoin:round;stroke-miterlimit:10;}
	.st125{fill:none;stroke:#FFEF5A;stroke-width:4;stroke-linecap:round;stroke-linejoin:round;stroke-miterlimit:10;}
	.st126{fill:none;stroke:#536B7C;stroke-width:3;stroke-linecap:round;stroke-linejoin:round;stroke-miterlimit:10;}
	.st127{fill:#8A9199;}
	.st128{fill:#8A998A;}
	.st129{fill:#8CE5E2;}
	.st130{fill:#BC3150;}
	.st131{fill:#595F66;}
	.st132{fill:#BC8B4B;}
	.st133{fill:#8DABC9;}
	.st134{fill:#8E7EED;}
	.st135{fill:#8EC1C1;}
	.st136{fill:#20BCF2;}
	.st137{fill:#8F56D8;}
	.st138{fill:#BEDD05;}
	.st139{fill:none;stroke:#EAD7FF;stroke-width:3;stroke-linecap:round;stroke-linejoin:round;stroke-miterlimit:10;}
	.st140{fill:#2178F7;}
	.st141{fill:#219B1E;}
	.st142{fill:#BF76FF;}
	.st143{fill:none;stroke:#88CCFF;stroke-width:3;stroke-linecap:round;stroke-linejoin:round;stroke-miterlimit:10;}
	.st144{fill:#22A1EF;}
	.st145{fill:#237AF9;}
	.st146{fill:#F2790C;}
	.st147{fill:#246DED;}
	.st148{fill:#F3FAFF;}
	.st149{fill:#25C10A;}
	.st150{fill:#F42535;}
	.st151{fill:#F4921E;}
	.st152{fill:#F4AB0B;}
	.st153{fill:#F4F3E9;}
	.st154{fill:#5A5F63;}
	.st155{fill:#26A3F7;}
	.st156{fill:#F5FEFF;}
	.st157{fill:#277AF4;}
	.st158{fill:#2792F4;}
	.st159{fill:#279377;}
	.st160{fill:#27C927;}
	.st161{fill:#5C2DE0;}
	.st162{fill:#F7441C;}
	.st163{fill:#F7910B;}
	.st164{fill:#F79E00;}
	.st165{fill:none;stroke:#FFB000;stroke-width:3;stroke-linecap:round;stroke-linejoin:round;}
	.st166{fill:#5D3EDD;}
	.st167{fill:#29CDFF;}
	.st168{fill:#5E6870;}
	.st169{fill:#F9A858;}
	.st170{fill:#F9C19B;}
	.st171{fill:#F9E446;}
	.st172{fill:#5F666B;}
	.st173{fill:#5FCE96;}
	.st174{fill:#90B2B1;}
	.st175{fill:#91EA57;}
	.st176{fill:#C11E5C;}
	.st177{fill:#C14830;}
	.st178{fill:#C17E25;}
	.st179{fill:#C1B995;}
	.st180{fill:#C1BFA7;}
	.st181{fill:none;stroke:#F9EF95;stroke-width:3;stroke-linecap:round;stroke-linejoin:round;stroke-miterlimit:10;}
	.st182{fill:#92E0FF;}
	.st183{fill:#92FC6B;}
	.st184{fill:#C28AE2;}
	.st185{fill:#939DA3;}
	.st186{fill:#C3D8D6;}
	.st187{fill:#C3DFE0;}
	.st188{fill:#C42323;}
	.st189{fill:#C4415B;}
	.st190{fill:#C480FF;}
	.st191{fill:#95AF68;}
	.st192{fill:#2A8BF4;}
	.st193{fill:#2AAD2A;}
	.st194{fill:#C5E3EA;}
	.st195{fill:#C63C4D;}
	.st196{fill:#C67A6D;}
	.st197{fill:#C6BA9B;}
	.st198{fill:#FC4259;}
	.st199{fill:#FC90A2;}
	.st200{fill:#C8DBDB;}
	.st201{fill:#FCC322;}
	.st202{fill:#FCDECA;}
	.st203{fill:#FCF8E6;}
	.st204{fill:#2E6ECC;}
	.st205{fill:#FCFCB9;}
	.st206{fill:none;stroke:#FFB000;stroke-width:3;stroke-linecap:round;stroke-linejoin:round;stroke-dasharray:8.028,8.028;}
	.st207{fill:#C9E1F2;}
	.st208{fill:#FDFFFF;}
	.st209{fill:#FF315D;}
	.st210{fill:#FF3636;}
	.st211{fill:#FF4800;}
	.st212{fill:#FF502E;}
	.st213{fill:#FF5B00;}
	.st214{fill:#FF647E;}
	.st215{fill:#FF6B06;}
	.st216{fill:#FF7639;}
	.st217{fill:#FF7892;}
	.st218{fill:#FF7900;}
	.st219{fill:#FF8103;}
	.st220{fill:#FF8500;}
	.st221{fill:#FF9100;}
	.st222{fill:#FF9700;}
	.st223{fill:#FF9E12;}
	.st224{fill:#61BBFF;}
	.st225{fill:#FFA300;}
	.st226{fill:#FFAA00;}
	.st227{fill:#FFABBF;}
	.st228{fill:#FFB000;}
	.st229{fill:#FFB206;}
	.st230{fill:#FFBC00;}
	.st231{fill:#FFBF31;}
	.st232{fill:#FFC1AE;}
	.st233{fill:#FFC200;}
	.st234{fill:#FFC757;}
	.st235{fill:#FFC817;}
	.st236{fill:#FFCE00;}
	.st237{fill:#FFD243;}
	.st238{fill:#FFD400;}
	.st239{fill:#FFD833;}
	.st240{fill:#FFD9C0;}
	.st241{fill:#FFDC10;}
	.st242{fill:#FFDE52;}
	.st243{fill:#FFE108;}
	.st244{fill:#FFE10B;}
	.st245{fill:#FFE31A;}
	.st246{fill:#FFE448;}
	.st247{fill:#FFE8C2;}
	.st248{fill:#FFE98F;}
	.st249{fill:#FFEB5A;}
	.st250{fill:#FFEDA1;}
	.st251{fill:#FFF19C;}
	.st252{fill:#FFF6E1;}
	.st253{fill:#FFF87B;}
	.st254{fill:#FFF8C7;}
	.st255{fill:#FFFCEE;}
	.st256{fill:#FFFFFF;}
	.st257{fill:#62CEDD;}
	.st258{fill:#636E72;}
	.st259{fill:none;stroke:#DDAC24;stroke-width:2;stroke-linecap:round;stroke-linejoin:round;stroke-miterlimit:10;}
	.st260{fill:#64BDFF;}
	.st261{fill:#64E2DC;}
	.st262{fill:none;stroke:#33363A;stroke-linecap:round;stroke-linejoin:round;stroke-miterlimit:10;}
	.st263{fill:#66797F;}
	.st264{fill:none;stroke:#EBC0F9;stroke-width:3;stroke-linecap:round;stroke-linejoin:round;stroke-miterlimit:10;}
	.st265{fill:#9AC1C1;}
	.st266{fill:#676E72;}
	.st267{fill:#677F7F;}
	.st268{fill:#678B99;}
	.st269{fill:#9B0751;}
	.st270{fill:#9B6743;}
	.st271{fill:#9B7335;}
	.st272{fill:none;stroke:#E0FF9C;stroke-width:3;stroke-linecap:round;stroke-linejoin:round;stroke-miterlimit:10;}
	.st273{fill:#CAD7E5;}
	.st274{fill:#CAE5E3;}
	.st275{fill:none;stroke:#FFD815;stroke-width:3;stroke-linecap:round;stroke-linejoin:round;stroke-miterlimit:10;}
	.st276{fill:none;stroke:#64C0F9;stroke-width:3;stroke-linecap:round;stroke-linejoin:round;stroke-miterlimit:10;}
	.st277{fill:#68B6DD;}
	.st278{fill:#CC445B;}
	.st279{fill:none;stroke:#66A8F7;stroke-width:3;stroke-linecap:round;stroke-linejoin:round;stroke-miterlimit:10;}
	.st280{fill:#9D67C1;}
	.st281{fill:#CCFFFF;}
	.st282{fill:#9DC0C4;}
	.st283{fill:#9E2323;}
	.st284{fill:#9E45DD;}
	.st285{fill:#CDDEE0;}
	.st286{fill:#309FD6;}
	.st287{fill:none;stroke:#ED8700;stroke-width:3;stroke-linecap:round;stroke-linejoin:round;stroke-dasharray:7.7039,7.7039;}
	.st288{fill:#CE4313;}
	.st289{fill:#CEA255;}
	.st290{fill:#9FC1B5;}
	.st291{fill:#3131DD;}
	.st292{fill:#33363A;}
	.st293{fill:#334746;}
	.st294{fill:#3380CC;}
	.st295{fill:#34C166;}
	.st296{fill:#363B3F;}
	.st297{fill:#6A797C;}
	.st298{fill:#33363A;stroke:#33363A;stroke-width:3;stroke-linecap:round;stroke-linejoin:round;stroke-miterlimit:10;}
	.st299{fill:#6C85FF;}
	.st300{opacity:0.2;fill:#3C8DA0;}
	.st301{fill:none;stroke:#5F6266;stroke-width:3;stroke-linecap:round;stroke-linejoin:round;stroke-miterlimit:10;}
	.st302{fill:#00ADDB;}
	.st303{fill:#6F898C;}
	.st304{fill:#6FAF00;}
	.st305{fill:#D0D8CA;}
	.st306{fill:#D0E0EA;}
	.st307{fill:#D0E2F4;}
	.st308{fill:none;stroke:#FFB000;stroke-width:3;stroke-linecap:round;stroke-linejoin:round;stroke-dasharray:7.8476,7.8476;}
	.st309{fill:none;stroke:#33363A;stroke-width:10;stroke-linecap:round;stroke-linejoin:round;stroke-miterlimit:10;}
	.st310{fill:#04968E;}
	.st311{fill:#D30B49;}
	.st312{fill:#D31818;}
	.st313{fill:#D34624;}
	.st314{fill:#D39F1E;}
	.st315{fill:#D3D1C1;}
	.st316{fill:#D3DADD;}
	.st317{fill:#D3E5EA;}
	.st318{fill:#055E6D;}
	.st319{fill:#059CE8;}
	.st320{fill:#064E7F;}
	.st321{fill:#066782;}
	.st322{fill:#07563C;}
	.st323{fill:#D5E2CC;}
	.st324{fill:#3B4244;}
	.st325{fill:#D60024;}
	.st326{fill:#D6702B;}
	.st327{fill:#D68967;}
	.st328{fill:#D6A545;}
	.st329{fill:#D6CB9D;}
	.st330{fill:#3C4044;}
	.st331{fill:#08BC26;}
	.st332{fill:#097F2A;}
	.st333{fill:none;stroke:#FFAB94;stroke-width:4;stroke-linecap:round;stroke-linejoin:round;stroke-miterlimit:10;}
	.st334{fill:#3D5957;}
	.st335{fill:#3D99F4;}
	.st336{fill:#D8235F;}
	.st337{fill:#D83055;}
	.st338{fill:#D83563;}
	.st339{fill:#D83705;}
	.st340{fill:#D8533D;}
	.st341{fill:#D8D7C0;}
	.st342{fill:#3E9FF7;}
	.st343{fill:#D9F0F4;}
	.st344{fill:#705622;}
	.st345{fill:#70D63A;}
	.st346{fill:#A03F25;}
	.st347{fill:#A07F3C;}
	.st348{opacity:0.6;fill:#2670BF;}
	.st349{fill:#A0BAB9;}
	.st350{fill:#A197FC;}
	.st351{fill:#727B84;}
	.st352{fill:#A1C6C6;}
	.st353{fill:#A23FE8;}
	.st354{fill:#737F73;}
	.st355{fill:#73F4B3;}
	.st356{fill:#A31153;}
	.st357{fill:#748C4F;}
	.st358{fill:#749997;}
	.st359{fill:#0A7BE2;}
	.st360{fill:#0A8989;}
	.st361{fill:#0A912A;}
	.st362{fill:#0A9B3D;}
	.st363{fill:#0A9DBF;}
	.st364{fill:#A53CEF;}
	.st365{fill:#0ABAEA;}
	.st366{fill:#A5BFBF;}
	.st367{fill:#7799AA;}
	.st368{fill:#77D852;}
	.st369{fill:#0C4ABA;}
	.st370{fill:#DAE5E5;}
	.st371{fill:#0CA813;}
	.st372{fill:#788E8D;}
	.st373{fill:#78CFFF;}
	.st374{fill:#A8273D;}
	.st375{fill:#79CC7E;}
	.st376{fill:#0E48DB;}
	.st377{fill:#DCE7EF;}
	.st378{fill:#0E7F24;}
	.st379{fill:#DDAC24;}
	.st380{fill:#DDC872;}
	.st381{fill:#DDE6E8;}
	.st382{fill:#404449;}
	.st383{fill:#0FA88E;}
	.st384{fill:#DEF21D;}
	.st385{fill:#4120CE;}
	.st386{fill:none;stroke:#CCB13E;stroke-width:3;stroke-linecap:round;stroke-linejoin:round;stroke-miterlimit:10;}
	.st387{fill:#41F7D4;}
	.st388{fill:#DFEDEF;}
	.st389{fill:#DFF4E9;}
	.st390{fill:#DFF7F6;}
	.st391{fill:#42E6EA;}
	.st392{fill:#43474C;}
	.st393{fill:#43B1E8;}
	.st394{fill:#44CC7B;}
	.st395{fill:#45484C;}
	.st396{fill:#454A4F;}
	.st397{fill:#45BA0F;}
	.st398{fill:#45CAFF;}
]]>
</style>
<g>
	<g>
		<polyline class="st71" points="62.775,82.979 71.07,82.979 79.434,74.615 		"/>
		<rect x="53.387" y="62.048" class="st122" width="39.352" height="16.75"/>
		<rect x="53.387" y="62.048" class="st71" width="39.352" height="16.75"/>
		<circle class="st309" cx="30.258" cy="81.684" r="18.185"/>
		<circle class="st309" cx="108.427" cy="81.684" r="18.185"/>
		
			<rect x="44.926" y="36.29" transform="matrix(0.7072 0.707 -0.707 0.7072 58.2431 -16.5493)" class="st187" width="8.354" height="51.515"/>
		
			<rect x="47.525" y="46.801" transform="matrix(0.707 0.7072 -0.7072 0.707 57.186 -19.1465)" class="st265" width="8.353" height="25.294"/>
		
			<rect x="44.926" y="36.29" transform="matrix(0.7072 0.707 -0.707 0.7072 58.2431 -16.5493)" class="st71" width="8.354" height="51.515"/>
		<g>
			<path class="st265" d="M65.586,87.499c0,2.088-1.691,3.779-3.779,3.779h-7.675c-2.087,0-3.78-1.691-3.78-3.779v-7.674
				c0-2.088,1.693-3.779,3.78-3.779h7.675c2.088,0,3.779,1.691,3.779,3.779V87.499z"/>
			<path class="st71" d="M65.586,87.499c0,2.088-1.691,3.779-3.779,3.779h-7.675c-2.087,0-3.78-1.691-3.78-3.779v-7.674
				c0-2.088,1.693-3.779,3.78-3.779h7.675c2.088,0,3.779,1.691,3.779,3.779V87.499z"/>
		</g>
		<g>
			<path class="st122" d="M52.145,64.101c0,3.972-3.219,7.191-7.189,7.191l0,0c-3.972,0-7.19-3.22-7.19-7.191l0,0
				c0-3.971,3.219-7.189,7.19-7.189l0,0C48.926,56.911,52.145,60.13,52.145,64.101L52.145,64.101z"/>
			<path class="st324" d="M44.955,56.911L44.955,56.911c3.971,0,7.189,3.219,7.189,7.189l0,0c0,3.972-3.219,7.191-7.189,7.191l0,0"
				/>
			<path class="st71" d="M52.145,64.101c0,3.972-3.219,7.191-7.189,7.191l0,0c-3.972,0-7.19-3.22-7.19-7.191l0,0
				c0-3.971,3.219-7.189,7.19-7.189l0,0C48.926,56.911,52.145,60.13,52.145,64.101L52.145,64.101z"/>
		</g>
		<g>
			<rect x="44.17" y="34.478" class="st174" width="6.182" height="9.736"/>
			<rect x="44.17" y="37.336" class="st358" width="6.182" height="9.735"/>
			<rect x="44.17" y="34.478" class="st71" width="6.182" height="9.736"/>
		</g>
		<path class="st244" d="M47.62,50.704c0,3.811-3.09,6.9-6.899,6.9l0,0c-3.811,0-6.9-3.09-6.9-6.9v-6.619c0-3.811,3.09-6.9,6.9-6.9
			l0,0c3.81,0,6.899,3.09,6.899,6.9V50.704z"/>
		<path class="st228" d="M40.721,44.61v-7.426c3.81,0,6.899,3.09,6.899,6.9v6.619c0,3.811-3.09,6.9-6.899,6.9l0,0
			c-3.811,0-6.9-3.09-6.9-6.9"/>
		<path class="st285" d="M40.721,37.185v20.42c3.81,0,6.899-3.09,6.899-6.9v-6.619C47.62,40.274,44.53,37.185,40.721,37.185z"/>
		<path class="st266" d="M82.244,60.636c0,5.012-4.062,9.074-9.074,9.074H56.693c-5.011,0-9.073-4.062-9.073-9.074v-8.107
			c0-5.011,4.062-9.074,9.073-9.074H73.17c5.012,0,9.074,4.063,9.074,9.074V60.636z"/>
		<path class="st122" d="M82.244,52.528v8.107c0,5.012-4.062,9.074-9.074,9.074H56.693c-5.011,0-9.073-4.062-9.073-9.074v-8.107"/>
		<path class="st71" d="M82.244,60.636c0,5.012-4.062,9.074-9.074,9.074H56.693c-5.011,0-9.073-4.062-9.073-9.074v-8.107
			c0-5.011,4.062-9.074,9.073-9.074H73.17c5.012,0,9.074,4.063,9.074,9.074V60.636z"/>
		<rect x="82.244" y="51.106" class="st292" width="37.412" height="12.995"/>
		<rect x="82.244" y="51.106" class="st71" width="37.412" height="12.995"/>
		<path class="st71" d="M47.62,50.704c0,3.811-3.09,6.9-6.899,6.9l0,0c-3.811,0-6.9-3.09-6.9-6.9v-6.619c0-3.811,3.09-6.9,6.9-6.9
			l0,0c3.81,0,6.899,3.09,6.899,6.9V50.704z"/>
		<line class="st71" x1="40.721" y1="37.185" x2="40.721" y2="57.604"/>
		<g>
			<line class="st301" x1="87.053" y1="53.017" x2="87.053" y2="55.972"/>
			<line class="st301" x1="87.053" y1="60.147" x2="87.053" y2="60.147"/>
		</g>
		<g>
			<line class="st301" x1="93.666" y1="53.017" x2="93.666" y2="55.972"/>
			<line class="st301" x1="93.666" y1="60.147" x2="93.666" y2="60.147"/>
		</g>
		<g>
			<line class="st301" x1="100.279" y1="53.017" x2="100.279" y2="55.972"/>
			<line class="st301" x1="100.279" y1="60.147" x2="100.279" y2="60.147"/>
		</g>
		<g>
			<line class="st301" x1="106.894" y1="53.017" x2="106.894" y2="55.972"/>
			<line class="st301" x1="106.894" y1="60.147" x2="106.894" y2="60.147"/>
		</g>
		<g>
			<line class="st301" x1="113.507" y1="53.017" x2="113.507" y2="55.972"/>
			<line class="st301" x1="113.507" y1="60.147" x2="113.507" y2="60.147"/>
		</g>
		<polyline class="st71" points="45.906,39.437 54.283,31.061 64.469,31.061 		"/>
		<path class="st6" d="M74.998,31.061c0,1.837-1.488,3.325-3.324,3.325h-9.142c-1.836,0-3.323-1.488-3.323-3.325l0,0
			c0-1.837,1.487-3.325,3.323-3.325h9.142C73.51,27.735,74.998,29.224,74.998,31.061L74.998,31.061z"/>
		<path class="st71" d="M74.998,31.061c0,1.837-1.488,3.325-3.324,3.325h-9.142c-1.836,0-3.323-1.488-3.323-3.325l0,0
			c0-1.837,1.487-3.325,3.323-3.325h9.142C73.51,27.735,74.998,29.224,74.998,31.061L74.998,31.061z"/>
		<line class="st71" x1="57.469" y1="51.106" x2="64.932" y2="51.106"/>
		<line class="st71" x1="57.469" y1="57.604" x2="64.932" y2="57.604"/>
		<line class="st71" x1="70.342" y1="38.083" x2="61.253" y2="34.169"/>
		<g>
			<path class="st187" d="M65.586,81.164c0,2.088-1.691,3.779-3.779,3.779h-7.675c-2.087,0-3.78-1.691-3.78-3.779v-7.675
				c0-2.088,1.693-3.779,3.78-3.779h7.675c2.088,0,3.779,1.691,3.779,3.779V81.164z"/>
			<path class="st71" d="M65.586,81.164c0,2.088-1.691,3.779-3.779,3.779h-7.675c-2.087,0-3.78-1.691-3.78-3.779v-7.675
				c0-2.088,1.693-3.779,3.78-3.779h7.675c2.088,0,3.779,1.691,3.779,3.779V81.164z"/>
		</g>
		<line class="st71" x1="56.85" y1="77.327" x2="59.209" y2="77.327"/>
		<g>
			<circle class="st258" cx="30.258" cy="81.684" r="8.713"/>
			<path class="st51" d="M21.545,81.684c0-4.812,3.9-8.714,8.713-8.714s8.713,3.901,8.713,8.714"/>
			<circle class="st71" cx="30.258" cy="81.684" r="8.713"/>
		</g>
		<g>
			<circle class="st258" cx="108.426" cy="81.684" r="8.713"/>
			<path class="st51" d="M99.713,81.684c0-4.812,3.9-8.714,8.714-8.714c4.812,0,8.712,3.901,8.712,8.714"/>
			<circle class="st71" cx="108.426" cy="81.684" r="8.713"/>
		</g>
		<path class="st266" d="M117.139,46.616v21.58c5.959,0,10.791-4.83,10.791-10.789S123.098,46.616,117.139,46.616z"/>
		<path class="st71" d="M117.139,46.616v21.58c5.959,0,10.791-4.83,10.791-10.789S123.098,46.616,117.139,46.616z"/>
		<polyline class="st71" points="65.586,87.499 73.879,87.499 82.244,79.136 		"/>
		<line class="st71" x1="75.941" y1="85.437" x2="88.562" y2="85.437"/>
		<line class="st71" x1="7.347" y1="103.329" x2="120.214" y2="103.329"/>
		<line class="st71" x1="126.422" y1="103.329" x2="127.93" y2="103.329"/>
		<line class="st71" x1="132.389" y1="103.329" x2="132.653" y2="103.329"/>
	</g>
	<g>
		<line class="st71" x1="115.449" y1="112.265" x2="69.178" y2="112.265"/>
		<line class="st71" x1="62.796" y1="112.265" x2="57.371" y2="112.265"/>
		<line class="st71" x1="50.988" y1="112.265" x2="45.563" y2="112.265"/>
		<line class="st71" x1="40.303" y1="112.265" x2="40.133" y2="112.265"/>
		<line class="st71" x1="31.203" y1="112.265" x2="31.033" y2="112.265"/>
		<line class="st71" x1="24.183" y1="112.265" x2="18.758" y2="112.265"/>
	</g>
</g>
</svg>
