<?xml version="1.0" encoding="utf-8"?>
<!-- Generator: Adobe Illustrator 16.0.0, SVG Export Plug-In . SVG Version: 6.00 Build 0)  -->
<!DOCTYPE svg PUBLIC "-//W3C//DTD SVG 1.1//EN" "http://www.w3.org/Graphics/SVG/1.1/DTD/svg11.dtd">
<svg version="1.1" id="Layer_1" xmlns="http://www.w3.org/2000/svg" xmlns:xlink="http://www.w3.org/1999/xlink" x="0px" y="0px"
	 width="140px" height="140px" viewBox="0 0 140 140" style="enable-background:new 0 0 140 140;" xml:space="preserve">
<style type="text/css">
<![CDATA[
	.st0{fill:#7A62F4;}
	.st1{fill:#7A8A91;}
	.st2{fill:#AA3154;}
	.st3{fill:#474B4F;}
	.st4{fill:#474C51;}
	.st5{fill:#477184;}
	.st6{fill:#AA8D5E;}
	.st7{fill:#AAF789;}
	.st8{fill:#7BE6FF;}
	.st9{fill:#7C66D8;}
	.st10{fill:#7CC0D8;}
	.st11{fill:#495359;}
	.st12{fill:#49DB7A;}
	.st13{fill:#49E500;}
	.st14{fill:#7DA8AA;}
	
		.st15{fill:none;stroke:#7C9199;stroke-width:3;stroke-linecap:round;stroke-linejoin:round;stroke-miterlimit:10;stroke-dasharray:5;}
	.st16{fill:#AD9F7F;}
	.st17{fill:none;stroke:#D3ECEF;stroke-linecap:round;stroke-linejoin:round;stroke-miterlimit:10;}
	.st18{fill:none;stroke:#C42323;stroke-width:3;stroke-linecap:round;stroke-linejoin:round;stroke-miterlimit:10;}
	.st19{fill:#AE52FF;}
	.st20{fill:#10DEF9;}
	.st21{fill:none;stroke:#267DC4;stroke-width:3;stroke-linecap:round;stroke-linejoin:round;stroke-miterlimit:10;}
	.st22{fill:#1162BA;}
	.st23{fill:#E02F2F;}
	.st24{fill:#E05368;}
	.st25{fill:#AFBFCE;}
	.st26{fill:#AFC8DD;}
	.st27{fill:#E0CC77;}
	.st28{fill:#1247B2;}
	.st29{fill:#E0DECE;}
	.st30{fill:#E0FF9C;}
	.st31{fill:none;stroke:#E21A32;stroke-linecap:round;stroke-linejoin:round;stroke-miterlimit:10;}
	.st32{fill:#13D626;}
	.st33{fill:#E2823B;}
	.st34{fill:#1462EF;}
	.st35{fill:#14B0ED;}
	.st36{fill:#1576EA;}
	.st37{fill:#15BDFF;}
	.st38{fill:#1613A5;}
	.st39{fill:#4A5056;}
	.st40{fill:#E55166;}
	.st41{fill:#E55A6B;}
	.st42{fill:#E56171;}
	.st43{fill:none;stroke:#79CC7E;stroke-width:2;stroke-linecap:round;stroke-linejoin:round;stroke-miterlimit:10;}
	.st44{fill:#4B6466;}
	.st45{opacity:0.4;fill:#79CC7E;}
	.st46{fill:#E6F1F4;}
	.st47{fill:#E6F2FC;}
	.st48{fill:#4C6362;}
	.st49{fill:#18AA67;}
	.st50{fill:#4D4D91;}
	.st51{fill:#4D575B;}
	.st52{fill:#E88E0C;}
	.st53{fill:#4DADCE;}
	.st54{fill:#E8E8E8;}
	.st55{opacity:0.3;fill:#9AA5A4;}
	.st56{fill:#80C3FF;}
	.st57{fill:#B066FF;}
	.st58{fill:#818F91;}
	.st59{fill:#B0D1D6;}
	.st60{fill:#B1DBDD;}
	.st61{fill:#B2104E;}
	.st62{fill:none;stroke:#FCFAE8;stroke-width:3;stroke-linecap:round;stroke-linejoin:round;stroke-miterlimit:10;}
	.st63{fill:#B2D1C7;}
	.st64{fill:#83ED3E;}
	.st65{fill:#83ED88;}
	.st66{fill:#8461BC;}
	.st67{fill:#84692C;}
	.st68{fill:#B3C9E2;}
	.st69{fill:none;stroke:#ED8700;stroke-width:3;stroke-linecap:round;stroke-linejoin:round;}
	.st70{fill:none;stroke:#64E2DC;stroke-width:3;stroke-linecap:round;stroke-linejoin:round;stroke-miterlimit:10;}
	.st71{fill:none;stroke:#33363A;stroke-width:3;stroke-linecap:round;stroke-linejoin:round;stroke-miterlimit:10;}
	.st72{fill:none;stroke:#33363A;stroke-width:4;stroke-linecap:round;stroke-linejoin:round;stroke-miterlimit:10;}
	.st73{fill:#85A7A8;}
	.st74{fill:#85C606;}
	.st75{fill:none;stroke:#33363A;stroke-width:5;stroke-linecap:round;stroke-linejoin:round;stroke-miterlimit:10;}
	.st76{fill:#86B2A2;}
	.st77{fill:#EA3D6A;}
	.st78{fill:#875835;}
	.st79{fill:#EA9706;}
	.st80{fill:#1C19AF;}
	.st81{fill:#EAAA0A;}
	.st82{fill:#EABC73;}
	.st83{fill:#EADFB2;}
	.st84{fill:#EAE4BE;}
	.st85{fill:#EAF2F9;}
	.st86{fill:#B7883D;}
	.st87{fill:#1CE5C3;}
	.st88{fill:#1CE8E3;}
	.st89{fill:#B7F467;}
	.st90{fill:none;stroke:#36B0CC;stroke-width:3;stroke-linecap:round;stroke-linejoin:round;stroke-miterlimit:10;}
	.st91{fill:#EBEDD3;}
	.st92{fill:none;stroke:#FFB000;stroke-width:3;stroke-linecap:round;stroke-linejoin:round;stroke-dasharray:8.2755,8.2755;}
	.st93{fill:#1DA834;}
	.st94{fill:#1DC8CC;}
	.st95{fill:#8957CE;}
	.st96{fill:#B8D3D1;}
	.st97{fill:#89A3A3;}
	.st98{fill:#1E91F9;}
	.st99{fill:#B969FF;}
	.st100{fill:#1EA6E2;}
	.st101{fill:#FFFFFF;stroke:#FFFFFF;stroke-width:2;stroke-linecap:round;stroke-linejoin:round;stroke-miterlimit:10;}
	.st102{fill:#ED4706;}
	.st103{fill:#EDA411;}
	.st104{fill:#EDDE88;}
	.st105{fill:#EDF4F4;}
	.st106{fill:#5050E2;}
	.st107{fill:#1FADE5;}
	.st108{enable-background:new    ;}
	.st109{fill:#EF4D4D;}
	.st110{fill:#EF6F7B;}
	.st111{fill:#EF9681;}
	.st112{fill:#EFA37D;}
	.st113{fill:#EFB289;}
	.st114{fill:#EFBD59;}
	.st115{fill:#EFCA0F;}
	.st116{fill:#EFEFDF;}
	.st117{fill:#526163;}
	.st118{fill:#529E54;}
	.st119{fill:#52C408;}
	.st120{fill:#5351B7;}
	.st121{fill:none;stroke:#EBEDD3;stroke-linecap:round;stroke-linejoin:round;stroke-miterlimit:10;}
	.st122{fill:#555D60;}
	.st123{fill:#55DBFF;}
	.st124{fill:none;stroke:#FFEF5A;stroke-width:2;stroke-linecap:round;stroke-linejoin:round;stroke-miterlimit:10;}
	.st125{fill:none;stroke:#FFEF5A;stroke-width:4;stroke-linecap:round;stroke-linejoin:round;stroke-miterlimit:10;}
	.st126{fill:none;stroke:#536B7C;stroke-width:3;stroke-linecap:round;stroke-linejoin:round;stroke-miterlimit:10;}
	.st127{fill:#8A9199;}
	.st128{fill:#8A998A;}
	.st129{fill:#8CE5E2;}
	.st130{fill:#BC3150;}
	.st131{fill:#595F66;}
	.st132{fill:#BC8B4B;}
	.st133{fill:#8DABC9;}
	.st134{fill:#8E7EED;}
	.st135{fill:#8EC1C1;}
	.st136{fill:#20BCF2;}
	.st137{fill:#8F56D8;}
	.st138{fill:#BEDD05;}
	.st139{fill:none;stroke:#EAD7FF;stroke-width:3;stroke-linecap:round;stroke-linejoin:round;stroke-miterlimit:10;}
	.st140{fill:#2178F7;}
	.st141{fill:#219B1E;}
	.st142{fill:#BF76FF;}
	.st143{fill:none;stroke:#88CCFF;stroke-width:3;stroke-linecap:round;stroke-linejoin:round;stroke-miterlimit:10;}
	.st144{fill:#22A1EF;}
	.st145{fill:#237AF9;}
	.st146{fill:#F2790C;}
	.st147{fill:#246DED;}
	.st148{fill:#F3FAFF;}
	.st149{fill:#25C10A;}
	.st150{fill:#F42535;}
	.st151{fill:#F4921E;}
	.st152{fill:#F4AB0B;}
	.st153{fill:#F4F3E9;}
	.st154{fill:#5A5F63;}
	.st155{fill:#26A3F7;}
	.st156{fill:#F5FEFF;}
	.st157{fill:#277AF4;}
	.st158{fill:#2792F4;}
	.st159{fill:#279377;}
	.st160{fill:#27C927;}
	.st161{fill:#5C2DE0;}
	.st162{fill:#F7441C;}
	.st163{fill:#F7910B;}
	.st164{fill:#F79E00;}
	.st165{fill:none;stroke:#FFB000;stroke-width:3;stroke-linecap:round;stroke-linejoin:round;}
	.st166{fill:#5D3EDD;}
	.st167{fill:#29CDFF;}
	.st168{fill:#5E6870;}
	.st169{fill:#F9A858;}
	.st170{fill:#F9C19B;}
	.st171{fill:#F9E446;}
	.st172{fill:#5F666B;}
	.st173{fill:#5FCE96;}
	.st174{fill:#90B2B1;}
	.st175{fill:#91EA57;}
	.st176{fill:#C11E5C;}
	.st177{fill:#C14830;}
	.st178{fill:#C17E25;}
	.st179{fill:#C1B995;}
	.st180{fill:#C1BFA7;}
	.st181{fill:none;stroke:#F9EF95;stroke-width:3;stroke-linecap:round;stroke-linejoin:round;stroke-miterlimit:10;}
	.st182{fill:#92E0FF;}
	.st183{fill:#92FC6B;}
	.st184{fill:#C28AE2;}
	.st185{fill:#939DA3;}
	.st186{fill:#C3D8D6;}
	.st187{fill:#C3DFE0;}
	.st188{fill:#C42323;}
	.st189{fill:#C4415B;}
	.st190{fill:#C480FF;}
	.st191{fill:#95AF68;}
	.st192{fill:#2A8BF4;}
	.st193{fill:#2AAD2A;}
	.st194{fill:#C5E3EA;}
	.st195{fill:#C63C4D;}
	.st196{fill:#C67A6D;}
	.st197{fill:#C6BA9B;}
	.st198{fill:#FC4259;}
	.st199{fill:#FC90A2;}
	.st200{fill:#C8DBDB;}
	.st201{fill:#FCC322;}
	.st202{fill:#FCDECA;}
	.st203{fill:#FCF8E6;}
	.st204{fill:#2E6ECC;}
	.st205{fill:#FCFCB9;}
	.st206{fill:none;stroke:#FFB000;stroke-width:3;stroke-linecap:round;stroke-linejoin:round;stroke-dasharray:8.028,8.028;}
	.st207{fill:#C9E1F2;}
	.st208{fill:#FDFFFF;}
	.st209{fill:#FF315D;}
	.st210{fill:#FF3636;}
	.st211{fill:#FF4800;}
	.st212{fill:#FF502E;}
	.st213{fill:#FF5B00;}
	.st214{fill:#FF647E;}
	.st215{fill:#FF6B06;}
	.st216{fill:#FF7639;}
	.st217{fill:#FF7892;}
	.st218{fill:#FF7900;}
	.st219{fill:#FF8103;}
	.st220{fill:#FF8500;}
	.st221{fill:#FF9100;}
	.st222{fill:#FF9700;}
	.st223{fill:#FF9E12;}
	.st224{fill:#61BBFF;}
	.st225{fill:#FFA300;}
	.st226{fill:#FFAA00;}
	.st227{fill:#FFABBF;}
	.st228{fill:#FFB000;}
	.st229{fill:#FFB206;}
	.st230{fill:#FFBC00;}
	.st231{fill:#FFBF31;}
	.st232{fill:#FFC1AE;}
	.st233{fill:#FFC200;}
	.st234{fill:#FFC757;}
	.st235{fill:#FFC817;}
	.st236{fill:#FFCE00;}
	.st237{fill:#FFD243;}
	.st238{fill:#FFD400;}
	.st239{fill:#FFD833;}
	.st240{fill:#FFD9C0;}
	.st241{fill:#FFDC10;}
	.st242{fill:#FFDE52;}
	.st243{fill:#FFE108;}
	.st244{fill:#FFE10B;}
	.st245{fill:#FFE31A;}
	.st246{fill:#FFE448;}
	.st247{fill:#FFE8C2;}
	.st248{fill:#FFE98F;}
	.st249{fill:#FFEB5A;}
	.st250{fill:#FFEDA1;}
	.st251{fill:#FFF19C;}
	.st252{fill:#FFF6E1;}
	.st253{fill:#FFF87B;}
	.st254{fill:#FFF8C7;}
	.st255{fill:#FFFCEE;}
	.st256{fill:#FFFFFF;}
	.st257{fill:#62CEDD;}
	.st258{fill:#636E72;}
	.st259{fill:none;stroke:#DDAC24;stroke-width:2;stroke-linecap:round;stroke-linejoin:round;stroke-miterlimit:10;}
	.st260{fill:#64BDFF;}
	.st261{fill:#64E2DC;}
	.st262{fill:none;stroke:#33363A;stroke-linecap:round;stroke-linejoin:round;stroke-miterlimit:10;}
	.st263{fill:#66797F;}
	.st264{fill:none;stroke:#EBC0F9;stroke-width:3;stroke-linecap:round;stroke-linejoin:round;stroke-miterlimit:10;}
	.st265{fill:#9AC1C1;}
	.st266{fill:#676E72;}
	.st267{fill:#677F7F;}
	.st268{fill:#678B99;}
	.st269{fill:#9B0751;}
	.st270{fill:#9B6743;}
	.st271{fill:#9B7335;}
	.st272{fill:none;stroke:#E0FF9C;stroke-width:3;stroke-linecap:round;stroke-linejoin:round;stroke-miterlimit:10;}
	.st273{fill:#CAD7E5;}
	.st274{fill:#CAE5E3;}
	.st275{fill:none;stroke:#FFD815;stroke-width:3;stroke-linecap:round;stroke-linejoin:round;stroke-miterlimit:10;}
	.st276{fill:none;stroke:#64C0F9;stroke-width:3;stroke-linecap:round;stroke-linejoin:round;stroke-miterlimit:10;}
	.st277{fill:#68B6DD;}
	.st278{fill:#CC445B;}
	.st279{fill:none;stroke:#66A8F7;stroke-width:3;stroke-linecap:round;stroke-linejoin:round;stroke-miterlimit:10;}
	.st280{fill:#9D67C1;}
	.st281{fill:#CCFFFF;}
	.st282{fill:#9DC0C4;}
	.st283{fill:#9E2323;}
	.st284{fill:#9E45DD;}
	.st285{fill:#CDDEE0;}
	.st286{fill:#309FD6;}
	.st287{fill:none;stroke:#ED8700;stroke-width:3;stroke-linecap:round;stroke-linejoin:round;stroke-dasharray:7.7039,7.7039;}
	.st288{fill:#CE4313;}
	.st289{fill:#CEA255;}
	.st290{fill:#9FC1B5;}
	.st291{fill:#3131DD;}
	.st292{fill:#33363A;}
	.st293{fill:#334746;}
	.st294{fill:#3380CC;}
	.st295{fill:#34C166;}
	.st296{fill:#363B3F;}
	.st297{fill:#6A797C;}
	.st298{fill:#33363A;stroke:#33363A;stroke-width:3;stroke-linecap:round;stroke-linejoin:round;stroke-miterlimit:10;}
	.st299{fill:#6C85FF;}
	.st300{opacity:0.2;fill:#3C8DA0;}
	.st301{fill:none;stroke:#5F6266;stroke-width:3;stroke-linecap:round;stroke-linejoin:round;stroke-miterlimit:10;}
	.st302{fill:#00ADDB;}
	.st303{fill:#6F898C;}
	.st304{fill:#6FAF00;}
	.st305{fill:#D0D8CA;}
	.st306{fill:#D0E0EA;}
	.st307{fill:#D0E2F4;}
	.st308{fill:none;stroke:#FFB000;stroke-width:3;stroke-linecap:round;stroke-linejoin:round;stroke-dasharray:7.8476,7.8476;}
	.st309{fill:none;stroke:#33363A;stroke-width:10;stroke-linecap:round;stroke-linejoin:round;stroke-miterlimit:10;}
	.st310{fill:#04968E;}
	.st311{fill:#D30B49;}
	.st312{fill:#D31818;}
	.st313{fill:#D34624;}
	.st314{fill:#D39F1E;}
	.st315{fill:#D3D1C1;}
	.st316{fill:#D3DADD;}
	.st317{fill:#D3E5EA;}
	.st318{fill:#055E6D;}
	.st319{fill:#059CE8;}
	.st320{fill:#064E7F;}
	.st321{fill:#066782;}
	.st322{fill:#07563C;}
	.st323{fill:#D5E2CC;}
	.st324{fill:#3B4244;}
	.st325{fill:#D60024;}
	.st326{fill:#D6702B;}
	.st327{fill:#D68967;}
	.st328{fill:#D6A545;}
	.st329{fill:#D6CB9D;}
	.st330{fill:#3C4044;}
	.st331{fill:#08BC26;}
	.st332{fill:#097F2A;}
	.st333{fill:none;stroke:#FFAB94;stroke-width:4;stroke-linecap:round;stroke-linejoin:round;stroke-miterlimit:10;}
	.st334{fill:#3D5957;}
	.st335{fill:#3D99F4;}
	.st336{fill:#D8235F;}
	.st337{fill:#D83055;}
	.st338{fill:#D83563;}
	.st339{fill:#D83705;}
	.st340{fill:#D8533D;}
	.st341{fill:#D8D7C0;}
	.st342{fill:#3E9FF7;}
	.st343{fill:#D9F0F4;}
	.st344{fill:#705622;}
	.st345{fill:#70D63A;}
	.st346{fill:#A03F25;}
	.st347{fill:#A07F3C;}
	.st348{opacity:0.6;fill:#2670BF;}
	.st349{fill:#A0BAB9;}
	.st350{fill:#A197FC;}
	.st351{fill:#727B84;}
	.st352{fill:#A1C6C6;}
	.st353{fill:#A23FE8;}
	.st354{fill:#737F73;}
	.st355{fill:#73F4B3;}
	.st356{fill:#A31153;}
	.st357{fill:#748C4F;}
	.st358{fill:#749997;}
	.st359{fill:#0A7BE2;}
	.st360{fill:#0A8989;}
	.st361{fill:#0A912A;}
	.st362{fill:#0A9B3D;}
	.st363{fill:#0A9DBF;}
	.st364{fill:#A53CEF;}
	.st365{fill:#0ABAEA;}
	.st366{fill:#A5BFBF;}
	.st367{fill:#7799AA;}
	.st368{fill:#77D852;}
	.st369{fill:#0C4ABA;}
	.st370{fill:#DAE5E5;}
	.st371{fill:#0CA813;}
	.st372{fill:#788E8D;}
	.st373{fill:#78CFFF;}
	.st374{fill:#A8273D;}
	.st375{fill:#79CC7E;}
	.st376{fill:#0E48DB;}
	.st377{fill:#DCE7EF;}
	.st378{fill:#0E7F24;}
	.st379{fill:#DDAC24;}
	.st380{fill:#DDC872;}
	.st381{fill:#DDE6E8;}
	.st382{fill:#404449;}
	.st383{fill:#0FA88E;}
	.st384{fill:#DEF21D;}
	.st385{fill:#4120CE;}
	.st386{fill:none;stroke:#CCB13E;stroke-width:3;stroke-linecap:round;stroke-linejoin:round;stroke-miterlimit:10;}
	.st387{fill:#41F7D4;}
	.st388{fill:#DFEDEF;}
	.st389{fill:#DFF4E9;}
	.st390{fill:#DFF7F6;}
	.st391{fill:#42E6EA;}
	.st392{fill:#43474C;}
	.st393{fill:#43B1E8;}
	.st394{fill:#44CC7B;}
	.st395{fill:#45484C;}
	.st396{fill:#454A4F;}
	.st397{fill:#45BA0F;}
	.st398{fill:#45CAFF;}
]]>
</style>
<g>
	<g>
		<g>
			<rect x="16.488" y="83.312" class="st103" width="107.024" height="8.647"/>
			<rect x="16.488" y="83.312" class="st115" width="107.024" height="4.255"/>
			<rect x="16.488" y="83.312" class="st71" width="107.024" height="8.647"/>
		</g>
		<g>
			<rect x="16.488" y="47.312" class="st315" width="107.024" height="19.22"/>
			<rect x="16.488" y="47.312" class="st256" width="107.024" height="9.456"/>
			<rect x="16.488" y="47.312" class="st71" width="107.024" height="19.22"/>
		</g>
		<g>
			<path class="st86" d="M16.488,110.514c0-16.748,23.959-11.889,53.512-11.889c29.555,0,53.513-4.859,53.513,11.889
				c0,16.746-23.958,22.57-53.513,22.57C40.447,133.084,16.488,127.26,16.488,110.514z"/>
			<path class="st289" d="M16.488,110.514c0-16.748,23.959-0.172,53.512-0.172c29.555,0,53.513-16.576,53.513,0.172
				c0,16.746-23.958,22.57-53.513,22.57C40.447,133.084,16.488,127.26,16.488,110.514z"/>
			<path class="st82" d="M70,126.881c-27.587,0-50.291-4.078-53.191-19.273c-0.207,0.834-0.32,1.791-0.32,2.906
				c0,16.746,23.959,22.57,53.512,22.57c29.555,0,53.513-5.824,53.513-22.57c0-1.115-0.113-2.072-0.321-2.906
				C120.292,122.803,97.587,126.881,70,126.881z"/>
			<path class="st71" d="M16.488,110.514c0-16.748,23.959-11.889,53.512-11.889c29.555,0,53.513-4.859,53.513,11.889
				c0,16.746-23.958,22.57-53.513,22.57C40.447,133.084,16.488,127.26,16.488,110.514z"/>
			<line class="st71" x1="93.011" y1="115.338" x2="89.687" y2="118.662"/>
			<line class="st71" x1="64.014" y1="122.863" x2="68.588" y2="123.957"/>
			<line class="st71" x1="74.355" y1="115.918" x2="72.751" y2="115.422"/>
			<line class="st71" x1="104.453" y1="109.738" x2="102.85" y2="109.244"/>
			<line class="st71" x1="56.758" y1="111.896" x2="55.156" y2="111.402"/>
			<line class="st71" x1="97.536" y1="122.133" x2="99.017" y2="121.346"/>
			<line class="st71" x1="46.554" y1="122.234" x2="44.951" y2="121.74"/>
			<line class="st71" x1="36.018" y1="114.426" x2="34.416" y2="113.93"/>
		</g>
		<g>
			<rect x="16.488" y="92.355" class="st374" width="107.024" height="8.648"/>
			<rect x="16.488" y="92.355" class="st195" width="107.024" height="4.256"/>
			<rect x="16.488" y="92.355" class="st71" width="107.024" height="8.648"/>
		</g>
		<g>
			<path class="st346" d="M123.512,72.904c0,5.709-4.628,10.338-10.338,10.338H26.826c-5.709,0-10.338-4.629-10.338-10.338v-2.067
				c0-5.709,4.629-10.338,10.338-10.338h86.349c5.71,0,10.338,4.629,10.338,10.338V72.904z"/>
			<path class="st177" d="M26.826,72.646h86.349c4.8,0,8.823-1.885,9.987-4.438c-1.164-4.434-5.188-7.709-9.987-7.709H26.826
				c-4.8,0-8.823,3.275-9.987,7.709C18.002,70.761,22.026,72.646,26.826,72.646z"/>
			<path class="st340" d="M17.82,69.602c1.767-3.154,5.133-5.288,9.006-5.288h86.349c3.874,0,7.239,2.134,9.007,5.288
				c0.422-0.435,0.756-0.9,0.98-1.394c-1.164-4.434-5.188-7.709-9.987-7.709H26.826c-4.8,0-8.823,3.275-9.987,7.709
				C17.062,68.701,17.396,69.167,17.82,69.602z"/>
			<path class="st71" d="M123.512,72.904c0,5.709-4.628,10.338-10.338,10.338H26.826c-5.709,0-10.338-4.629-10.338-10.338v-2.067
				c0-5.709,4.629-10.338,10.338-10.338h86.349c5.71,0,10.338,4.629,10.338,10.338V72.904z"/>
		</g>
		<g>
			<path class="st86" d="M123.512,37.239c0,16.748-23.958,11.889-53.513,11.889c-29.553,0-53.512,4.859-53.512-11.889
				C16.488,20.493,40.447,6.916,70,6.916C99.554,6.916,123.512,20.493,123.512,37.239z"/>
			<path class="st289" d="M123.512,37.239c0,16.748-23.958,0.173-53.513,0.173c-29.553,0-53.512,16.575-53.512-0.173
				C16.488,20.493,40.447,6.916,70,6.916C99.554,6.916,123.512,20.493,123.512,37.239z"/>
			<path class="st82" d="M70,13.118c27.588,0,50.292,11.832,53.191,27.027c0.208-0.834,0.321-1.791,0.321-2.906
				c0-16.746-23.958-30.323-53.513-30.323c-29.553,0-53.512,13.577-53.512,30.323c0,1.115,0.113,2.072,0.32,2.906
				C19.708,24.95,42.413,13.118,70,13.118z"/>
			<path class="st71" d="M123.512,37.239c0,16.748-23.958,11.889-53.513,11.889c-29.553,0-53.512,4.859-53.512-11.889
				C16.488,20.493,40.447,6.916,70,6.916C99.554,6.916,123.512,20.493,123.512,37.239z"/>
			<line class="st71" x1="46.989" y1="24.663" x2="50.314" y2="21.337"/>
			<line class="st71" x1="75.986" y1="17.136" x2="71.412" y2="16.044"/>
			<line class="st71" x1="65.645" y1="24.083" x2="67.248" y2="24.577"/>
			<line class="st71" x1="35.546" y1="30.263" x2="37.15" y2="30.757"/>
			<line class="st71" x1="83.242" y1="28.103" x2="84.844" y2="28.597"/>
			<line class="st71" x1="42.464" y1="17.866" x2="40.984" y2="18.653"/>
			<line class="st71" x1="93.446" y1="17.765" x2="95.048" y2="18.261"/>
			<line class="st71" x1="103.982" y1="25.575" x2="105.584" y2="26.069"/>
		</g>
		<g>
			<g>
				<g>
					<g>
						<g>
							<g>
								<path class="st183" d="M99.451,58.106c0.695,1.473,2.453,2.101,3.924,1.406c5.787-2.734,12.723-0.25,15.457,5.539
									c0.695,1.471,2.451,2.1,3.922,1.404c1.473-0.693,2.102-2.451,1.406-3.922c-4.121-8.728-14.576-12.473-23.303-8.351
									C99.385,54.88,98.756,56.636,99.451,58.106z"/>
							</g>
							<path class="st345" d="M120.607,64.212c0.372,0.785,0.355,1.648,0.044,2.393c-0.771-0.232-1.447-0.768-1.819-1.553
								c-2.734-5.789-9.67-8.273-15.457-5.539c-1.471,0.694-3.229,0.066-3.924-1.406c-0.519-1.098-0.299-2.352,0.457-3.209
								C108.016,52.542,116.888,56.339,120.607,64.212z"/>
							<g>
								<path class="st71" d="M99.451,58.106c0.695,1.473,2.453,2.101,3.924,1.406c5.787-2.734,12.723-0.25,15.457,5.539
									c0.695,1.471,2.451,2.1,3.922,1.404c1.473-0.693,2.102-2.451,1.406-3.922c-4.121-8.728-14.576-12.473-23.303-8.351
									C99.385,54.88,98.756,56.636,99.451,58.106z"/>
							</g>
						</g>
						<g>
							<g>
								<path class="st183" d="M100.431,59.36c1.336,0.928,3.173,0.594,4.099-0.744c3.646-5.262,10.894-6.576,16.157-2.933
									c1.336,0.927,3.172,0.595,4.1-0.744c0.926-1.336,0.594-3.173-0.745-4.1c-7.934-5.495-18.859-3.513-24.355,4.421
									C98.759,56.599,99.093,58.435,100.431,59.36z"/>
							</g>
							<path class="st345" d="M121.804,54.071c0.715,0.494,1.133,1.25,1.234,2.048c-0.783,0.186-1.638,0.061-2.352-0.436
								c-5.264-3.644-12.512-2.329-16.157,2.933c-0.926,1.338-2.763,1.672-4.099,0.744c-1-0.691-1.436-1.888-1.209-3.007
								C105.065,50.259,114.646,49.111,121.804,54.071z"/>
							<g>
								<path class="st71" d="M100.431,59.36c1.336,0.928,3.173,0.594,4.099-0.744c3.646-5.262,10.894-6.576,16.157-2.933
									c1.336,0.927,3.172,0.595,4.1-0.744c0.926-1.336,0.594-3.173-0.745-4.1c-7.934-5.495-18.859-3.513-24.355,4.421
									C98.759,56.599,99.093,58.435,100.431,59.36z"/>
							</g>
						</g>
					</g>
					<g>
						<g>
							<g>
								<path class="st183" d="M104.356,57.181c0.927-1.339,2.763-1.672,4.101-0.746c5.264,3.646,12.511,2.332,16.156-2.932
									c0.927-1.338,2.763-1.67,4.1-0.744c1.339,0.926,1.673,2.763,0.744,4.1c-5.496,7.935-16.422,9.917-24.355,4.422
									C103.763,60.353,103.431,58.518,104.356,57.181z"/>
							</g>
							<path class="st345" d="M126.228,54.62c0.494-0.714,0.619-1.567,0.436-2.352c-0.799,0.104-1.556,0.52-2.051,1.234
								c-3.646,5.264-10.893,6.578-16.156,2.932c-1.338-0.926-3.174-0.593-4.101,0.746c-0.69,0.997-0.679,2.271-0.074,3.239
								C111.895,64.071,121.268,61.779,126.228,54.62z"/>
							<g>
								<path class="st71" d="M104.356,57.181c0.927-1.339,2.763-1.672,4.101-0.746c5.264,3.646,12.511,2.332,16.156-2.932
									c0.927-1.338,2.763-1.67,4.1-0.744c1.339,0.926,1.673,2.763,0.744,4.1c-5.496,7.935-16.422,9.917-24.355,4.422
									C103.763,60.353,103.431,58.518,104.356,57.181z"/>
							</g>
						</g>
						<g>
							<g>
								<path class="st183" d="M105.529,56.103c1.47-0.695,3.228-0.065,3.922,1.405c2.734,5.789,9.67,8.273,15.459,5.538
									c1.47-0.693,3.227-0.064,3.922,1.407c0.694,1.47,0.066,3.228-1.406,3.921c-8.727,4.123-19.18,0.377-23.303-8.349
									C103.427,58.554,104.056,56.798,105.529,56.103z"/>
							</g>
							<path class="st345" d="M125.748,64.823c0.786-0.372,1.321-1.049,1.554-1.82c-0.745-0.312-1.606-0.327-2.392,0.043
								c-5.789,2.735-12.725,0.251-15.459-5.538c-0.694-1.471-2.452-2.101-3.922-1.405c-1.1,0.518-1.725,1.629-1.686,2.77
								C108.611,65.842,117.875,68.543,125.748,64.823z"/>
							<g>
								<path class="st71" d="M105.529,56.103c1.47-0.695,3.228-0.065,3.922,1.405c2.734,5.789,9.67,8.273,15.459,5.538
									c1.47-0.693,3.227-0.064,3.922,1.407c0.694,1.47,0.066,3.228-1.406,3.921c-8.727,4.123-19.18,0.377-23.303-8.349
									C103.427,58.554,104.056,56.798,105.529,56.103z"/>
							</g>
						</g>
					</g>
				</g>
				<g>
					<g>
						<g>
							<path class="st183" d="M96.378,57.142c0.133-1.621,1.557-2.826,3.178-2.693c6.381,0.526,12-4.236,12.525-10.617
								c0.134-1.622,1.557-2.829,3.179-2.695c1.621,0.134,2.828,1.558,2.694,3.18c-0.793,9.618-9.264,16.799-18.883,16.006
								C97.451,60.188,96.244,58.764,96.378,57.142z"/>
						</g>
						<path class="st345" d="M114.04,43.992c0.071-0.866-0.248-1.669-0.8-2.255c-0.641,0.488-1.086,1.228-1.158,2.094
							c-0.525,6.381-6.145,11.144-12.525,10.617c-1.621-0.133-3.045,1.072-3.178,2.693c-0.101,1.211,0.547,2.308,1.555,2.845
							C106.353,59.343,113.324,52.671,114.04,43.992z"/>
						<g>
							<path class="st71" d="M96.378,57.142c0.133-1.621,1.557-2.826,3.178-2.693c6.381,0.526,12-4.236,12.525-10.617
								c0.134-1.622,1.557-2.829,3.179-2.695c1.621,0.134,2.828,1.558,2.694,3.18c-0.793,9.618-9.264,16.799-18.883,16.006
								C97.451,60.188,96.244,58.764,96.378,57.142z"/>
						</g>
					</g>
					<g>
						<g>
							<path class="st183" d="M96.371,57.231c-0.134,1.621,1.072,3.046,2.693,3.18c6.381,0.525,11.145,6.145,10.619,12.525
								c-0.135,1.621,1.072,3.044,2.693,3.178s3.045-1.072,3.178-2.693c0.795-9.619-6.387-18.091-16.006-18.884
								C97.927,54.403,96.503,55.61,96.371,57.231z"/>
						</g>
						<path class="st345" d="M111.64,73.097c-0.072,0.867-0.518,1.605-1.158,2.094c-0.553-0.586-0.871-1.389-0.799-2.254
							c0.525-6.381-4.238-12-10.619-12.525c-1.621-0.134-2.827-1.559-2.693-3.18c0.1-1.209,0.919-2.187,2-2.551
							C106.572,56.695,112.356,64.419,111.64,73.097z"/>
						<g>
							<path class="st71" d="M96.371,57.231c-0.134,1.621,1.072,3.046,2.693,3.18c6.381,0.525,11.145,6.145,10.619,12.525
								c-0.135,1.621,1.072,3.044,2.693,3.178s3.045-1.072,3.178-2.693c0.795-9.619-6.387-18.091-16.006-18.884
								C97.927,54.403,96.503,55.61,96.371,57.231z"/>
						</g>
					</g>
				</g>
			</g>
			<g>
				<g>
					<g>
						<g>
							<g>
								<path class="st183" d="M40.549,58.106c-0.694,1.473-2.452,2.101-3.924,1.406c-5.788-2.734-12.722-0.25-15.456,5.539
									c-0.697,1.471-2.452,2.1-3.924,1.404c-1.471-0.693-2.101-2.451-1.406-3.922c4.123-8.728,14.576-12.473,23.304-8.351
									C40.615,54.88,41.244,56.636,40.549,58.106z"/>
							</g>
							<path class="st345" d="M19.392,64.212c-0.371,0.785-0.355,1.648-0.043,2.393c0.771-0.232,1.447-0.768,1.82-1.553
								c2.734-5.789,9.668-8.273,15.456-5.539c1.472,0.694,3.229,0.066,3.924-1.406c0.519-1.098,0.298-2.352-0.458-3.209
								C31.984,52.542,23.112,56.339,19.392,64.212z"/>
							<g>
								<path class="st71" d="M40.549,58.106c-0.694,1.473-2.452,2.101-3.924,1.406c-5.788-2.734-12.722-0.25-15.456,5.539
									c-0.697,1.471-2.452,2.1-3.924,1.404c-1.471-0.693-2.101-2.451-1.406-3.922c4.123-8.728,14.576-12.473,23.304-8.351
									C40.615,54.88,41.244,56.636,40.549,58.106z"/>
							</g>
						</g>
						<g>
							<g>
								<path class="st183" d="M39.57,59.36c-1.337,0.928-3.174,0.594-4.1-0.744c-3.646-5.262-10.895-6.576-16.157-2.933
									c-1.337,0.927-3.173,0.595-4.099-0.744c-0.926-1.336-0.594-3.173,0.744-4.1c7.934-5.495,18.859-3.513,24.355,4.421
									C41.24,56.599,40.908,58.435,39.57,59.36z"/>
							</g>
							<path class="st345" d="M18.195,54.071c-0.714,0.494-1.132,1.25-1.234,2.048c0.785,0.186,1.639,0.061,2.353-0.436
								c5.263-3.644,12.511-2.329,16.157,2.933c0.926,1.338,2.763,1.672,4.1,0.744c0.998-0.691,1.435-1.888,1.209-3.007
								C34.935,50.259,25.353,49.111,18.195,54.071z"/>
							<g>
								<path class="st71" d="M39.57,59.36c-1.337,0.928-3.174,0.594-4.1-0.744c-3.646-5.262-10.895-6.576-16.157-2.933
									c-1.337,0.927-3.173,0.595-4.099-0.744c-0.926-1.336-0.594-3.173,0.744-4.1c7.934-5.495,18.859-3.513,24.355,4.421
									C41.24,56.599,40.908,58.435,39.57,59.36z"/>
							</g>
						</g>
					</g>
					<g>
						<g>
							<g>
								<path class="st183" d="M35.644,57.181c-0.927-1.339-2.764-1.672-4.102-0.746c-5.263,3.646-12.51,2.332-16.154-2.932
									c-0.928-1.338-2.764-1.67-4.102-0.744s-1.672,2.763-0.744,4.1c5.496,7.935,16.422,9.917,24.356,4.422
									C36.236,60.353,36.569,58.518,35.644,57.181z"/>
							</g>
							<path class="st345" d="M13.772,54.62c-0.494-0.714-0.618-1.567-0.435-2.352c0.799,0.104,1.555,0.52,2.051,1.234
								c3.645,5.264,10.892,6.578,16.154,2.932c1.338-0.926,3.175-0.593,4.102,0.746c0.689,0.997,0.68,2.271,0.074,3.239
								C28.105,64.071,18.732,61.779,13.772,54.62z"/>
							<g>
								<path class="st71" d="M35.644,57.181c-0.927-1.339-2.764-1.672-4.102-0.746c-5.263,3.646-12.51,2.332-16.154-2.932
									c-0.928-1.338-2.764-1.67-4.102-0.744s-1.672,2.763-0.744,4.1c5.496,7.935,16.422,9.917,24.356,4.422
									C36.236,60.353,36.569,58.518,35.644,57.181z"/>
							</g>
						</g>
						<g>
							<g>
								<path class="st183" d="M34.472,56.103c-1.471-0.695-3.229-0.065-3.924,1.405c-2.733,5.789-9.669,8.273-15.457,5.538
									c-1.471-0.693-3.229-0.064-3.922,1.407c-0.695,1.47-0.067,3.228,1.405,3.921c8.726,4.123,19.181,0.377,23.303-8.349
									C36.572,58.554,35.943,56.798,34.472,56.103z"/>
							</g>
							<path class="st345" d="M14.253,64.823c-0.787-0.372-1.322-1.049-1.555-1.82c0.744-0.312,1.607-0.327,2.393,0.043
								c5.788,2.735,12.724,0.251,15.457-5.538c0.695-1.471,2.453-2.101,3.924-1.405c1.098,0.518,1.725,1.629,1.685,2.77
								C31.39,65.842,22.125,68.543,14.253,64.823z"/>
							<g>
								<path class="st71" d="M34.472,56.103c-1.471-0.695-3.229-0.065-3.924,1.405c-2.733,5.789-9.669,8.273-15.457,5.538
									c-1.471-0.693-3.229-0.064-3.922,1.407c-0.695,1.47-0.067,3.228,1.405,3.921c8.726,4.123,19.181,0.377,23.303-8.349
									C36.572,58.554,35.943,56.798,34.472,56.103z"/>
							</g>
						</g>
					</g>
				</g>
				<g>
					<g>
						<g>
							<path class="st183" d="M43.623,57.142c-0.134-1.621-1.558-2.826-3.178-2.693c-6.381,0.526-12.001-4.236-12.527-10.617
								c-0.133-1.622-1.555-2.829-3.178-2.695c-1.621,0.134-2.828,1.558-2.694,3.18c0.793,9.618,9.263,16.799,18.883,16.006
								C42.549,60.188,43.755,58.764,43.623,57.142z"/>
						</g>
						<path class="st345" d="M25.96,43.992c-0.071-0.866,0.248-1.669,0.8-2.255c0.641,0.488,1.087,1.228,1.157,2.094
							c0.526,6.381,6.146,11.144,12.527,10.617c1.62-0.133,3.044,1.072,3.178,2.693c0.1,1.211-0.549,2.308-1.557,2.845
							C33.647,59.343,26.675,52.671,25.96,43.992z"/>
						<g>
							<path class="st71" d="M43.623,57.142c-0.134-1.621-1.558-2.826-3.178-2.693c-6.381,0.526-12.001-4.236-12.527-10.617
								c-0.133-1.622-1.555-2.829-3.178-2.695c-1.621,0.134-2.828,1.558-2.694,3.18c0.793,9.618,9.263,16.799,18.883,16.006
								C42.549,60.188,43.755,58.764,43.623,57.142z"/>
						</g>
					</g>
					<g>
						<g>
							<path class="st183" d="M43.63,57.231c0.133,1.621-1.073,3.046-2.695,3.18c-6.381,0.525-11.145,6.145-10.618,12.525
								c0.134,1.621-1.071,3.044-2.692,3.178c-1.622,0.134-3.047-1.072-3.18-2.693c-0.794-9.619,6.388-18.091,16.006-18.884
								C42.073,54.403,43.496,55.61,43.63,57.231z"/>
						</g>
						<path class="st345" d="M28.36,73.097c0.071,0.867,0.519,1.605,1.158,2.094c0.552-0.586,0.871-1.389,0.799-2.254
							c-0.526-6.381,4.237-12,10.618-12.525c1.622-0.134,2.828-1.559,2.695-3.18c-0.1-1.209-0.92-2.187-2.001-2.551
							C33.428,56.695,27.644,64.419,28.36,73.097z"/>
						<g>
							<path class="st71" d="M43.63,57.231c0.133,1.621-1.073,3.046-2.695,3.18c-6.381,0.525-11.145,6.145-10.618,12.525
								c0.134,1.621-1.071,3.044-2.692,3.178c-1.622,0.134-3.047-1.072-3.18-2.693c-0.794-9.619,6.388-18.091,16.006-18.884
								C42.073,54.403,43.496,55.61,43.63,57.231z"/>
						</g>
					</g>
				</g>
			</g>
		</g>
		<g>
			<path class="st103" d="M47.091,88.528c0,0-3.654-0.113-4.553,4.038c-0.896,4.152-2.997,5.291-4.23,3.828
				c0,0-2.781,1.473-3.174,5.799s-15.301,4.814-15.223-11.6l0.667-0.621"/>
			<path class="st71" d="M47.091,88.528c0,0-3.654-0.113-4.553,4.038c-0.896,4.152-2.997,5.291-4.23,3.828
				c0,0-2.781,1.473-3.174,5.799s-15.301,4.814-15.223-11.6l-1.336-1.978"/>
		</g>
	</g>
	<g>
		<path class="st103" d="M113.808,88.897c-0.49,0-0.95,0.112-1.368,0.306v-1.011c0-1.822-1.479,0.584-3.301,0.584
			c-1.311,0-2.432-0.858-2.965,0.249c-0.436-0.213-0.919,0.383-1.435,0.383c-1.824,0-3.302-2.634-3.302-0.811v1.711
			c-0.291-0.084-0.593-0.145-0.912-0.145c-1.823,0-3.302-0.344-3.302,1.477v8.025c0,1.824,1.479,3.301,3.302,3.301
			s3.302-1.477,3.302-3.301v-1.711c0.291,0.084,0.592,0.143,0.912,0.143c1.309,0,2.431-0.768,2.964-1.875
			c0.435,0.215,0.92,0.342,1.436,0.342c0.489,0,0.949-0.113,1.368-0.303v14.939c0,1.826,1.478,3.303,3.301,3.303
			c1.822,0,3.3-1.477,3.3-3.303V92.809C117.108,90.984,115.63,88.897,113.808,88.897z"/>
		<g>
			<path class="st115" d="M100.526,96.891c1.823,0,3.302-1.479,3.302-3.301v-1.709c0.291,0.082,0.592,0.143,0.912,0.143
				c1.309,0,2.431-0.77,2.964-1.877c0.435,0.215,0.92,0.342,1.436,0.342c0.489,0,0.949-0.113,1.368-0.305v6.078
				c-0.419,0.189-0.879,0.303-1.368,0.303c-0.516,0-1.001-0.127-1.436-0.342c-0.533,1.107-1.655,1.875-2.964,1.875
				c-0.32,0-0.621-0.059-0.912-0.143v1.711c0,1.824-1.479,3.301-3.302,3.301s-3.302-1.477-3.302-3.301V93.59
				C97.224,95.412,98.703,96.891,100.526,96.891z"/>
			<path class="st115" d="M113.808,108.428c1.822,0,3.3-1.479,3.3-3.303v6.076c0,1.826-1.478,3.303-3.3,3.303
				c-1.823,0-3.301-1.477-3.301-3.303v-6.076C110.507,106.949,111.985,108.428,113.808,108.428z"/>
		</g>
		<path class="st71" d="M97.224,91.641v8.025c0,1.824,1.479,3.301,3.302,3.301s3.302-1.477,3.302-3.301v-1.711
			c0.291,0.084,0.592,0.143,0.912,0.143c1.309,0,2.431-0.768,2.964-1.875c0.435,0.215,0.92,0.342,1.436,0.342
			c0.489,0,0.949-0.113,1.368-0.303v14.939c0,1.826,1.478,3.303,3.301,3.303c1.822,0,3.3-1.477,3.3-3.303V89.408"/>
	</g>
	<g>
		<g>
			<path class="st381" d="M80.87,37.217L37.216,80.87c-6.041,6.041-6.039,15.872,0.002,21.913c6.043,6.041,15.87,6.041,21.911,0
				l43.653-43.653c6.042-6.042,6.042-15.871,0.002-21.912C96.743,31.177,86.913,31.175,80.87,37.217z"/>
			<path class="st256" d="M80.87,37.217L37.216,80.87c-4.043,4.045-5.368,9.786-3.995,14.952c5.168,1.373,10.909,0.049,14.953-3.994
				l43.654-43.653c4.045-4.046,5.366-9.785,3.994-14.954C90.656,31.851,84.915,33.171,80.87,37.217z"/>
		</g>
		<g>
			<path class="st381" d="M102.783,80.872L59.129,37.217c-6.041-6.04-15.871-6.04-21.913,0.002
				c-6.041,6.04-6.041,15.868,0.002,21.909l43.654,43.655c6.04,6.041,15.87,6.041,21.91,0
				C108.825,96.74,108.825,86.913,102.783,80.872z"/>
			<path class="st256" d="M102.783,80.872L59.129,37.217c-4.046-4.044-9.784-5.369-14.952-3.996
				c-1.373,5.167-0.05,10.909,3.996,14.954l43.653,43.653c4.044,4.043,9.786,5.363,14.953,3.994
				C108.151,90.652,106.829,84.915,102.783,80.872z"/>
			<path class="st71" d="M80.87,37.217L70,48.089L59.129,37.217c-6.041-6.04-15.871-6.04-21.913,0.002
				c-6.041,6.04-6.041,15.868,0.002,21.909l10.869,10.871L37.216,80.87c-6.041,6.041-6.039,15.872,0.002,21.913
				c6.043,6.041,15.87,6.041,21.911,0L70,91.91l10.872,10.873c6.04,6.041,15.87,6.041,21.91,0c6.042-6.043,6.042-15.87,0-21.911
				L91.915,70.001l10.868-10.871c6.042-6.042,6.042-15.871,0.002-21.912C96.743,31.177,86.913,31.175,80.87,37.217z"/>
		</g>
	</g>
</g>
</svg>
