<?xml version="1.0" encoding="utf-8"?>
<!-- Generator: Adobe Illustrator 16.0.0, SVG Export Plug-In . SVG Version: 6.00 Build 0)  -->
<!DOCTYPE svg PUBLIC "-//W3C//DTD SVG 1.1//EN" "http://www.w3.org/Graphics/SVG/1.1/DTD/svg11.dtd">
<svg version="1.1" id="Layer_1" xmlns="http://www.w3.org/2000/svg" xmlns:xlink="http://www.w3.org/1999/xlink" x="0px" y="0px"
	 width="140px" height="140px" viewBox="0 0 140 140" style="enable-background:new 0 0 140 140;" xml:space="preserve">
<style type="text/css">
<![CDATA[
	.st0{fill:#7A62F4;}
	.st1{fill:#7A8A91;}
	.st2{fill:#AA3154;}
	.st3{fill:#474B4F;}
	.st4{fill:#474C51;}
	.st5{fill:#477184;}
	.st6{fill:#AA8D5E;}
	.st7{fill:#AAF789;}
	.st8{fill:#7BE6FF;}
	.st9{fill:#7C66D8;}
	.st10{fill:#7CC0D8;}
	.st11{fill:#495359;}
	.st12{fill:#49DB7A;}
	.st13{fill:#49E500;}
	.st14{fill:#7DA8AA;}
	
		.st15{fill:none;stroke:#7C9199;stroke-width:3;stroke-linecap:round;stroke-linejoin:round;stroke-miterlimit:10;stroke-dasharray:5;}
	.st16{fill:#AD9F7F;}
	.st17{fill:none;stroke:#D3ECEF;stroke-linecap:round;stroke-linejoin:round;stroke-miterlimit:10;}
	.st18{fill:none;stroke:#C42323;stroke-width:3;stroke-linecap:round;stroke-linejoin:round;stroke-miterlimit:10;}
	.st19{fill:#AE52FF;}
	.st20{fill:#10DEF9;}
	.st21{fill:none;stroke:#267DC4;stroke-width:3;stroke-linecap:round;stroke-linejoin:round;stroke-miterlimit:10;}
	.st22{fill:#1162BA;}
	.st23{fill:#E02F2F;}
	.st24{fill:#E05368;}
	.st25{fill:#AFBFCE;}
	.st26{fill:#AFC8DD;}
	.st27{fill:#E0CC77;}
	.st28{fill:#1247B2;}
	.st29{fill:#E0DECE;}
	.st30{fill:#E0FF9C;}
	.st31{fill:none;stroke:#E21A32;stroke-linecap:round;stroke-linejoin:round;stroke-miterlimit:10;}
	.st32{fill:#13D626;}
	.st33{fill:#E2823B;}
	.st34{fill:#1462EF;}
	.st35{fill:#14B0ED;}
	.st36{fill:#1576EA;}
	.st37{fill:#15BDFF;}
	.st38{fill:#1613A5;}
	.st39{fill:#4A5056;}
	.st40{fill:#E55166;}
	.st41{fill:#E55A6B;}
	.st42{fill:#E56171;}
	.st43{fill:none;stroke:#79CC7E;stroke-width:2;stroke-linecap:round;stroke-linejoin:round;stroke-miterlimit:10;}
	.st44{fill:#4B6466;}
	.st45{opacity:0.4;fill:#79CC7E;}
	.st46{fill:#E6F1F4;}
	.st47{fill:#E6F2FC;}
	.st48{fill:#4C6362;}
	.st49{fill:#18AA67;}
	.st50{fill:#4D4D91;}
	.st51{fill:#4D575B;}
	.st52{fill:#E88E0C;}
	.st53{fill:#4DADCE;}
	.st54{fill:#E8E8E8;}
	.st55{opacity:0.3;fill:#9AA5A4;}
	.st56{fill:#80C3FF;}
	.st57{fill:#B066FF;}
	.st58{fill:#818F91;}
	.st59{fill:#B0D1D6;}
	.st60{fill:#B1DBDD;}
	.st61{fill:#B2104E;}
	.st62{fill:none;stroke:#FCFAE8;stroke-width:3;stroke-linecap:round;stroke-linejoin:round;stroke-miterlimit:10;}
	.st63{fill:#B2D1C7;}
	.st64{fill:#83ED3E;}
	.st65{fill:#83ED88;}
	.st66{fill:#8461BC;}
	.st67{fill:#84692C;}
	.st68{fill:#B3C9E2;}
	.st69{fill:none;stroke:#ED8700;stroke-width:3;stroke-linecap:round;stroke-linejoin:round;}
	.st70{fill:none;stroke:#64E2DC;stroke-width:3;stroke-linecap:round;stroke-linejoin:round;stroke-miterlimit:10;}
	.st71{fill:none;stroke:#33363A;stroke-width:3;stroke-linecap:round;stroke-linejoin:round;stroke-miterlimit:10;}
	.st72{fill:none;stroke:#33363A;stroke-width:4;stroke-linecap:round;stroke-linejoin:round;stroke-miterlimit:10;}
	.st73{fill:#85A7A8;}
	.st74{fill:#85C606;}
	.st75{fill:none;stroke:#33363A;stroke-width:5;stroke-linecap:round;stroke-linejoin:round;stroke-miterlimit:10;}
	.st76{fill:#86B2A2;}
	.st77{fill:#EA3D6A;}
	.st78{fill:#875835;}
	.st79{fill:#EA9706;}
	.st80{fill:#1C19AF;}
	.st81{fill:#EAAA0A;}
	.st82{fill:#EABC73;}
	.st83{fill:#EADFB2;}
	.st84{fill:#EAE4BE;}
	.st85{fill:#EAF2F9;}
	.st86{fill:#B7883D;}
	.st87{fill:#1CE5C3;}
	.st88{fill:#1CE8E3;}
	.st89{fill:#B7F467;}
	.st90{fill:none;stroke:#36B0CC;stroke-width:3;stroke-linecap:round;stroke-linejoin:round;stroke-miterlimit:10;}
	.st91{fill:#EBEDD3;}
	.st92{fill:none;stroke:#FFB000;stroke-width:3;stroke-linecap:round;stroke-linejoin:round;stroke-dasharray:8.2755,8.2755;}
	.st93{fill:#1DA834;}
	.st94{fill:#1DC8CC;}
	.st95{fill:#8957CE;}
	.st96{fill:#B8D3D1;}
	.st97{fill:#89A3A3;}
	.st98{fill:#1E91F9;}
	.st99{fill:#B969FF;}
	.st100{fill:#1EA6E2;}
	.st101{fill:#FFFFFF;stroke:#FFFFFF;stroke-width:2;stroke-linecap:round;stroke-linejoin:round;stroke-miterlimit:10;}
	.st102{fill:#ED4706;}
	.st103{fill:#EDA411;}
	.st104{fill:#EDDE88;}
	.st105{fill:#EDF4F4;}
	.st106{fill:#5050E2;}
	.st107{fill:#1FADE5;}
	.st108{enable-background:new    ;}
	.st109{fill:#EF4D4D;}
	.st110{fill:#EF6F7B;}
	.st111{fill:#EF9681;}
	.st112{fill:#EFA37D;}
	.st113{fill:#EFB289;}
	.st114{fill:#EFBD59;}
	.st115{fill:#EFCA0F;}
	.st116{fill:#EFEFDF;}
	.st117{fill:#526163;}
	.st118{fill:#529E54;}
	.st119{fill:#52C408;}
	.st120{fill:#5351B7;}
	.st121{fill:none;stroke:#EBEDD3;stroke-linecap:round;stroke-linejoin:round;stroke-miterlimit:10;}
	.st122{fill:#555D60;}
	.st123{fill:#55DBFF;}
	.st124{fill:none;stroke:#FFEF5A;stroke-width:2;stroke-linecap:round;stroke-linejoin:round;stroke-miterlimit:10;}
	.st125{fill:none;stroke:#FFEF5A;stroke-width:4;stroke-linecap:round;stroke-linejoin:round;stroke-miterlimit:10;}
	.st126{fill:none;stroke:#536B7C;stroke-width:3;stroke-linecap:round;stroke-linejoin:round;stroke-miterlimit:10;}
	.st127{fill:#8A9199;}
	.st128{fill:#8A998A;}
	.st129{fill:#8CE5E2;}
	.st130{fill:#BC3150;}
	.st131{fill:#595F66;}
	.st132{fill:#BC8B4B;}
	.st133{fill:#8DABC9;}
	.st134{fill:#8E7EED;}
	.st135{fill:#8EC1C1;}
	.st136{fill:#20BCF2;}
	.st137{fill:#8F56D8;}
	.st138{fill:#BEDD05;}
	.st139{fill:none;stroke:#EAD7FF;stroke-width:3;stroke-linecap:round;stroke-linejoin:round;stroke-miterlimit:10;}
	.st140{fill:#2178F7;}
	.st141{fill:#219B1E;}
	.st142{fill:#BF76FF;}
	.st143{fill:none;stroke:#88CCFF;stroke-width:3;stroke-linecap:round;stroke-linejoin:round;stroke-miterlimit:10;}
	.st144{fill:#22A1EF;}
	.st145{fill:#237AF9;}
	.st146{fill:#F2790C;}
	.st147{fill:#246DED;}
	.st148{fill:#F3FAFF;}
	.st149{fill:#25C10A;}
	.st150{fill:#F42535;}
	.st151{fill:#F4921E;}
	.st152{fill:#F4AB0B;}
	.st153{fill:#F4F3E9;}
	.st154{fill:#5A5F63;}
	.st155{fill:#26A3F7;}
	.st156{fill:#F5FEFF;}
	.st157{fill:#277AF4;}
	.st158{fill:#2792F4;}
	.st159{fill:#279377;}
	.st160{fill:#27C927;}
	.st161{fill:#5C2DE0;}
	.st162{fill:#F7441C;}
	.st163{fill:#F7910B;}
	.st164{fill:#F79E00;}
	.st165{fill:none;stroke:#FFB000;stroke-width:3;stroke-linecap:round;stroke-linejoin:round;}
	.st166{fill:#5D3EDD;}
	.st167{fill:#29CDFF;}
	.st168{fill:#5E6870;}
	.st169{fill:#F9A858;}
	.st170{fill:#F9C19B;}
	.st171{fill:#F9E446;}
	.st172{fill:#5F666B;}
	.st173{fill:#5FCE96;}
	.st174{fill:#90B2B1;}
	.st175{fill:#91EA57;}
	.st176{fill:#C11E5C;}
	.st177{fill:#C14830;}
	.st178{fill:#C17E25;}
	.st179{fill:#C1B995;}
	.st180{fill:#C1BFA7;}
	.st181{fill:none;stroke:#F9EF95;stroke-width:3;stroke-linecap:round;stroke-linejoin:round;stroke-miterlimit:10;}
	.st182{fill:#92E0FF;}
	.st183{fill:#92FC6B;}
	.st184{fill:#C28AE2;}
	.st185{fill:#939DA3;}
	.st186{fill:#C3D8D6;}
	.st187{fill:#C3DFE0;}
	.st188{fill:#C42323;}
	.st189{fill:#C4415B;}
	.st190{fill:#C480FF;}
	.st191{fill:#95AF68;}
	.st192{fill:#2A8BF4;}
	.st193{fill:#2AAD2A;}
	.st194{fill:#C5E3EA;}
	.st195{fill:#C63C4D;}
	.st196{fill:#C67A6D;}
	.st197{fill:#C6BA9B;}
	.st198{fill:#FC4259;}
	.st199{fill:#FC90A2;}
	.st200{fill:#C8DBDB;}
	.st201{fill:#FCC322;}
	.st202{fill:#FCDECA;}
	.st203{fill:#FCF8E6;}
	.st204{fill:#2E6ECC;}
	.st205{fill:#FCFCB9;}
	.st206{fill:none;stroke:#FFB000;stroke-width:3;stroke-linecap:round;stroke-linejoin:round;stroke-dasharray:8.028,8.028;}
	.st207{fill:#C9E1F2;}
	.st208{fill:#FDFFFF;}
	.st209{fill:#FF315D;}
	.st210{fill:#FF3636;}
	.st211{fill:#FF4800;}
	.st212{fill:#FF502E;}
	.st213{fill:#FF5B00;}
	.st214{fill:#FF647E;}
	.st215{fill:#FF6B06;}
	.st216{fill:#FF7639;}
	.st217{fill:#FF7892;}
	.st218{fill:#FF7900;}
	.st219{fill:#FF8103;}
	.st220{fill:#FF8500;}
	.st221{fill:#FF9100;}
	.st222{fill:#FF9700;}
	.st223{fill:#FF9E12;}
	.st224{fill:#61BBFF;}
	.st225{fill:#FFA300;}
	.st226{fill:#FFAA00;}
	.st227{fill:#FFABBF;}
	.st228{fill:#FFB000;}
	.st229{fill:#FFB206;}
	.st230{fill:#FFBC00;}
	.st231{fill:#FFBF31;}
	.st232{fill:#FFC1AE;}
	.st233{fill:#FFC200;}
	.st234{fill:#FFC757;}
	.st235{fill:#FFC817;}
	.st236{fill:#FFCE00;}
	.st237{fill:#FFD243;}
	.st238{fill:#FFD400;}
	.st239{fill:#FFD833;}
	.st240{fill:#FFD9C0;}
	.st241{fill:#FFDC10;}
	.st242{fill:#FFDE52;}
	.st243{fill:#FFE108;}
	.st244{fill:#FFE10B;}
	.st245{fill:#FFE31A;}
	.st246{fill:#FFE448;}
	.st247{fill:#FFE8C2;}
	.st248{fill:#FFE98F;}
	.st249{fill:#FFEB5A;}
	.st250{fill:#FFEDA1;}
	.st251{fill:#FFF19C;}
	.st252{fill:#FFF6E1;}
	.st253{fill:#FFF87B;}
	.st254{fill:#FFF8C7;}
	.st255{fill:#FFFCEE;}
	.st256{fill:#FFFFFF;}
	.st257{fill:#62CEDD;}
	.st258{fill:#636E72;}
	.st259{fill:none;stroke:#DDAC24;stroke-width:2;stroke-linecap:round;stroke-linejoin:round;stroke-miterlimit:10;}
	.st260{fill:#64BDFF;}
	.st261{fill:#64E2DC;}
	.st262{fill:none;stroke:#33363A;stroke-linecap:round;stroke-linejoin:round;stroke-miterlimit:10;}
	.st263{fill:#66797F;}
	.st264{fill:none;stroke:#EBC0F9;stroke-width:3;stroke-linecap:round;stroke-linejoin:round;stroke-miterlimit:10;}
	.st265{fill:#9AC1C1;}
	.st266{fill:#676E72;}
	.st267{fill:#677F7F;}
	.st268{fill:#678B99;}
	.st269{fill:#9B0751;}
	.st270{fill:#9B6743;}
	.st271{fill:#9B7335;}
	.st272{fill:none;stroke:#E0FF9C;stroke-width:3;stroke-linecap:round;stroke-linejoin:round;stroke-miterlimit:10;}
	.st273{fill:#CAD7E5;}
	.st274{fill:#CAE5E3;}
	.st275{fill:none;stroke:#FFD815;stroke-width:3;stroke-linecap:round;stroke-linejoin:round;stroke-miterlimit:10;}
	.st276{fill:none;stroke:#64C0F9;stroke-width:3;stroke-linecap:round;stroke-linejoin:round;stroke-miterlimit:10;}
	.st277{fill:#68B6DD;}
	.st278{fill:#CC445B;}
	.st279{fill:none;stroke:#66A8F7;stroke-width:3;stroke-linecap:round;stroke-linejoin:round;stroke-miterlimit:10;}
	.st280{fill:#9D67C1;}
	.st281{fill:#CCFFFF;}
	.st282{fill:#9DC0C4;}
	.st283{fill:#9E2323;}
	.st284{fill:#9E45DD;}
	.st285{fill:#CDDEE0;}
	.st286{fill:#309FD6;}
	.st287{fill:none;stroke:#ED8700;stroke-width:3;stroke-linecap:round;stroke-linejoin:round;stroke-dasharray:7.7039,7.7039;}
	.st288{fill:#CE4313;}
	.st289{fill:#CEA255;}
	.st290{fill:#9FC1B5;}
	.st291{fill:#3131DD;}
	.st292{fill:#33363A;}
	.st293{fill:#334746;}
	.st294{fill:#3380CC;}
	.st295{fill:#34C166;}
	.st296{fill:#363B3F;}
	.st297{fill:#6A797C;}
	.st298{fill:#33363A;stroke:#33363A;stroke-width:3;stroke-linecap:round;stroke-linejoin:round;stroke-miterlimit:10;}
	.st299{fill:#6C85FF;}
	.st300{opacity:0.2;fill:#3C8DA0;}
	.st301{fill:none;stroke:#5F6266;stroke-width:3;stroke-linecap:round;stroke-linejoin:round;stroke-miterlimit:10;}
	.st302{fill:#00ADDB;}
	.st303{fill:#6F898C;}
	.st304{fill:#6FAF00;}
	.st305{fill:#D0D8CA;}
	.st306{fill:#D0E0EA;}
	.st307{fill:#D0E2F4;}
	.st308{fill:none;stroke:#FFB000;stroke-width:3;stroke-linecap:round;stroke-linejoin:round;stroke-dasharray:7.8476,7.8476;}
	.st309{fill:none;stroke:#33363A;stroke-width:10;stroke-linecap:round;stroke-linejoin:round;stroke-miterlimit:10;}
	.st310{fill:#04968E;}
	.st311{fill:#D30B49;}
	.st312{fill:#D31818;}
	.st313{fill:#D34624;}
	.st314{fill:#D39F1E;}
	.st315{fill:#D3D1C1;}
	.st316{fill:#D3DADD;}
	.st317{fill:#D3E5EA;}
	.st318{fill:#055E6D;}
	.st319{fill:#059CE8;}
	.st320{fill:#064E7F;}
	.st321{fill:#066782;}
	.st322{fill:#07563C;}
	.st323{fill:#D5E2CC;}
	.st324{fill:#3B4244;}
	.st325{fill:#D60024;}
	.st326{fill:#D6702B;}
	.st327{fill:#D68967;}
	.st328{fill:#D6A545;}
	.st329{fill:#D6CB9D;}
	.st330{fill:#3C4044;}
	.st331{fill:#08BC26;}
	.st332{fill:#097F2A;}
	.st333{fill:none;stroke:#FFAB94;stroke-width:4;stroke-linecap:round;stroke-linejoin:round;stroke-miterlimit:10;}
	.st334{fill:#3D5957;}
	.st335{fill:#3D99F4;}
	.st336{fill:#D8235F;}
	.st337{fill:#D83055;}
	.st338{fill:#D83563;}
	.st339{fill:#D83705;}
	.st340{fill:#D8533D;}
	.st341{fill:#D8D7C0;}
	.st342{fill:#3E9FF7;}
	.st343{fill:#D9F0F4;}
	.st344{fill:#705622;}
	.st345{fill:#70D63A;}
	.st346{fill:#A03F25;}
	.st347{fill:#A07F3C;}
	.st348{opacity:0.6;fill:#2670BF;}
	.st349{fill:#A0BAB9;}
	.st350{fill:#A197FC;}
	.st351{fill:#727B84;}
	.st352{fill:#A1C6C6;}
	.st353{fill:#A23FE8;}
	.st354{fill:#737F73;}
	.st355{fill:#73F4B3;}
	.st356{fill:#A31153;}
	.st357{fill:#748C4F;}
	.st358{fill:#749997;}
	.st359{fill:#0A7BE2;}
	.st360{fill:#0A8989;}
	.st361{fill:#0A912A;}
	.st362{fill:#0A9B3D;}
	.st363{fill:#0A9DBF;}
	.st364{fill:#A53CEF;}
	.st365{fill:#0ABAEA;}
	.st366{fill:#A5BFBF;}
	.st367{fill:#7799AA;}
	.st368{fill:#77D852;}
	.st369{fill:#0C4ABA;}
	.st370{fill:#DAE5E5;}
	.st371{fill:#0CA813;}
	.st372{fill:#788E8D;}
	.st373{fill:#78CFFF;}
	.st374{fill:#A8273D;}
	.st375{fill:#79CC7E;}
	.st376{fill:#0E48DB;}
	.st377{fill:#DCE7EF;}
	.st378{fill:#0E7F24;}
	.st379{fill:#DDAC24;}
	.st380{fill:#DDC872;}
	.st381{fill:#DDE6E8;}
	.st382{fill:#404449;}
	.st383{fill:#0FA88E;}
	.st384{fill:#DEF21D;}
	.st385{fill:#4120CE;}
	.st386{fill:none;stroke:#CCB13E;stroke-width:3;stroke-linecap:round;stroke-linejoin:round;stroke-miterlimit:10;}
	.st387{fill:#41F7D4;}
	.st388{fill:#DFEDEF;}
	.st389{fill:#DFF4E9;}
	.st390{fill:#DFF7F6;}
	.st391{fill:#42E6EA;}
	.st392{fill:#43474C;}
	.st393{fill:#43B1E8;}
	.st394{fill:#44CC7B;}
	.st395{fill:#45484C;}
	.st396{fill:#454A4F;}
	.st397{fill:#45BA0F;}
	.st398{fill:#45CAFF;}
]]>
</style>
<g>
	<g>
		<path class="st376" d="M132.094,70.001c0-1.449-0.992-2.707-2.398-3.045l-12.955-3.108l11.709-6.356
			c1.271-0.691,1.904-2.164,1.529-3.562c-0.373-1.398-1.658-2.363-3.105-2.318l-13.318,0.35l9.664-9.17
			c1.051-0.996,1.281-2.582,0.557-3.836c-0.723-1.254-2.209-1.85-3.602-1.437L107.4,41.302l6.963-11.359
			c0.756-1.233,0.568-2.825-0.455-3.85c-1.023-1.023-2.619-1.215-3.85-0.455l-11.357,6.961l3.783-12.771
			c0.412-1.389-0.182-2.878-1.436-3.602c-1.252-0.723-2.838-0.494-3.836,0.557l-9.17,9.664l0.35-13.318
			c0.037-1.447-0.922-2.732-2.318-3.105c-1.398-0.379-2.871,0.258-3.562,1.529l-6.357,11.711l-3.109-12.958
			c-0.338-1.407-1.598-2.4-3.045-2.4c-1.449,0-2.707,0.993-3.045,2.4l-3.107,12.954l-6.355-11.707
			c-0.691-1.271-2.164-1.908-3.562-1.529c-1.398,0.373-2.357,1.658-2.318,3.105l0.35,13.317l-9.172-9.663
			c-0.996-1.053-2.584-1.281-3.836-0.557c-1.254,0.723-1.848,2.212-1.438,3.6l3.785,12.775l-11.357-6.963
			c-1.234-0.757-2.826-0.568-3.85,0.455c-1.025,1.024-1.213,2.616-0.457,3.85l6.961,11.359l-12.771-3.785
			c-1.391-0.412-2.879,0.184-3.602,1.437c-0.725,1.253-0.494,2.84,0.557,3.837l9.664,9.17l-13.316-0.35
			c-1.514-0.051-2.732,0.92-3.107,2.318s0.26,2.871,1.529,3.562l11.711,6.356l-12.957,3.108c-1.406,0.338-2.398,1.596-2.398,3.045
			c0,1.446,0.992,2.706,2.398,3.044l12.957,3.109l-11.711,6.356c-1.27,0.69-1.904,2.162-1.529,3.562
			c0.375,1.397,1.602,2.4,3.107,2.319l13.316-0.35l-9.662,9.168c-1.051,0.998-1.283,2.584-0.557,3.838
			c0.723,1.253,2.215,1.848,3.6,1.436L32.6,98.7l-6.963,11.358c-0.756,1.233-0.568,2.826,0.457,3.85
			c1.021,1.023,2.615,1.213,3.85,0.455l11.357-6.961l-3.785,12.773c-0.41,1.389,0.184,2.877,1.438,3.6
			c1.252,0.725,2.838,0.496,3.838-0.556l9.168-9.663l-0.35,13.317c-0.039,1.446,0.92,2.732,2.318,3.106
			c1.396,0.375,2.871-0.258,3.562-1.53l6.357-11.71l3.107,12.956c0.338,1.407,1.596,2.399,3.045,2.399
			c1.447,0,2.707-0.992,3.045-2.399l3.109-12.957l6.357,11.711c0.557,1.025,1.623,1.638,2.752,1.638
			c1.771-0.052,3.172-1.389,3.172-3.132c0-0.203-0.02-0.401-0.057-0.595l-0.336-12.805l9.166,9.663
			c0.609,0.642,1.438,0.978,2.273,0.978c0.016,0,0.029,0,0.041,0c1.73,0,3.131-1.402,3.131-3.132c0-0.487-0.111-0.949-0.311-1.36
			l-3.645-12.303l11.357,6.961c0.506,0.311,1.072,0.462,1.637,0.462c0.014-0.001,0.027,0,0.041,0c1.73,0,3.133-1.401,3.133-3.132
			c0-0.769-0.277-1.473-0.738-2.019L107.4,98.699l12.773,3.785c0.295,0.088,0.596,0.13,0.891,0.13
			c1.697,0.036,3.174-1.39,3.174-3.132c0-1.047-0.516-1.974-1.305-2.542l-9.379-8.897l13.318,0.35
			c1.494,0.076,2.732-0.922,3.105-2.319c0.375-1.399-0.258-2.871-1.529-3.562l-11.711-6.356l12.957-3.109
			C131.102,72.708,132.094,71.448,132.094,70.001z"/>
		<path class="st157" d="M66.955,10.305l-3.107,12.954l-6.355-11.707c-0.691-1.271-2.164-1.908-3.562-1.529
			c-1.398,0.373-2.357,1.658-2.318,3.105l0.35,13.317l-9.172-9.663c-0.996-1.053-2.584-1.281-3.836-0.557
			c-1.254,0.723-1.848,2.212-1.438,3.6l3.785,12.775l-11.357-6.963c-1.234-0.757-2.826-0.568-3.85,0.455
			c-1.025,1.024-1.213,2.616-0.457,3.85l6.961,11.359l-12.771-3.785c-1.391-0.412-2.879,0.184-3.602,1.437
			c-0.725,1.253-0.494,2.84,0.557,3.837l9.664,9.17l-13.316-0.35c-1.514-0.051-2.732,0.92-3.107,2.318s0.26,2.871,1.529,3.562
			l11.711,6.356l-12.957,3.108c-1.406,0.338-2.398,1.596-2.398,3.045c0,1.446,0.992,2.706,2.398,3.044l12.957,3.109l-11.711,6.356
			c-1.27,0.69-1.904,2.162-1.529,3.562c0.375,1.397,1.602,2.4,3.107,2.319l13.316-0.35l-9.662,9.168
			c-1.051,0.998-1.283,2.584-0.557,3.838c0.723,1.253,2.215,1.848,3.6,1.436L32.6,98.7l-6.963,11.358
			c-0.756,1.233-0.568,2.826,0.457,3.85c1.021,1.023,2.615,1.213,3.85,0.455l11.357-6.961l-3.785,12.773
			c-0.41,1.389,0.184,2.877,1.438,3.6c1.252,0.725,2.838,0.496,3.838-0.556l9.168-9.663l-0.35,13.317
			c-0.039,1.446,0.92,2.732,2.318,3.106c1.396,0.375,2.871-0.258,3.562-1.53l6.357-11.71l3.107,12.956
			c0.338,1.407,1.596,2.399,3.045,2.399V7.905C68.551,7.905,67.293,8.898,66.955,10.305z"/>
		<g>
			<path class="st260" d="M51.75,121.527l-0.141,5.347c-0.012,0.385,0.053,0.756,0.174,1.104l0.176-6.671L51.75,121.527z"/>
			<path class="st260" d="M53.93,17.773c1.398-0.379,2.871,0.258,3.562,1.529l6.355,11.707l3.107-12.954
				c0.338-1.407,1.596-2.4,3.045-2.4c1.447,0,2.707,0.993,3.045,2.4l3.109,12.958l6.357-11.711c0.691-1.271,2.164-1.908,3.562-1.529
				c1.025,0.273,1.811,1.041,2.145,2.002l0.174-6.646c0.037-1.447-0.922-2.732-2.318-3.105c-1.398-0.379-2.871,0.258-3.562,1.529
				l-6.357,11.711l-3.109-12.958c-0.338-1.407-1.598-2.4-3.045-2.4c-1.449,0-2.707,0.993-3.045,2.4l-3.107,12.954l-6.355-11.707
				c-0.691-1.271-2.164-1.908-3.562-1.529c-1.398,0.373-2.357,1.658-2.318,3.105l0.174,6.646
				C52.117,18.814,52.904,18.046,53.93,17.773z"/>
			<path class="st260" d="M98.701,40.349l11.357-6.961c0.74-0.457,1.611-0.563,2.412-0.357l1.893-3.088
				c0.756-1.233,0.568-2.825-0.455-3.85c-1.023-1.023-2.619-1.215-3.85-0.455l-8.553,5.241L98.701,40.349z"/>
			<path class="st260" d="M107.4,49.052l12.773-3.784c0.182-0.054,0.365-0.089,0.549-0.108l2.496-2.369
				c1.051-0.996,1.281-2.582,0.557-3.836c-0.723-1.254-2.209-1.85-3.602-1.437l-6.969,2.064L107.4,49.052z"/>
			<path class="st260" d="M88.043,34.197l9.17-9.664c0.998-1.051,2.584-1.279,3.836-0.557c0.061,0.036,0.113,0.081,0.172,0.12
				l1.264-4.269c0.412-1.389-0.182-2.878-1.436-3.602c-1.252-0.723-2.838-0.494-3.836,0.557l-8.961,9.443L88.043,34.197z"/>
			<path class="st260" d="M88.252,121.527l-0.209-0.221l0.178,6.766c0.133-0.346,0.215-0.719,0.215-1.116
				c0-0.203-0.02-0.401-0.057-0.595L88.252,121.527z"/>
			<path class="st260" d="M19.275,45.158c0.184,0.021,0.367,0.056,0.551,0.109l12.771,3.785l-5.803-9.47l-6.969-2.065
				c-1.391-0.412-2.879,0.184-3.602,1.437c-0.725,1.253-0.494,2.84,0.557,3.837L19.275,45.158z"/>
			<path class="st260" d="M27.529,33.031c0.801-0.205,1.672-0.098,2.414,0.357l11.357,6.963l-2.805-9.47l-8.553-5.243
				c-1.234-0.757-2.826-0.568-3.85,0.455c-1.025,1.024-1.213,2.616-0.457,3.85L27.529,33.031z"/>
			<path class="st260" d="M38.781,24.095c0.059-0.039,0.109-0.084,0.172-0.119c1.252-0.725,2.84-0.496,3.836,0.557l9.172,9.663
				l-0.209-7.971l-8.963-9.442c-0.996-1.053-2.584-1.281-3.836-0.557c-1.254,0.723-1.848,2.212-1.438,3.6L38.781,24.095z"/>
		</g>
		<path class="st71" d="M132.094,70.001c0-1.449-0.992-2.707-2.398-3.045l-12.955-3.108l11.709-6.356
			c1.271-0.691,1.904-2.164,1.529-3.562c-0.373-1.398-1.658-2.363-3.105-2.318l-13.318,0.35l9.664-9.17
			c1.051-0.996,1.281-2.582,0.557-3.836c-0.723-1.254-2.209-1.85-3.602-1.437L107.4,41.302l6.963-11.359
			c0.756-1.233,0.568-2.825-0.455-3.85c-1.023-1.023-2.619-1.215-3.85-0.455l-11.357,6.961l3.783-12.771
			c0.412-1.389-0.182-2.878-1.436-3.602c-1.252-0.723-2.838-0.494-3.836,0.557l-9.17,9.664l0.35-13.318
			c0.037-1.447-0.922-2.732-2.318-3.105c-1.398-0.379-2.871,0.258-3.562,1.529l-6.357,11.711l-3.109-12.958
			c-0.338-1.407-1.598-2.4-3.045-2.4c-1.449,0-2.707,0.993-3.045,2.4l-3.107,12.954l-6.355-11.707
			c-0.691-1.271-2.164-1.908-3.562-1.529c-1.398,0.373-2.357,1.658-2.318,3.105l0.35,13.317l-9.172-9.663
			c-0.996-1.053-2.584-1.281-3.836-0.557c-1.254,0.723-1.848,2.212-1.438,3.6l3.785,12.775l-11.357-6.963
			c-1.234-0.757-2.826-0.568-3.85,0.455c-1.025,1.024-1.213,2.616-0.457,3.85l6.961,11.359l-12.771-3.785
			c-1.391-0.412-2.879,0.184-3.602,1.437c-0.725,1.253-0.494,2.84,0.557,3.837l9.664,9.17l-13.316-0.35
			c-1.514-0.051-2.732,0.92-3.107,2.318s0.26,2.871,1.529,3.562l11.711,6.356l-12.957,3.108c-1.406,0.338-2.398,1.596-2.398,3.045
			c0,1.446,0.992,2.706,2.398,3.044l12.957,3.109l-11.711,6.356c-1.27,0.69-1.904,2.162-1.529,3.562
			c0.375,1.397,1.602,2.4,3.107,2.319l13.316-0.35l-9.662,9.168c-1.051,0.998-1.283,2.584-0.557,3.838
			c0.723,1.253,2.215,1.848,3.6,1.436L32.6,98.7l-6.963,11.358c-0.756,1.233-0.568,2.826,0.457,3.85
			c1.021,1.023,2.615,1.213,3.85,0.455l11.357-6.961l-3.785,12.773c-0.41,1.389,0.184,2.877,1.438,3.6
			c1.252,0.725,2.838,0.496,3.838-0.556l9.168-9.663l-0.35,13.317c-0.039,1.446,0.92,2.732,2.318,3.106
			c1.396,0.375,2.871-0.258,3.562-1.53l6.357-11.71l3.107,12.956c0.338,1.407,1.596,2.399,3.045,2.399
			c1.447,0,2.707-0.992,3.045-2.399l3.109-12.957l6.357,11.711c0.557,1.025,1.623,1.638,2.752,1.638
			c1.771-0.052,3.172-1.389,3.172-3.132c0-0.203-0.02-0.401-0.057-0.595l-0.336-12.805l9.166,9.663
			c0.609,0.642,1.438,0.978,2.273,0.978c0.016,0,0.029,0,0.041,0c1.73,0,3.131-1.402,3.131-3.132c0-0.487-0.111-0.949-0.311-1.36
			l-3.645-12.303l11.357,6.961c0.506,0.311,1.072,0.462,1.637,0.462c0.014-0.001,0.027,0,0.041,0c1.73,0,3.133-1.401,3.133-3.132
			c0-0.769-0.277-1.473-0.738-2.019L107.4,98.699l12.773,3.785c0.295,0.088,0.596,0.13,0.891,0.13
			c1.697,0.036,3.174-1.39,3.174-3.132c0-1.047-0.516-1.974-1.305-2.542l-9.379-8.897l13.318,0.35
			c1.494,0.076,2.732-0.922,3.105-2.319c0.375-1.399-0.258-2.871-1.529-3.562l-11.711-6.356l12.957-3.109
			C131.102,72.708,132.094,71.448,132.094,70.001z"/>
	</g>
	<g>
		<path class="st28" d="M60.484,74.16V56.019c0-6.249-3.412-9.833-9.363-9.833c-5.945,0-9.355,3.584-9.355,9.833V74.16
			c0,6.252,3.41,9.838,9.355,9.838C57.072,83.998,60.484,80.412,60.484,74.16z M49.285,55.626c0-2.283,0.947-2.475,1.836-2.475
			c0.912,0,1.844,0.294,1.844,2.475v18.93c0,2.178-0.932,2.471-1.844,2.471c-0.889,0-1.836-0.19-1.836-2.471V55.626z"/>
		<path class="st28" d="M84.037,47.015c-0.186-0.273-0.496-0.438-0.826-0.438h-5.127c-0.41,0-0.779,0.252-0.93,0.634l-21.771,55.216
			c-0.123,0.309-0.084,0.656,0.104,0.93c0.186,0.273,0.494,0.438,0.826,0.438h5.131c0.412,0,0.781-0.251,0.932-0.633l21.766-55.217
			C84.262,47.637,84.223,47.289,84.037,47.015z"/>
		<path class="st28" d="M88.875,66.377c-5.951,0-9.363,3.585-9.363,9.837v18.137c0,6.252,3.412,9.838,9.363,9.838
			c5.947,0,9.359-3.586,9.359-9.838V76.214C98.234,69.962,94.822,66.377,88.875,66.377z M87.037,75.818
			c0-2.279,0.949-2.471,1.838-2.471c0.908,0,1.836,0.293,1.836,2.471v18.93c0,2.18-0.928,2.473-1.836,2.473
			c-0.889,0-1.838-0.19-1.838-2.473V75.818z"/>
	</g>
	<g>
		<g>
			<path class="st101" d="M59.484,68.972V50.832c0-5.68-2.918-8.833-8.363-8.833c-5.441,0-8.355,3.153-8.355,8.833v18.141
				c0,5.683,2.914,8.838,8.355,8.838C56.566,77.81,59.484,74.655,59.484,68.972z M48.285,69.369v-18.93
				c0-2.446,1.023-3.475,2.836-3.475c1.738,0,2.844,1.028,2.844,3.475v18.93c0,2.447-1.105,3.471-2.844,3.471
				C49.309,72.839,48.285,71.816,48.285,69.369z"/>
			<polygon class="st101" points="78.084,42.39 56.312,97.607 61.443,97.607 83.211,42.39 			"/>
			<path class="st101" d="M88.875,62.19c-5.439,0-8.363,3.157-8.363,8.837v18.137c0,5.681,2.924,8.838,8.363,8.838
				s8.359-3.157,8.359-8.838V71.027C97.234,65.347,94.314,62.19,88.875,62.19z M91.711,89.56c0,2.447-1.1,3.473-2.836,3.473
				c-1.82,0-2.838-1.025-2.838-3.473V70.63c0-2.444,1.018-3.471,2.838-3.471c1.736,0,2.836,1.026,2.836,3.471V89.56z"/>
		</g>
	</g>
</g>
</svg>
